<?xml version="1.0" encoding="UTF-8"?>
<svg xmlns="http://www.w3.org/2000/svg" xmlns:xlink="http://www.w3.org/1999/xlink" id="Layer_1" data-name="Layer 1" viewBox="0 0 40.02 55.27">
  <defs>
    <style>
      .cls-1 {
        fill: url(#linear-gradient);
        stroke-width: 0px;
      }

      .cls-2 {
        fill: url(#linear-gradient-2);
        stroke: #fff;
        stroke-miterlimit: 10;
        stroke-width: 2px;
      }
    </style>
    <linearGradient id="linear-gradient" x1="20.01" y1="55.27" x2="20.01" y2="0" gradientUnits="userSpaceOnUse">
      <stop offset=".11" stop-color="#b43225"></stop>
      <stop offset="1" stop-color="#f58849"></stop>
    </linearGradient>
    <linearGradient id="linear-gradient-2" x1="20.01" y1="30.72" x2="20.01" y2="11.61" gradientUnits="userSpaceOnUse">
      <stop offset="0" stop-color="#c6c5c4"></stop>
      <stop offset="1" stop-color="#fff"></stop>
    </linearGradient>
  </defs>
  <path class="cls-1" d="M19.58,55.27c-.46-.38-.99-.71-1.38-1.15-4.62-5.37-8.85-11.02-12.39-17.17-2.05-3.57-3.85-7.27-4.97-11.26C-.82,19.69-.05,14.03,3.42,8.87,6.72,3.97,11.37,1.03,17.25.21c5.75-.8,10.94.67,15.43,4.32,3.96,3.23,6.32,7.43,7.12,12.5.63,3.94-.13,7.69-1.49,11.36-1.83,4.92-4.44,9.42-7.33,13.77-2.79,4.18-5.86,8.15-9.14,11.95-.39.45-.92.77-1.38,1.15h-.86Z"></path>
  <circle class="cls-2" cx="20.01" cy="21.16" r="9.55"></circle>
</svg>
