<?xml version="1.0" encoding="UTF-8"?>
<svg xmlns="http://www.w3.org/2000/svg" id="Layer_2" data-name="Layer 2" viewBox="0 0 455 250">
  <defs>
    <style>
      .cls-1 {
        fill: #c64027;
      }

      .cls-2 {
        stroke-width: 4px;
      }

      .cls-2, .cls-3 {
        fill: none;
        stroke: #000;
        stroke-miterlimit: 10;
      }
    </style>
  </defs>
  <g id="Text">
    <polyline class="cls-2" points="32.3 5.24 4.93 5.24 4.93 63.48"></polyline>
    <polyline class="cls-2" points="177.67 179.97 398.17 179.97 398.17 124.72"></polyline>
    <g>
      <path class="cls-1" d="m47.69,23.31v23.56h-5.45v-9.66h-10.7v9.66h-5.45v-23.56h5.45v9.29h10.7v-9.29h5.45Z"></path>
      <path class="cls-1" d="m64.59,38.52v8.35h-5.45v-8.42l-9.12-15.15h5.79l6.29,10.47,6.29-10.47h5.35l-9.16,15.21Z"></path>
      <path class="cls-1" d="m96.23,31.86c0,5.25-3.94,8.52-10.23,8.52h-4.75v6.5h-5.45v-23.56h10.2c6.29,0,10.23,3.26,10.23,8.55Zm-5.52,0c0-2.59-1.68-4.11-5.02-4.11h-4.44v8.18h4.44c3.33,0,5.02-1.51,5.02-4.07Z"></path>
      <path class="cls-1" d="m118.35,42.49v4.38h-18.24v-23.56h17.81v4.38h-12.39v5.12h10.94v4.24h-10.94v5.45h12.83Z"></path>
      <path class="cls-1" d="m137.71,46.87l-4.54-6.56h-5.02v6.56h-5.45v-23.56h10.2c6.29,0,10.23,3.26,10.23,8.55,0,3.53-1.78,6.13-4.85,7.44l5.29,7.57h-5.86Zm-5.12-19.12h-4.44v8.21h4.44c3.33,0,5.02-1.55,5.02-4.11s-1.68-4.11-5.02-4.11Z"></path>
      <path class="cls-1" d="m162.95,41.82h-10.94l-2.09,5.05h-5.59l10.5-23.56h5.39l10.54,23.56h-5.72l-2.09-5.05Zm-1.72-4.14l-3.74-9.02-3.74,9.02h7.47Z"></path>
      <path class="cls-1" d="m172.51,36.5v-13.19h5.45v12.99c0,4.48,1.95,6.33,5.25,6.33s5.25-1.85,5.25-6.33v-12.99h5.39v13.19c0,6.93-3.97,10.77-10.67,10.77s-10.67-3.84-10.67-10.77Z"></path>
      <path class="cls-1" d="m203.72,27.75h-7.54v-4.44h20.53v4.44h-7.54v19.12h-5.45v-19.12Z"></path>
      <path class="cls-1" d="m217.83,35.09c0-7,5.45-12.19,12.89-12.19s12.89,5.15,12.89,12.19-5.49,12.18-12.89,12.18-12.89-5.18-12.89-12.18Zm20.26,0c0-4.48-3.16-7.54-7.37-7.54s-7.37,3.06-7.37,7.54,3.16,7.54,7.37,7.54,7.37-3.06,7.37-7.54Z"></path>
      <path class="cls-1" d="m269.16,46.87l-.03-14.14-6.93,11.65h-2.46l-6.9-11.34v13.83h-5.12v-23.56h4.51l8.82,14.64,8.68-14.64h4.48l.07,23.56h-5.12Z"></path>
      <path class="cls-1" d="m295.39,41.82h-10.94l-2.09,5.05h-5.59l10.5-23.56h5.39l10.54,23.56h-5.72l-2.09-5.05Zm-1.72-4.14l-3.74-9.02-3.74,9.02h7.47Z"></path>
      <path class="cls-1" d="m309.36,27.75h-7.54v-4.44h20.53v4.44h-7.54v19.12h-5.45v-19.12Z"></path>
      <path class="cls-1" d="m325.28,23.31h5.45v23.56h-5.45v-23.56Z"></path>
      <path class="cls-1" d="m334.84,35.09c0-7,5.45-12.19,12.89-12.19s12.89,5.15,12.89,12.19-5.49,12.18-12.89,12.18-12.89-5.18-12.89-12.18Zm20.26,0c0-4.48-3.16-7.54-7.37-7.54s-7.37,3.06-7.37,7.54,3.16,7.54,7.37,7.54,7.37-3.06,7.37-7.54Z"></path>
      <path class="cls-1" d="m386.35,23.31v23.56h-4.48l-11.75-14.31v14.31h-5.39v-23.56h4.51l11.71,14.31v-14.31h5.39Z"></path>
    </g>
    <g>
      <path d="m39,65.47c1.22.9,2.08,2.15,2.58,3.73h-1.63c-.41-1.12-1.09-2-2.05-2.66s-2.14-.99-3.54-.99c-1.07,0-2.04.26-2.92.79s-1.56,1.28-2.06,2.27-.75,2.13-.75,3.43.25,2.45.75,3.42c.5.98,1.19,1.73,2.06,2.26s1.85.79,2.92.79c1.41,0,2.59-.33,3.54-.99.95-.66,1.64-1.55,2.05-2.66h1.63c-.5,1.59-1.36,2.83-2.58,3.73-1.22.9-2.76,1.35-4.62,1.35-1.42,0-2.69-.34-3.81-1.01-1.12-.67-1.98-1.61-2.6-2.81-.62-1.2-.92-2.56-.92-4.08s.31-2.91.92-4.12c.62-1.2,1.48-2.14,2.6-2.81s2.38-1,3.81-1c1.86,0,3.4.45,4.62,1.35Z"></path>
      <path d="m52.9,68.36c.9.49,1.61,1.2,2.12,2.13.51.93.77,2.03.77,3.29s-.26,2.36-.77,3.28-1.22,1.64-2.12,2.14c-.9.5-1.93.75-3.07.75s-2.17-.25-3.08-.75c-.91-.5-1.63-1.21-2.15-2.15-.52-.93-.78-2.02-.78-3.27s.26-2.36.78-3.29c.52-.93,1.24-1.64,2.15-2.13.91-.49,1.94-.74,3.08-.74s2.17.25,3.07.74Zm-5.27,1.13c-.67.35-1.22.89-1.63,1.62s-.62,1.62-.62,2.67.21,1.94.62,2.66c.41.72.95,1.25,1.63,1.61.67.35,1.41.53,2.2.53s1.5-.18,2.17-.53c.67-.35,1.21-.89,1.62-1.61.41-.72.62-1.61.62-2.66s-.21-1.95-.62-2.67-.95-1.27-1.62-1.62c-.67-.35-1.39-.53-2.17-.53s-1.53.18-2.2.53Z"></path>
      <path d="m76.52,68.89c.86.89,1.29,2.19,1.29,3.91v7h-1.54v-6.89c0-1.29-.31-2.28-.94-2.97-.62-.69-1.48-1.04-2.57-1.04-1.16,0-2.08.38-2.77,1.14-.69.76-1.04,1.89-1.04,3.37v6.38h-1.52v-6.89c0-1.29-.31-2.28-.94-2.97-.62-.69-1.48-1.04-2.56-1.04-1.16,0-2.08.38-2.77,1.14-.69.76-1.04,1.89-1.04,3.37v6.38h-1.56v-12.02h1.56v2.86c.29-1.01.83-1.78,1.6-2.3.77-.52,1.66-.78,2.67-.78s1.97.28,2.73.84c.76.56,1.29,1.38,1.58,2.46.32-1.07.89-1.89,1.7-2.45.81-.57,1.72-.85,2.75-.85,1.38,0,2.5.44,3.36,1.33Z"></path>
      <path d="m90.39,68.36c.84.49,1.5,1.2,1.98,2.13.48.93.72,2.03.72,3.29s-.24,2.34-.72,3.27c-.48.93-1.14,1.65-1.99,2.15-.85.5-1.82.75-2.91.75-1.23,0-2.28-.32-3.13-.95-.85-.63-1.44-1.47-1.76-2.51v8.98h-1.54v-17.7h1.54v3.3c.32-1.04.91-1.88,1.76-2.51.85-.63,1.89-.95,3.13-.95,1.1,0,2.07.25,2.92.74Zm-5.64,1.22c-.68.4-1.21.96-1.6,1.68-.38.73-.57,1.57-.57,2.52s.19,1.79.57,2.52c.38.73.91,1.29,1.6,1.68.68.4,1.45.59,2.3.59,1.37,0,2.45-.43,3.26-1.29.81-.86,1.21-2.03,1.21-3.51s-.4-2.65-1.21-3.51c-.81-.86-1.89-1.29-3.26-1.29-.85,0-1.62.2-2.3.59Z"></path>
      <path d="m99.12,68.26c.78-.47,1.72-.7,2.84-.7v1.67h-.51c-1.16,0-2.12.31-2.88.94-.76.62-1.14,1.64-1.14,3.05v6.58h-1.56v-12.02h1.56v2.49c.35-.87.92-1.53,1.7-2Z"></path>
      <path d="m111.98,77.86c.73-.54,1.17-1.28,1.32-2.2h1.63c-.22,1.28-.83,2.31-1.83,3.1-1,.79-2.26,1.19-3.79,1.19-1.14,0-2.16-.25-3.05-.74s-1.58-1.2-2.08-2.14c-.5-.93-.75-2.03-.75-3.29s.25-2.36.75-3.29c.5-.93,1.19-1.64,2.08-2.13.89-.49,1.9-.74,3.05-.74s2.19.25,3.05.74c.86.49,1.51,1.15,1.96,1.97.45.82.67,1.72.67,2.69,0,.41-.03.79-.09,1.12h-9.95c.01,1.01.22,1.86.63,2.54s.93,1.19,1.57,1.51c.65.32,1.34.48,2.09.48,1.09,0,2-.27,2.73-.82Zm-4.8-8.5c-.65.32-1.17.82-1.57,1.49-.4.67-.62,1.5-.65,2.5h8.5c.06-.98-.1-1.81-.48-2.49-.38-.67-.9-1.17-1.54-1.5-.65-.32-1.35-.48-2.11-.48s-1.49.16-2.13.48Z"></path>
      <path d="m127.18,68.89c.87.89,1.31,2.19,1.31,3.91v7h-1.52v-6.89c0-1.31-.33-2.31-.99-3-.66-.7-1.56-1.05-2.71-1.05-1.2,0-2.16.38-2.87,1.16-.71.77-1.07,1.91-1.07,3.4v6.38h-1.56v-16.29h1.56v7.22c.31-1.03.87-1.81,1.67-2.36.81-.54,1.73-.81,2.77-.81,1.39,0,2.53.44,3.4,1.33Z"></path>
      <path d="m139.72,77.86c.73-.54,1.17-1.28,1.32-2.2h1.63c-.22,1.28-.83,2.31-1.83,3.1-1,.79-2.26,1.19-3.79,1.19-1.14,0-2.16-.25-3.05-.74s-1.58-1.2-2.08-2.14c-.5-.93-.75-2.03-.75-3.29s.25-2.36.75-3.29c.5-.93,1.19-1.64,2.08-2.13.89-.49,1.9-.74,3.05-.74s2.19.25,3.05.74c.86.49,1.51,1.15,1.96,1.97.45.82.67,1.72.67,2.69,0,.41-.03.79-.09,1.12h-9.95c.01,1.01.22,1.86.63,2.54s.93,1.19,1.57,1.51c.65.32,1.34.48,2.09.48,1.09,0,2-.27,2.73-.82Zm-4.8-8.5c-.65.32-1.17.82-1.57,1.49-.4.67-.62,1.5-.65,2.5h8.5c.06-.98-.1-1.81-.48-2.49-.38-.67-.9-1.17-1.54-1.5-.65-.32-1.35-.48-2.11-.48s-1.49.16-2.13.48Z"></path>
      <path d="m154.92,68.89c.87.89,1.31,2.19,1.31,3.91v7h-1.52v-6.89c0-1.31-.33-2.31-.99-3-.66-.7-1.56-1.05-2.71-1.05-1.2,0-2.16.38-2.87,1.16-.71.77-1.07,1.91-1.07,3.4v6.38h-1.56v-12.02h1.56v2.95c.31-1.03.87-1.81,1.67-2.36.81-.54,1.73-.81,2.77-.81,1.39,0,2.53.44,3.4,1.33Z"></path>
      <path d="m166.27,68.65c.79.69,1.28,1.62,1.45,2.8h-1.48c-.09-.78-.41-1.42-.96-1.93-.55-.51-1.29-.76-2.21-.76-.79,0-1.41.19-1.86.58-.45.39-.67.91-.67,1.55,0,.48.14.87.43,1.17.29.29.64.52,1.07.67s1,.31,1.72.47c.88.21,1.59.41,2.12.63.54.21.99.55,1.38,1s.57,1.07.57,1.85c0,.95-.36,1.74-1.07,2.34-.71.61-1.66.91-2.83.91-1.38,0-2.51-.34-3.39-1.02-.88-.68-1.4-1.62-1.56-2.81h1.5c.09.79.43,1.44,1.03,1.94.6.5,1.42.75,2.44.75.76,0,1.36-.2,1.78-.59s.64-.91.64-1.54c0-.51-.15-.92-.44-1.23-.29-.31-.66-.54-1.09-.69-.43-.15-1.02-.32-1.77-.5-.87-.21-1.56-.41-2.08-.62-.52-.21-.97-.52-1.33-.96-.37-.43-.55-1.02-.55-1.77,0-.98.36-1.78,1.08-2.38.72-.6,1.7-.9,2.93-.9,1.31,0,2.36.35,3.15,1.04Z"></path>
      <path d="m170.61,63.44c.21-.19.49-.29.83-.29s.61.1.81.29c.21.19.31.45.31.77s-.1.56-.31.75c-.21.19-.48.29-.81.29s-.61-.1-.83-.29c-.21-.19-.32-.44-.32-.75s.11-.58.32-.77Zm1.6,4.34v12.02h-1.56v-12.02h1.56Z"></path>
      <path d="m180,78.05l4.03-10.28h1.67l-4.84,12.02h-1.76l-4.84-12.02h1.67l4.07,10.28Z"></path>
      <path d="m195.72,77.86c.73-.54,1.17-1.28,1.32-2.2h1.63c-.22,1.28-.83,2.31-1.83,3.1-1,.79-2.26,1.19-3.79,1.19-1.14,0-2.16-.25-3.05-.74s-1.58-1.2-2.08-2.14c-.5-.93-.75-2.03-.75-3.29s.25-2.36.75-3.29c.5-.93,1.19-1.64,2.08-2.13.89-.49,1.9-.74,3.05-.74s2.19.25,3.05.74c.86.49,1.51,1.15,1.96,1.97.45.82.67,1.72.67,2.69,0,.41-.03.79-.09,1.12h-9.95c.01,1.01.22,1.86.63,2.54s.93,1.19,1.57,1.51c.65.32,1.34.48,2.09.48,1.09,0,2-.27,2.73-.82Zm-4.8-8.5c-.65.32-1.17.82-1.57,1.49-.4.67-.62,1.5-.65,2.5h8.5c.06-.98-.1-1.81-.48-2.49-.38-.67-.9-1.17-1.54-1.5-.65-.32-1.35-.48-2.11-.48s-1.49.16-2.13.48Z"></path>
      <path d="m214.02,68.65c.79.69,1.28,1.62,1.45,2.8h-1.48c-.09-.78-.41-1.42-.96-1.93-.55-.51-1.29-.76-2.21-.76-.79,0-1.41.19-1.86.58-.45.39-.67.91-.67,1.55,0,.48.14.87.43,1.17.29.29.64.52,1.07.67s1,.31,1.72.47c.88.21,1.59.41,2.12.63.54.21.99.55,1.38,1s.57,1.07.57,1.85c0,.95-.36,1.74-1.07,2.34-.71.61-1.66.91-2.83.91-1.38,0-2.51-.34-3.39-1.02-.88-.68-1.4-1.62-1.56-2.81h1.5c.09.79.43,1.44,1.03,1.94.6.5,1.42.75,2.44.75.76,0,1.36-.2,1.78-.59s.64-.91.64-1.54c0-.51-.15-.92-.44-1.23-.29-.31-.66-.54-1.09-.69-.43-.15-1.02-.32-1.77-.5-.87-.21-1.56-.41-2.08-.62-.52-.21-.97-.52-1.33-.96-.37-.43-.55-1.02-.55-1.77,0-.98.36-1.78,1.08-2.38.72-.6,1.7-.9,2.93-.9,1.31,0,2.36.35,3.15,1.04Z"></path>
      <path d="m228.77,67.77v12.02h-1.54v-2.97c-.31,1.04-.87,1.83-1.67,2.38-.81.54-1.73.81-2.77.81-1.41,0-2.55-.44-3.42-1.33s-1.31-2.19-1.31-3.91v-7h1.54v6.87c0,1.32.33,2.33.99,3.03s1.56,1.05,2.71,1.05c1.2,0,2.16-.39,2.87-1.16s1.07-1.9,1.07-3.4v-6.38h1.54Z"></path>
      <path d="m232.1,63.44c.21-.19.49-.29.83-.29s.61.1.81.29c.21.19.31.45.31.77s-.1.56-.31.75c-.21.19-.48.29-.81.29s-.61-.1-.83-.29c-.21-.19-.32-.44-.32-.75s.11-.58.32-.77Zm1.6,4.34v12.02h-1.56v-12.02h1.56Z"></path>
      <path d="m242.5,78.43v1.36h-1.43c-1.16,0-2.03-.28-2.6-.83-.57-.55-.86-1.48-.86-2.79v-7.07h-1.83v-1.34h1.83v-3.04h1.56v3.04h3.3v1.34h-3.3v7.09c0,.85.15,1.43.46,1.75.31.32.85.47,1.63.47h1.23Z"></path>
      <path d="m253,77.86c.73-.54,1.17-1.28,1.32-2.2h1.63c-.22,1.28-.83,2.31-1.83,3.1-1,.79-2.26,1.19-3.79,1.19-1.14,0-2.16-.25-3.05-.74s-1.58-1.2-2.08-2.14c-.5-.93-.75-2.03-.75-3.29s.25-2.36.75-3.29c.5-.93,1.19-1.64,2.08-2.13.89-.49,1.9-.74,3.05-.74s2.19.25,3.05.74c.86.49,1.51,1.15,1.96,1.97.45.82.67,1.72.67,2.69,0,.41-.03.79-.09,1.12h-9.95c.01,1.01.22,1.86.63,2.54s.93,1.19,1.57,1.51c.65.32,1.34.48,2.09.48,1.09,0,2-.27,2.73-.82Zm-4.8-8.5c-.65.32-1.17.82-1.57,1.49-.4.67-.62,1.5-.65,2.5h8.5c.06-.98-.1-1.81-.48-2.49-.38-.67-.9-1.17-1.54-1.5-.65-.32-1.35-.48-2.11-.48s-1.49.16-2.13.48Z"></path>
      <path d="m273.03,68.36c.9.49,1.61,1.2,2.12,2.13.51.93.77,2.03.77,3.29s-.26,2.36-.77,3.28-1.22,1.64-2.12,2.14c-.9.5-1.93.75-3.07.75s-2.17-.25-3.08-.75c-.91-.5-1.63-1.21-2.15-2.15-.52-.93-.78-2.02-.78-3.27s.26-2.36.78-3.29c.52-.93,1.24-1.64,2.15-2.13.91-.49,1.94-.74,3.08-.74s2.17.25,3.07.74Zm-5.27,1.13c-.67.35-1.22.89-1.63,1.62s-.62,1.62-.62,2.67.21,1.94.62,2.66c.41.72.95,1.25,1.63,1.61.67.35,1.41.53,2.2.53s1.5-.18,2.17-.53c.67-.35,1.21-.89,1.62-1.61.41-.72.62-1.61.62-2.66s-.21-1.95-.62-2.67-.95-1.27-1.62-1.62c-.67-.35-1.39-.53-2.17-.53s-1.53.18-2.2.53Z"></path>
      <path d="m281.42,65.19c-.45.42-.67,1.12-.67,2.1v.48h3.02v1.37h-3.02v10.66h-1.54v-10.66h-1.78v-1.37h1.78v-.59c0-1.35.37-2.36,1.1-3.04.73-.68,1.89-.98,3.46-.92v1.36c-1.12-.01-1.9.19-2.34.61Z"></path>
      <path d="m35.73,95.94c.86.63,1.45,1.47,1.77,2.51v-3.3h1.52v12.02h-1.52v-3.3c-.32,1.04-.91,1.88-1.77,2.51-.86.63-1.9.95-3.12.95-1.09,0-2.06-.25-2.92-.75-.86-.5-1.53-1.21-2-2.15-.48-.93-.72-2.02-.72-3.27s.24-2.36.72-3.29c.48-.93,1.14-1.64,1.99-2.13.85-.49,1.83-.74,2.93-.74,1.22,0,2.26.32,3.12.95Zm-5.97,1.71c-.81.86-1.22,2.03-1.22,3.51s.41,2.65,1.22,3.51c.81.86,1.9,1.29,3.25,1.29.85,0,1.62-.2,2.3-.59.68-.4,1.22-.96,1.61-1.68.39-.73.58-1.57.58-2.52s-.19-1.79-.58-2.52c-.39-.73-.92-1.29-1.61-1.68s-1.45-.59-2.3-.59c-1.35,0-2.43.43-3.25,1.29Z"></path>
      <path d="m52.73,95.15v12.02h-1.54v-2.97c-.31,1.04-.87,1.83-1.67,2.38-.81.54-1.73.81-2.77.81-1.41,0-2.55-.44-3.42-1.33s-1.31-2.19-1.31-3.91v-7h1.54v6.87c0,1.32.33,2.33.99,3.03s1.56,1.05,2.71,1.05c1.2,0,2.16-.39,2.87-1.16s1.07-1.9,1.07-3.4v-6.38h1.54Z"></path>
      <path d="m61.56,105.81v1.36h-1.43c-1.16,0-2.03-.28-2.6-.83-.57-.55-.86-1.48-.86-2.79v-7.07h-1.83v-1.34h1.83v-3.04h1.56v3.04h3.3v1.34h-3.3v7.09c0,.85.15,1.43.46,1.75.31.32.85.47,1.63.47h1.23Z"></path>
      <path d="m72.6,95.73c.9.49,1.61,1.2,2.12,2.13.51.93.77,2.03.77,3.29s-.26,2.36-.77,3.28-1.22,1.64-2.12,2.14c-.9.5-1.93.75-3.07.75s-2.17-.25-3.08-.75c-.91-.5-1.63-1.21-2.15-2.15-.52-.93-.78-2.02-.78-3.27s.26-2.36.78-3.29c.52-.93,1.24-1.64,2.15-2.13.91-.49,1.94-.74,3.08-.74s2.17.25,3.07.74Zm-5.27,1.13c-.67.35-1.22.89-1.63,1.62s-.62,1.62-.62,2.67.21,1.94.62,2.66c.41.72.95,1.25,1.63,1.61.67.35,1.41.53,2.2.53s1.5-.18,2.17-.53c.67-.35,1.21-.89,1.62-1.61.41-.72.62-1.61.62-2.66s-.21-1.95-.62-2.67-.95-1.27-1.62-1.62c-.67-.35-1.39-.53-2.17-.53s-1.53.18-2.2.53Z"></path>
      <path d="m96.22,96.26c.86.89,1.29,2.19,1.29,3.91v7h-1.54v-6.89c0-1.29-.31-2.28-.94-2.97-.62-.69-1.48-1.04-2.57-1.04-1.16,0-2.08.38-2.77,1.14-.69.76-1.04,1.89-1.04,3.37v6.38h-1.52v-6.89c0-1.29-.31-2.28-.94-2.97-.62-.69-1.48-1.04-2.56-1.04-1.16,0-2.08.38-2.77,1.14-.69.76-1.04,1.89-1.04,3.37v6.38h-1.56v-12.02h1.56v2.86c.29-1.01.83-1.78,1.6-2.3.77-.52,1.66-.78,2.67-.78s1.97.28,2.73.84c.76.56,1.29,1.38,1.58,2.46.32-1.07.89-1.89,1.7-2.45.81-.57,1.72-.85,2.75-.85,1.38,0,2.5.44,3.36,1.33Z"></path>
      <path d="m108.93,95.94c.86.63,1.45,1.47,1.77,2.51v-3.3h1.52v12.02h-1.52v-3.3c-.32,1.04-.91,1.88-1.77,2.51-.86.63-1.9.95-3.12.95-1.09,0-2.06-.25-2.92-.75-.86-.5-1.53-1.21-2-2.15-.48-.93-.72-2.02-.72-3.27s.24-2.36.72-3.29c.48-.93,1.14-1.64,1.99-2.13.85-.49,1.83-.74,2.93-.74,1.22,0,2.26.32,3.12.95Zm-5.97,1.71c-.81.86-1.22,2.03-1.22,3.51s.41,2.65,1.22,3.51c.81.86,1.9,1.29,3.25,1.29.85,0,1.62-.2,2.3-.59.68-.4,1.22-.96,1.61-1.68.39-.73.58-1.57.58-2.52s-.19-1.79-.58-2.52c-.39-.73-.92-1.29-1.61-1.68s-1.45-.59-2.3-.59c-1.35,0-2.43.43-3.25,1.29Z"></path>
      <path d="m121.02,105.81v1.36h-1.43c-1.16,0-2.03-.28-2.6-.83-.57-.55-.86-1.48-.86-2.79v-7.07h-1.83v-1.34h1.83v-3.04h1.56v3.04h3.3v1.34h-3.3v7.09c0,.85.15,1.43.46,1.75.31.32.85.47,1.63.47h1.23Z"></path>
      <path d="m123.52,90.81c.21-.19.49-.29.83-.29s.61.1.81.29c.21.19.31.45.31.77s-.1.56-.31.75c-.21.19-.48.29-.81.29s-.61-.1-.83-.29c-.21-.19-.32-.44-.32-.75s.11-.58.32-.77Zm1.6,4.34v12.02h-1.56v-12.02h1.56Z"></path>
      <path d="m136.97,95.73c.9.49,1.61,1.2,2.12,2.13.51.93.77,2.03.77,3.29s-.26,2.36-.77,3.28-1.22,1.64-2.12,2.14c-.9.5-1.93.75-3.07.75s-2.17-.25-3.08-.75c-.91-.5-1.63-1.21-2.15-2.15-.52-.93-.78-2.02-.78-3.27s.26-2.36.78-3.29c.52-.93,1.24-1.64,2.15-2.13.91-.49,1.94-.74,3.08-.74s2.17.25,3.07.74Zm-5.27,1.13c-.67.35-1.22.89-1.63,1.62s-.62,1.62-.62,2.67.21,1.94.62,2.66c.41.72.95,1.25,1.63,1.61.67.35,1.41.53,2.2.53s1.5-.18,2.17-.53c.67-.35,1.21-.89,1.62-1.61.41-.72.62-1.61.62-2.66s-.21-1.95-.62-2.67-.95-1.27-1.62-1.62c-.67-.35-1.39-.53-2.17-.53s-1.53.18-2.2.53Z"></path>
      <path d="m152.05,96.26c.87.89,1.31,2.19,1.31,3.91v7h-1.52v-6.89c0-1.31-.33-2.31-.99-3-.66-.7-1.56-1.05-2.71-1.05-1.2,0-2.16.38-2.87,1.16-.71.77-1.07,1.91-1.07,3.4v6.38h-1.56v-12.02h1.56v2.95c.31-1.03.87-1.81,1.67-2.36.81-.54,1.73-.81,2.77-.81,1.39,0,2.53.44,3.4,1.33Z"></path>
      <path d="m169.13,96.03c.79.69,1.28,1.62,1.45,2.8h-1.48c-.09-.78-.41-1.42-.96-1.93-.55-.51-1.29-.76-2.21-.76-.79,0-1.41.19-1.86.58-.45.39-.67.91-.67,1.55,0,.48.14.87.43,1.17.29.29.64.52,1.07.67s1,.31,1.72.47c.88.21,1.59.41,2.12.63.54.21.99.55,1.38,1s.57,1.07.57,1.85c0,.95-.36,1.74-1.07,2.34-.71.61-1.66.91-2.83.91-1.38,0-2.51-.34-3.39-1.02-.88-.68-1.4-1.62-1.56-2.81h1.5c.09.79.43,1.44,1.03,1.94.6.5,1.42.75,2.44.75.76,0,1.36-.2,1.78-.59s.64-.91.64-1.54c0-.51-.15-.92-.44-1.23-.29-.31-.66-.54-1.09-.69-.43-.15-1.02-.32-1.77-.5-.87-.21-1.56-.41-2.08-.62-.52-.21-.97-.52-1.33-.96-.37-.43-.55-1.02-.55-1.77,0-.98.36-1.78,1.08-2.38.72-.6,1.7-.9,2.93-.9,1.31,0,2.36.35,3.15,1.04Z"></path>
      <path d="m181.48,105.23c.73-.54,1.17-1.28,1.32-2.2h1.63c-.22,1.28-.83,2.31-1.83,3.1-1,.79-2.26,1.19-3.79,1.19-1.14,0-2.16-.25-3.05-.74s-1.58-1.2-2.08-2.14c-.5-.93-.75-2.03-.75-3.29s.25-2.36.75-3.29c.5-.93,1.19-1.64,2.08-2.13.89-.49,1.9-.74,3.05-.74s2.19.25,3.05.74c.86.49,1.51,1.15,1.96,1.97.45.82.67,1.72.67,2.69,0,.41-.03.79-.09,1.12h-9.95c.01,1.01.22,1.86.63,2.54s.93,1.19,1.57,1.51c.65.32,1.34.48,2.09.48,1.09,0,2-.27,2.73-.82Zm-4.8-8.5c-.65.32-1.17.82-1.57,1.49-.4.67-.62,1.5-.65,2.5h8.5c.06-.98-.1-1.81-.48-2.49-.38-.67-.9-1.17-1.54-1.5-.65-.32-1.35-.48-2.11-.48s-1.49.16-2.13.48Z"></path>
      <path d="m190.53,95.63c.78-.47,1.72-.7,2.84-.7v1.67h-.51c-1.16,0-2.12.31-2.88.94-.76.62-1.14,1.64-1.14,3.05v6.58h-1.56v-12.02h1.56v2.49c.35-.87.92-1.53,1.7-2Z"></path>
      <path d="m199.86,105.43l4.03-10.28h1.67l-4.84,12.02h-1.76l-4.84-12.02h1.67l4.07,10.28Z"></path>
      <path d="m207.58,90.81c.21-.19.49-.29.83-.29s.61.1.81.29c.21.19.31.45.31.77s-.1.56-.31.75c-.21.19-.48.29-.81.29s-.61-.1-.83-.29c-.21-.19-.32-.44-.32-.75s.11-.58.32-.77Zm1.6,4.34v12.02h-1.56v-12.02h1.56Z"></path>
      <path d="m221.62,96.21c1,.81,1.62,1.88,1.84,3.21h-1.61c-.16-.95-.61-1.71-1.34-2.26-.73-.55-1.64-.83-2.71-.83-.78,0-1.49.18-2.15.53-.65.35-1.17.89-1.56,1.62s-.58,1.62-.58,2.67.19,1.95.58,2.67.91,1.27,1.56,1.62c.65.35,1.37.53,2.15.53,1.07,0,1.97-.28,2.71-.83.73-.55,1.18-1.3,1.34-2.26h1.61c-.22,1.34-.83,2.41-1.84,3.21-1,.81-2.27,1.21-3.8,1.21-1.14,0-2.16-.25-3.05-.74s-1.58-1.2-2.08-2.14c-.5-.93-.75-2.03-.75-3.29s.25-2.36.75-3.29c.5-.93,1.19-1.64,2.08-2.13.89-.49,1.9-.74,3.05-.74,1.53,0,2.79.4,3.8,1.21Z"></path>
      <path d="m234.2,105.23c.73-.54,1.17-1.28,1.32-2.2h1.63c-.22,1.28-.83,2.31-1.83,3.1-1,.79-2.26,1.19-3.79,1.19-1.14,0-2.16-.25-3.05-.74s-1.58-1.2-2.08-2.14c-.5-.93-.75-2.03-.75-3.29s.25-2.36.75-3.29c.5-.93,1.19-1.64,2.08-2.13.89-.49,1.9-.74,3.05-.74s2.19.25,3.05.74c.86.49,1.51,1.15,1.96,1.97.45.82.67,1.72.67,2.69,0,.41-.03.79-.09,1.12h-9.95c.01,1.01.22,1.86.63,2.54s.93,1.19,1.57,1.51c.65.32,1.34.48,2.09.48,1.09,0,2-.27,2.73-.82Zm-4.8-8.5c-.65.32-1.17.82-1.57,1.49-.4.67-.62,1.5-.65,2.5h8.5c.06-.98-.1-1.81-.48-2.49-.38-.67-.9-1.17-1.54-1.5-.65-.32-1.35-.48-2.11-.48s-1.49.16-2.13.48Z"></path>
      <path d="m246.77,96.03c.79.69,1.28,1.62,1.45,2.8h-1.48c-.09-.78-.41-1.42-.96-1.93-.55-.51-1.29-.76-2.21-.76-.79,0-1.41.19-1.86.58-.45.39-.67.91-.67,1.55,0,.48.14.87.43,1.17.29.29.64.52,1.07.67s1,.31,1.72.47c.88.21,1.59.41,2.12.63.54.21.99.55,1.38,1s.57,1.07.57,1.85c0,.95-.36,1.74-1.07,2.34-.71.61-1.66.91-2.83.91-1.38,0-2.51-.34-3.39-1.02-.88-.68-1.4-1.62-1.56-2.81h1.5c.09.79.43,1.44,1.03,1.94.6.5,1.42.75,2.44.75.76,0,1.36-.2,1.78-.59s.64-.91.64-1.54c0-.51-.15-.92-.44-1.23-.29-.31-.66-.54-1.09-.69-.43-.15-1.02-.32-1.77-.5-.87-.21-1.56-.41-2.08-.62-.52-.21-.97-.52-1.33-.96-.37-.43-.55-1.02-.55-1.77,0-.98.36-1.78,1.08-2.38.72-.6,1.7-.9,2.93-.9,1.31,0,2.36.35,3.15,1.04Z"></path>
      <path d="m266.29,96.26c.87.89,1.31,2.19,1.31,3.91v7h-1.52v-6.89c0-1.31-.33-2.31-.99-3-.66-.7-1.56-1.05-2.71-1.05-1.2,0-2.16.38-2.87,1.16-.71.77-1.07,1.91-1.07,3.4v6.38h-1.56v-16.29h1.56v7.22c.31-1.03.87-1.81,1.67-2.36.81-.54,1.73-.81,2.77-.81,1.39,0,2.53.44,3.4,1.33Z"></path>
      <path d="m279.04,95.94c.86.63,1.45,1.47,1.77,2.51v-3.3h1.52v12.02h-1.52v-3.3c-.32,1.04-.91,1.88-1.77,2.51-.86.63-1.9.95-3.12.95-1.09,0-2.06-.25-2.92-.75-.86-.5-1.53-1.21-2-2.15-.48-.93-.72-2.02-.72-3.27s.24-2.36.72-3.29c.48-.93,1.14-1.64,1.99-2.13.85-.49,1.83-.74,2.93-.74,1.22,0,2.26.32,3.12.95Zm-5.97,1.71c-.81.86-1.22,2.03-1.22,3.51s.41,2.65,1.22,3.51c.81.86,1.9,1.29,3.25,1.29.85,0,1.62-.2,2.3-.59.68-.4,1.22-.96,1.61-1.68.39-.73.58-1.57.58-2.52s-.19-1.79-.58-2.52c-.39-.73-.92-1.29-1.61-1.68s-1.45-.59-2.3-.59c-1.35,0-2.43.43-3.25,1.29Z"></path>
      <path d="m288.93,95.63c.78-.47,1.72-.7,2.84-.7v1.67h-.51c-1.16,0-2.12.31-2.88.94-.76.62-1.14,1.64-1.14,3.05v6.58h-1.56v-12.02h1.56v2.49c.35-.87.92-1.53,1.7-2Z"></path>
      <path d="m303.23,96.26c.87.89,1.31,2.19,1.31,3.91v7h-1.52v-6.89c0-1.31-.33-2.31-.99-3-.66-.7-1.56-1.05-2.71-1.05-1.2,0-2.16.38-2.87,1.16-.71.77-1.07,1.91-1.07,3.4v6.38h-1.56v-12.02h1.56v2.95c.31-1.03.87-1.81,1.67-2.36.81-.54,1.73-.81,2.77-.81,1.39,0,2.53.44,3.4,1.33Z"></path>
      <path d="m315.77,105.23c.73-.54,1.17-1.28,1.32-2.2h1.63c-.22,1.28-.83,2.31-1.83,3.1-1,.79-2.26,1.19-3.79,1.19-1.14,0-2.16-.25-3.05-.74s-1.58-1.2-2.08-2.14c-.5-.93-.75-2.03-.75-3.29s.25-2.36.75-3.29c.5-.93,1.19-1.64,2.08-2.13.89-.49,1.9-.74,3.05-.74s2.19.25,3.05.74c.86.49,1.51,1.15,1.96,1.97.45.82.67,1.72.67,2.69,0,.41-.03.79-.09,1.12h-9.95c.01,1.01.22,1.86.63,2.54s.93,1.19,1.57,1.51c.65.32,1.34.48,2.09.48,1.09,0,2-.27,2.73-.82Zm-4.8-8.5c-.65.32-1.17.82-1.57,1.49-.4.67-.62,1.5-.65,2.5h8.5c.06-.98-.1-1.81-.48-2.49-.38-.67-.9-1.17-1.54-1.5-.65-.32-1.35-.48-2.11-.48s-1.49.16-2.13.48Z"></path>
      <path d="m328.34,96.03c.79.69,1.28,1.62,1.45,2.8h-1.48c-.09-.78-.41-1.42-.96-1.93-.55-.51-1.29-.76-2.21-.76-.79,0-1.41.19-1.86.58-.45.39-.67.91-.67,1.55,0,.48.14.87.43,1.17.29.29.64.52,1.07.67s1,.31,1.72.47c.88.21,1.59.41,2.12.63.54.21.99.55,1.38,1s.57,1.07.57,1.85c0,.95-.36,1.74-1.07,2.34-.71.61-1.66.91-2.83.91-1.38,0-2.51-.34-3.39-1.02-.88-.68-1.4-1.62-1.56-2.81h1.5c.09.79.43,1.44,1.03,1.94.6.5,1.42.75,2.44.75.76,0,1.36-.2,1.78-.59s.64-.91.64-1.54c0-.51-.15-.92-.44-1.23-.29-.31-.66-.54-1.09-.69-.43-.15-1.02-.32-1.77-.5-.87-.21-1.56-.41-2.08-.62-.52-.21-.97-.52-1.33-.96-.37-.43-.55-1.02-.55-1.77,0-.98.36-1.78,1.08-2.38.72-.6,1.7-.9,2.93-.9,1.31,0,2.36.35,3.15,1.04Z"></path>
      <path d="m339.5,96.03c.79.69,1.28,1.62,1.45,2.8h-1.48c-.09-.78-.41-1.42-.96-1.93-.55-.51-1.29-.76-2.21-.76-.79,0-1.41.19-1.86.58-.45.39-.67.91-.67,1.55,0,.48.14.87.43,1.17.29.29.64.52,1.07.67s1,.31,1.72.47c.88.21,1.59.41,2.12.63.54.21.99.55,1.38,1s.57,1.07.57,1.85c0,.95-.36,1.74-1.07,2.34-.71.61-1.66.91-2.83.91-1.38,0-2.51-.34-3.39-1.02-.88-.68-1.4-1.62-1.56-2.81h1.5c.09.79.43,1.44,1.03,1.94.6.5,1.42.75,2.44.75.76,0,1.36-.2,1.78-.59s.64-.91.64-1.54c0-.51-.15-.92-.44-1.23-.29-.31-.66-.54-1.09-.69-.43-.15-1.02-.32-1.77-.5-.87-.21-1.56-.41-2.08-.62-.52-.21-.97-.52-1.33-.96-.37-.43-.55-1.02-.55-1.77,0-.98.36-1.78,1.08-2.38.72-.6,1.7-.9,2.93-.9,1.31,0,2.36.35,3.15,1.04Z"></path>
      <path d="m343.85,90.81c.21-.19.49-.29.83-.29s.61.1.81.29c.21.19.31.45.31.77s-.1.56-.31.75c-.21.19-.48.29-.81.29s-.61-.1-.83-.29c-.21-.19-.32-.44-.32-.75s.11-.58.32-.77Zm1.6,4.34v12.02h-1.56v-12.02h1.56Z"></path>
      <path d="m358.2,96.26c.87.89,1.31,2.19,1.31,3.91v7h-1.52v-6.89c0-1.31-.33-2.31-.99-3-.66-.7-1.56-1.05-2.71-1.05-1.2,0-2.16.38-2.87,1.16-.71.77-1.07,1.91-1.07,3.4v6.38h-1.56v-12.02h1.56v2.95c.31-1.03.87-1.81,1.67-2.36.81-.54,1.73-.81,2.77-.81,1.39,0,2.53.44,3.4,1.33Z"></path>
      <path d="m370.95,95.94c.86.63,1.45,1.47,1.77,2.51v-3.3h1.52v12.31c0,1.12-.24,2.1-.71,2.94s-1.12,1.5-1.96,1.96c-.84.46-1.79.69-2.86.69-1.57,0-2.86-.38-3.86-1.13-1.01-.76-1.66-1.78-1.97-3.07h1.54c.26.88.75,1.58,1.46,2.09s1.63.77,2.74.77c.76,0,1.46-.17,2.08-.5s1.12-.82,1.48-1.46c.36-.65.54-1.41.54-2.29v-3.59c-.32,1.04-.91,1.88-1.77,2.51-.86.63-1.9.95-3.12.95-1.09,0-2.06-.25-2.92-.75-.86-.5-1.53-1.21-2-2.15-.48-.93-.72-2.02-.72-3.27s.24-2.36.72-3.29c.48-.93,1.14-1.64,1.99-2.13.85-.49,1.83-.74,2.93-.74,1.22,0,2.26.32,3.12.95Zm-5.97,1.71c-.81.86-1.22,2.03-1.22,3.51s.41,2.65,1.22,3.51c.81.86,1.9,1.29,3.25,1.29.85,0,1.62-.2,2.3-.59.68-.4,1.22-.96,1.61-1.68.39-.73.58-1.57.58-2.52s-.19-1.79-.58-2.52c-.39-.73-.92-1.29-1.61-1.68s-1.45-.59-2.3-.59c-1.35,0-2.43.43-3.25,1.29Z"></path>
      <path d="m45.5,123.64c.86.89,1.29,2.19,1.29,3.91v7h-1.54v-6.89c0-1.29-.31-2.28-.94-2.97-.62-.69-1.48-1.03-2.57-1.03-1.16,0-2.08.38-2.77,1.14-.69.76-1.04,1.89-1.04,3.37v6.38h-1.52v-6.89c0-1.29-.31-2.28-.94-2.97-.62-.69-1.48-1.03-2.56-1.03-1.16,0-2.08.38-2.77,1.14-.69.76-1.04,1.89-1.04,3.37v6.38h-1.56v-12.02h1.56v2.86c.29-1.01.83-1.78,1.6-2.3.77-.52,1.66-.78,2.67-.78s1.97.28,2.73.84c.76.56,1.29,1.38,1.58,2.47.32-1.07.89-1.89,1.7-2.46.81-.56,1.72-.85,2.75-.85,1.38,0,2.5.44,3.36,1.33Z"></path>
      <path d="m60.4,122.53v12.02h-1.54v-2.97c-.31,1.04-.87,1.83-1.67,2.38-.81.54-1.73.81-2.77.81-1.41,0-2.55-.44-3.42-1.33-.87-.89-1.31-2.19-1.31-3.91v-7h1.54v6.87c0,1.32.33,2.33.99,3.03.66.7,1.56,1.05,2.71,1.05,1.2,0,2.16-.38,2.87-1.16s1.07-1.9,1.07-3.4v-6.38h1.54Z"></path>
      <path d="m65.33,118.25v16.29h-1.56v-16.29h1.56Z"></path>
      <path d="m74.13,133.18v1.37h-1.43c-1.16,0-2.03-.28-2.6-.83-.57-.55-.86-1.48-.86-2.78v-7.07h-1.83v-1.34h1.83v-3.04h1.56v3.04h3.3v1.34h-3.3v7.09c0,.85.15,1.43.46,1.75.31.32.85.47,1.63.47h1.23Z"></path>
      <path d="m76.63,118.19c.21-.19.49-.29.83-.29s.61.1.81.29c.21.19.31.45.31.77s-.1.56-.31.75c-.21.19-.48.29-.81.29s-.61-.09-.83-.29c-.21-.19-.32-.44-.32-.75,0-.32.11-.58.32-.77Zm1.6,4.34v12.02h-1.56v-12.02h1.56Z"></path>
      <path d="m90.92,123.11c.84.49,1.5,1.2,1.98,2.14.48.93.72,2.03.72,3.29s-.24,2.34-.72,3.27c-.48.93-1.14,1.65-1.99,2.15-.85.5-1.82.75-2.91.75-1.23,0-2.28-.32-3.13-.95-.85-.63-1.44-1.47-1.76-2.51v8.98h-1.54v-17.7h1.54v3.3c.32-1.04.91-1.88,1.76-2.51.85-.63,1.89-.95,3.13-.95,1.1,0,2.07.25,2.92.74Zm-5.64,1.22c-.68.4-1.21.96-1.6,1.68-.38.73-.57,1.57-.57,2.52s.19,1.79.57,2.52c.38.73.91,1.29,1.6,1.68s1.45.59,2.3.59c1.37,0,2.45-.43,3.26-1.29.81-.86,1.21-2.03,1.21-3.51s-.4-2.65-1.21-3.51c-.81-.86-1.89-1.29-3.26-1.29-.85,0-1.62.2-2.3.59Z"></path>
      <path d="m97.95,118.25v16.29h-1.56v-16.29h1.56Z"></path>
      <path d="m109.27,132.61c.73-.54,1.17-1.28,1.32-2.2h1.63c-.22,1.28-.83,2.31-1.83,3.1-1,.79-2.26,1.19-3.79,1.19-1.14,0-2.16-.25-3.05-.74-.89-.49-1.58-1.2-2.08-2.13-.5-.93-.75-2.03-.75-3.29s.25-2.36.75-3.29c.5-.93,1.19-1.64,2.08-2.14.89-.49,1.9-.74,3.05-.74s2.19.25,3.05.74c.86.49,1.51,1.15,1.96,1.97s.67,1.72.67,2.69c0,.41-.03.79-.09,1.12h-9.95c.01,1.01.22,1.86.63,2.54s.93,1.19,1.57,1.51c.65.32,1.34.48,2.09.48,1.09,0,2-.27,2.73-.81Zm-4.8-8.5c-.65.32-1.17.82-1.57,1.49-.4.67-.62,1.5-.65,2.5h8.5c.06-.98-.1-1.81-.48-2.49-.38-.67-.9-1.17-1.54-1.5-.65-.32-1.35-.48-2.11-.48s-1.49.16-2.13.48Z"></path>
      <path d="m126.24,133.18v1.37h-1.43c-1.16,0-2.03-.28-2.6-.83-.57-.55-.86-1.48-.86-2.78v-7.07h-1.83v-1.34h1.83v-3.04h1.56v3.04h3.3v1.34h-3.3v7.09c0,.85.15,1.43.46,1.75.31.32.85.47,1.63.47h1.23Z"></path>
      <path d="m136.74,132.61c.73-.54,1.17-1.28,1.32-2.2h1.63c-.22,1.28-.83,2.31-1.83,3.1-1,.79-2.26,1.19-3.79,1.19-1.14,0-2.16-.25-3.05-.74-.89-.49-1.58-1.2-2.08-2.13-.5-.93-.75-2.03-.75-3.29s.25-2.36.75-3.29c.5-.93,1.19-1.64,2.08-2.14.89-.49,1.9-.74,3.05-.74s2.19.25,3.05.74c.86.49,1.51,1.15,1.96,1.97s.67,1.72.67,2.69c0,.41-.03.79-.09,1.12h-9.95c.01,1.01.22,1.86.63,2.54s.93,1.19,1.57,1.51c.65.32,1.34.48,2.09.48,1.09,0,2-.27,2.73-.81Zm-4.8-8.5c-.65.32-1.17.82-1.57,1.49-.4.67-.62,1.5-.65,2.5h8.5c.06-.98-.1-1.81-.48-2.49-.38-.67-.9-1.17-1.54-1.5-.65-.32-1.35-.48-2.11-.48s-1.49.16-2.13.48Z"></path>
      <path d="m151.64,123.58c1,.81,1.62,1.88,1.84,3.21h-1.61c-.16-.95-.61-1.71-1.34-2.26-.73-.55-1.64-.83-2.71-.83-.78,0-1.49.18-2.15.53-.65.35-1.17.89-1.56,1.62s-.58,1.62-.58,2.67.19,1.95.58,2.67.91,1.27,1.56,1.62c.65.35,1.37.53,2.15.53,1.07,0,1.97-.27,2.71-.83.73-.55,1.18-1.3,1.34-2.26h1.61c-.22,1.34-.83,2.41-1.84,3.21-1,.81-2.27,1.21-3.8,1.21-1.14,0-2.16-.25-3.05-.74-.89-.49-1.58-1.2-2.08-2.13-.5-.93-.75-2.03-.75-3.29s.25-2.36.75-3.29c.5-.93,1.19-1.64,2.08-2.14.89-.49,1.9-.74,3.05-.74,1.53,0,2.79.4,3.8,1.21Z"></path>
      <path d="m165.66,123.64c.87.89,1.31,2.19,1.31,3.91v7h-1.52v-6.89c0-1.31-.33-2.31-.99-3.01-.66-.7-1.56-1.05-2.71-1.05-1.2,0-2.16.39-2.87,1.16s-1.07,1.9-1.07,3.4v6.38h-1.56v-16.29h1.56v7.22c.31-1.03.87-1.81,1.67-2.36.81-.54,1.73-.81,2.77-.81,1.39,0,2.53.44,3.4,1.33Z"></path>
      <path d="m179.64,123.64c.87.89,1.31,2.19,1.31,3.91v7h-1.52v-6.89c0-1.31-.33-2.31-.99-3.01-.66-.7-1.56-1.05-2.71-1.05-1.2,0-2.16.39-2.87,1.16s-1.07,1.9-1.07,3.4v6.38h-1.56v-12.02h1.56v2.95c.31-1.03.87-1.81,1.67-2.36.81-.54,1.73-.81,2.77-.81,1.39,0,2.53.44,3.4,1.33Z"></path>
      <path d="m192.72,123.11c.9.49,1.61,1.2,2.12,2.14.51.93.77,2.03.77,3.29s-.26,2.36-.77,3.28-1.22,1.64-2.12,2.14c-.9.5-1.93.75-3.07.75s-2.17-.25-3.08-.75c-.91-.5-1.63-1.21-2.15-2.15-.52-.93-.78-2.02-.78-3.27s.26-2.36.78-3.29c.52-.93,1.24-1.64,2.15-2.14.91-.49,1.94-.74,3.08-.74s2.17.25,3.07.74Zm-5.27,1.13c-.67.35-1.22.89-1.63,1.62s-.62,1.62-.62,2.67.21,1.95.62,2.66c.41.72.95,1.25,1.63,1.61.67.35,1.41.53,2.2.53s1.5-.18,2.17-.53c.67-.35,1.21-.89,1.62-1.61.41-.72.62-1.61.62-2.66s-.21-1.95-.62-2.67-.95-1.27-1.62-1.62c-.67-.35-1.39-.53-2.17-.53s-1.53.18-2.2.53Z"></path>
      <path d="m199.95,118.25v16.29h-1.56v-16.29h1.56Z"></path>
      <path d="m211.8,123.11c.9.49,1.61,1.2,2.12,2.14.51.93.77,2.03.77,3.29s-.26,2.36-.77,3.28-1.22,1.64-2.12,2.14c-.9.5-1.93.75-3.07.75s-2.17-.25-3.08-.75c-.91-.5-1.63-1.21-2.15-2.15-.52-.93-.78-2.02-.78-3.27s.26-2.36.78-3.29c.52-.93,1.24-1.64,2.15-2.14.91-.49,1.94-.74,3.08-.74s2.17.25,3.07.74Zm-5.27,1.13c-.67.35-1.22.89-1.63,1.62s-.62,1.62-.62,2.67.21,1.95.62,2.66c.41.72.95,1.25,1.63,1.61.67.35,1.41.53,2.2.53s1.5-.18,2.17-.53c.67-.35,1.21-.89,1.62-1.61.41-.72.62-1.61.62-2.66s-.21-1.95-.62-2.67-.95-1.27-1.62-1.62c-.67-.35-1.39-.53-2.17-.53s-1.53.18-2.2.53Z"></path>
      <path d="m225.65,123.32c.86.63,1.45,1.47,1.77,2.51v-3.3h1.52v12.31c0,1.12-.24,2.09-.71,2.94s-1.12,1.5-1.96,1.96c-.84.46-1.79.69-2.86.69-1.57,0-2.86-.38-3.86-1.13-1.01-.76-1.66-1.78-1.97-3.07h1.54c.26.88.75,1.58,1.46,2.09.71.51,1.63.77,2.74.77.76,0,1.46-.17,2.08-.5.62-.33,1.12-.82,1.48-1.46.36-.65.54-1.41.54-2.29v-3.59c-.32,1.04-.91,1.88-1.77,2.51-.86.63-1.9.95-3.12.95-1.09,0-2.06-.25-2.92-.75-.86-.5-1.53-1.21-2-2.15-.48-.93-.72-2.02-.72-3.27s.24-2.36.72-3.29c.48-.93,1.14-1.64,1.99-2.14.85-.49,1.83-.74,2.93-.74,1.22,0,2.26.32,3.12.95Zm-5.97,1.71c-.81.86-1.22,2.03-1.22,3.51s.41,2.65,1.22,3.51,1.9,1.29,3.25,1.29c.85,0,1.62-.2,2.3-.59s1.22-.96,1.61-1.68c.39-.73.58-1.57.58-2.52s-.19-1.79-.58-2.52c-.39-.73-.92-1.29-1.61-1.68-.68-.4-1.45-.59-2.3-.59-1.35,0-2.43.43-3.25,1.29Z"></path>
      <path d="m232.26,118.19c.21-.19.49-.29.83-.29s.61.1.81.29c.21.19.31.45.31.77s-.1.56-.31.75c-.21.19-.48.29-.81.29s-.61-.09-.83-.29c-.21-.19-.32-.44-.32-.75,0-.32.11-.58.32-.77Zm1.6,4.34v12.02h-1.56v-12.02h1.56Z"></path>
      <path d="m245.17,132.61c.73-.54,1.17-1.28,1.32-2.2h1.63c-.22,1.28-.83,2.31-1.83,3.1-1,.79-2.26,1.19-3.79,1.19-1.14,0-2.16-.25-3.05-.74-.89-.49-1.58-1.2-2.08-2.13-.5-.93-.75-2.03-.75-3.29s.25-2.36.75-3.29c.5-.93,1.19-1.64,2.08-2.14.89-.49,1.9-.74,3.05-.74s2.19.25,3.05.74c.86.49,1.51,1.15,1.96,1.97s.67,1.72.67,2.69c0,.41-.03.79-.09,1.12h-9.95c.01,1.01.22,1.86.63,2.54s.93,1.19,1.57,1.51c.65.32,1.34.48,2.09.48,1.09,0,2-.27,2.73-.81Zm-4.8-8.5c-.65.32-1.17.82-1.57,1.49-.4.67-.62,1.5-.65,2.5h8.5c.06-.98-.1-1.81-.48-2.49-.38-.67-.9-1.17-1.54-1.5-.65-.32-1.35-.48-2.11-.48s-1.49.16-2.13.48Z"></path>
      <path d="m257.74,123.41c.79.69,1.28,1.62,1.45,2.8h-1.48c-.09-.78-.41-1.42-.96-1.93-.55-.51-1.29-.76-2.21-.76-.79,0-1.41.2-1.86.58-.45.39-.67.91-.67,1.55,0,.48.14.87.43,1.17s.64.52,1.07.67c.43.15,1,.31,1.72.47.88.21,1.59.42,2.12.63.54.21.99.55,1.38,1,.38.46.57,1.07.57,1.85,0,.95-.36,1.74-1.07,2.34-.71.61-1.66.91-2.83.91-1.38,0-2.51-.34-3.39-1.02-.88-.68-1.4-1.62-1.56-2.81h1.5c.09.79.43,1.44,1.03,1.94s1.42.75,2.44.75c.76,0,1.36-.2,1.78-.59.43-.4.64-.91.64-1.54,0-.51-.15-.92-.44-1.23-.29-.31-.66-.54-1.09-.69-.43-.15-1.02-.32-1.77-.5-.87-.21-1.56-.41-2.08-.62-.52-.21-.97-.52-1.33-.96-.37-.43-.55-1.02-.55-1.77,0-.98.36-1.78,1.08-2.38.72-.6,1.7-.9,2.93-.9,1.31,0,2.36.34,3.15,1.04Z"></path>
      <path d="m274.62,123.41c.79.69,1.28,1.62,1.45,2.8h-1.48c-.09-.78-.41-1.42-.96-1.93-.55-.51-1.29-.76-2.21-.76-.79,0-1.41.2-1.86.58-.45.39-.67.91-.67,1.55,0,.48.14.87.43,1.17s.64.52,1.07.67c.43.15,1,.31,1.72.47.88.21,1.59.42,2.12.63.54.21.99.55,1.38,1,.38.46.57,1.07.57,1.85,0,.95-.36,1.74-1.07,2.34-.71.61-1.66.91-2.83.91-1.38,0-2.51-.34-3.39-1.02-.88-.68-1.4-1.62-1.56-2.81h1.5c.09.79.43,1.44,1.03,1.94s1.42.75,2.44.75c.76,0,1.36-.2,1.78-.59.43-.4.64-.91.64-1.54,0-.51-.15-.92-.44-1.23-.29-.31-.66-.54-1.09-.69-.43-.15-1.02-.32-1.77-.5-.87-.21-1.56-.41-2.08-.62-.52-.21-.97-.52-1.33-.96-.37-.43-.55-1.02-.55-1.77,0-.98.36-1.78,1.08-2.38.72-.6,1.7-.9,2.93-.9,1.31,0,2.36.34,3.15,1.04Z"></path>
      <path d="m289.37,122.53v12.02h-1.54v-2.97c-.31,1.04-.87,1.83-1.67,2.38-.81.54-1.73.81-2.77.81-1.41,0-2.55-.44-3.42-1.33-.87-.89-1.31-2.19-1.31-3.91v-7h1.54v6.87c0,1.32.33,2.33.99,3.03.66.7,1.56,1.05,2.71,1.05,1.2,0,2.16-.38,2.87-1.16s1.07-1.9,1.07-3.4v-6.38h1.54Z"></path>
      <path d="m301.84,123.58c1,.81,1.62,1.88,1.84,3.21h-1.61c-.16-.95-.61-1.71-1.34-2.26-.73-.55-1.64-.83-2.71-.83-.78,0-1.49.18-2.15.53-.65.35-1.17.89-1.56,1.62s-.58,1.62-.58,2.67.19,1.95.58,2.67.91,1.27,1.56,1.62c.65.35,1.37.53,2.15.53,1.07,0,1.97-.27,2.71-.83.73-.55,1.18-1.3,1.34-2.26h1.61c-.22,1.34-.83,2.41-1.84,3.21-1,.81-2.27,1.21-3.8,1.21-1.14,0-2.16-.25-3.05-.74-.89-.49-1.58-1.2-2.08-2.13-.5-.93-.75-2.03-.75-3.29s.25-2.36.75-3.29c.5-.93,1.19-1.64,2.08-2.14.89-.49,1.9-.74,3.05-.74,1.53,0,2.79.4,3.8,1.21Z"></path>
      <path d="m315.87,123.64c.87.89,1.31,2.19,1.31,3.91v7h-1.52v-6.89c0-1.31-.33-2.31-.99-3.01-.66-.7-1.56-1.05-2.71-1.05-1.2,0-2.16.39-2.87,1.16s-1.07,1.9-1.07,3.4v6.38h-1.56v-16.29h1.56v7.22c.31-1.03.87-1.81,1.67-2.36.81-.54,1.73-.81,2.77-.81,1.39,0,2.53.44,3.4,1.33Z"></path>
      <path d="m35.73,150.7c.86.63,1.45,1.47,1.77,2.51v-3.3h1.52v12.02h-1.52v-3.3c-.32,1.04-.91,1.88-1.77,2.51-.86.63-1.9.95-3.12.95-1.09,0-2.06-.25-2.92-.75-.86-.5-1.53-1.21-2-2.15-.48-.93-.72-2.02-.72-3.27s.24-2.36.72-3.29c.48-.93,1.14-1.64,1.99-2.13.85-.49,1.83-.74,2.93-.74,1.22,0,2.26.32,3.12.95Zm-5.97,1.71c-.81.86-1.22,2.03-1.22,3.51s.41,2.65,1.22,3.51c.81.86,1.9,1.29,3.25,1.29.85,0,1.62-.2,2.3-.59.68-.4,1.22-.96,1.61-1.68.39-.73.58-1.57.58-2.52s-.19-1.79-.58-2.52c-.39-.73-.92-1.29-1.61-1.68s-1.45-.59-2.3-.59c-1.35,0-2.43.43-3.25,1.29Z"></path>
      <path d="m49.15,150.78c.79.69,1.28,1.62,1.45,2.8h-1.48c-.09-.78-.41-1.42-.96-1.93-.55-.51-1.29-.76-2.21-.76-.79,0-1.41.19-1.86.58-.45.39-.67.91-.67,1.55,0,.48.14.87.43,1.17.29.29.64.52,1.07.67s1,.31,1.72.47c.88.21,1.59.41,2.12.63.54.21.99.55,1.38,1s.57,1.07.57,1.85c0,.95-.36,1.74-1.07,2.34-.71.61-1.66.91-2.83.91-1.38,0-2.51-.34-3.39-1.02-.88-.68-1.4-1.62-1.56-2.81h1.5c.09.79.43,1.44,1.03,1.94.6.5,1.42.75,2.44.75.76,0,1.36-.2,1.78-.59s.64-.91.64-1.54c0-.51-.15-.92-.44-1.23-.29-.31-.66-.54-1.09-.69-.43-.15-1.02-.32-1.77-.5-.87-.21-1.56-.41-2.08-.62-.52-.21-.97-.52-1.33-.96-.37-.43-.55-1.02-.55-1.77,0-.98.36-1.78,1.08-2.38.72-.6,1.7-.9,2.93-.9,1.31,0,2.36.35,3.15,1.04Z"></path>
      <path d="m67.09,161.92l-3.63-6.05h-1.37v6.05h-3.1v-15.54h5.92c1.81,0,3.18.44,4.13,1.32s1.42,2.04,1.42,3.48c0,1.17-.33,2.16-.98,2.95-.65.79-1.6,1.32-2.83,1.58l3.88,6.21h-3.43Zm-5-8.19h2.55c1.78,0,2.66-.79,2.66-2.36,0-.75-.22-1.33-.65-1.75-.43-.42-1.1-.63-2.01-.63h-2.55v4.73Z"></path>
      <path d="m75.65,156.16v5.77h-3.1v-15.54h5.66c1.83,0,3.22.44,4.15,1.32s1.4,2.08,1.4,3.59-.48,2.66-1.44,3.54c-.96.88-2.33,1.32-4.11,1.32h-2.55Zm4.95-4.87c0-.78-.21-1.37-.64-1.78-.43-.41-1.12-.62-2.09-.62h-2.22v4.78h2.22c1.82,0,2.73-.79,2.73-2.38Z"></path>
      <path d="m95.25,158.8h-6.23l-1.1,3.13h-3.28l5.72-15.37h3.54l5.7,15.37h-3.28l-1.08-3.13Zm-.84-2.36l-2.29-6.56-2.29,6.56h4.58Z"></path>
      <path d="m103.76,162.32c0,.91-.24,1.66-.71,2.25-.48.59-1.21.88-2.21.88v-1.19c.38,0,.66-.09.84-.28.18-.18.26-.51.26-.98v-.22h-1.41v-2.86h2.71c.35.79.53,1.59.53,2.4Z"></path>
      <path d="m120.25,158.8h-6.23l-1.1,3.13h-3.28l5.72-15.37h3.54l5.7,15.37h-3.28l-1.08-3.13Zm-.84-2.36l-2.29-6.56-2.29,6.56h4.58Z"></path>
      <path d="m129.39,146.38v15.54h-3.1v-15.54h3.1Z"></path>
      <path d="m143.52,159.26v2.66h-1.63c-1.37,0-2.41-.33-3.14-.99-.73-.66-1.09-1.76-1.09-3.3v-5.28h-1.7v-2.62h1.7v-3.02h3.1v3.02h2.73v2.62h-2.73v5.33c0,.59.12,1,.35,1.23.23.23.63.35,1.19.35h1.21Z"></path>
      <path d="m157.11,156.42h-8.94c.04,1.09.34,1.89.88,2.4s1.22.77,2.03.77c.72,0,1.32-.18,1.79-.53.48-.35.78-.83.91-1.43h3.28c-.16.85-.51,1.62-1.03,2.29s-1.21,1.2-2.04,1.58-1.75.57-2.76.57c-1.19,0-2.25-.25-3.17-.76-.92-.51-1.64-1.23-2.16-2.17-.51-.94-.77-2.05-.77-3.32s.26-2.39.77-3.34c.51-.95,1.23-1.67,2.16-2.17s1.98-.75,3.17-.75,2.26.25,3.16.75c.9.5,1.6,1.18,2.09,2.06.49.87.74,1.87.74,2.98,0,.31-.04.66-.11,1.06Zm-3.8-3.63c-.57-.51-1.26-.77-2.08-.77s-1.54.26-2.11.77-.89,1.27-.95,2.27h5.92c.04-1-.22-1.75-.78-2.27Z"></path>
      <path d="m168.83,150.85c1.05.85,1.71,2.01,1.97,3.48h-3.28c-.13-.65-.43-1.16-.9-1.53-.47-.37-1.06-.56-1.78-.56-.82,0-1.51.3-2.06.91-.55.61-.83,1.5-.83,2.67s.28,2.07.83,2.67c.55.61,1.24.91,2.06.91.72,0,1.31-.19,1.78-.56.47-.37.77-.88.9-1.53h3.28c-.26,1.47-.92,2.63-1.97,3.48-1.05.85-2.36,1.28-3.93,1.28-1.19,0-2.25-.25-3.17-.76-.92-.51-1.64-1.23-2.16-2.17-.51-.94-.77-2.05-.77-3.32s.26-2.39.77-3.34c.51-.95,1.23-1.67,2.16-2.17s1.98-.75,3.17-.75c1.57,0,2.88.43,3.93,1.28Z"></path>
      <path d="m183.63,150.94c.84.92,1.25,2.22,1.25,3.9v7.09h-3.08v-6.74c0-.97-.25-1.72-.75-2.26-.5-.54-1.18-.8-2.05-.8s-1.58.29-2.11.86c-.53.57-.79,1.39-.79,2.47v6.47h-3.1v-16.29h3.1v6.54c.32-.82.86-1.46,1.6-1.93.74-.46,1.6-.69,2.56-.69,1.41,0,2.53.46,3.37,1.39Z"></path>
      <path d="m198.25,150.94c.84.92,1.25,2.22,1.25,3.9v7.09h-3.08v-6.74c0-.97-.25-1.72-.75-2.26-.5-.54-1.18-.8-2.05-.8s-1.58.29-2.11.86c-.53.57-.79,1.39-.79,2.47v6.47h-3.1v-12.2h3.1v2.44c.32-.82.86-1.46,1.6-1.93.74-.46,1.6-.69,2.56-.69,1.41,0,2.53.46,3.37,1.39Z"></path>
      <path d="m211.08,150.32c.95.5,1.69,1.22,2.23,2.17.54.95.82,2.06.82,3.34s-.27,2.38-.82,3.32-1.29,1.66-2.23,2.17c-.95.51-2.01.76-3.2.76s-2.26-.25-3.2-.76c-.95-.51-1.69-1.23-2.23-2.17s-.81-2.05-.81-3.32.27-2.39.81-3.34c.54-.95,1.29-1.67,2.23-2.17s2.01-.75,3.2-.75,2.26.25,3.2.75Zm-5.4,2.85c-.6.61-.9,1.49-.9,2.65s.3,2.04.9,2.65c.6.61,1.33.91,2.2.91s1.6-.3,2.2-.91c.6-.61.9-1.49.9-2.65s-.3-2.04-.9-2.65c-.6-.61-1.33-.91-2.2-.91s-1.6.31-2.2.91Z"></path>
      <path d="m219.43,145.63v16.29h-3.1v-16.29h3.1Z"></path>
      <path d="m231.09,150.32c.95.5,1.69,1.22,2.23,2.17.54.95.82,2.06.82,3.34s-.27,2.38-.82,3.32-1.29,1.66-2.23,2.17c-.95.51-2.01.76-3.2.76s-2.26-.25-3.2-.76c-.95-.51-1.69-1.23-2.23-2.17s-.81-2.05-.81-3.32.27-2.39.81-3.34c.54-.95,1.29-1.67,2.23-2.17s2.01-.75,3.2-.75,2.26.25,3.2.75Zm-5.4,2.85c-.6.61-.9,1.49-.9,2.65s.3,2.04.9,2.65c.6.61,1.33.91,2.2.91s1.6-.3,2.2-.91c.6-.61.9-1.49.9-2.65s-.3-2.04-.9-2.65c-.6-.61-1.33-.91-2.2-.91s-1.6.31-2.2.91Z"></path>
      <path d="m243.76,150.3c.73.48,1.25,1.14,1.56,1.96v-2.53h3.08v12.24c0,1.13-.22,2.15-.67,3.05-.45.9-1.12,1.61-2,2.12-.89.51-1.96.77-3.23.77-1.76,0-3.18-.42-4.27-1.25-1.09-.84-1.75-1.97-1.98-3.41h3.06c.18.62.52,1.1,1.02,1.44.51.34,1.16.52,1.95.52.91,0,1.64-.27,2.2-.8.56-.54.84-1.35.84-2.43v-2.6c-.31.82-.83,1.48-1.56,1.97-.73.49-1.61.74-2.64.74s-1.95-.25-2.77-.75-1.46-1.22-1.93-2.17c-.46-.95-.69-2.06-.69-3.33s.23-2.39.69-3.34c.46-.95,1.1-1.67,1.93-2.17s1.75-.75,2.77-.75,1.91.24,2.64.73Zm-4.01,2.93c-.59.63-.88,1.5-.88,2.6s.29,1.96.88,2.59c.59.62,1.37.94,2.33.94s1.71-.32,2.32-.96.91-1.49.91-2.56-.3-1.95-.91-2.59c-.61-.64-1.38-.96-2.32-.96s-1.75.32-2.33.95Z"></path>
      <path d="m251.4,145c.35-.32.81-.47,1.39-.47s1.04.16,1.39.47c.35.32.53.72.53,1.22s-.18.88-.53,1.2c-.35.32-.81.47-1.39.47s-1.03-.16-1.39-.47-.53-.72-.53-1.2.18-.91.53-1.22Zm2.93,4.72v12.2h-3.1v-12.2h3.1Z"></path>
      <path d="m268.5,156.42h-8.94c.04,1.09.34,1.89.88,2.4s1.22.77,2.03.77c.72,0,1.32-.18,1.79-.53.48-.35.78-.83.91-1.43h3.28c-.16.85-.51,1.62-1.03,2.29s-1.21,1.2-2.04,1.58-1.75.57-2.76.57c-1.19,0-2.25-.25-3.17-.76-.92-.51-1.64-1.23-2.16-2.17-.51-.94-.77-2.05-.77-3.32s.26-2.39.77-3.34c.51-.95,1.23-1.67,2.16-2.17s1.98-.75,3.17-.75,2.26.25,3.16.75c.9.5,1.6,1.18,2.09,2.06.49.87.74,1.87.74,2.98,0,.31-.04.66-.11,1.06Zm-3.8-3.63c-.57-.51-1.26-.77-2.08-.77s-1.54.26-2.11.77-.89,1.27-.95,2.27h5.92c.04-1-.22-1.75-.78-2.27Z"></path>
      <path d="m278.59,150.7c.89.75,1.45,1.75,1.67,2.99h-2.91c-.12-.59-.38-1.06-.79-1.41-.41-.35-.95-.53-1.61-.53-.53,0-.94.12-1.23.37-.29.25-.44.59-.44,1.01,0,.34.12.61.35.81.24.21.53.37.88.48.35.12.86.26,1.52.42.92.21,1.68.42,2.26.65.58.23,1.08.59,1.5,1.08.42.49.63,1.16.63,1.99,0,1.04-.41,1.89-1.22,2.53-.81.65-1.91.97-3.29.97-1.58,0-2.85-.36-3.81-1.07s-1.53-1.73-1.74-3.05h2.97c.07.6.34,1.08.79,1.42.46.35,1.05.52,1.78.52.53,0,.93-.13,1.21-.38.28-.26.42-.59.42-1,0-.35-.12-.64-.36-.86-.24-.22-.54-.39-.9-.51-.36-.12-.87-.26-1.53-.42-.91-.21-1.65-.42-2.21-.63-.57-.21-1.05-.55-1.45-1.02s-.61-1.12-.61-1.94c0-1.06.4-1.92,1.21-2.58.81-.66,1.92-.99,3.35-.99s2.67.37,3.57,1.12Z"></path>
      <path d="m284.07,162.19c0,.7-.17,1.27-.51,1.68-.34.42-.84.63-1.52.63v-.73c.35,0,.61-.1.77-.3.16-.2.24-.5.24-.91v-.18h-.99v-1.7h1.78c.15.5.22,1,.22,1.5Z"></path>
      <path d="m300.39,150.7c.86.63,1.45,1.47,1.77,2.51v-3.3h1.52v12.02h-1.52v-3.3c-.32,1.04-.91,1.88-1.77,2.51-.86.63-1.9.95-3.12.95-1.09,0-2.06-.25-2.92-.75-.86-.5-1.53-1.21-2-2.15-.48-.93-.72-2.02-.72-3.27s.24-2.36.72-3.29c.48-.93,1.14-1.64,1.99-2.13.85-.49,1.83-.74,2.93-.74,1.22,0,2.26.32,3.12.95Zm-5.97,1.71c-.81.86-1.22,2.03-1.22,3.51s.41,2.65,1.22,3.51c.81.86,1.9,1.29,3.25,1.29.85,0,1.62-.2,2.3-.59.68-.4,1.22-.96,1.61-1.68.39-.73.58-1.57.58-2.52s-.19-1.79-.58-2.52c-.39-.73-.92-1.29-1.61-1.68s-1.45-.59-2.3-.59c-1.35,0-2.43.43-3.25,1.29Z"></path>
      <path d="m316.44,151.01c.87.89,1.31,2.19,1.31,3.91v7h-1.52v-6.89c0-1.31-.33-2.31-.99-3-.66-.7-1.56-1.05-2.71-1.05-1.2,0-2.16.38-2.87,1.16-.71.77-1.07,1.91-1.07,3.4v6.38h-1.56v-12.02h1.56v2.95c.31-1.03.87-1.81,1.67-2.36.81-.54,1.73-.81,2.77-.81,1.39,0,2.53.44,3.4,1.33Z"></path>
      <path d="m329.19,150.7c.86.63,1.44,1.47,1.75,2.51v-7.57h1.54v16.29h-1.54v-3.3c-.31,1.04-.89,1.88-1.75,2.51-.86.63-1.9.95-3.12.95-1.09,0-2.06-.25-2.92-.75-.86-.5-1.53-1.21-2-2.15-.48-.93-.72-2.02-.72-3.27s.24-2.36.72-3.29c.48-.93,1.14-1.64,1.99-2.13.85-.49,1.83-.74,2.93-.74,1.22,0,2.26.32,3.12.95Zm-5.97,1.71c-.81.86-1.22,2.03-1.22,3.51s.41,2.65,1.22,3.51c.81.86,1.9,1.29,3.25,1.29.85,0,1.62-.2,2.3-.59.68-.4,1.22-.96,1.61-1.68.39-.73.58-1.57.58-2.52s-.19-1.79-.58-2.52c-.39-.73-.92-1.29-1.61-1.68s-1.45-.59-2.3-.59c-1.35,0-2.43.43-3.25,1.29Z"></path>
      <path d="m358.04,146.56v15.37h-3.08v-10.72l-3.94,10.72h-2.69l-3.94-10.68v10.68h-3.1v-15.37h3.76l4.67,11.56,4.58-11.56h3.74Z"></path>
      <path d="m363.96,159.55h5.22v2.38h-8.32v-15.54h3.1v13.17Z"></path>
    </g>
    <g>
      <g>
        <g>
          <path d="m31.17,215.23v-7.32h1.36v6.17h3.83v1.15h-5.18Z"></path>
          <path d="m38.78,214.1h4.13v1.14h-5.49v-7.32h5.34v1.14h-3.98v5.04Zm-.1-3.14h3.64v1.12h-3.64v-1.12Z"></path>
          <path d="m43.39,215.23l3.29-7.32h1.34l3.3,7.32h-1.42l-2.83-6.59h.54l-2.82,6.59h-1.4Zm1.52-1.69l.37-1.07h3.95l.37,1.07h-4.68Z"></path>
          <path d="m52.25,215.23v-7.32h3.01c.65,0,1.2.1,1.67.31.46.21.82.51,1.07.9.25.39.38.85.38,1.39s-.13,1-.38,1.38c-.25.39-.61.68-1.07.89-.46.21-1.02.31-1.67.31h-2.26l.61-.62v2.75h-1.36Zm1.36-2.6l-.61-.65h2.2c.6,0,1.05-.13,1.35-.39.3-.26.46-.62.46-1.08s-.15-.83-.46-1.08c-.3-.25-.75-.38-1.35-.38h-2.2l.61-.67v4.23Zm3.43,2.6l-1.85-2.65h1.45l1.86,2.65h-1.46Z"></path>
          <path d="m59.89,215.23v-7.32h1.12l4.59,5.63h-.55v-5.63h1.35v7.32h-1.12l-4.59-5.63h.55v5.63h-1.35Z"></path>
          <path class="cls-1" d="m71.24,215.23v-7.32h1.12l3.2,5.34h-.58l3.15-5.34h1.12v7.32s-1.27,0-1.27,0v-5.3s.26,0,.26,0l-2.67,4.46h-.61l-2.72-4.46h.31v5.3h-1.3Z"></path>
          <path class="cls-1" d="m84.65,215.34c-.57,0-1.1-.09-1.58-.28-.48-.19-.9-.45-1.25-.79-.36-.34-.63-.73-.83-1.19-.19-.46-.29-.96-.29-1.5s.1-1.04.29-1.5c.2-.46.47-.85.83-1.19s.77-.6,1.25-.79c.48-.19,1-.28,1.57-.28s1.1.09,1.57.28c.48.19.89.45,1.25.79.36.34.63.74.83,1.19.19.46.29.96.29,1.5s-.1,1.04-.29,1.5c-.2.46-.47.86-.83,1.19-.35.33-.77.6-1.25.78-.48.19-1,.28-1.56.28Zm-.01-1.19c.37,0,.71-.06,1.02-.19.31-.13.58-.3.82-.54.23-.23.41-.51.54-.82s.19-.65.19-1.03-.06-.72-.19-1.03c-.13-.31-.31-.58-.54-.82-.23-.23-.5-.41-.82-.54s-.66-.19-1.02-.19-.71.06-1.02.19c-.31.12-.58.3-.82.54s-.41.5-.54.82c-.13.31-.19.65-.19,1.03s.06.71.19,1.02.31.59.54.82c.23.23.5.41.81.54.31.12.66.19,1.02.19Z"></path>
          <path class="cls-1" d="m90.02,215.23v-7.32h3.01c.65,0,1.2.1,1.67.31.46.21.82.51,1.07.9.25.39.38.85.38,1.39s-.13,1-.38,1.38c-.25.39-.61.68-1.07.89-.46.21-1.02.31-1.67.31h-2.26l.61-.62v2.75h-1.36Zm1.36-2.6l-.61-.65h2.2c.6,0,1.05-.13,1.35-.39.3-.26.46-.62.46-1.08s-.15-.83-.46-1.08c-.3-.25-.75-.38-1.35-.38h-2.2l.61-.67v4.23Zm3.43,2.6l-1.85-2.65h1.45l1.86,2.65h-1.46Z"></path>
          <path class="cls-1" d="m99.02,214.1h4.13v1.14h-5.49v-7.32h5.34v1.14h-3.98v5.04Zm-.1-3.14h3.64v1.12h-3.64v-1.12Z"></path>
        </g>
        <polygon class="cls-1" points="116.39 213.93 106.57 213.93 111.29 209.21 116.39 213.93"></polygon>
      </g>
      <g>
        <rect class="cls-3" x="4.93" y="193.8" width="137.73" height="36.29"></rect>
        <rect class="cls-3" x="7.46" y="196.33" width="132.66" height="31.6"></rect>
      </g>
    </g>
  </g>
</svg>
