<?xml version="1.0" encoding="UTF-8"?>
<svg xmlns="http://www.w3.org/2000/svg" id="Layer_3" data-name="Layer 3" viewBox="0 0 455 250">
  <defs>
    <style>
      .cls-1 {
        fill: #c64027;
      }

      .cls-2 {
        stroke-width: 4px;
      }

      .cls-2, .cls-3 {
        fill: none;
        stroke: #000;
        stroke-miterlimit: 10;
      }

      .cls-4 {
        fill: #ed5625;
      }
    </style>
  </defs>
  <g id="Text">
    <polyline class="cls-2" points="33.01 5.43 4.93 5.43 4.93 65.18"></polyline>
    <polyline class="cls-2" points="152.46 181.83 378.68 181.83 378.68 125.15"></polyline>
    <g>
      <path class="cls-1" d="m23.74,35.04c0-7.1,5.45-12.19,12.79-12.19,4.07,0,7.47,1.48,9.69,4.17l-3.5,3.23c-1.58-1.82-3.57-2.76-5.92-2.76-4.41,0-7.54,3.1-7.54,7.54s3.13,7.54,7.54,7.54c2.36,0,4.34-.94,5.92-2.79l3.5,3.23c-2.22,2.73-5.62,4.21-9.73,4.21-7.3,0-12.76-5.08-12.76-12.18Z"></path>
      <path class="cls-1" d="m49.89,23.25h5.45v19.12h11.81v4.44h-17.27v-23.56Z"></path>
      <path class="cls-1" d="m68.34,35.04c0-7,5.45-12.19,12.89-12.19s12.89,5.15,12.89,12.19-5.49,12.18-12.89,12.18-12.89-5.18-12.89-12.18Zm20.26,0c0-4.48-3.16-7.54-7.37-7.54s-7.37,3.06-7.37,7.54,3.16,7.54,7.37,7.54,7.37-3.06,7.37-7.54Z"></path>
      <path class="cls-1" d="m98.03,36.45v-13.19h5.45v12.99c0,4.48,1.95,6.33,5.25,6.33s5.25-1.85,5.25-6.33v-12.99h5.39v13.19c0,6.93-3.97,10.77-10.67,10.77s-10.67-3.84-10.67-10.77Z"></path>
      <path class="cls-1" d="m124.76,23.25h10.7c7.71,0,12.99,4.64,12.99,11.78s-5.29,11.78-12.99,11.78h-10.7v-23.56Zm10.43,19.08c4.68,0,7.74-2.79,7.74-7.3s-3.06-7.3-7.74-7.3h-4.98v14.61h4.98Z"></path>
      <path class="cls-1" d="m183.54,46.82l-.03-14.14-6.93,11.65h-2.46l-6.9-11.34v13.83h-5.12v-23.56h4.51l8.82,14.64,8.68-14.64h4.48l.07,23.56h-5.12Z"></path>
      <path class="cls-1" d="m194.24,23.25h5.45v23.56h-5.45v-23.56Z"></path>
      <path class="cls-1" d="m221.21,34.67h4.98v9.56c-2.59,1.95-6.16,3-9.53,3-7.41,0-12.86-5.08-12.86-12.18s5.45-12.19,12.96-12.19c4.14,0,7.57,1.41,9.86,4.07l-3.5,3.23c-1.72-1.82-3.7-2.66-6.09-2.66-4.58,0-7.71,3.06-7.71,7.54s3.13,7.54,7.64,7.54c1.48,0,2.86-.27,4.24-1.01v-6.9Z"></path>
      <path class="cls-1" d="m246.25,46.82l-4.54-6.56h-5.02v6.56h-5.45v-23.56h10.2c6.29,0,10.23,3.26,10.23,8.55,0,3.53-1.78,6.13-4.85,7.44l5.29,7.57h-5.86Zm-5.12-19.12h-4.44v8.21h4.44c3.33,0,5.02-1.55,5.02-4.11s-1.68-4.11-5.02-4.11Z"></path>
      <path class="cls-1" d="m271.5,41.77h-10.94l-2.09,5.05h-5.59l10.5-23.56h5.39l10.54,23.56h-5.72l-2.09-5.05Zm-1.72-4.14l-3.74-9.02-3.74,9.02h7.47Z"></path>
      <path class="cls-1" d="m285.47,27.7h-7.54v-4.44h20.53v4.44h-7.54v19.12h-5.45v-19.12Z"></path>
      <path class="cls-1" d="m301.39,23.25h5.45v23.56h-5.45v-23.56Z"></path>
      <path class="cls-1" d="m310.95,35.04c0-7,5.45-12.19,12.89-12.19s12.89,5.15,12.89,12.19-5.49,12.18-12.89,12.18-12.89-5.18-12.89-12.18Zm20.26,0c0-4.48-3.16-7.54-7.37-7.54s-7.37,3.06-7.37,7.54,3.16,7.54,7.37,7.54,7.37-3.06,7.37-7.54Z"></path>
      <path class="cls-1" d="m362.46,23.25v23.56h-4.48l-11.75-14.31v14.31h-5.39v-23.56h4.51l11.71,14.31v-14.31h5.39Z"></path>
    </g>
    <g>
      <path d="m32.78,78.3c-.4.67-.98,1.2-1.76,1.61-.78.4-1.72.61-2.84.61s-2.08-.19-2.95-.56-1.56-.91-2.08-1.62c-.52-.7-.82-1.53-.89-2.47h3.3c.07.63.33,1.16.76,1.57.43.42,1.01.63,1.73.63.65,0,1.14-.17,1.49-.52.34-.34.52-.79.52-1.33,0-.48-.14-.88-.42-1.2-.28-.32-.63-.57-1.06-.76-.43-.19-1.01-.41-1.76-.66-.97-.32-1.76-.64-2.38-.96s-1.14-.77-1.57-1.38c-.43-.6-.65-1.39-.65-2.36,0-1.33.48-2.39,1.44-3.16.96-.77,2.24-1.16,3.82-1.16s2.95.4,3.93,1.19c.98.79,1.53,1.85,1.66,3.17h-3.35c-.09-.56-.32-1.02-.7-1.38-.38-.36-.9-.54-1.56-.54-.57,0-1.03.15-1.39.45-.35.3-.53.74-.53,1.31,0,.46.14.83.41,1.13s.62.55,1.04.74c.42.19.99.4,1.71.64,1,.35,1.81.68,2.43.99.62.31,1.16.77,1.6,1.39.44.62.66,1.42.66,2.42,0,.79-.2,1.52-.59,2.19Z"></path>
      <path d="m47.02,74.85h-8.94c.04,1.09.34,1.89.88,2.4s1.22.77,2.03.77c.72,0,1.32-.18,1.79-.53.48-.35.78-.83.91-1.43h3.28c-.16.85-.51,1.62-1.03,2.29s-1.21,1.2-2.04,1.58-1.75.57-2.76.57c-1.19,0-2.25-.25-3.17-.76-.92-.51-1.64-1.23-2.16-2.17-.51-.94-.77-2.05-.77-3.32s.26-2.39.77-3.34c.51-.95,1.23-1.67,2.16-2.17s1.98-.75,3.17-.75,2.26.25,3.16.75c.9.5,1.6,1.18,2.09,2.06.49.87.74,1.87.74,2.98,0,.31-.04.66-.11,1.06Zm-3.8-3.63c-.57-.51-1.26-.77-2.08-.77s-1.54.26-2.11.77-.89,1.27-.95,2.27h5.92c.04-1-.22-1.75-.78-2.27Z"></path>
      <path d="m58.74,69.28c1.05.85,1.71,2.01,1.97,3.48h-3.28c-.13-.65-.43-1.16-.9-1.53-.47-.37-1.06-.56-1.78-.56-.82,0-1.51.3-2.06.91-.55.61-.83,1.5-.83,2.67s.28,2.07.83,2.67c.55.61,1.24.91,2.06.91.72,0,1.31-.19,1.78-.56.47-.37.77-.88.9-1.53h3.28c-.26,1.47-.92,2.63-1.97,3.48-1.05.85-2.36,1.28-3.93,1.28-1.19,0-2.25-.25-3.17-.76-.92-.51-1.64-1.23-2.16-2.17-.51-.94-.77-2.05-.77-3.32s.26-2.39.77-3.34c.51-.95,1.23-1.67,2.16-2.17s1.98-.75,3.17-.75c1.57,0,2.88.43,3.93,1.28Z"></path>
      <path d="m74.58,68.16v12.2h-3.1v-2.47c-.32.82-.85,1.46-1.6,1.93s-1.6.69-2.56.69c-1.41,0-2.53-.46-3.37-1.39-.84-.92-1.25-2.22-1.25-3.88v-7.09h3.08v6.74c0,.97.25,1.72.75,2.26.5.54,1.17.8,2.03.8.9,0,1.61-.29,2.14-.86s.79-1.39.79-2.47v-6.47h3.1Z"></path>
      <path d="m82.31,68.66c.75-.45,1.58-.67,2.51-.67v3.32h-.9c-2.28,0-3.41,1.06-3.41,3.17v5.88h-3.1v-12.2h3.1v2.33c.46-.78,1.06-1.39,1.81-1.84Z"></path>
      <path d="m86.71,63.44c.35-.32.81-.47,1.39-.47s1.04.16,1.39.47c.35.32.53.72.53,1.22s-.18.88-.53,1.2c-.35.32-.81.47-1.39.47s-1.03-.16-1.39-.47-.53-.72-.53-1.2.18-.91.53-1.22Zm2.93,4.72v12.2h-3.1v-12.2h3.1Z"></path>
      <path d="m98.98,77.69v2.66h-1.63c-1.37,0-2.41-.33-3.14-.99-.73-.66-1.09-1.76-1.09-3.3v-5.28h-1.7v-2.62h1.7v-3.02h3.1v3.02h2.73v2.62h-2.73v5.33c0,.59.12,1,.35,1.23.23.23.63.35,1.19.35h1.21Z"></path>
      <path d="m103.29,68.16l3.33,8.28,3.08-8.28h3.41l-7.46,18.01h-3.43l2.75-6.16-5.13-11.84h3.46Z"></path>
      <path d="m122.47,71.22v2.58h-9.36v-2.58h9.36Z"></path>
      <path d="m130.99,68.66c.75-.45,1.58-.67,2.51-.67v3.32h-.9c-2.28,0-3.41,1.06-3.41,3.17v5.88h-3.1v-12.2h3.1v2.33c.46-.78,1.06-1.39,1.81-1.84Z"></path>
      <path d="m135.39,63.44c.35-.32.81-.47,1.39-.47s1.04.16,1.39.47c.35.32.53.72.53,1.22s-.18.88-.53,1.2c-.35.32-.81.47-1.39.47s-1.03-.16-1.39-.47-.53-.72-.53-1.2.18-.91.53-1.22Zm2.93,4.72v12.2h-3.1v-12.2h3.1Z"></path>
      <path d="m150.55,69.28c1.05.85,1.71,2.01,1.97,3.48h-3.28c-.13-.65-.43-1.16-.9-1.53-.47-.37-1.06-.56-1.78-.56-.82,0-1.51.3-2.06.91-.55.61-.83,1.5-.83,2.67s.28,2.07.83,2.67c.55.61,1.24.91,2.06.91.72,0,1.31-.19,1.78-.56.47-.37.77-.88.9-1.53h3.28c-.26,1.47-.92,2.63-1.97,3.48-1.05.85-2.36,1.28-3.93,1.28-1.19,0-2.25-.25-3.17-.76-.92-.51-1.64-1.23-2.16-2.17-.51-.94-.77-2.05-.77-3.32s.26-2.39.77-3.34c.51-.95,1.23-1.67,2.16-2.17s1.98-.75,3.17-.75c1.57,0,2.88.43,3.93,1.28Z"></path>
      <path d="m165.35,69.37c.84.92,1.25,2.22,1.25,3.9v7.09h-3.08v-6.74c0-.97-.25-1.72-.75-2.26-.5-.54-1.18-.8-2.05-.8s-1.58.29-2.11.86c-.53.57-.79,1.39-.79,2.47v6.47h-3.1v-16.29h3.1v6.54c.32-.82.86-1.46,1.6-1.93.74-.46,1.6-.69,2.56-.69,1.41,0,2.53.46,3.37,1.39Z"></path>
      <path d="m184.22,78.3c-.4.67-.98,1.2-1.76,1.61-.78.4-1.72.61-2.84.61s-2.08-.19-2.95-.56-1.56-.91-2.08-1.62c-.52-.7-.82-1.53-.89-2.47h3.3c.07.63.33,1.16.76,1.57.43.42,1.01.63,1.73.63.65,0,1.14-.17,1.49-.52.34-.34.52-.79.52-1.33,0-.48-.14-.88-.42-1.2-.28-.32-.63-.57-1.06-.76-.43-.19-1.01-.41-1.76-.66-.97-.32-1.76-.64-2.38-.96s-1.14-.77-1.57-1.38c-.43-.6-.65-1.39-.65-2.36,0-1.33.48-2.39,1.44-3.16.96-.77,2.24-1.16,3.82-1.16s2.95.4,3.93,1.19c.98.79,1.53,1.85,1.66,3.17h-3.35c-.09-.56-.32-1.02-.7-1.38-.38-.36-.9-.54-1.56-.54-.57,0-1.03.15-1.39.45-.35.3-.53.74-.53,1.31,0,.46.14.83.41,1.13s.62.55,1.04.74c.42.19.99.4,1.71.64,1,.35,1.81.68,2.43.99.62.31,1.16.77,1.6,1.39.44.62.66,1.42.66,2.42,0,.79-.2,1.52-.59,2.19Z"></path>
      <path d="m198.46,74.85h-8.94c.04,1.09.34,1.89.88,2.4s1.22.77,2.03.77c.72,0,1.32-.18,1.79-.53.48-.35.78-.83.91-1.43h3.28c-.16.85-.51,1.62-1.03,2.29s-1.21,1.2-2.04,1.58-1.75.57-2.76.57c-1.19,0-2.25-.25-3.17-.76-.92-.51-1.64-1.23-2.16-2.17-.51-.94-.77-2.05-.77-3.32s.26-2.39.77-3.34c.51-.95,1.23-1.67,2.16-2.17s1.98-.75,3.17-.75,2.26.25,3.16.75c.9.5,1.6,1.18,2.09,2.06.49.87.74,1.87.74,2.98,0,.31-.04.66-.11,1.06Zm-3.8-3.63c-.57-.51-1.26-.77-2.08-.77s-1.54.26-2.11.77-.89,1.27-.95,2.27h5.92c.04-1-.22-1.75-.78-2.27Z"></path>
      <path d="m205.68,68.66c.75-.45,1.58-.67,2.51-.67v3.32h-.9c-2.28,0-3.41,1.06-3.41,3.17v5.88h-3.1v-12.2h3.1v2.33c.46-.78,1.06-1.39,1.81-1.84Z"></path>
      <path d="m215.22,77.25l3.08-9.09h3.3l-4.51,12.2h-3.79l-4.51-12.2h3.32l3.1,9.09Z"></path>
      <path d="m223.49,63.44c.35-.32.81-.47,1.39-.47s1.04.16,1.39.47c.35.32.53.72.53,1.22s-.18.88-.53,1.2c-.35.32-.81.47-1.39.47s-1.03-.16-1.39-.47-.53-.72-.53-1.2.18-.91.53-1.22Zm2.93,4.72v12.2h-3.1v-12.2h3.1Z"></path>
      <path d="m238.65,69.28c1.05.85,1.71,2.01,1.97,3.48h-3.28c-.13-.65-.43-1.16-.9-1.53-.47-.37-1.06-.56-1.78-.56-.82,0-1.51.3-2.06.91-.55.61-.83,1.5-.83,2.67s.28,2.07.83,2.67c.55.61,1.24.91,2.06.91.72,0,1.31-.19,1.78-.56.47-.37.77-.88.9-1.53h3.28c-.26,1.47-.92,2.63-1.97,3.48-1.05.85-2.36,1.28-3.93,1.28-1.19,0-2.25-.25-3.17-.76-.92-.51-1.64-1.23-2.16-2.17-.51-.94-.77-2.05-.77-3.32s.26-2.39.77-3.34c.51-.95,1.23-1.67,2.16-2.17s1.98-.75,3.17-.75c1.57,0,2.88.43,3.93,1.28Z"></path>
      <path d="m254.18,74.85h-8.94c.04,1.09.34,1.89.88,2.4s1.22.77,2.03.77c.72,0,1.32-.18,1.79-.53.48-.35.78-.83.91-1.43h3.28c-.16.85-.51,1.62-1.03,2.29s-1.21,1.2-2.04,1.58-1.75.57-2.76.57c-1.19,0-2.25-.25-3.17-.76-.92-.51-1.64-1.23-2.16-2.17-.51-.94-.77-2.05-.77-3.32s.26-2.39.77-3.34c.51-.95,1.23-1.67,2.16-2.17s1.98-.75,3.17-.75,2.26.25,3.16.75c.9.5,1.6,1.18,2.09,2.06.49.87.74,1.87.74,2.98,0,.31-.04.66-.11,1.06Zm-3.8-3.63c-.57-.51-1.26-.77-2.08-.77s-1.54.26-2.11.77-.89,1.27-.95,2.27h5.92c.04-1-.22-1.75-.78-2.27Z"></path>
      <path d="m264.26,69.13c.89.75,1.45,1.75,1.67,2.99h-2.91c-.12-.59-.38-1.06-.79-1.41-.41-.35-.95-.53-1.61-.53-.53,0-.94.12-1.23.37-.29.25-.44.59-.44,1.01,0,.34.12.61.35.81.24.21.53.37.88.48.35.12.86.26,1.52.42.92.21,1.68.42,2.26.65.58.23,1.08.59,1.5,1.08.42.49.63,1.16.63,1.99,0,1.04-.41,1.89-1.22,2.53-.81.65-1.91.97-3.29.97-1.58,0-2.85-.36-3.81-1.07s-1.53-1.73-1.74-3.05h2.97c.07.6.34,1.08.79,1.42.46.35,1.05.52,1.78.52.53,0,.93-.13,1.21-.38.28-.26.42-.59.42-1,0-.35-.12-.64-.36-.86-.24-.22-.54-.39-.9-.51-.36-.12-.87-.26-1.53-.42-.91-.21-1.65-.42-2.21-.63-.57-.21-1.05-.55-1.45-1.02s-.61-1.12-.61-1.94c0-1.06.4-1.92,1.21-2.58.81-.66,1.92-.99,3.35-.99s2.67.37,3.57,1.12Z"></path>
      <path d="m279.85,78.99v1.36h-1.43c-1.16,0-2.03-.28-2.6-.83-.57-.55-.86-1.48-.86-2.79v-7.07h-1.83v-1.34h1.83v-3.04h1.56v3.04h3.3v1.34h-3.3v7.09c0,.85.15,1.43.46,1.75.31.32.85.47,1.63.47h1.23Z"></path>
      <path d="m291.79,69.45c.87.89,1.31,2.19,1.31,3.91v7h-1.52v-6.89c0-1.31-.33-2.31-.99-3-.66-.7-1.56-1.05-2.71-1.05-1.2,0-2.16.38-2.87,1.16-.71.77-1.07,1.91-1.07,3.4v6.38h-1.56v-16.29h1.56v7.22c.31-1.03.87-1.81,1.67-2.36.81-.54,1.73-.81,2.77-.81,1.39,0,2.53.44,3.4,1.33Z"></path>
      <path d="m304.54,69.13c.86.63,1.45,1.47,1.77,2.51v-3.3h1.52v12.02h-1.52v-3.3c-.32,1.04-.91,1.88-1.77,2.51-.86.63-1.9.95-3.12.95-1.09,0-2.06-.25-2.92-.75-.86-.5-1.53-1.21-2-2.15-.48-.93-.72-2.02-.72-3.27s.24-2.36.72-3.29c.48-.93,1.14-1.64,1.99-2.13.85-.49,1.83-.74,2.93-.74,1.22,0,2.26.32,3.12.95Zm-5.97,1.71c-.81.86-1.22,2.03-1.22,3.51s.41,2.65,1.22,3.51c.81.86,1.9,1.29,3.25,1.29.85,0,1.62-.2,2.3-.59.68-.4,1.22-.96,1.61-1.68.39-.73.58-1.57.58-2.52s-.19-1.79-.58-2.52c-.39-.73-.92-1.29-1.61-1.68s-1.45-.59-2.3-.59c-1.35,0-2.43.43-3.25,1.29Z"></path>
      <path d="m316.64,78.99v1.36h-1.43c-1.16,0-2.03-.28-2.6-.83-.57-.55-.86-1.48-.86-2.79v-7.07h-1.83v-1.34h1.83v-3.04h1.56v3.04h3.3v1.34h-3.3v7.09c0,.85.15,1.43.46,1.75.31.32.85.47,1.63.47h1.23Z"></path>
      <path d="m333.07,69.13c.86.63,1.45,1.47,1.77,2.51v-3.3h1.52v12.02h-1.52v-3.3c-.32,1.04-.91,1.88-1.77,2.51-.86.63-1.9.95-3.12.95-1.09,0-2.06-.25-2.92-.75-.86-.5-1.53-1.21-2-2.15-.48-.93-.72-2.02-.72-3.27s.24-2.36.72-3.29c.48-.93,1.14-1.64,1.99-2.13.85-.49,1.83-.74,2.93-.74,1.22,0,2.26.32,3.12.95Zm-5.97,1.71c-.81.86-1.22,2.03-1.22,3.51s.41,2.65,1.22,3.51c.81.86,1.9,1.29,3.25,1.29.85,0,1.62-.2,2.3-.59.68-.4,1.22-.96,1.61-1.68.39-.73.58-1.57.58-2.52s-.19-1.79-.58-2.52c-.39-.73-.92-1.29-1.61-1.68s-1.45-.59-2.3-.59c-1.35,0-2.43.43-3.25,1.29Z"></path>
      <path d="m342.97,68.82c.78-.47,1.72-.7,2.84-.7v1.67h-.51c-1.16,0-2.12.31-2.88.94-.76.62-1.14,1.64-1.14,3.05v6.58h-1.56v-12.02h1.56v2.49c.35-.87.92-1.53,1.7-2Z"></path>
      <path d="m355.82,78.42c.73-.54,1.17-1.28,1.32-2.2h1.63c-.22,1.28-.83,2.31-1.83,3.1-1,.79-2.26,1.19-3.79,1.19-1.14,0-2.16-.25-3.05-.74s-1.58-1.2-2.08-2.14c-.5-.93-.75-2.03-.75-3.29s.25-2.36.75-3.29c.5-.93,1.19-1.64,2.08-2.13.89-.49,1.9-.74,3.05-.74s2.19.25,3.05.74c.86.49,1.51,1.15,1.96,1.97.45.82.67,1.72.67,2.69,0,.41-.03.79-.09,1.12h-9.95c.01,1.01.22,1.86.63,2.54s.93,1.19,1.57,1.51c.65.32,1.34.48,2.09.48,1.09,0,2-.27,2.73-.82Zm-4.8-8.5c-.65.32-1.17.82-1.57,1.49-.4.67-.62,1.5-.65,2.5h8.5c.06-.98-.1-1.81-.48-2.49-.38-.67-.9-1.17-1.54-1.5-.65-.32-1.35-.48-2.11-.48s-1.49.16-2.13.48Z"></path>
      <path d="m25.68,93.83c-.45.42-.67,1.12-.67,2.1v.48h3.02v1.37h-3.02v10.66h-1.54v-10.66h-1.78v-1.37h1.78v-.59c0-1.35.37-2.36,1.1-3.04.73-.68,1.89-.98,3.46-.92v1.36c-1.12-.01-1.9.19-2.34.61Z"></path>
      <path d="m38.51,97.21c.86.63,1.45,1.47,1.77,2.51v-3.3h1.52v12.02h-1.52v-3.3c-.32,1.04-.91,1.88-1.77,2.51-.86.63-1.9.95-3.12.95-1.09,0-2.06-.25-2.92-.75-.86-.5-1.53-1.21-2-2.15-.48-.93-.72-2.02-.72-3.27s.24-2.36.72-3.29c.48-.93,1.14-1.64,1.99-2.13.85-.49,1.83-.74,2.93-.74,1.22,0,2.26.32,3.12.95Zm-5.97,1.71c-.81.86-1.22,2.03-1.22,3.51s.41,2.65,1.22,3.51c.81.86,1.9,1.29,3.25,1.29.85,0,1.62-.2,2.3-.59.68-.4,1.22-.96,1.61-1.68.39-.73.58-1.57.58-2.52s-.19-1.79-.58-2.52c-.39-.73-.92-1.29-1.61-1.68s-1.45-.59-2.3-.59c-1.35,0-2.43.43-3.25,1.29Z"></path>
      <path d="m51.93,97.3c.79.69,1.28,1.62,1.45,2.8h-1.48c-.09-.78-.41-1.42-.96-1.93-.55-.51-1.29-.76-2.21-.76-.79,0-1.41.19-1.86.58-.45.39-.67.91-.67,1.55,0,.48.14.87.43,1.17.29.29.64.52,1.07.67s1,.31,1.72.47c.88.21,1.59.41,2.12.63.54.21.99.55,1.38,1s.57,1.07.57,1.85c0,.95-.36,1.74-1.07,2.34-.71.61-1.66.91-2.83.91-1.38,0-2.51-.34-3.39-1.02-.88-.68-1.4-1.62-1.56-2.81h1.5c.09.79.43,1.44,1.03,1.94.6.5,1.42.75,2.44.75.76,0,1.36-.2,1.78-.59s.64-.91.64-1.54c0-.51-.15-.92-.44-1.23-.29-.31-.66-.54-1.09-.69-.43-.15-1.02-.32-1.77-.5-.87-.21-1.56-.41-2.08-.62-.52-.21-.97-.52-1.33-.96-.37-.43-.55-1.02-.55-1.77,0-.98.36-1.78,1.08-2.38.72-.6,1.7-.9,2.93-.9,1.31,0,2.36.35,3.15,1.04Z"></path>
      <path d="m61.77,107.08v1.36h-1.43c-1.16,0-2.03-.28-2.6-.83-.57-.55-.86-1.48-.86-2.79v-7.07h-1.83v-1.34h1.83v-3.04h1.56v3.04h3.3v1.34h-3.3v7.09c0,.85.15,1.43.46,1.75.31.32.85.47,1.63.47h1.23Z"></path>
      <path d="m65.38,108.71c0,.7-.17,1.27-.51,1.68-.34.42-.84.63-1.52.63v-.73c.35,0,.61-.1.77-.3.16-.2.24-.5.24-.91v-.18h-.99v-1.7h1.78c.15.5.22,1,.22,1.5Z"></path>
      <path d="m82.03,97c.9.49,1.61,1.2,2.12,2.13.51.93.77,2.03.77,3.29s-.26,2.36-.77,3.28-1.22,1.64-2.12,2.14c-.9.5-1.93.75-3.07.75s-2.17-.25-3.08-.75c-.91-.5-1.63-1.21-2.15-2.15-.52-.93-.78-2.02-.78-3.27s.26-2.36.78-3.29c.52-.93,1.24-1.64,2.15-2.13.91-.49,1.94-.74,3.08-.74s2.17.25,3.07.74Zm-5.27,1.13c-.67.35-1.22.89-1.63,1.62s-.62,1.62-.62,2.67.21,1.94.62,2.66c.41.72.95,1.25,1.63,1.61.67.35,1.41.53,2.2.53s1.5-.18,2.17-.53c.67-.35,1.21-.89,1.62-1.61.41-.72.62-1.61.62-2.66s-.21-1.95-.62-2.67-.95-1.27-1.62-1.62c-.67-.35-1.39-.53-2.17-.53s-1.53.18-2.2.53Z"></path>
      <path d="m97.05,97c.84.49,1.5,1.2,1.98,2.13.48.93.72,2.03.72,3.29s-.24,2.34-.72,3.27c-.48.93-1.14,1.65-1.99,2.15-.85.5-1.82.75-2.91.75-1.23,0-2.28-.32-3.13-.95-.85-.63-1.44-1.47-1.76-2.51v8.98h-1.54v-17.7h1.54v3.3c.32-1.04.91-1.88,1.76-2.51.85-.63,1.89-.95,3.13-.95,1.1,0,2.07.25,2.92.74Zm-5.64,1.22c-.68.4-1.21.96-1.6,1.68-.38.73-.57,1.57-.57,2.52s.19,1.79.57,2.52c.38.73.91,1.29,1.6,1.68.68.4,1.45.59,2.3.59,1.37,0,2.45-.43,3.26-1.29.81-.86,1.21-2.03,1.21-3.51s-.4-2.65-1.21-3.51c-.81-.86-1.89-1.29-3.26-1.29-.85,0-1.62.2-2.3.59Z"></path>
      <path d="m110.49,106.5c.73-.54,1.17-1.28,1.32-2.2h1.63c-.22,1.28-.83,2.31-1.83,3.1-1,.79-2.26,1.19-3.79,1.19-1.14,0-2.16-.25-3.05-.74s-1.58-1.2-2.08-2.14c-.5-.93-.75-2.03-.75-3.29s.25-2.36.75-3.29c.5-.93,1.19-1.64,2.08-2.13.89-.49,1.9-.74,3.05-.74s2.19.25,3.05.74c.86.49,1.51,1.15,1.96,1.97.45.82.67,1.72.67,2.69,0,.41-.03.79-.09,1.12h-9.95c.01,1.01.22,1.86.63,2.54s.93,1.19,1.57,1.51c.65.32,1.34.48,2.09.48,1.09,0,2-.27,2.73-.82Zm-4.8-8.5c-.65.32-1.17.82-1.57,1.49-.4.67-.62,1.5-.65,2.5h8.5c.06-.98-.1-1.81-.48-2.49-.38-.67-.9-1.17-1.54-1.5-.65-.32-1.35-.48-2.11-.48s-1.49.16-2.13.48Z"></path>
      <path d="m125.69,97.53c.87.89,1.31,2.19,1.31,3.91v7h-1.52v-6.89c0-1.31-.33-2.31-.99-3-.66-.7-1.56-1.05-2.71-1.05-1.2,0-2.16.38-2.87,1.16-.71.77-1.07,1.91-1.07,3.4v6.38h-1.56v-12.02h1.56v2.95c.31-1.03.87-1.81,1.67-2.36.81-.54,1.73-.81,2.77-.81,1.39,0,2.53.44,3.4,1.33Z"></path>
      <path d="m131.34,108.71c0,.7-.17,1.27-.51,1.68-.34.42-.84.63-1.52.63v-.73c.35,0,.61-.1.77-.3.16-.2.24-.5.24-.91v-.18h-.99v-1.7h1.78c.15.5.22,1,.22,1.5Z"></path>
      <path d="m147.66,97.21c.86.63,1.45,1.47,1.77,2.51v-3.3h1.52v12.02h-1.52v-3.3c-.32,1.04-.91,1.88-1.77,2.51-.86.63-1.9.95-3.12.95-1.09,0-2.06-.25-2.92-.75-.86-.5-1.53-1.21-2-2.15-.48-.93-.72-2.02-.72-3.27s.24-2.36.72-3.29c.48-.93,1.14-1.64,1.99-2.13.85-.49,1.83-.74,2.93-.74,1.22,0,2.26.32,3.12.95Zm-5.97,1.71c-.81.86-1.22,2.03-1.22,3.51s.41,2.65,1.22,3.51c.81.86,1.9,1.29,3.25,1.29.85,0,1.62-.2,2.3-.59.68-.4,1.22-.96,1.61-1.68.39-.73.58-1.57.58-2.52s-.19-1.79-.58-2.52c-.39-.73-.92-1.29-1.61-1.68s-1.45-.59-2.3-.59c-1.35,0-2.43.43-3.25,1.29Z"></path>
      <path d="m163.71,97.53c.87.89,1.31,2.19,1.31,3.91v7h-1.52v-6.89c0-1.31-.33-2.31-.99-3-.66-.7-1.56-1.05-2.71-1.05-1.2,0-2.16.38-2.87,1.16-.71.77-1.07,1.91-1.07,3.4v6.38h-1.56v-12.02h1.56v2.95c.31-1.03.87-1.81,1.67-2.36.81-.54,1.73-.81,2.77-.81,1.39,0,2.53.44,3.4,1.33Z"></path>
      <path d="m176.46,97.21c.86.63,1.44,1.47,1.75,2.51v-7.57h1.54v16.29h-1.54v-3.3c-.31,1.04-.89,1.88-1.75,2.51-.86.63-1.9.95-3.12.95-1.09,0-2.06-.25-2.92-.75-.86-.5-1.53-1.21-2-2.15-.48-.93-.72-2.02-.72-3.27s.24-2.36.72-3.29c.48-.93,1.14-1.64,1.99-2.13.85-.49,1.83-.74,2.93-.74,1.22,0,2.26.32,3.12.95Zm-5.97,1.71c-.81.86-1.22,2.03-1.22,3.51s.41,2.65,1.22,3.51c.81.86,1.9,1.29,3.25,1.29.85,0,1.62-.2,2.3-.59.68-.4,1.22-.96,1.61-1.68.39-.73.58-1.57.58-2.52s-.19-1.79-.58-2.52c-.39-.73-.92-1.29-1.61-1.68s-1.45-.59-2.3-.59c-1.35,0-2.43.43-3.25,1.29Z"></path>
      <path d="m195.6,97.3c.79.69,1.28,1.62,1.45,2.8h-1.48c-.09-.78-.41-1.42-.96-1.93-.55-.51-1.29-.76-2.21-.76-.79,0-1.41.19-1.86.58-.45.39-.67.91-.67,1.55,0,.48.14.87.43,1.17.29.29.64.52,1.07.67s1,.31,1.72.47c.88.21,1.59.41,2.12.63.54.21.99.55,1.38,1s.57,1.07.57,1.85c0,.95-.36,1.74-1.07,2.34-.71.61-1.66.91-2.83.91-1.38,0-2.51-.34-3.39-1.02-.88-.68-1.4-1.62-1.56-2.81h1.5c.09.79.43,1.44,1.03,1.94.6.5,1.42.75,2.44.75.76,0,1.36-.2,1.78-.59s.64-.91.64-1.54c0-.51-.15-.92-.44-1.23-.29-.31-.66-.54-1.09-.69-.43-.15-1.02-.32-1.77-.5-.87-.21-1.56-.41-2.08-.62-.52-.21-.97-.52-1.33-.96-.37-.43-.55-1.02-.55-1.77,0-.98.36-1.78,1.08-2.38.72-.6,1.7-.9,2.93-.9,1.31,0,2.36.35,3.15,1.04Z"></path>
      <path d="m209.08,97.48c1,.81,1.62,1.88,1.84,3.21h-1.61c-.16-.95-.61-1.71-1.34-2.26-.73-.55-1.64-.83-2.71-.83-.78,0-1.49.18-2.15.53-.65.35-1.17.89-1.56,1.62s-.58,1.62-.58,2.67.19,1.95.58,2.67.91,1.27,1.56,1.62c.65.35,1.37.53,2.15.53,1.07,0,1.97-.28,2.71-.83.73-.55,1.18-1.3,1.34-2.26h1.61c-.22,1.34-.83,2.41-1.84,3.21-1,.81-2.27,1.21-3.8,1.21-1.14,0-2.16-.25-3.05-.74s-1.58-1.2-2.08-2.14c-.5-.93-.75-2.03-.75-3.29s.25-2.36.75-3.29c.5-.93,1.19-1.64,2.08-2.13.89-.49,1.9-.74,3.05-.74,1.53,0,2.79.4,3.8,1.21Z"></path>
      <path d="m221.87,97.21c.86.63,1.45,1.47,1.77,2.51v-3.3h1.52v12.02h-1.52v-3.3c-.32,1.04-.91,1.88-1.77,2.51-.86.63-1.9.95-3.12.95-1.09,0-2.06-.25-2.92-.75-.86-.5-1.53-1.21-2-2.15-.48-.93-.72-2.02-.72-3.27s.24-2.36.72-3.29c.48-.93,1.14-1.64,1.99-2.13.85-.49,1.83-.74,2.93-.74,1.22,0,2.26.32,3.12.95Zm-5.97,1.71c-.81.86-1.22,2.03-1.22,3.51s.41,2.65,1.22,3.51c.81.86,1.9,1.29,3.25,1.29.85,0,1.62-.2,2.3-.59.68-.4,1.22-.96,1.61-1.68.39-.73.58-1.57.58-2.52s-.19-1.79-.58-2.52c-.39-.73-.92-1.29-1.61-1.68s-1.45-.59-2.3-.59c-1.35,0-2.43.43-3.25,1.29Z"></path>
      <path d="m230.07,92.15v16.29h-1.56v-16.29h1.56Z"></path>
      <path d="m241.6,97.21c.86.63,1.45,1.47,1.77,2.51v-3.3h1.52v12.02h-1.52v-3.3c-.32,1.04-.91,1.88-1.77,2.51-.86.63-1.9.95-3.12.95-1.09,0-2.06-.25-2.92-.75-.86-.5-1.53-1.21-2-2.15-.48-.93-.72-2.02-.72-3.27s.24-2.36.72-3.29c.48-.93,1.14-1.64,1.99-2.13.85-.49,1.83-.74,2.93-.74,1.22,0,2.26.32,3.12.95Zm-5.97,1.71c-.81.86-1.22,2.03-1.22,3.51s.41,2.65,1.22,3.51c.81.86,1.9,1.29,3.25,1.29.85,0,1.62-.2,2.3-.59.68-.4,1.22-.96,1.61-1.68.39-.73.58-1.57.58-2.52s-.19-1.79-.58-2.52c-.39-.73-.92-1.29-1.61-1.68s-1.45-.59-2.3-.59c-1.35,0-2.43.43-3.25,1.29Z"></path>
      <path d="m257.58,97c.84.49,1.5,1.2,1.98,2.13.48.93.72,2.03.72,3.29s-.24,2.34-.72,3.27c-.48.93-1.14,1.65-1.99,2.15-.85.5-1.82.75-2.91.75-1.23,0-2.28-.32-3.13-.95-.85-.63-1.44-1.47-1.76-2.51v3.3h-1.54v-16.29h1.54v7.57c.32-1.04.91-1.88,1.76-2.51.85-.63,1.89-.95,3.13-.95,1.1,0,2.07.25,2.92.74Zm-5.64,1.22c-.68.4-1.21.96-1.6,1.68-.38.73-.57,1.57-.57,2.52s.19,1.79.57,2.52c.38.73.91,1.29,1.6,1.68.68.4,1.45.59,2.3.59,1.37,0,2.45-.43,3.26-1.29.81-.86,1.21-2.03,1.21-3.51s-.4-2.65-1.21-3.51c-.81-.86-1.89-1.29-3.26-1.29-.85,0-1.62.2-2.3.59Z"></path>
      <path d="m264.62,92.15v16.29h-1.56v-16.29h1.56Z"></path>
      <path d="m275.93,106.5c.73-.54,1.17-1.28,1.32-2.2h1.63c-.22,1.28-.83,2.31-1.83,3.1-1,.79-2.26,1.19-3.79,1.19-1.14,0-2.16-.25-3.05-.74s-1.58-1.2-2.08-2.14c-.5-.93-.75-2.03-.75-3.29s.25-2.36.75-3.29c.5-.93,1.19-1.64,2.08-2.13.89-.49,1.9-.74,3.05-.74s2.19.25,3.05.74c.86.49,1.51,1.15,1.96,1.97.45.82.67,1.72.67,2.69,0,.41-.03.79-.09,1.12h-9.95c.01,1.01.22,1.86.63,2.54s.93,1.19,1.57,1.51c.65.32,1.34.48,2.09.48,1.09,0,2-.27,2.73-.82Zm-4.8-8.5c-.65.32-1.17.82-1.57,1.49-.4.67-.62,1.5-.65,2.5h8.5c.06-.98-.1-1.81-.48-2.49-.38-.67-.9-1.17-1.54-1.5-.65-.32-1.35-.48-2.11-.48s-1.49.16-2.13.48Z"></path>
      <path d="m298.17,99.64v1.3h-11.43v-1.3h11.43Z"></path>
      <path d="m314.98,93.83c-.45.42-.67,1.12-.67,2.1v.48h3.02v1.37h-3.02v10.66h-1.54v-10.66h-1.78v-1.37h1.78v-.59c0-1.35.37-2.36,1.1-3.04.73-.68,1.89-.98,3.46-.92v1.36c-1.12-.01-1.9.19-2.34.61Z"></path>
      <path d="m328.14,97c.9.49,1.61,1.2,2.12,2.13.51.93.77,2.03.77,3.29s-.26,2.36-.77,3.28-1.22,1.64-2.12,2.14c-.9.5-1.93.75-3.07.75s-2.17-.25-3.08-.75c-.91-.5-1.63-1.21-2.15-2.15-.52-.93-.78-2.02-.78-3.27s.26-2.36.78-3.29c.52-.93,1.24-1.64,2.15-2.13.91-.49,1.94-.74,3.08-.74s2.17.25,3.07.74Zm-5.27,1.13c-.67.35-1.22.89-1.63,1.62s-.62,1.62-.62,2.67.21,1.94.62,2.66c.41.72.95,1.25,1.63,1.61.67.35,1.41.53,2.2.53s1.5-.18,2.17-.53c.67-.35,1.21-.89,1.62-1.61.41-.72.62-1.61.62-2.66s-.21-1.95-.62-2.67-.95-1.27-1.62-1.62c-.67-.35-1.39-.53-2.17-.53s-1.53.18-2.2.53Z"></path>
      <path d="m337.07,96.91c.78-.47,1.72-.7,2.84-.7v1.67h-.51c-1.16,0-2.12.31-2.88.94-.76.62-1.14,1.64-1.14,3.05v6.58h-1.56v-12.02h1.56v2.49c.35-.87.92-1.53,1.7-2Z"></path>
      <path d="m31.14,125.3c.86.63,1.45,1.47,1.77,2.51v-3.3h1.52v12.31c0,1.12-.24,2.09-.71,2.94s-1.12,1.5-1.96,1.96c-.84.46-1.79.69-2.86.69-1.57,0-2.86-.38-3.86-1.13-1.01-.76-1.66-1.78-1.97-3.07h1.54c.26.88.75,1.58,1.46,2.09.71.51,1.63.77,2.74.77.76,0,1.46-.17,2.08-.5.62-.33,1.12-.82,1.48-1.46.36-.65.54-1.41.54-2.29v-3.59c-.32,1.04-.91,1.88-1.77,2.51-.86.63-1.9.95-3.12.95-1.09,0-2.06-.25-2.92-.75-.86-.5-1.53-1.21-2-2.15-.48-.93-.72-2.02-.72-3.27s.24-2.36.72-3.29c.48-.93,1.14-1.64,1.99-2.14.85-.49,1.83-.74,2.93-.74,1.22,0,2.26.32,3.12.95Zm-5.97,1.71c-.81.86-1.22,2.03-1.22,3.51s.41,2.65,1.22,3.51,1.9,1.29,3.25,1.29c.85,0,1.62-.2,2.3-.59s1.22-.96,1.61-1.68c.39-.73.58-1.57.58-2.52s-.19-1.79-.58-2.52c-.39-.73-.92-1.29-1.61-1.68-.68-.4-1.45-.59-2.3-.59-1.35,0-2.43.43-3.25,1.29Z"></path>
      <path d="m41.03,124.99c.78-.47,1.72-.71,2.84-.71v1.67h-.51c-1.16,0-2.12.31-2.88.94-.76.62-1.14,1.64-1.14,3.05v6.58h-1.56v-12.02h1.56v2.49c.35-.87.92-1.53,1.7-2Z"></path>
      <path d="m53.89,134.59c.73-.54,1.17-1.28,1.32-2.2h1.63c-.22,1.28-.83,2.31-1.83,3.1-1,.79-2.26,1.19-3.79,1.19-1.14,0-2.16-.25-3.05-.74-.89-.49-1.58-1.2-2.08-2.13-.5-.93-.75-2.03-.75-3.29s.25-2.36.75-3.29c.5-.93,1.19-1.64,2.08-2.14.89-.49,1.9-.74,3.05-.74s2.19.25,3.05.74c.86.49,1.51,1.15,1.96,1.97s.67,1.72.67,2.69c0,.41-.03.79-.09,1.12h-9.95c.01,1.01.22,1.86.63,2.54s.93,1.19,1.57,1.51c.65.32,1.34.48,2.09.48,1.09,0,2-.27,2.73-.81Zm-4.8-8.5c-.65.32-1.17.82-1.57,1.49-.4.67-.62,1.5-.65,2.5h8.5c.06-.98-.1-1.81-.48-2.49-.38-.67-.9-1.17-1.54-1.5-.65-.32-1.35-.48-2.11-.48s-1.49.16-2.13.48Z"></path>
      <path d="m67.86,125.3c.86.63,1.45,1.47,1.77,2.51v-3.3h1.52v12.02h-1.52v-3.3c-.32,1.04-.91,1.88-1.77,2.51-.86.63-1.9.95-3.12.95-1.09,0-2.06-.25-2.92-.75-.86-.5-1.53-1.21-2-2.15-.48-.93-.72-2.02-.72-3.27s.24-2.36.72-3.29c.48-.93,1.14-1.64,1.99-2.14.85-.49,1.83-.74,2.93-.74,1.22,0,2.26.32,3.12.95Zm-5.97,1.71c-.81.86-1.22,2.03-1.22,3.51s.41,2.65,1.22,3.51,1.9,1.29,3.25,1.29c.85,0,1.62-.2,2.3-.59s1.22-.96,1.61-1.68c.39-.73.58-1.57.58-2.52s-.19-1.79-.58-2.52c-.39-.73-.92-1.29-1.61-1.68-.68-.4-1.45-.59-2.3-.59-1.35,0-2.43.43-3.25,1.29Z"></path>
      <path d="m79.96,135.16v1.37h-1.43c-1.16,0-2.03-.28-2.6-.83-.57-.55-.86-1.48-.86-2.78v-7.07h-1.83v-1.34h1.83v-3.04h1.56v3.04h3.3v1.34h-3.3v7.09c0,.85.15,1.43.46,1.75.31.32.85.47,1.63.47h1.23Z"></path>
      <path d="m90.46,134.59c.73-.54,1.17-1.28,1.32-2.2h1.63c-.22,1.28-.83,2.31-1.83,3.1-1,.79-2.26,1.19-3.79,1.19-1.14,0-2.16-.25-3.05-.74-.89-.49-1.58-1.2-2.08-2.13-.5-.93-.75-2.03-.75-3.29s.25-2.36.75-3.29c.5-.93,1.19-1.64,2.08-2.14.89-.49,1.9-.74,3.05-.74s2.19.25,3.05.74c.86.49,1.51,1.15,1.96,1.97s.67,1.72.67,2.69c0,.41-.03.79-.09,1.12h-9.95c.01,1.01.22,1.86.63,2.54s.93,1.19,1.57,1.51c.65.32,1.34.48,2.09.48,1.09,0,2-.27,2.73-.81Zm-4.8-8.5c-.65.32-1.17.82-1.57,1.49-.4.67-.62,1.5-.65,2.5h8.5c.06-.98-.1-1.81-.48-2.49-.38-.67-.9-1.17-1.54-1.5-.65-.32-1.35-.48-2.11-.48s-1.49.16-2.13.48Z"></path>
      <path d="m99.51,124.99c.78-.47,1.72-.71,2.84-.71v1.67h-.51c-1.16,0-2.12.31-2.88.94-.76.62-1.14,1.64-1.14,3.05v6.58h-1.56v-12.02h1.56v2.49c.35-.87.92-1.53,1.7-2Z"></path>
      <path d="m118.09,134.59c.73-.54,1.17-1.28,1.32-2.2h1.63c-.22,1.28-.83,2.31-1.83,3.1-1,.79-2.26,1.19-3.79,1.19-1.14,0-2.16-.25-3.05-.74-.89-.49-1.58-1.2-2.08-2.13-.5-.93-.75-2.03-.75-3.29s.25-2.36.75-3.29c.5-.93,1.19-1.64,2.08-2.14.89-.49,1.9-.74,3.05-.74s2.19.25,3.05.74c.86.49,1.51,1.15,1.96,1.97s.67,1.72.67,2.69c0,.41-.03.79-.09,1.12h-9.95c.01,1.01.22,1.86.63,2.54s.93,1.19,1.57,1.51c.65.32,1.34.48,2.09.48,1.09,0,2-.27,2.73-.81Zm-4.8-8.5c-.65.32-1.17.82-1.57,1.49-.4.67-.62,1.5-.65,2.5h8.5c.06-.98-.1-1.81-.48-2.49-.38-.67-.9-1.17-1.54-1.5-.65-.32-1.35-.48-2.11-.48s-1.49.16-2.13.48Z"></path>
      <path d="m126.6,121.92c-.45.42-.67,1.12-.67,2.1v.48h3.02v1.37h-3.02v10.66h-1.54v-10.66h-1.78v-1.37h1.78v-.59c0-1.35.37-2.36,1.1-3.04.73-.67,1.89-.98,3.46-.92v1.37c-1.12-.01-1.9.19-2.34.61Z"></path>
      <path d="m133.97,121.92c-.45.42-.67,1.12-.67,2.1v.48h3.02v1.37h-3.02v10.66h-1.54v-10.66h-1.78v-1.37h1.78v-.59c0-1.35.37-2.36,1.1-3.04.73-.67,1.89-.98,3.46-.92v1.37c-1.12-.01-1.9.19-2.34.61Z"></path>
      <path d="m138.59,120.17c.21-.19.49-.29.83-.29s.61.1.81.29c.21.19.31.45.31.77s-.1.56-.31.75c-.21.19-.48.29-.81.29s-.61-.09-.83-.29c-.21-.19-.32-.44-.32-.75,0-.32.11-.58.32-.77Zm1.6,4.34v12.02h-1.56v-12.02h1.56Z"></path>
      <path d="m152.64,125.56c1,.81,1.62,1.88,1.84,3.21h-1.61c-.16-.95-.61-1.71-1.34-2.26-.73-.55-1.64-.83-2.71-.83-.78,0-1.49.18-2.15.53-.65.35-1.17.89-1.56,1.62s-.58,1.62-.58,2.67.19,1.95.58,2.67.91,1.27,1.56,1.62c.65.35,1.37.53,2.15.53,1.07,0,1.97-.27,2.71-.83.73-.55,1.18-1.3,1.34-2.26h1.61c-.22,1.34-.83,2.41-1.84,3.21-1,.81-2.27,1.21-3.8,1.21-1.14,0-2.16-.25-3.05-.74-.89-.49-1.58-1.2-2.08-2.13-.5-.93-.75-2.03-.75-3.29s.25-2.36.75-3.29c.5-.93,1.19-1.64,2.08-2.14.89-.49,1.9-.74,3.05-.74,1.53,0,2.79.4,3.8,1.21Z"></path>
      <path d="m157.22,120.17c.21-.19.49-.29.83-.29s.61.1.81.29c.21.19.31.45.31.77s-.1.56-.31.75c-.21.19-.48.29-.81.29s-.61-.09-.83-.29c-.21-.19-.32-.44-.32-.75,0-.32.11-.58.32-.77Zm1.6,4.34v12.02h-1.56v-12.02h1.56Z"></path>
      <path d="m170.13,134.59c.73-.54,1.17-1.28,1.32-2.2h1.63c-.22,1.28-.83,2.31-1.83,3.1-1,.79-2.26,1.19-3.79,1.19-1.14,0-2.16-.25-3.05-.74-.89-.49-1.58-1.2-2.08-2.13-.5-.93-.75-2.03-.75-3.29s.25-2.36.75-3.29c.5-.93,1.19-1.64,2.08-2.14.89-.49,1.9-.74,3.05-.74s2.19.25,3.05.74c.86.49,1.51,1.15,1.96,1.97s.67,1.72.67,2.69c0,.41-.03.79-.09,1.12h-9.95c.01,1.01.22,1.86.63,2.54s.93,1.19,1.57,1.51c.65.32,1.34.48,2.09.48,1.09,0,2-.27,2.73-.81Zm-4.8-8.5c-.65.32-1.17.82-1.57,1.49-.4.67-.62,1.5-.65,2.5h8.5c.06-.98-.1-1.81-.48-2.49-.38-.67-.9-1.17-1.54-1.5-.65-.32-1.35-.48-2.11-.48s-1.49.16-2.13.48Z"></path>
      <path d="m185.33,125.62c.87.89,1.31,2.19,1.31,3.91v7h-1.52v-6.89c0-1.31-.33-2.31-.99-3.01-.66-.7-1.56-1.05-2.71-1.05-1.2,0-2.16.39-2.87,1.16s-1.07,1.9-1.07,3.4v6.38h-1.56v-12.02h1.56v2.95c.31-1.03.87-1.81,1.67-2.36.81-.54,1.73-.81,2.77-.81,1.39,0,2.53.44,3.4,1.33Z"></path>
      <path d="m199,125.56c1,.81,1.62,1.88,1.84,3.21h-1.61c-.16-.95-.61-1.71-1.34-2.26-.73-.55-1.64-.83-2.71-.83-.78,0-1.49.18-2.15.53-.65.35-1.17.89-1.56,1.62s-.58,1.62-.58,2.67.19,1.95.58,2.67.91,1.27,1.56,1.62c.65.35,1.37.53,2.15.53,1.07,0,1.97-.27,2.71-.83.73-.55,1.18-1.3,1.34-2.26h1.61c-.22,1.34-.83,2.41-1.84,3.21-1,.81-2.27,1.21-3.8,1.21-1.14,0-2.16-.25-3.05-.74-.89-.49-1.58-1.2-2.08-2.13-.5-.93-.75-2.03-.75-3.29s.25-2.36.75-3.29c.5-.93,1.19-1.64,2.08-2.14.89-.49,1.9-.74,3.05-.74,1.53,0,2.79.4,3.8,1.21Z"></path>
      <path d="m203.94,124.51l4.18,10.02,3.85-10.02h1.72l-7.07,17.7h-1.76l2.42-5.81-5.06-11.89h1.72Z"></path>
      <path d="m229.56,125.3c.86.63,1.45,1.47,1.77,2.51v-3.3h1.52v12.02h-1.52v-3.3c-.32,1.04-.91,1.88-1.77,2.51-.86.63-1.9.95-3.12.95-1.09,0-2.06-.25-2.92-.75-.86-.5-1.53-1.21-2-2.15-.48-.93-.72-2.02-.72-3.27s.24-2.36.72-3.29c.48-.93,1.14-1.64,1.99-2.14.85-.49,1.83-.74,2.93-.74,1.22,0,2.26.32,3.12.95Zm-5.97,1.71c-.81.86-1.22,2.03-1.22,3.51s.41,2.65,1.22,3.51,1.9,1.29,3.25,1.29c.85,0,1.62-.2,2.3-.59s1.22-.96,1.61-1.68c.39-.73.58-1.57.58-2.52s-.19-1.79-.58-2.52c-.39-.73-.92-1.29-1.61-1.68-.68-.4-1.45-.59-2.3-.59-1.35,0-2.43.43-3.25,1.29Z"></path>
      <path d="m245.61,125.62c.87.89,1.31,2.19,1.31,3.91v7h-1.52v-6.89c0-1.31-.33-2.31-.99-3.01-.66-.7-1.56-1.05-2.71-1.05-1.2,0-2.16.39-2.87,1.16s-1.07,1.9-1.07,3.4v6.38h-1.56v-12.02h1.56v2.95c.31-1.03.87-1.81,1.67-2.36.81-.54,1.73-.81,2.77-.81,1.39,0,2.53.44,3.4,1.33Z"></path>
      <path d="m258.35,125.3c.86.63,1.44,1.47,1.75,2.51v-7.57h1.54v16.29h-1.54v-3.3c-.31,1.04-.89,1.88-1.75,2.51-.86.63-1.9.95-3.12.95-1.09,0-2.06-.25-2.92-.75-.86-.5-1.53-1.21-2-2.15-.48-.93-.72-2.02-.72-3.27s.24-2.36.72-3.29c.48-.93,1.14-1.64,1.99-2.14.85-.49,1.83-.74,2.93-.74,1.22,0,2.26.32,3.12.95Zm-5.97,1.71c-.81.86-1.22,2.03-1.22,3.51s.41,2.65,1.22,3.51,1.9,1.29,3.25,1.29c.85,0,1.62-.2,2.3-.59s1.22-.96,1.61-1.68c.39-.73.58-1.57.58-2.52s-.19-1.79-.58-2.52c-.39-.73-.92-1.29-1.61-1.68-.68-.4-1.45-.59-2.3-.59-1.35,0-2.43.43-3.25,1.29Z"></path>
      <path d="m280.06,125.09c.84.49,1.5,1.2,1.98,2.14.48.93.72,2.03.72,3.29s-.24,2.34-.72,3.27c-.48.93-1.14,1.65-1.99,2.15-.85.5-1.82.75-2.91.75-1.23,0-2.28-.32-3.13-.95-.85-.63-1.44-1.47-1.76-2.51v3.3h-1.54v-16.29h1.54v7.57c.32-1.04.91-1.88,1.76-2.51.85-.63,1.89-.95,3.13-.95,1.1,0,2.07.25,2.92.74Zm-5.64,1.22c-.68.4-1.21.96-1.6,1.68-.38.73-.57,1.57-.57,2.52s.19,1.79.57,2.52c.38.73.91,1.29,1.6,1.68s1.45.59,2.3.59c1.37,0,2.45-.43,3.26-1.29.81-.86,1.21-2.03,1.21-3.51s-.4-2.65-1.21-3.51c-.81-.86-1.89-1.29-3.26-1.29-.85,0-1.62.2-2.3.59Z"></path>
      <path d="m295.9,124.51v12.02h-1.54v-2.97c-.31,1.04-.87,1.83-1.67,2.38-.81.54-1.73.81-2.77.81-1.41,0-2.55-.44-3.42-1.33-.87-.89-1.31-2.19-1.31-3.91v-7h1.54v6.87c0,1.32.33,2.33.99,3.03.66.7,1.56,1.05,2.71,1.05,1.2,0,2.16-.38,2.87-1.16s1.07-1.9,1.07-3.4v-6.38h1.54Z"></path>
      <path d="m306.05,125.39c.79.69,1.28,1.62,1.45,2.8h-1.48c-.09-.78-.41-1.42-.96-1.93-.55-.51-1.29-.76-2.21-.76-.79,0-1.41.2-1.86.58-.45.39-.67.91-.67,1.55,0,.48.14.87.43,1.17s.64.52,1.07.67c.43.15,1,.31,1.72.47.88.21,1.59.42,2.12.63.54.21.99.55,1.38,1,.38.46.57,1.07.57,1.85,0,.95-.36,1.74-1.07,2.34-.71.61-1.66.91-2.83.91-1.38,0-2.51-.34-3.39-1.02-.88-.68-1.4-1.62-1.56-2.81h1.5c.09.79.43,1.44,1.03,1.94s1.42.75,2.44.75c.76,0,1.36-.2,1.78-.59.43-.4.64-.91.64-1.54,0-.51-.15-.92-.44-1.23-.29-.31-.66-.54-1.09-.69-.43-.15-1.02-.32-1.77-.5-.87-.21-1.56-.41-2.08-.62-.52-.21-.97-.52-1.33-.96-.37-.43-.55-1.02-.55-1.77,0-.98.36-1.78,1.08-2.38.72-.6,1.7-.9,2.93-.9,1.31,0,2.36.34,3.15,1.04Z"></path>
      <path d="m310.4,120.17c.21-.19.49-.29.83-.29s.61.1.81.29c.21.19.31.45.31.77s-.1.56-.31.75c-.21.19-.48.29-.81.29s-.61-.09-.83-.29c-.21-.19-.32-.44-.32-.75,0-.32.11-.58.32-.77Zm1.6,4.34v12.02h-1.56v-12.02h1.56Z"></path>
      <path d="m324.75,125.62c.87.89,1.31,2.19,1.31,3.91v7h-1.52v-6.89c0-1.31-.33-2.31-.99-3.01-.66-.7-1.56-1.05-2.71-1.05-1.2,0-2.16.39-2.87,1.16s-1.07,1.9-1.07,3.4v6.38h-1.56v-12.02h1.56v2.95c.31-1.03.87-1.81,1.67-2.36.81-.54,1.73-.81,2.77-.81,1.39,0,2.53.44,3.4,1.33Z"></path>
      <path d="m337.29,134.59c.73-.54,1.17-1.28,1.32-2.2h1.63c-.22,1.28-.83,2.31-1.83,3.1-1,.79-2.26,1.19-3.79,1.19-1.14,0-2.16-.25-3.05-.74-.89-.49-1.58-1.2-2.08-2.13-.5-.93-.75-2.03-.75-3.29s.25-2.36.75-3.29c.5-.93,1.19-1.64,2.08-2.14.89-.49,1.9-.74,3.05-.74s2.19.25,3.05.74c.86.49,1.51,1.15,1.96,1.97s.67,1.72.67,2.69c0,.41-.03.79-.09,1.12h-9.95c.01,1.01.22,1.86.63,2.54s.93,1.19,1.57,1.51c.65.32,1.34.48,2.09.48,1.09,0,2-.27,2.73-.81Zm-4.8-8.5c-.65.32-1.17.82-1.57,1.49-.4.67-.62,1.5-.65,2.5h8.5c.06-.98-.1-1.81-.48-2.49-.38-.67-.9-1.17-1.54-1.5-.65-.32-1.35-.48-2.11-.48s-1.49.16-2.13.48Z"></path>
      <path d="m349.86,125.39c.79.69,1.28,1.62,1.45,2.8h-1.48c-.09-.78-.41-1.42-.96-1.93-.55-.51-1.29-.76-2.21-.76-.79,0-1.41.2-1.86.58-.45.39-.67.91-.67,1.55,0,.48.14.87.43,1.17s.64.52,1.07.67c.43.15,1,.31,1.72.47.88.21,1.59.42,2.12.63.54.21.99.55,1.38,1,.38.46.57,1.07.57,1.85,0,.95-.36,1.74-1.07,2.34-.71.61-1.66.91-2.83.91-1.38,0-2.51-.34-3.39-1.02-.88-.68-1.4-1.62-1.56-2.81h1.5c.09.79.43,1.44,1.03,1.94s1.42.75,2.44.75c.76,0,1.36-.2,1.78-.59.43-.4.64-.91.64-1.54,0-.51-.15-.92-.44-1.23-.29-.31-.66-.54-1.09-.69-.43-.15-1.02-.32-1.77-.5-.87-.21-1.56-.41-2.08-.62-.52-.21-.97-.52-1.33-.96-.37-.43-.55-1.02-.55-1.77,0-.98.36-1.78,1.08-2.38.72-.6,1.7-.9,2.93-.9,1.31,0,2.36.34,3.15,1.04Z"></path>
      <path d="m361.02,125.39c.79.69,1.28,1.62,1.45,2.8h-1.48c-.09-.78-.41-1.42-.96-1.93-.55-.51-1.29-.76-2.21-.76-.79,0-1.41.2-1.86.58-.45.39-.67.91-.67,1.55,0,.48.14.87.43,1.17s.64.52,1.07.67c.43.15,1,.31,1.72.47.88.21,1.59.42,2.12.63.54.21.99.55,1.38,1,.38.46.57,1.07.57,1.85,0,.95-.36,1.74-1.07,2.34-.71.61-1.66.91-2.83.91-1.38,0-2.51-.34-3.39-1.02-.88-.68-1.4-1.62-1.56-2.81h1.5c.09.79.43,1.44,1.03,1.94s1.42.75,2.44.75c.76,0,1.36-.2,1.78-.59.43-.4.64-.91.64-1.54,0-.51-.15-.92-.44-1.23-.29-.31-.66-.54-1.09-.69-.43-.15-1.02-.32-1.77-.5-.87-.21-1.56-.41-2.08-.62-.52-.21-.97-.52-1.33-.96-.37-.43-.55-1.02-.55-1.77,0-.98.36-1.78,1.08-2.38.72-.6,1.7-.9,2.93-.9,1.31,0,2.36.34,3.15,1.04Z"></path>
      <path d="m26.22,153.08c.78-.47,1.72-.7,2.84-.7v1.67h-.51c-1.16,0-2.12.31-2.88.94-.76.62-1.14,1.64-1.14,3.05v6.58h-1.56v-12.02h1.56v2.49c.35-.87.92-1.53,1.7-2Z"></path>
      <path d="m39.07,162.67c.73-.54,1.17-1.28,1.32-2.2h1.63c-.22,1.28-.83,2.31-1.83,3.1-1,.79-2.26,1.19-3.79,1.19-1.14,0-2.16-.25-3.05-.74s-1.58-1.2-2.08-2.14c-.5-.93-.75-2.03-.75-3.29s.25-2.36.75-3.29c.5-.93,1.19-1.64,2.08-2.13.89-.49,1.9-.74,3.05-.74s2.19.25,3.05.74c.86.49,1.51,1.15,1.96,1.97.45.82.67,1.72.67,2.69,0,.41-.03.79-.09,1.12h-9.95c.01,1.01.22,1.86.63,2.54s.93,1.19,1.57,1.51c.65.32,1.34.48,2.09.48,1.09,0,2-.27,2.73-.82Zm-4.8-8.5c-.65.32-1.17.82-1.57,1.49-.4.67-.62,1.5-.65,2.5h8.5c.06-.98-.1-1.81-.48-2.49-.38-.67-.9-1.17-1.54-1.5-.65-.32-1.35-.48-2.11-.48s-1.49.16-2.13.48Z"></path>
      <path d="m51.64,153.47c.79.69,1.28,1.62,1.45,2.8h-1.48c-.09-.78-.41-1.42-.96-1.93-.55-.51-1.29-.76-2.21-.76-.79,0-1.41.19-1.86.58-.45.39-.67.91-.67,1.55,0,.48.14.87.43,1.17.29.29.64.52,1.07.67s1,.31,1.72.47c.88.21,1.59.41,2.12.63.54.21.99.55,1.38,1s.57,1.07.57,1.85c0,.95-.36,1.74-1.07,2.34-.71.61-1.66.91-2.83.91-1.38,0-2.51-.34-3.39-1.02-.88-.68-1.4-1.62-1.56-2.81h1.5c.09.79.43,1.44,1.03,1.94.6.5,1.42.75,2.44.75.76,0,1.36-.2,1.78-.59s.64-.91.64-1.54c0-.51-.15-.92-.44-1.23-.29-.31-.66-.54-1.09-.69-.43-.15-1.02-.32-1.77-.5-.87-.21-1.56-.41-2.08-.62-.52-.21-.97-.52-1.33-.96-.37-.43-.55-1.02-.55-1.77,0-.98.36-1.78,1.08-2.38.72-.6,1.7-.9,2.93-.9,1.31,0,2.36.35,3.15,1.04Z"></path>
      <path d="m55.99,148.25c.21-.19.49-.29.83-.29s.61.1.81.29c.21.19.31.45.31.77s-.1.56-.31.75c-.21.19-.48.29-.81.29s-.61-.1-.83-.29c-.21-.19-.32-.44-.32-.75s.11-.58.32-.77Zm1.6,4.34v12.02h-1.56v-12.02h1.56Z"></path>
      <path d="m62.5,148.32v16.29h-1.56v-16.29h1.56Z"></path>
      <path d="m65.81,148.25c.21-.19.49-.29.83-.29s.61.1.81.29c.21.19.31.45.31.77s-.1.56-.31.75c-.21.19-.48.29-.81.29s-.61-.1-.83-.29c-.21-.19-.32-.44-.32-.75s.11-.58.32-.77Zm1.6,4.34v12.02h-1.56v-12.02h1.56Z"></path>
      <path d="m78.72,162.67c.73-.54,1.17-1.28,1.32-2.2h1.63c-.22,1.28-.83,2.31-1.83,3.1-1,.79-2.26,1.19-3.79,1.19-1.14,0-2.16-.25-3.05-.74s-1.58-1.2-2.08-2.14c-.5-.93-.75-2.03-.75-3.29s.25-2.36.75-3.29c.5-.93,1.19-1.64,2.08-2.13.89-.49,1.9-.74,3.05-.74s2.19.25,3.05.74c.86.49,1.51,1.15,1.96,1.97.45.82.67,1.72.67,2.69,0,.41-.03.79-.09,1.12h-9.95c.01,1.01.22,1.86.63,2.54s.93,1.19,1.57,1.51c.65.32,1.34.48,2.09.48,1.09,0,2-.27,2.73-.82Zm-4.8-8.5c-.65.32-1.17.82-1.57,1.49-.4.67-.62,1.5-.65,2.5h8.5c.06-.98-.1-1.81-.48-2.49-.38-.67-.9-1.17-1.54-1.5-.65-.32-1.35-.48-2.11-.48s-1.49.16-2.13.48Z"></path>
      <path d="m93.92,153.7c.87.89,1.31,2.19,1.31,3.91v7h-1.52v-6.89c0-1.31-.33-2.31-.99-3-.66-.7-1.56-1.05-2.71-1.05-1.2,0-2.16.38-2.87,1.16-.71.77-1.07,1.91-1.07,3.4v6.38h-1.56v-12.02h1.56v2.95c.31-1.03.87-1.81,1.67-2.36.81-.54,1.73-.81,2.77-.81,1.39,0,2.53.44,3.4,1.33Z"></path>
      <path d="m107.59,153.65c1,.81,1.62,1.88,1.84,3.21h-1.61c-.16-.95-.61-1.71-1.34-2.26-.73-.55-1.64-.83-2.71-.83-.78,0-1.49.18-2.15.53-.65.35-1.17.89-1.56,1.62s-.58,1.62-.58,2.67.19,1.95.58,2.67.91,1.27,1.56,1.62c.65.35,1.37.53,2.15.53,1.07,0,1.97-.28,2.71-.83.73-.55,1.18-1.3,1.34-2.26h1.61c-.22,1.34-.83,2.41-1.84,3.21-1,.81-2.27,1.21-3.8,1.21-1.14,0-2.16-.25-3.05-.74s-1.58-1.2-2.08-2.14c-.5-.93-.75-2.03-.75-3.29s.25-2.36.75-3.29c.5-.93,1.19-1.64,2.08-2.13.89-.49,1.9-.74,3.05-.74,1.53,0,2.79.4,3.8,1.21Z"></path>
      <path d="m112.54,152.59l4.18,10.02,3.85-10.02h1.72l-7.07,17.7h-1.76l2.42-5.81-5.06-11.89h1.72Z"></path>
    </g>
    <g>
      <g>
        <rect class="cls-3" x="240.74" y="193.86" width="138.94" height="36.61"></rect>
        <rect class="cls-3" x="243.3" y="196.42" width="133.83" height="31.88"></rect>
      </g>
      <g>
        <g>
          <path d="m267.17,215.48v-7.39h1.37v6.23h3.86v1.16h-5.24Z"></path>
          <path d="m274.86,214.33h4.17v1.15h-5.54v-7.39h5.39v1.15h-4.02v5.09Zm-.11-3.17h3.67v1.13h-3.67v-1.13Z"></path>
          <path d="m279.52,215.48l3.33-7.39h1.35l3.34,7.39h-1.44l-2.86-6.66h.55l-2.85,6.66h-1.41Zm1.53-1.71l.37-1.08h3.99l.37,1.08h-4.73Z"></path>
          <path d="m288.47,215.48v-7.39h3.04c.65,0,1.22.11,1.68.32s.83.51,1.08.91c.25.39.38.86.38,1.4s-.13,1.01-.38,1.4c-.25.39-.61.69-1.08.9s-1.03.31-1.68.31h-2.28l.61-.62v2.78h-1.37Zm1.37-2.63l-.61-.65h2.22c.61,0,1.06-.13,1.37-.39.31-.26.46-.62.46-1.09s-.15-.83-.46-1.09c-.31-.25-.76-.38-1.37-.38h-2.22l.61-.68v4.27Zm3.46,2.63l-1.87-2.68h1.47l1.88,2.68h-1.48Z"></path>
          <path d="m296.18,215.48v-7.39h1.13l4.63,5.69h-.56v-5.69h1.36v7.39h-1.13l-4.63-5.69h.56v5.69h-1.36Z"></path>
          <path class="cls-4" d="m307.65,215.48v-7.39h1.13l3.23,5.39h-.59l3.18-5.39h1.13v7.39s-1.29,0-1.29,0v-5.35s.26,0,.26,0l-2.7,4.51h-.61l-2.74-4.51h.32v5.35h-1.31Z"></path>
          <path class="cls-4" d="m321.19,215.59c-.58,0-1.11-.09-1.59-.29s-.91-.46-1.27-.8c-.36-.34-.64-.74-.83-1.2s-.29-.97-.29-1.51.1-1.05.29-1.51.48-.86.83-1.2c.36-.34.78-.61,1.27-.8.49-.19,1.01-.28,1.58-.28s1.11.09,1.59.28c.48.19.9.46,1.26.8.36.34.64.74.83,1.2.2.46.29.97.29,1.51s-.1,1.06-.29,1.52c-.2.46-.48.87-.83,1.2-.36.34-.78.6-1.26.79s-1.01.29-1.58.29Zm-.01-1.2c.37,0,.72-.06,1.04-.19.32-.13.59-.31.82-.54.23-.24.41-.51.54-.82.13-.31.2-.66.2-1.04s-.06-.73-.2-1.04c-.13-.31-.31-.59-.54-.82-.23-.24-.51-.42-.82-.54-.32-.13-.66-.19-1.04-.19s-.72.06-1.03.19c-.31.13-.59.31-.82.54s-.42.51-.55.82c-.13.31-.19.66-.19,1.04s.06.72.19,1.03c.13.32.31.59.54.83.23.24.51.42.82.54s.66.19,1.03.19Z"></path>
          <path class="cls-4" d="m326.61,215.48v-7.39h3.04c.65,0,1.22.11,1.68.32s.83.51,1.08.91c.25.39.38.86.38,1.4s-.13,1.01-.38,1.4c-.25.39-.61.69-1.08.9s-1.03.31-1.68.31h-2.28l.61-.62v2.78h-1.37Zm1.37-2.63l-.61-.65h2.22c.61,0,1.06-.13,1.37-.39.31-.26.46-.62.46-1.09s-.15-.83-.46-1.09c-.31-.25-.76-.38-1.37-.38h-2.22l.61-.68v4.27Zm3.46,2.63l-1.87-2.68h1.47l1.88,2.68h-1.48Z"></path>
          <path class="cls-4" d="m335.7,214.33h4.17v1.15h-5.54v-7.39h5.39v1.15h-4.02v5.09Zm-.11-3.17h3.67v1.13h-3.67v-1.13Z"></path>
        </g>
        <polygon class="cls-4" points="353.19 214.17 343.28 214.17 348.04 209.41 353.19 214.17"></polygon>
      </g>
    </g>
  </g>
</svg>
