<?xml version="1.0" encoding="UTF-8"?>
<svg xmlns="http://www.w3.org/2000/svg" id="Layer_6" data-name="Layer 6" viewBox="0 0 432.57 307.78">
  <defs>
    <style>
      .cls-1 {
        fill: #c64027;
      }

      .cls-2 {
        stroke-width: 4px;
      }

      .cls-2, .cls-3 {
        fill: none;
        stroke: #000;
        stroke-miterlimit: 10;
      }
    </style>
  </defs>
  <g id="Text">
    <g>
      <path class="cls-1" d="m23.4,23.98h5.45v19.12h11.81v4.44h-17.27v-23.56Z"></path>
      <path class="cls-1" d="m41.85,35.76c0-7,5.45-12.19,12.89-12.19s12.89,5.15,12.89,12.19-5.49,12.18-12.89,12.18-12.89-5.18-12.89-12.18Zm20.26,0c0-4.48-3.16-7.54-7.37-7.54s-7.37,3.06-7.37,7.54,3.16,7.54,7.37,7.54,7.37-3.06,7.37-7.54Z"></path>
      <path class="cls-1" d="m106.58,23.98l-7.71,23.56h-5.86l-5.18-15.96-5.35,15.96h-5.82l-7.74-23.56h5.66l5.32,16.56,5.55-16.56h5.05l5.39,16.7,5.49-16.7h5.22Z"></path>
      <path class="cls-1" d="m107.87,33.5h9.53v4.21h-9.53v-4.21Z"></path>
      <path class="cls-1" d="m120.89,35.76c0-7.1,5.45-12.19,12.79-12.19,4.07,0,7.47,1.48,9.69,4.17l-3.5,3.23c-1.58-1.82-3.57-2.76-5.92-2.76-4.41,0-7.54,3.1-7.54,7.54s3.13,7.54,7.54,7.54c2.36,0,4.34-.94,5.92-2.79l3.5,3.23c-2.22,2.73-5.62,4.21-9.73,4.21-7.3,0-12.76-5.08-12.76-12.18Z"></path>
      <path class="cls-1" d="m145.06,35.76c0-7,5.45-12.19,12.89-12.19s12.89,5.15,12.89,12.19-5.49,12.18-12.89,12.18-12.89-5.18-12.89-12.18Zm20.26,0c0-4.48-3.16-7.54-7.37-7.54s-7.37,3.06-7.37,7.54,3.16,7.54,7.37,7.54,7.37-3.06,7.37-7.54Z"></path>
      <path class="cls-1" d="m174.96,23.98h10.7c7.71,0,12.99,4.64,12.99,11.78s-5.29,11.78-12.99,11.78h-10.7v-23.56Zm10.43,19.08c4.68,0,7.74-2.79,7.74-7.3s-3.06-7.3-7.74-7.3h-4.98v14.61h4.98Z"></path>
      <path class="cls-1" d="m221.01,43.16v4.38h-18.24v-23.56h17.81v4.38h-12.39v5.12h10.94v4.24h-10.94v5.45h12.83Z"></path>
      <path class="cls-1" d="m250.39,42.49h-10.94l-2.09,5.05h-5.59l10.5-23.56h5.39l10.54,23.56h-5.72l-2.09-5.05Zm-1.72-4.14l-3.74-9.02-3.74,9.02h7.47Z"></path>
      <path class="cls-1" d="m281.09,32.53c0,5.25-3.94,8.52-10.23,8.52h-4.75v6.5h-5.45v-23.56h10.2c6.29,0,10.23,3.26,10.23,8.55Zm-5.52,0c0-2.59-1.68-4.11-5.02-4.11h-4.44v8.18h4.44c3.33,0,5.02-1.51,5.02-4.07Z"></path>
      <path class="cls-1" d="m305.4,32.53c0,5.25-3.94,8.52-10.23,8.52h-4.75v6.5h-5.45v-23.56h10.2c6.29,0,10.23,3.26,10.23,8.55Zm-5.52,0c0-2.59-1.68-4.11-5.02-4.11h-4.44v8.18h4.44c3.33,0,5.02-1.51,5.02-4.07Z"></path>
      <path class="cls-1" d="m23.4,64.37h10.7c7.71,0,12.99,4.64,12.99,11.78s-5.29,11.78-12.99,11.78h-10.7v-23.56Zm10.43,19.08c4.68,0,7.74-2.79,7.74-7.3s-3.06-7.3-7.74-7.3h-4.98v14.61h4.98Z"></path>
      <path class="cls-1" d="m69.45,83.56v4.38h-18.24v-23.56h17.81v4.38h-12.39v5.12h10.94v4.24h-10.94v5.45h12.83Z"></path>
      <path class="cls-1" d="m96.11,64.37l-10.2,23.56h-5.39l-10.17-23.56h5.89l7.17,16.83,7.27-16.83h5.42Z"></path>
      <path class="cls-1" d="m116.31,83.56v4.38h-18.24v-23.56h17.81v4.38h-12.39v5.12h10.94v4.24h-10.94v5.45h12.83Z"></path>
      <path class="cls-1" d="m120.66,64.37h5.45v19.12h11.81v4.44h-17.27v-23.56Z"></path>
      <path class="cls-1" d="m139.1,76.15c0-7,5.45-12.19,12.89-12.19s12.89,5.15,12.89,12.19-5.49,12.18-12.89,12.18-12.89-5.18-12.89-12.18Zm20.26,0c0-4.48-3.16-7.54-7.37-7.54s-7.37,3.06-7.37,7.54,3.16,7.54,7.37,7.54,7.37-3.06,7.37-7.54Z"></path>
      <path class="cls-1" d="m189.43,72.92c0,5.25-3.94,8.52-10.23,8.52h-4.75v6.5h-5.45v-23.56h10.2c6.29,0,10.23,3.26,10.23,8.55Zm-5.52,0c0-2.59-1.68-4.11-5.02-4.11h-4.44v8.18h4.44c3.33,0,5.02-1.51,5.02-4.07Z"></path>
      <path class="cls-1" d="m214.75,87.93l-.03-14.14-6.93,11.65h-2.46l-6.9-11.34v13.83h-5.12v-23.56h4.51l8.82,14.64,8.68-14.64h4.48l.07,23.56h-5.12Z"></path>
      <path class="cls-1" d="m243.7,83.56v4.38h-18.24v-23.56h17.81v4.38h-12.39v5.12h10.94v4.24h-10.94v5.45h12.83Z"></path>
      <path class="cls-1" d="m269.65,64.37v23.56h-4.48l-11.75-14.31v14.31h-5.39v-23.56h4.51l11.71,14.31v-14.31h5.39Z"></path>
      <path class="cls-1" d="m280.12,68.82h-7.54v-4.44h20.53v4.44h-7.54v19.12h-5.45v-19.12Z"></path>
    </g>
    <g>
      <path d="m31.37,118.17h-5.83l-.97,2.84h-3.96l5.7-15.46h4.34l5.7,15.46h-4.01l-.97-2.84Zm-.97-2.86l-1.94-5.72-1.96,5.72h3.9Z"></path>
      <path d="m50.02,108.72v12.28h-3.79v-2.22c-.35.72-.88,1.29-1.57,1.72-.7.43-1.51.64-2.43.64-1.41,0-2.53-.47-3.36-1.41s-1.24-2.23-1.24-3.88v-7.13h3.74v6.67c0,.84.22,1.49.65,1.95.43.46,1.02.69,1.75.69s1.37-.24,1.81-.73.66-1.17.66-2.07v-6.52h3.79Z"></path>
      <path d="m59.58,117.77v3.24h-1.7c-1.44,0-2.56-.36-3.36-1.07s-1.2-1.89-1.2-3.53v-4.51h-1.65v-3.17h1.65v-3.02h3.76v3.02h2.47v3.17h-2.47v4.58c0,.48.1.82.3,1.01.2.19.53.29,1,.29h1.19Z"></path>
      <path d="m70.7,109.33c.96.51,1.72,1.24,2.27,2.19.55.95.83,2.07.83,3.35s-.28,2.39-.83,3.35c-.55.95-1.31,1.68-2.27,2.19-.96.51-2.05.76-3.27.76s-2.31-.25-3.28-.76c-.97-.51-1.73-1.24-2.28-2.19-.55-.95-.83-2.07-.83-3.35s.28-2.39.83-3.35c.55-.95,1.31-1.68,2.28-2.19.97-.51,2.06-.76,3.28-.76s2.31.25,3.27.76Zm-5.09,3.28c-.49.52-.74,1.27-.74,2.26s.25,1.73.74,2.25,1.1.77,1.82.77,1.32-.26,1.81-.77.73-1.26.73-2.25-.24-1.74-.73-2.26c-.48-.52-1.09-.78-1.81-.78s-1.32.26-1.82.78Z"></path>
      <path d="m95.24,109.99c.87.93,1.3,2.23,1.3,3.89v7.13h-3.74v-6.69c0-.78-.21-1.38-.63-1.82-.42-.43-.99-.65-1.71-.65s-1.34.23-1.77.69c-.43.46-.65,1.11-.65,1.95v6.52h-3.76v-6.69c0-.78-.21-1.38-.62-1.82-.41-.43-.98-.65-1.7-.65s-1.34.23-1.78.68c-.44.46-.66,1.11-.66,1.96v6.52h-3.76v-12.28h3.76v2.09c.32-.69.82-1.23,1.49-1.63s1.45-.59,2.34-.59,1.77.22,2.49.65c.72.43,1.26,1.05,1.63,1.86.43-.76,1.01-1.37,1.75-1.83.74-.45,1.56-.68,2.45-.68,1.51,0,2.7.47,3.57,1.4Z"></path>
      <path d="m106.14,109.21c.67.43,1.17,1,1.5,1.74v-2.22h3.74v12.28h-3.74v-2.22c-.32.73-.82,1.31-1.5,1.74-.67.43-1.48.64-2.42.64-1.01,0-1.92-.25-2.72-.76-.8-.51-1.43-1.24-1.89-2.19-.46-.95-.69-2.07-.69-3.35s.23-2.41.69-3.36c.46-.95,1.09-1.67,1.89-2.18.8-.51,1.71-.76,2.72-.76.94,0,1.75.21,2.42.64Zm-3.16,3.46c-.49.53-.74,1.26-.74,2.2s.25,1.67.74,2.2,1.14.79,1.95.79,1.44-.27,1.95-.81c.51-.54.76-1.27.76-2.18s-.25-1.66-.76-2.19c-.51-.54-1.16-.8-1.95-.8s-1.46.26-1.95.79Z"></path>
      <path d="m120.93,117.77v3.24h-1.7c-1.44,0-2.56-.36-3.36-1.07s-1.2-1.89-1.2-3.53v-4.51h-1.65v-3.17h1.65v-3.02h3.76v3.02h2.47v3.17h-2.47v4.58c0,.48.1.82.3,1.01.2.19.53.29,1,.29h1.19Z"></path>
      <path d="m123.31,103.84c.41-.37.95-.56,1.63-.56s1.22.19,1.63.56c.41.38.62.85.62,1.42s-.21,1.02-.62,1.4-.95.56-1.63.56-1.22-.19-1.63-.56c-.41-.37-.62-.84-.62-1.4s.21-1.04.62-1.42Zm3.5,4.88v12.28h-3.76v-12.28h3.76Z"></path>
      <path d="m140.56,110c.83.94,1.24,2.23,1.24,3.88v7.13h-3.76v-6.69c0-.82-.22-1.46-.65-1.93-.43-.46-1.01-.69-1.73-.69-.76,0-1.37.24-1.82.73-.45.48-.67,1.17-.67,2.07v6.52h-3.76v-12.28h3.76v2.25c.35-.73.88-1.31,1.57-1.74.7-.42,1.52-.64,2.46-.64,1.41,0,2.53.47,3.36,1.41Z"></path>
      <path d="m151.38,109.21c.67.43,1.17,1,1.5,1.74v-2.22h3.74v12.22c0,1.14-.22,2.18-.66,3.09s-1.12,1.65-2.03,2.19-2.04.81-3.39.81c-1.85,0-3.33-.44-4.44-1.31s-1.77-2.06-1.99-3.56h3.72c.12.5.38.89.8,1.17.42.28.96.42,1.64.42.78,0,1.41-.22,1.88-.67.48-.45.71-1.16.71-2.15v-2.16c-.32.73-.82,1.31-1.5,1.74-.67.43-1.48.64-2.42.64-1.01,0-1.92-.25-2.72-.76-.8-.51-1.43-1.24-1.89-2.19-.46-.95-.69-2.07-.69-3.35s.23-2.41.69-3.36c.46-.95,1.09-1.67,1.89-2.18.8-.51,1.71-.76,2.72-.76.94,0,1.75.21,2.42.64Zm-3.16,3.46c-.49.53-.74,1.26-.74,2.2s.25,1.67.74,2.2,1.14.79,1.95.79,1.44-.27,1.95-.81c.51-.54.76-1.27.76-2.18s-.25-1.66-.76-2.19c-.51-.54-1.16-.8-1.95-.8s-1.46.26-1.95.79Z"></path>
      <path d="m174,109.33c.8.51,1.43,1.23,1.89,2.18.46.95.69,2.07.69,3.36s-.23,2.39-.69,3.35c-.46.95-1.09,1.68-1.89,2.19-.8.51-1.71.76-2.72.76-.94,0-1.75-.21-2.42-.64-.68-.42-1.17-1-1.48-1.74v2.22h-3.76v-16.29h3.76v6.23c.31-.73.8-1.31,1.48-1.74.67-.43,1.48-.64,2.42-.64,1.01,0,1.92.25,2.72.76Zm-5.88,3.35c-.51.54-.76,1.27-.76,2.19s.25,1.64.76,2.18c.51.54,1.16.81,1.95.81s1.46-.26,1.95-.79c.49-.53.74-1.26.74-2.2s-.25-1.67-.74-2.2c-.49-.53-1.14-.79-1.95-.79s-1.44.27-1.95.8Z"></path>
      <path d="m190.77,108.72v12.28h-3.79v-2.22c-.35.72-.88,1.29-1.57,1.72-.7.43-1.51.64-2.43.64-1.41,0-2.53-.47-3.36-1.41s-1.24-2.23-1.24-3.88v-7.13h3.74v6.67c0,.84.22,1.49.65,1.95.43.46,1.02.69,1.75.69s1.37-.24,1.81-.73.66-1.17.66-2.07v-6.52h3.79Z"></path>
      <path d="m201.56,109.73c.93.78,1.51,1.8,1.75,3.08h-3.52c-.1-.5-.33-.89-.69-1.18-.36-.29-.81-.43-1.35-.43-.43,0-.75.09-.97.28-.22.18-.33.44-.33.78,0,.38.2.67.61.86.4.19,1.04.38,1.9.57.94.22,1.71.44,2.31.67s1.12.6,1.56,1.11.66,1.2.66,2.07c0,.7-.19,1.33-.57,1.87s-.93.97-1.65,1.28c-.72.31-1.57.46-2.55.46-1.66,0-2.99-.37-3.98-1.1-1-.73-1.61-1.78-1.83-3.15h3.63c.06.53.28.93.67,1.21.39.28.89.42,1.51.42.43,0,.75-.1.97-.3.22-.2.33-.46.33-.78,0-.43-.2-.73-.61-.91-.4-.18-1.06-.38-1.97-.58-.91-.19-1.66-.4-2.25-.62-.59-.22-1.09-.58-1.52-1.07-.43-.49-.64-1.16-.64-2.01,0-1.1.42-1.99,1.25-2.67s2.02-1.02,3.54-1.02,2.8.39,3.73,1.17Z"></path>
      <path d="m205.85,103.84c.41-.37.95-.56,1.63-.56s1.22.19,1.63.56c.41.38.62.85.62,1.42s-.21,1.02-.62,1.4-.95.56-1.63.56-1.22-.19-1.63-.56c-.41-.37-.62-.84-.62-1.4s.21-1.04.62-1.42Zm3.5,4.88v12.28h-3.76v-12.28h3.76Z"></path>
      <path d="m223.1,110c.83.94,1.24,2.23,1.24,3.88v7.13h-3.76v-6.69c0-.82-.22-1.46-.65-1.93-.43-.46-1.01-.69-1.73-.69-.76,0-1.37.24-1.82.73-.45.48-.67,1.17-.67,2.07v6.52h-3.76v-12.28h3.76v2.25c.35-.73.88-1.31,1.57-1.74.7-.42,1.52-.64,2.46-.64,1.41,0,2.53.47,3.36,1.41Z"></path>
      <path d="m238.39,115.55h-8.52c.04.92.28,1.59.71,1.99.42.4.97.61,1.63.61.56,0,1.02-.14,1.39-.42.37-.28.61-.64.73-1.08h3.98c-.16.87-.51,1.64-1.06,2.32s-1.23,1.22-2.07,1.61c-.84.39-1.77.58-2.8.58-1.2,0-2.27-.25-3.2-.76-.93-.51-1.66-1.24-2.19-2.19s-.79-2.07-.79-3.35.26-2.41.78-3.36c.52-.95,1.25-1.67,2.19-2.18.94-.51,2.01-.76,3.21-.76s2.29.25,3.21.75c.92.5,1.64,1.2,2.15,2.1.51.9.76,1.94.76,3.12,0,.31-.04.65-.11,1.01Zm-4.35-3.4c-.45-.4-1-.61-1.66-.61s-1.26.21-1.72.62c-.46.41-.71,1.01-.77,1.8h4.8c.01-.81-.2-1.41-.65-1.82Z"></path>
      <path d="m248.66,109.73c.93.78,1.51,1.8,1.75,3.08h-3.52c-.1-.5-.33-.89-.69-1.18-.36-.29-.81-.43-1.35-.43-.43,0-.75.09-.97.28-.22.18-.33.44-.33.78,0,.38.2.67.61.86.4.19,1.04.38,1.9.57.94.22,1.71.44,2.31.67s1.12.6,1.56,1.11.66,1.2.66,2.07c0,.7-.19,1.33-.57,1.87s-.93.97-1.65,1.28c-.72.31-1.57.46-2.55.46-1.66,0-2.99-.37-3.98-1.1-1-.73-1.61-1.78-1.83-3.15h3.63c.06.53.28.93.67,1.21.39.28.89.42,1.51.42.43,0,.75-.1.97-.3.22-.2.33-.46.33-.78,0-.43-.2-.73-.61-.91-.4-.18-1.06-.38-1.97-.58-.91-.19-1.66-.4-2.25-.62-.59-.22-1.09-.58-1.52-1.07-.43-.49-.64-1.16-.64-2.01,0-1.1.42-1.99,1.25-2.67s2.02-1.02,3.54-1.02,2.8.39,3.73,1.17Z"></path>
      <path d="m260.87,109.73c.93.78,1.51,1.8,1.75,3.08h-3.52c-.1-.5-.33-.89-.69-1.18-.36-.29-.81-.43-1.35-.43-.43,0-.75.09-.97.28-.22.18-.33.44-.33.78,0,.38.2.67.61.86.4.19,1.04.38,1.9.57.94.22,1.71.44,2.31.67s1.12.6,1.56,1.11.66,1.2.66,2.07c0,.7-.19,1.33-.57,1.87s-.93.97-1.65,1.28c-.72.31-1.57.46-2.55.46-1.66,0-2.99-.37-3.98-1.1-1-.73-1.61-1.78-1.83-3.15h3.63c.06.53.28.93.67,1.21.39.28.89.42,1.51.42.43,0,.75-.1.97-.3.22-.2.33-.46.33-.78,0-.43-.2-.73-.61-.91-.4-.18-1.06-.38-1.97-.58-.91-.19-1.66-.4-2.25-.62-.59-.22-1.09-.58-1.52-1.07-.43-.49-.64-1.16-.64-2.01,0-1.1.42-1.99,1.25-2.67s2.02-1.02,3.54-1.02,2.8.39,3.73,1.17Z"></path>
      <path d="m287.26,108.72l-3.15,12.28h-4.21l-2.22-8.23-2.25,8.23h-4.21l-3.15-12.28h3.76l1.63,8.85,2.29-8.85h4.01l2.36,8.87,1.63-8.87h3.5Z"></path>
      <path d="m297.64,109.33c.96.51,1.72,1.24,2.27,2.19.55.95.83,2.07.83,3.35s-.28,2.39-.83,3.35c-.55.95-1.31,1.68-2.27,2.19-.96.51-2.05.76-3.27.76s-2.31-.25-3.28-.76c-.97-.51-1.73-1.24-2.28-2.19-.55-.95-.83-2.07-.83-3.35s.28-2.39.83-3.35c.55-.95,1.31-1.68,2.28-2.19.97-.51,2.06-.76,3.28-.76s2.31.25,3.27.76Zm-5.09,3.28c-.49.52-.74,1.27-.74,2.26s.25,1.73.74,2.25,1.1.77,1.82.77,1.32-.26,1.81-.77.73-1.26.73-2.25-.24-1.74-.73-2.26c-.48-.52-1.09-.78-1.81-.78s-1.32.26-1.82.78Z"></path>
      <path d="m308.27,109.25c.74-.44,1.54-.66,2.41-.66v4.03h-1.08c-1,0-1.77.21-2.32.64-.55.43-.83,1.14-.83,2.16v5.59h-3.76v-12.28h3.76v2.31c.47-.75,1.08-1.34,1.82-1.78Z"></path>
      <path d="m319.71,121.01l-3.68-5.22v5.22h-3.76v-16.29h3.76v8.94l3.68-4.93h4.42l-4.95,6.14,5.06,6.14h-4.54Z"></path>
      <path d="m331.64,107.05c-.62,0-1.06.13-1.34.4-.28.26-.43.69-.46,1.28h2.22v3.17h-2.22v9.11h-3.76v-9.11h-1.48v-3.17h1.48v-.13c0-1.53.44-2.7,1.33-3.53.89-.83,2.18-1.24,3.86-1.24.35,0,.62,0,.79.02v3.24l-.42-.02Z"></path>
      <path d="m337.48,104.71v16.29h-3.76v-16.29h3.76Z"></path>
      <path d="m349.09,109.33c.96.51,1.72,1.24,2.27,2.19.55.95.83,2.07.83,3.35s-.28,2.39-.83,3.35c-.55.95-1.31,1.68-2.27,2.19-.96.51-2.05.76-3.27.76s-2.31-.25-3.28-.76c-.97-.51-1.73-1.24-2.28-2.19-.55-.95-.83-2.07-.83-3.35s.28-2.39.83-3.35c.55-.95,1.31-1.68,2.28-2.19.97-.51,2.06-.76,3.28-.76s2.31.25,3.27.76Zm-5.09,3.28c-.49.52-.74,1.27-.74,2.26s.25,1.73.74,2.25,1.1.77,1.82.77,1.32-.26,1.81-.77.73-1.26.73-2.25-.24-1.74-.73-2.26c-.48-.52-1.09-.78-1.81-.78s-1.32.26-1.82.78Z"></path>
      <path d="m372.11,108.72l-3.15,12.28h-4.21l-2.22-8.23-2.25,8.23h-4.21l-3.15-12.28h3.76l1.63,8.85,2.29-8.85h4.01l2.36,8.87,1.63-8.87h3.5Z"></path>
      <path d="m381.67,109.73c.93.78,1.51,1.8,1.75,3.08h-3.52c-.1-.5-.33-.89-.69-1.18-.36-.29-.81-.43-1.35-.43-.43,0-.75.09-.97.28-.22.18-.33.44-.33.78,0,.38.2.67.61.86.4.19,1.04.38,1.9.57.94.22,1.71.44,2.31.67s1.12.6,1.56,1.11.66,1.2.66,2.07c0,.7-.19,1.33-.57,1.87s-.93.97-1.65,1.28c-.72.31-1.57.46-2.55.46-1.66,0-2.99-.37-3.98-1.1-1-.73-1.61-1.78-1.83-3.15h3.63c.06.53.28.93.67,1.21.39.28.89.42,1.51.42.43,0,.75-.1.97-.3.22-.2.33-.46.33-.78,0-.43-.2-.73-.61-.91-.4-.18-1.06-.38-1.97-.58-.91-.19-1.66-.4-2.25-.62-.59-.22-1.09-.58-1.52-1.07-.43-.49-.64-1.16-.64-2.01,0-1.1.42-1.99,1.25-2.67s2.02-1.02,3.54-1.02,2.8.39,3.73,1.17Z"></path>
      <path d="m30.61,137.41c.9.49,1.61,1.2,2.12,2.14.51.93.77,2.03.77,3.29s-.26,2.36-.77,3.28-1.22,1.64-2.12,2.14c-.9.5-1.93.75-3.07.75s-2.17-.25-3.08-.75c-.91-.5-1.63-1.21-2.15-2.15-.52-.93-.78-2.02-.78-3.27s.26-2.36.78-3.29c.52-.93,1.24-1.64,2.15-2.14.91-.49,1.94-.74,3.08-.74s2.17.25,3.07.74Zm-5.27,1.13c-.67.35-1.22.89-1.63,1.62s-.62,1.62-.62,2.67.21,1.95.62,2.66c.41.72.95,1.25,1.63,1.61.67.35,1.41.53,2.2.53s1.5-.18,2.17-.53c.67-.35,1.21-.89,1.62-1.61.41-.72.62-1.61.62-2.66s-.21-1.95-.62-2.67-.95-1.27-1.62-1.62c-.67-.35-1.39-.53-2.17-.53s-1.53.18-2.2.53Z"></path>
      <path d="m39.54,137.31c.78-.47,1.72-.71,2.84-.71v1.67h-.51c-1.16,0-2.12.31-2.88.94-.76.62-1.14,1.64-1.14,3.05v6.58h-1.56v-12.02h1.56v2.49c.35-.87.92-1.53,1.7-2Z"></path>
      <path d="m59.5,137.41c.84.49,1.5,1.2,1.98,2.14.48.93.72,2.03.72,3.29s-.24,2.34-.72,3.27c-.48.93-1.14,1.65-1.99,2.15-.85.5-1.82.75-2.91.75-1.23,0-2.28-.32-3.13-.95-.85-.63-1.44-1.47-1.76-2.51v8.98h-1.54v-17.7h1.54v3.3c.32-1.04.91-1.88,1.76-2.51.85-.63,1.89-.95,3.13-.95,1.1,0,2.07.25,2.92.74Zm-5.64,1.22c-.68.4-1.21.96-1.6,1.68-.38.73-.57,1.57-.57,2.52s.19,1.79.57,2.52c.38.73.91,1.29,1.6,1.68s1.45.59,2.3.59c1.37,0,2.45-.43,3.26-1.29.81-.86,1.21-2.03,1.21-3.51s-.4-2.65-1.21-3.51c-.81-.86-1.89-1.29-3.26-1.29-.85,0-1.62.2-2.3.59Z"></path>
      <path d="m72.94,146.91c.73-.54,1.17-1.28,1.32-2.2h1.63c-.22,1.28-.83,2.31-1.83,3.1-1,.79-2.26,1.19-3.79,1.19-1.14,0-2.16-.25-3.05-.74-.89-.49-1.58-1.2-2.08-2.13-.5-.93-.75-2.03-.75-3.29s.25-2.36.75-3.29c.5-.93,1.19-1.64,2.08-2.14.89-.49,1.9-.74,3.05-.74s2.19.25,3.05.74c.86.49,1.51,1.15,1.96,1.97s.67,1.72.67,2.69c0,.41-.03.79-.09,1.12h-9.95c.01,1.01.22,1.86.63,2.54s.93,1.19,1.57,1.51c.65.32,1.34.48,2.09.48,1.09,0,2-.27,2.73-.81Zm-4.8-8.5c-.65.32-1.17.82-1.57,1.49-.4.67-.62,1.5-.65,2.5h8.5c.06-.98-.1-1.81-.48-2.49-.38-.67-.9-1.17-1.54-1.5-.65-.32-1.35-.48-2.11-.48s-1.49.16-2.13.48Z"></path>
      <path d="m81.99,137.31c.78-.47,1.72-.71,2.84-.71v1.67h-.51c-1.16,0-2.12.31-2.88.94-.76.62-1.14,1.64-1.14,3.05v6.58h-1.56v-12.02h1.56v2.49c.35-.87.92-1.53,1.7-2Z"></path>
      <path d="m89.59,134.24c-.45.42-.67,1.12-.67,2.1v.48h3.02v1.37h-3.02v10.66h-1.54v-10.66h-1.78v-1.37h1.78v-.59c0-1.35.37-2.36,1.1-3.04.73-.67,1.89-.98,3.46-.92v1.37c-1.12-.01-1.9.19-2.34.61Z"></path>
      <path d="m102.76,137.41c.9.49,1.61,1.2,2.12,2.14.51.93.77,2.03.77,3.29s-.26,2.36-.77,3.28-1.22,1.64-2.12,2.14c-.9.5-1.93.75-3.07.75s-2.17-.25-3.08-.75c-.91-.5-1.63-1.21-2.15-2.15-.52-.93-.78-2.02-.78-3.27s.26-2.36.78-3.29c.52-.93,1.24-1.64,2.15-2.14.91-.49,1.94-.74,3.08-.74s2.17.25,3.07.74Zm-5.27,1.13c-.67.35-1.22.89-1.63,1.62s-.62,1.62-.62,2.67.21,1.95.62,2.66c.41.72.95,1.25,1.63,1.61.67.35,1.41.53,2.2.53s1.5-.18,2.17-.53c.67-.35,1.21-.89,1.62-1.61.41-.72.62-1.61.62-2.66s-.21-1.95-.62-2.67-.95-1.27-1.62-1.62c-.67-.35-1.39-.53-2.17-.53s-1.53.18-2.2.53Z"></path>
      <path d="m111.68,137.31c.78-.47,1.72-.71,2.84-.71v1.67h-.51c-1.16,0-2.12.31-2.88.94-.76.62-1.14,1.64-1.14,3.05v6.58h-1.56v-12.02h1.56v2.49c.35-.87.92-1.53,1.7-2Z"></path>
      <path d="m134.53,137.94c.86.89,1.29,2.19,1.29,3.91v7h-1.54v-6.89c0-1.29-.31-2.28-.94-2.97-.62-.69-1.48-1.03-2.57-1.03-1.16,0-2.08.38-2.77,1.14-.69.76-1.04,1.89-1.04,3.37v6.38h-1.52v-6.89c0-1.29-.31-2.28-.94-2.97-.62-.69-1.48-1.03-2.56-1.03-1.16,0-2.08.38-2.77,1.14-.69.76-1.04,1.89-1.04,3.37v6.38h-1.56v-12.02h1.56v2.86c.29-1.01.83-1.78,1.6-2.3.77-.52,1.66-.78,2.67-.78s1.97.28,2.73.84c.76.56,1.29,1.38,1.58,2.47.32-1.07.89-1.89,1.7-2.46.81-.56,1.72-.85,2.75-.85,1.38,0,2.5.44,3.36,1.33Z"></path>
      <path d="m139.02,132.49c.21-.19.49-.29.83-.29s.61.1.81.29c.21.19.31.45.31.77s-.1.56-.31.75c-.21.19-.48.29-.81.29s-.61-.09-.83-.29c-.21-.19-.32-.44-.32-.75,0-.32.11-.58.32-.77Zm1.6,4.34v12.02h-1.56v-12.02h1.56Z"></path>
      <path d="m153.37,137.94c.87.89,1.31,2.19,1.31,3.91v7h-1.52v-6.89c0-1.31-.33-2.31-.99-3.01-.66-.7-1.56-1.05-2.71-1.05-1.2,0-2.16.39-2.87,1.16s-1.07,1.9-1.07,3.4v6.38h-1.56v-12.02h1.56v2.95c.31-1.03.87-1.81,1.67-2.36.81-.54,1.73-.81,2.77-.81,1.39,0,2.53.44,3.4,1.33Z"></path>
      <path d="m166.12,137.62c.86.63,1.45,1.47,1.77,2.51v-3.3h1.52v12.31c0,1.12-.24,2.09-.71,2.94s-1.12,1.5-1.96,1.96c-.84.46-1.79.69-2.86.69-1.57,0-2.86-.38-3.86-1.13-1.01-.76-1.66-1.78-1.97-3.07h1.54c.26.88.75,1.58,1.46,2.09.71.51,1.63.77,2.74.77.76,0,1.46-.17,2.08-.5.62-.33,1.12-.82,1.48-1.46.36-.65.54-1.41.54-2.29v-3.59c-.32,1.04-.91,1.88-1.77,2.51-.86.63-1.9.95-3.12.95-1.09,0-2.06-.25-2.92-.75-.86-.5-1.53-1.21-2-2.15-.48-.93-.72-2.02-.72-3.27s.24-2.36.72-3.29c.48-.93,1.14-1.64,1.99-2.14.85-.49,1.83-.74,2.93-.74,1.22,0,2.26.32,3.12.95Zm-5.97,1.71c-.81.86-1.22,2.03-1.22,3.51s.41,2.65,1.22,3.51,1.9,1.29,3.25,1.29c.85,0,1.62-.2,2.3-.59s1.22-.96,1.61-1.68c.39-.73.58-1.57.58-2.52s-.19-1.79-.58-2.52c-.39-.73-.92-1.29-1.61-1.68-.68-.4-1.45-.59-2.3-.59-1.35,0-2.43.43-3.25,1.29Z"></path>
      <path d="m186.45,146.91c.73-.54,1.17-1.28,1.32-2.2h1.63c-.22,1.28-.83,2.31-1.83,3.1-1,.79-2.26,1.19-3.79,1.19-1.14,0-2.16-.25-3.05-.74-.89-.49-1.58-1.2-2.08-2.13-.5-.93-.75-2.03-.75-3.29s.25-2.36.75-3.29c.5-.93,1.19-1.64,2.08-2.14.89-.49,1.9-.74,3.05-.74s2.19.25,3.05.74c.86.49,1.51,1.15,1.96,1.97s.67,1.72.67,2.69c0,.41-.03.79-.09,1.12h-9.95c.01,1.01.22,1.86.63,2.54s.93,1.19,1.57,1.51c.65.32,1.34.48,2.09.48,1.09,0,2-.27,2.73-.81Zm-4.8-8.5c-.65.32-1.17.82-1.57,1.49-.4.67-.62,1.5-.65,2.5h8.5c.06-.98-.1-1.81-.48-2.49-.38-.67-.9-1.17-1.54-1.5-.65-.32-1.35-.48-2.11-.48s-1.49.16-2.13.48Z"></path>
      <path d="m201.65,137.94c.87.89,1.31,2.19,1.31,3.91v7h-1.52v-6.89c0-1.31-.33-2.31-.99-3.01-.66-.7-1.56-1.05-2.71-1.05-1.2,0-2.16.39-2.87,1.16s-1.07,1.9-1.07,3.4v6.38h-1.56v-12.02h1.56v2.95c.31-1.03.87-1.81,1.67-2.36.81-.54,1.73-.81,2.77-.81,1.39,0,2.53.44,3.4,1.33Z"></path>
      <path d="m214.4,137.62c.86.63,1.44,1.47,1.75,2.51v-7.57h1.54v16.29h-1.54v-3.3c-.31,1.04-.89,1.88-1.75,2.51-.86.63-1.9.95-3.12.95-1.09,0-2.06-.25-2.92-.75-.86-.5-1.53-1.21-2-2.15-.48-.93-.72-2.02-.72-3.27s.24-2.36.72-3.29c.48-.93,1.14-1.64,1.99-2.14.85-.49,1.83-.74,2.93-.74,1.22,0,2.26.32,3.12.95Zm-5.97,1.71c-.81.86-1.22,2.03-1.22,3.51s.41,2.65,1.22,3.51,1.9,1.29,3.25,1.29c.85,0,1.62-.2,2.3-.59s1.22-.96,1.61-1.68c.39-.73.58-1.57.58-2.52s-.19-1.79-.58-2.52c-.39-.73-.92-1.29-1.61-1.68-.68-.4-1.45-.59-2.3-.59-1.35,0-2.43.43-3.25,1.29Z"></path>
      <path d="m227.48,140.04v1.3h-8.59v-1.3h8.59Z"></path>
      <path d="m236.99,147.48v1.37h-1.43c-1.16,0-2.03-.28-2.6-.83-.57-.55-.86-1.48-.86-2.78v-7.07h-1.83v-1.34h1.83v-3.04h1.56v3.04h3.3v1.34h-3.3v7.09c0,.85.15,1.43.46,1.75.31.32.85.47,1.63.47h1.23Z"></path>
      <path d="m248.04,137.41c.9.49,1.61,1.2,2.12,2.14.51.93.77,2.03.77,3.29s-.26,2.36-.77,3.28-1.22,1.64-2.12,2.14c-.9.5-1.93.75-3.07.75s-2.17-.25-3.08-.75c-.91-.5-1.63-1.21-2.15-2.15-.52-.93-.78-2.02-.78-3.27s.26-2.36.78-3.29c.52-.93,1.24-1.64,2.15-2.14.91-.49,1.94-.74,3.08-.74s2.17.25,3.07.74Zm-5.27,1.13c-.67.35-1.22.89-1.63,1.62s-.62,1.62-.62,2.67.21,1.95.62,2.66c.41.72.95,1.25,1.63,1.61.67.35,1.41.53,2.2.53s1.5-.18,2.17-.53c.67-.35,1.21-.89,1.62-1.61.41-.72.62-1.61.62-2.66s-.21-1.95-.62-2.67-.95-1.27-1.62-1.62c-.67-.35-1.39-.53-2.17-.53s-1.53.18-2.2.53Z"></path>
      <path d="m260.15,140.04v1.3h-8.59v-1.3h8.59Z"></path>
      <path d="m272.17,146.91c.73-.54,1.17-1.28,1.32-2.2h1.63c-.22,1.28-.83,2.31-1.83,3.1-1,.79-2.26,1.19-3.79,1.19-1.14,0-2.16-.25-3.05-.74-.89-.49-1.58-1.2-2.08-2.13-.5-.93-.75-2.03-.75-3.29s.25-2.36.75-3.29c.5-.93,1.19-1.64,2.08-2.14.89-.49,1.9-.74,3.05-.74s2.19.25,3.05.74c.86.49,1.51,1.15,1.96,1.97s.67,1.72.67,2.69c0,.41-.03.79-.09,1.12h-9.95c.01,1.01.22,1.86.63,2.54s.93,1.19,1.57,1.51c.65.32,1.34.48,2.09.48,1.09,0,2-.27,2.73-.81Zm-4.8-8.5c-.65.32-1.17.82-1.57,1.49-.4.67-.62,1.5-.65,2.5h8.5c.06-.98-.1-1.81-.48-2.49-.38-.67-.9-1.17-1.54-1.5-.65-.32-1.35-.48-2.11-.48s-1.49.16-2.13.48Z"></path>
      <path d="m287.38,137.94c.87.89,1.31,2.19,1.31,3.91v7h-1.52v-6.89c0-1.31-.33-2.31-.99-3.01-.66-.7-1.56-1.05-2.71-1.05-1.2,0-2.16.39-2.87,1.16s-1.07,1.9-1.07,3.4v6.38h-1.56v-12.02h1.56v2.95c.31-1.03.87-1.81,1.67-2.36.81-.54,1.73-.81,2.77-.81,1.39,0,2.53.44,3.4,1.33Z"></path>
      <path d="m300.12,137.62c.86.63,1.44,1.47,1.75,2.51v-7.57h1.54v16.29h-1.54v-3.3c-.31,1.04-.89,1.88-1.75,2.51-.86.63-1.9.95-3.12.95-1.09,0-2.06-.25-2.92-.75-.86-.5-1.53-1.21-2-2.15-.48-.93-.72-2.02-.72-3.27s.24-2.36.72-3.29c.48-.93,1.14-1.64,1.99-2.14.85-.49,1.83-.74,2.93-.74,1.22,0,2.26.32,3.12.95Zm-5.97,1.71c-.81.86-1.22,2.03-1.22,3.51s.41,2.65,1.22,3.51,1.9,1.29,3.25,1.29c.85,0,1.62-.2,2.3-.59s1.22-.96,1.61-1.68c.39-.73.58-1.57.58-2.52s-.19-1.79-.58-2.52c-.39-.73-.92-1.29-1.61-1.68-.68-.4-1.45-.59-2.3-.59-1.35,0-2.43.43-3.25,1.29Z"></path>
      <path d="m325.13,145.09c-.65,1.18-1.59,2.1-2.82,2.76-1.23.66-2.67.99-4.33.99h-5.88v-15.57h5.88c1.67,0,3.12.32,4.34.97,1.22.65,2.15,1.56,2.81,2.73.65,1.17.98,2.52.98,4.05s-.33,2.88-.98,4.06Zm-4.05-.78c.81-.78,1.22-1.87,1.22-3.28s-.41-2.5-1.22-3.28c-.81-.78-1.96-1.17-3.42-1.17h-1.78v8.89h1.78c1.47,0,2.61-.39,3.42-1.17Z"></path>
      <path d="m328.51,131.68c.41-.37.95-.56,1.63-.56s1.22.19,1.63.56.62.85.62,1.42-.21,1.02-.62,1.4c-.41.38-.95.56-1.63.56s-1.22-.19-1.63-.56c-.41-.37-.62-.84-.62-1.4s.21-1.05.62-1.42Zm3.5,4.88v12.29h-3.76v-12.29h3.76Z"></path>
      <path d="m341.7,137.04c.67.43,1.17,1.01,1.5,1.74v-2.22h3.74v12.22c0,1.14-.22,2.18-.66,3.09-.44.92-1.12,1.65-2.03,2.19-.91.54-2.04.81-3.39.81-1.85,0-3.33-.44-4.44-1.31s-1.77-2.06-1.99-3.55h3.72c.12.5.38.89.8,1.17.42.28.96.42,1.64.42.78,0,1.41-.22,1.88-.67.48-.45.71-1.16.71-2.15v-2.16c-.32.73-.82,1.31-1.5,1.74s-1.48.64-2.42.64c-1.01,0-1.92-.25-2.72-.76-.8-.51-1.43-1.24-1.89-2.19-.46-.95-.69-2.07-.69-3.35s.23-2.41.69-3.36c.46-.95,1.09-1.67,1.89-2.18.8-.51,1.71-.76,2.72-.76.94,0,1.75.21,2.42.64Zm-3.16,3.46c-.49.53-.74,1.26-.74,2.2s.25,1.67.74,2.2,1.14.79,1.95.79,1.44-.27,1.95-.81c.51-.54.76-1.27.76-2.18s-.25-1.65-.76-2.19c-.51-.54-1.16-.8-1.95-.8s-1.46.26-1.95.79Z"></path>
      <path d="m349.8,131.68c.41-.37.95-.56,1.63-.56s1.22.19,1.63.56.62.85.62,1.42-.21,1.02-.62,1.4c-.41.38-.95.56-1.63.56s-1.22-.19-1.63-.56c-.41-.37-.62-.84-.62-1.4s.21-1.05.62-1.42Zm3.5,4.88v12.29h-3.76v-12.29h3.76Z"></path>
      <path d="m362.85,145.61v3.24h-1.7c-1.44,0-2.56-.36-3.36-1.07-.8-.71-1.2-1.89-1.2-3.53v-4.51h-1.65v-3.17h1.65v-3.02h3.76v3.02h2.47v3.17h-2.47v4.58c0,.48.1.82.3,1.01s.53.29,1,.29h1.19Z"></path>
      <path d="m372.06,137.04c.67.43,1.17,1.01,1.5,1.74v-2.22h3.74v12.29h-3.74v-2.22c-.32.73-.82,1.31-1.5,1.74s-1.48.64-2.42.64c-1.01,0-1.92-.25-2.72-.76-.8-.51-1.43-1.24-1.89-2.19-.46-.95-.69-2.07-.69-3.35s.23-2.41.69-3.36c.46-.95,1.09-1.67,1.89-2.18.8-.51,1.71-.76,2.72-.76.94,0,1.75.21,2.42.64Zm-3.16,3.46c-.49.53-.74,1.26-.74,2.2s.25,1.67.74,2.2,1.14.79,1.95.79,1.44-.27,1.95-.81c.51-.54.76-1.27.76-2.18s-.25-1.65-.76-2.19c-.51-.54-1.16-.8-1.95-.8s-1.46.26-1.95.79Z"></path>
      <path d="m383.66,132.55v16.29h-3.76v-16.29h3.76Z"></path>
      <path d="m32.91,161.12v2.99h-4.23v12.57h-3.79v-12.57h-4.18v-2.99h12.2Z"></path>
      <path d="m40.08,164.93c.74-.44,1.54-.66,2.41-.66v4.03h-1.08c-1,0-1.77.21-2.32.64-.55.43-.83,1.15-.83,2.16v5.59h-3.76v-12.29h3.76v2.31c.47-.75,1.08-1.34,1.82-1.78Z"></path>
      <path d="m51.17,164.88c.67.43,1.17,1.01,1.5,1.74v-2.22h3.74v12.29h-3.74v-2.22c-.32.73-.82,1.31-1.5,1.74s-1.48.64-2.42.64c-1.01,0-1.92-.25-2.72-.76-.8-.51-1.43-1.24-1.89-2.19-.46-.95-.69-2.07-.69-3.35s.23-2.41.69-3.36c.46-.95,1.09-1.67,1.89-2.18.8-.51,1.71-.76,2.72-.76.94,0,1.75.21,2.42.64Zm-3.16,3.46c-.49.53-.74,1.26-.74,2.2s.25,1.67.74,2.2,1.14.79,1.95.79,1.44-.27,1.95-.81c.51-.54.76-1.27.76-2.18s-.25-1.65-.76-2.19c-.51-.54-1.16-.8-1.95-.8s-1.46.26-1.95.79Z"></path>
      <path d="m70.15,165.68c.83.94,1.24,2.23,1.24,3.88v7.13h-3.76v-6.69c0-.82-.22-1.46-.65-1.93-.43-.46-1.01-.69-1.73-.69-.76,0-1.37.24-1.82.73-.45.48-.67,1.17-.67,2.07v6.52h-3.76v-12.29h3.76v2.25c.35-.73.88-1.31,1.57-1.74s1.52-.64,2.46-.64c1.41,0,2.53.47,3.36,1.41Z"></path>
      <path d="m82.09,165.41c.93.78,1.51,1.81,1.75,3.08h-3.52c-.1-.5-.33-.89-.69-1.18-.36-.29-.81-.43-1.35-.43-.43,0-.75.09-.97.28-.22.18-.33.44-.33.78,0,.38.2.67.61.86.4.19,1.04.38,1.9.57.94.22,1.71.44,2.31.67s1.12.6,1.56,1.11.66,1.2.66,2.07c0,.71-.19,1.33-.57,1.87s-.93.97-1.65,1.28c-.72.31-1.57.46-2.55.46-1.66,0-2.99-.37-3.98-1.1-1-.73-1.61-1.78-1.83-3.15h3.63c.06.53.28.93.67,1.21.39.28.89.42,1.51.42.43,0,.75-.1.97-.3.22-.2.33-.46.33-.78,0-.43-.2-.73-.61-.91-.4-.18-1.06-.38-1.97-.58-.91-.19-1.66-.4-2.25-.62s-1.09-.58-1.52-1.07c-.43-.49-.64-1.16-.64-2.01,0-1.1.42-1.99,1.25-2.67s2.02-1.02,3.54-1.02,2.8.39,3.73,1.17Z"></path>
      <path d="m92.14,162.73c-.62,0-1.06.13-1.34.4-.28.26-.43.69-.46,1.28h2.22v3.17h-2.22v9.11h-3.76v-9.11h-1.48v-3.17h1.48v-.13c0-1.53.44-2.7,1.33-3.53.89-.83,2.18-1.24,3.86-1.24.35,0,.62,0,.79.02v3.24l-.42-.02Z"></path>
      <path d="m103.22,165.01c.96.51,1.72,1.24,2.27,2.19.55.95.83,2.07.83,3.35s-.28,2.39-.83,3.35c-.55.95-1.31,1.68-2.27,2.19-.96.51-2.05.76-3.27.76s-2.31-.25-3.28-.76c-.97-.51-1.73-1.24-2.28-2.19-.55-.95-.83-2.07-.83-3.35s.28-2.39.83-3.35c.55-.95,1.31-1.68,2.28-2.19.97-.51,2.06-.76,3.28-.76s2.31.25,3.27.76Zm-5.09,3.28c-.49.52-.74,1.27-.74,2.26s.25,1.73.74,2.25c.49.51,1.1.77,1.82.77s1.32-.26,1.81-.77c.48-.51.73-1.26.73-2.25s-.24-1.74-.73-2.26c-.48-.52-1.09-.78-1.81-.78s-1.32.26-1.82.78Z"></path>
      <path d="m113.85,164.93c.74-.44,1.54-.66,2.41-.66v4.03h-1.08c-1,0-1.77.21-2.32.64-.55.43-.83,1.15-.83,2.16v5.59h-3.76v-12.29h3.76v2.31c.47-.75,1.08-1.34,1.82-1.78Z"></path>
      <path d="m137.33,165.67c.87.93,1.3,2.23,1.3,3.89v7.13h-3.74v-6.69c0-.78-.21-1.38-.63-1.82-.42-.43-.99-.65-1.71-.65s-1.34.23-1.77.69c-.43.46-.65,1.11-.65,1.95v6.52h-3.76v-6.69c0-.78-.21-1.38-.62-1.82-.41-.43-.98-.65-1.7-.65s-1.34.23-1.78.68c-.44.46-.66,1.11-.66,1.96v6.52h-3.76v-12.29h3.76v2.09c.32-.69.82-1.23,1.49-1.63.67-.4,1.45-.59,2.34-.59s1.77.22,2.49.65c.72.43,1.26,1.05,1.63,1.86.43-.76,1.01-1.37,1.75-1.83.74-.46,1.56-.68,2.45-.68,1.51,0,2.7.47,3.57,1.4Z"></path>
      <path d="m148.23,164.88c.67.43,1.17,1.01,1.5,1.74v-2.22h3.74v12.29h-3.74v-2.22c-.32.73-.82,1.31-1.5,1.74s-1.48.64-2.42.64c-1.01,0-1.92-.25-2.72-.76-.8-.51-1.43-1.24-1.89-2.19-.46-.95-.69-2.07-.69-3.35s.23-2.41.69-3.36c.46-.95,1.09-1.67,1.89-2.18.8-.51,1.71-.76,2.72-.76.94,0,1.75.21,2.42.64Zm-3.16,3.46c-.49.53-.74,1.26-.74,2.2s.25,1.67.74,2.2,1.14.79,1.95.79,1.44-.27,1.95-.81c.51-.54.76-1.27.76-2.18s-.25-1.65-.76-2.19c-.51-.54-1.16-.8-1.95-.8s-1.46.26-1.95.79Z"></path>
      <path d="m163.03,173.45v3.24h-1.7c-1.44,0-2.56-.36-3.36-1.07-.8-.71-1.2-1.89-1.2-3.53v-4.51h-1.65v-3.17h1.65v-3.02h3.76v3.02h2.47v3.17h-2.47v4.58c0,.48.1.82.3,1.01s.53.29,1,.29h1.19Z"></path>
      <path d="m165.4,159.52c.41-.37.95-.56,1.63-.56s1.22.19,1.63.56.62.85.62,1.42-.21,1.02-.62,1.4c-.41.38-.95.56-1.63.56s-1.22-.19-1.63-.56c-.41-.37-.62-.84-.62-1.4s.21-1.05.62-1.42Zm3.5,4.88v12.29h-3.76v-12.29h3.76Z"></path>
      <path d="m180.52,165.01c.96.51,1.72,1.24,2.27,2.19.55.95.83,2.07.83,3.35s-.28,2.39-.83,3.35c-.55.95-1.31,1.68-2.27,2.19-.96.51-2.05.76-3.27.76s-2.31-.25-3.28-.76c-.97-.51-1.73-1.24-2.28-2.19-.55-.95-.83-2.07-.83-3.35s.28-2.39.83-3.35c.55-.95,1.31-1.68,2.28-2.19.97-.51,2.06-.76,3.28-.76s2.31.25,3.27.76Zm-5.09,3.28c-.49.52-.74,1.27-.74,2.26s.25,1.73.74,2.25c.49.51,1.1.77,1.82.77s1.32-.26,1.81-.77c.48-.51.73-1.26.73-2.25s-.24-1.74-.73-2.26c-.48-.52-1.09-.78-1.81-.78s-1.32.26-1.82.78Z"></path>
      <path d="m196.72,165.68c.83.94,1.24,2.23,1.24,3.88v7.13h-3.76v-6.69c0-.82-.22-1.46-.65-1.93-.43-.46-1.01-.69-1.73-.69-.76,0-1.37.24-1.82.73-.45.48-.67,1.17-.67,2.07v6.52h-3.76v-12.29h3.76v2.25c.35-.73.88-1.31,1.57-1.74s1.52-.64,2.46-.64c1.41,0,2.53.47,3.36,1.41Z"></path>
      <path d="m201.91,176.95c0,.71-.17,1.27-.51,1.68-.34.42-.84.63-1.52.63v-.73c.35,0,.61-.1.77-.3.16-.2.24-.5.24-.91v-.18h-.99v-1.7h1.78c.15.5.22,1,.22,1.5Z"></path>
      <path d="m219.4,165.25c.84.49,1.5,1.2,1.98,2.14.48.93.72,2.03.72,3.29s-.24,2.34-.72,3.27c-.48.93-1.14,1.65-1.99,2.15-.85.5-1.82.75-2.91.75-1.23,0-2.28-.32-3.13-.95-.85-.63-1.44-1.47-1.76-2.51v3.3h-1.54v-16.29h1.54v7.57c.32-1.04.91-1.88,1.76-2.51.85-.63,1.89-.95,3.13-.95,1.1,0,2.07.25,2.92.74Zm-5.64,1.22c-.68.4-1.21.96-1.6,1.68-.38.73-.57,1.57-.57,2.52s.19,1.79.57,2.52c.38.73.91,1.29,1.6,1.68s1.45.59,2.3.59c1.37,0,2.45-.43,3.26-1.29.81-.86,1.21-2.03,1.21-3.51s-.4-2.65-1.21-3.51c-.81-.86-1.89-1.29-3.26-1.29-.85,0-1.62.2-2.3.59Z"></path>
      <path d="m235.24,164.67v12.02h-1.54v-2.97c-.31,1.04-.87,1.83-1.67,2.38-.81.54-1.73.81-2.77.81-1.41,0-2.55-.44-3.42-1.33-.87-.89-1.31-2.19-1.31-3.91v-7h1.54v6.87c0,1.32.33,2.33.99,3.03.66.7,1.56,1.05,2.71,1.05,1.2,0,2.16-.38,2.87-1.16s1.07-1.9,1.07-3.4v-6.38h1.54Z"></path>
      <path d="m238.57,160.33c.21-.19.49-.29.83-.29s.61.1.81.29c.21.19.31.45.31.77s-.1.56-.31.75c-.21.19-.48.29-.81.29s-.61-.09-.83-.29c-.21-.19-.32-.44-.32-.75,0-.32.11-.58.32-.77Zm1.6,4.34v12.02h-1.56v-12.02h1.56Z"></path>
      <path d="m245.08,160.39v16.29h-1.56v-16.29h1.56Z"></path>
      <path d="m256.6,165.46c.86.63,1.44,1.47,1.75,2.51v-7.57h1.54v16.29h-1.54v-3.3c-.31,1.04-.89,1.88-1.75,2.51-.86.63-1.9.95-3.12.95-1.09,0-2.06-.25-2.92-.75-.86-.5-1.53-1.21-2-2.15-.48-.93-.72-2.02-.72-3.27s.24-2.36.72-3.29c.48-.93,1.14-1.64,1.99-2.14.85-.49,1.83-.74,2.93-.74,1.22,0,2.26.32,3.12.95Zm-5.97,1.71c-.81.86-1.22,2.03-1.22,3.51s.41,2.65,1.22,3.51,1.9,1.29,3.25,1.29c.85,0,1.62-.2,2.3-.59s1.22-.96,1.61-1.68c.39-.73.58-1.57.58-2.52s-.19-1.79-.58-2.52c-.39-.73-.92-1.29-1.61-1.68-.68-.4-1.45-.59-2.3-.59-1.35,0-2.43.43-3.25,1.29Z"></path>
      <path d="m278.23,173.85h-5.83l-.97,2.84h-3.96l5.7-15.46h4.34l5.7,15.46h-4.01l-.97-2.84Zm-.97-2.86l-1.94-5.72-1.96,5.72h3.9Z"></path>
      <path d="m288.42,161.12v15.57h-3.76v-15.57h3.76Z"></path>
      <path d="m299.56,167.39v3.13h-9.71v-3.13h9.71Z"></path>
      <path d="m306.74,171.23v5.46h-3.76v-15.57h6.1c1.85,0,3.26.46,4.23,1.38.97.92,1.45,2.15,1.45,3.71,0,.97-.22,1.83-.65,2.59s-1.08,1.35-1.93,1.78c-.85.43-1.89.65-3.1.65h-2.33Zm4.18-5.02c0-1.37-.76-2.05-2.27-2.05h-1.92v4.05h1.92c1.51,0,2.27-.67,2.27-2Z"></path>
      <path d="m325.62,165.01c.96.51,1.72,1.24,2.27,2.19.55.95.83,2.07.83,3.35s-.28,2.39-.83,3.35c-.55.95-1.31,1.68-2.27,2.19-.96.51-2.05.76-3.27.76s-2.31-.25-3.28-.76c-.97-.51-1.73-1.24-2.28-2.19-.55-.95-.83-2.07-.83-3.35s.28-2.39.83-3.35c.55-.95,1.31-1.68,2.28-2.19.97-.51,2.06-.76,3.28-.76s2.31.25,3.27.76Zm-5.09,3.28c-.49.52-.74,1.27-.74,2.26s.25,1.73.74,2.25c.49.51,1.1.77,1.82.77s1.32-.26,1.81-.77c.48-.51.73-1.26.73-2.25s-.24-1.74-.73-2.26c-.48-.52-1.09-.78-1.81-.78s-1.32.26-1.82.78Z"></path>
      <path d="m348.63,164.4l-3.15,12.29h-4.21l-2.22-8.23-2.25,8.23h-4.21l-3.15-12.29h3.76l1.63,8.85,2.29-8.85h4.01l2.36,8.87,1.63-8.87h3.5Z"></path>
      <path d="m361.56,171.23h-8.52c.04.92.28,1.59.71,1.99.42.4.97.61,1.63.61.56,0,1.02-.14,1.39-.42.37-.28.61-.64.73-1.08h3.98c-.16.87-.51,1.64-1.06,2.32-.54.68-1.23,1.22-2.07,1.61-.84.39-1.77.58-2.8.58-1.2,0-2.27-.25-3.2-.76-.93-.51-1.66-1.24-2.19-2.19s-.79-2.07-.79-3.35.26-2.41.78-3.36c.52-.95,1.25-1.67,2.19-2.18.94-.51,2.01-.76,3.21-.76s2.29.25,3.21.75c.92.5,1.64,1.2,2.15,2.1.51.9.76,1.94.76,3.12,0,.31-.04.65-.11,1.01Zm-4.35-3.4c-.45-.4-1-.61-1.66-.61s-1.26.21-1.72.62c-.46.41-.71,1.01-.77,1.81h4.8c.01-.81-.2-1.41-.65-1.82Z"></path>
      <path d="m369.21,164.93c.74-.44,1.54-.66,2.41-.66v4.03h-1.08c-1,0-1.77.21-2.32.64-.55.43-.83,1.15-.83,2.16v5.59h-3.76v-12.29h3.76v2.31c.47-.75,1.08-1.34,1.82-1.78Z"></path>
      <path d="m384.76,171.23h-8.52c.04.92.28,1.59.71,1.99.42.4.97.61,1.63.61.56,0,1.02-.14,1.39-.42.37-.28.61-.64.73-1.08h3.98c-.16.87-.51,1.64-1.06,2.32-.54.68-1.23,1.22-2.07,1.61-.84.39-1.77.58-2.8.58-1.2,0-2.27-.25-3.2-.76-.93-.51-1.66-1.24-2.19-2.19s-.79-2.07-.79-3.35.26-2.41.78-3.36c.52-.95,1.25-1.67,2.19-2.18.94-.51,2.01-.76,3.21-.76s2.29.25,3.21.75c.92.5,1.64,1.2,2.15,2.1.51.9.76,1.94.76,3.12,0,.31-.04.65-.11,1.01Zm-4.35-3.4c-.45-.4-1-.61-1.66-.61s-1.26.21-1.72.62c-.46.41-.71,1.01-.77,1.81h4.8c.01-.81-.2-1.41-.65-1.82Z"></path>
      <path d="m393.92,164.88c.67.43,1.17,1.01,1.48,1.74v-6.23h3.76v16.29h-3.76v-2.22c-.31.73-.8,1.31-1.48,1.74s-1.48.64-2.42.64c-1.01,0-1.92-.25-2.72-.76-.8-.51-1.43-1.24-1.89-2.19-.46-.95-.69-2.07-.69-3.35s.23-2.41.69-3.36c.46-.95,1.09-1.67,1.89-2.18.8-.51,1.71-.76,2.72-.76.94,0,1.75.21,2.42.64Zm-3.16,3.46c-.49.53-.74,1.26-.74,2.2s.25,1.67.74,2.2,1.14.79,1.95.79,1.44-.27,1.95-.81c.51-.54.76-1.27.76-2.18s-.25-1.65-.76-2.19c-.51-.54-1.16-.8-1.95-.8s-1.46.26-1.95.79Z"></path>
      <path d="m31.45,193.09c.84.49,1.5,1.2,1.98,2.14.48.93.72,2.03.72,3.29s-.24,2.34-.72,3.27c-.48.93-1.14,1.65-1.99,2.15-.85.5-1.82.75-2.91.75-1.23,0-2.28-.32-3.13-.95-.85-.63-1.44-1.47-1.76-2.51v3.3h-1.54v-16.29h1.54v7.57c.32-1.04.91-1.88,1.76-2.51.85-.63,1.89-.95,3.13-.95,1.1,0,2.07.25,2.92.74Zm-5.64,1.22c-.68.4-1.21.96-1.6,1.68-.38.73-.57,1.57-.57,2.52s.19,1.79.57,2.52c.38.73.91,1.29,1.6,1.68s1.45.59,2.3.59c1.37,0,2.45-.43,3.26-1.29.81-.86,1.21-2.03,1.21-3.51s-.4-2.65-1.21-3.51c-.81-.86-1.89-1.29-3.26-1.29-.85,0-1.62.2-2.3.59Z"></path>
      <path d="m47.29,192.5v12.02h-1.54v-2.97c-.31,1.04-.87,1.83-1.67,2.38-.81.54-1.73.81-2.77.81-1.41,0-2.55-.44-3.42-1.33-.87-.89-1.31-2.19-1.31-3.91v-7h1.54v6.87c0,1.32.33,2.33.99,3.03.66.7,1.56,1.05,2.71,1.05,1.2,0,2.16-.38,2.87-1.16s1.07-1.9,1.07-3.4v-6.38h1.54Z"></path>
      <path d="m57.44,193.39c.79.69,1.28,1.62,1.45,2.8h-1.48c-.09-.78-.41-1.42-.96-1.93-.55-.51-1.29-.76-2.21-.76-.79,0-1.41.2-1.86.58-.45.39-.67.91-.67,1.55,0,.48.14.87.43,1.17s.64.52,1.07.67c.43.15,1,.31,1.72.47.88.21,1.59.42,2.12.63.54.21.99.55,1.38,1,.38.46.57,1.07.57,1.85,0,.95-.36,1.74-1.07,2.34-.71.61-1.66.91-2.83.91-1.38,0-2.51-.34-3.39-1.02-.88-.68-1.4-1.62-1.56-2.81h1.5c.09.79.43,1.44,1.03,1.94s1.42.75,2.44.75c.76,0,1.36-.2,1.78-.59.43-.4.64-.91.64-1.54,0-.51-.15-.92-.44-1.23-.29-.31-.66-.54-1.09-.69-.43-.15-1.02-.32-1.77-.5-.87-.21-1.56-.41-2.08-.62-.52-.21-.97-.52-1.33-.96-.37-.43-.55-1.02-.55-1.77,0-.98.36-1.78,1.08-2.38.72-.6,1.7-.9,2.93-.9,1.31,0,2.36.34,3.15,1.04Z"></path>
      <path d="m61.79,188.17c.21-.19.49-.29.83-.29s.61.1.81.29c.21.19.31.45.31.77s-.1.56-.31.75c-.21.19-.48.29-.81.29s-.61-.09-.83-.29c-.21-.19-.32-.44-.32-.75,0-.32.11-.58.32-.77Zm1.6,4.34v12.02h-1.56v-12.02h1.56Z"></path>
      <path d="m76.14,193.62c.87.89,1.31,2.19,1.31,3.91v7h-1.52v-6.89c0-1.31-.33-2.31-.99-3.01-.66-.7-1.56-1.05-2.71-1.05-1.2,0-2.16.39-2.87,1.16s-1.07,1.9-1.07,3.4v6.38h-1.56v-12.02h1.56v2.95c.31-1.03.87-1.81,1.67-2.36.81-.54,1.73-.81,2.77-.81,1.39,0,2.53.44,3.4,1.33Z"></path>
      <path d="m88.68,202.59c.73-.54,1.17-1.28,1.32-2.2h1.63c-.22,1.28-.83,2.31-1.83,3.1-1,.79-2.26,1.19-3.79,1.19-1.14,0-2.16-.25-3.05-.74-.89-.49-1.58-1.2-2.08-2.13-.5-.93-.75-2.03-.75-3.29s.25-2.36.75-3.29c.5-.93,1.19-1.64,2.08-2.14.89-.49,1.9-.74,3.05-.74s2.19.25,3.05.74c.86.49,1.51,1.15,1.96,1.97s.67,1.72.67,2.69c0,.41-.03.79-.09,1.12h-9.95c.01,1.01.22,1.86.63,2.54s.93,1.19,1.57,1.51c.65.32,1.34.48,2.09.48,1.09,0,2-.27,2.73-.81Zm-4.8-8.5c-.65.32-1.17.82-1.57,1.49-.4.67-.62,1.5-.65,2.5h8.5c.06-.98-.1-1.81-.48-2.49-.38-.67-.9-1.17-1.54-1.5-.65-.32-1.35-.48-2.11-.48s-1.49.16-2.13.48Z"></path>
      <path d="m101.25,193.39c.79.69,1.28,1.62,1.45,2.8h-1.48c-.09-.78-.41-1.42-.96-1.93-.55-.51-1.29-.76-2.21-.76-.79,0-1.41.2-1.86.58-.45.39-.67.91-.67,1.55,0,.48.14.87.43,1.17s.64.52,1.07.67c.43.15,1,.31,1.72.47.88.21,1.59.42,2.12.63.54.21.99.55,1.38,1,.38.46.57,1.07.57,1.85,0,.95-.36,1.74-1.07,2.34-.71.61-1.66.91-2.83.91-1.38,0-2.51-.34-3.39-1.02-.88-.68-1.4-1.62-1.56-2.81h1.5c.09.79.43,1.44,1.03,1.94s1.42.75,2.44.75c.76,0,1.36-.2,1.78-.59.43-.4.64-.91.64-1.54,0-.51-.15-.92-.44-1.23-.29-.31-.66-.54-1.09-.69-.43-.15-1.02-.32-1.77-.5-.87-.21-1.56-.41-2.08-.62-.52-.21-.97-.52-1.33-.96-.37-.43-.55-1.02-.55-1.77,0-.98.36-1.78,1.08-2.38.72-.6,1.7-.9,2.93-.9,1.31,0,2.36.34,3.15,1.04Z"></path>
      <path d="m112.41,193.39c.79.69,1.28,1.62,1.45,2.8h-1.48c-.09-.78-.41-1.42-.96-1.93-.55-.51-1.29-.76-2.21-.76-.79,0-1.41.2-1.86.58-.45.39-.67.91-.67,1.55,0,.48.14.87.43,1.17s.64.52,1.07.67c.43.15,1,.31,1.72.47.88.21,1.59.42,2.12.63.54.21.99.55,1.38,1,.38.46.57,1.07.57,1.85,0,.95-.36,1.74-1.07,2.34-.71.61-1.66.91-2.83.91-1.38,0-2.51-.34-3.39-1.02-.88-.68-1.4-1.62-1.56-2.81h1.5c.09.79.43,1.44,1.03,1.94s1.42.75,2.44.75c.76,0,1.36-.2,1.78-.59.43-.4.64-.91.64-1.54,0-.51-.15-.92-.44-1.23-.29-.31-.66-.54-1.09-.69-.43-.15-1.02-.32-1.77-.5-.87-.21-1.56-.41-2.08-.62-.52-.21-.97-.52-1.33-.96-.37-.43-.55-1.02-.55-1.77,0-.98.36-1.78,1.08-2.38.72-.6,1.7-.9,2.93-.9,1.31,0,2.36.34,3.15,1.04Z"></path>
      <path d="m131.62,193.56c1,.81,1.62,1.88,1.84,3.21h-1.61c-.16-.95-.61-1.71-1.34-2.26-.73-.55-1.64-.83-2.71-.83-.78,0-1.49.18-2.15.53-.65.35-1.17.89-1.56,1.62s-.58,1.62-.58,2.67.19,1.95.58,2.67.91,1.27,1.56,1.62c.65.35,1.37.53,2.15.53,1.07,0,1.97-.27,2.71-.83.73-.55,1.18-1.3,1.34-2.26h1.61c-.22,1.34-.83,2.41-1.84,3.21-1,.81-2.27,1.21-3.8,1.21-1.14,0-2.16-.25-3.05-.74-.89-.49-1.58-1.2-2.08-2.13-.5-.93-.75-2.03-.75-3.29s.25-2.36.75-3.29c.5-.93,1.19-1.64,2.08-2.14.89-.49,1.9-.74,3.05-.74,1.53,0,2.79.4,3.8,1.21Z"></path>
      <path d="m139.49,192.99c.78-.47,1.72-.71,2.84-.71v1.67h-.51c-1.16,0-2.12.31-2.88.94-.76.62-1.14,1.64-1.14,3.05v6.58h-1.56v-12.02h1.56v2.49c.35-.87.92-1.53,1.7-2Z"></path>
      <path d="m144.34,188.17c.21-.19.49-.29.83-.29s.61.1.81.29c.21.19.31.45.31.77s-.1.56-.31.75c-.21.19-.48.29-.81.29s-.61-.09-.83-.29c-.21-.19-.32-.44-.32-.75,0-.32.11-.58.32-.77Zm1.6,4.34v12.02h-1.56v-12.02h1.56Z"></path>
      <path d="m154.74,203.16v1.37h-1.43c-1.16,0-2.03-.28-2.6-.83-.57-.55-.86-1.48-.86-2.78v-7.07h-1.83v-1.34h1.83v-3.04h1.56v3.04h3.3v1.34h-3.3v7.09c0,.85.15,1.43.46,1.75.31.32.85.47,1.63.47h1.23Z"></path>
      <path d="m157.24,188.17c.21-.19.49-.29.83-.29s.61.1.81.29c.21.19.31.45.31.77s-.1.56-.31.75c-.21.19-.48.29-.81.29s-.61-.09-.83-.29c-.21-.19-.32-.44-.32-.75,0-.32.11-.58.32-.77Zm1.6,4.34v12.02h-1.56v-12.02h1.56Z"></path>
      <path d="m171.29,193.56c1,.81,1.62,1.88,1.84,3.21h-1.61c-.16-.95-.61-1.71-1.34-2.26-.73-.55-1.64-.83-2.71-.83-.78,0-1.49.18-2.15.53-.65.35-1.17.89-1.56,1.62s-.58,1.62-.58,2.67.19,1.95.58,2.67.91,1.27,1.56,1.62c.65.35,1.37.53,2.15.53,1.07,0,1.97-.27,2.71-.83.73-.55,1.18-1.3,1.34-2.26h1.61c-.22,1.34-.83,2.41-1.84,3.21-1,.81-2.27,1.21-3.8,1.21-1.14,0-2.16-.25-3.05-.74-.89-.49-1.58-1.2-2.08-2.13-.5-.93-.75-2.03-.75-3.29s.25-2.36.75-3.29c.5-.93,1.19-1.64,2.08-2.14.89-.49,1.9-.74,3.05-.74,1.53,0,2.79.4,3.8,1.21Z"></path>
      <path d="m184.08,193.3c.86.63,1.45,1.47,1.77,2.51v-3.3h1.52v12.02h-1.52v-3.3c-.32,1.04-.91,1.88-1.77,2.51-.86.63-1.9.95-3.12.95-1.09,0-2.06-.25-2.92-.75-.86-.5-1.53-1.21-2-2.15-.48-.93-.72-2.02-.72-3.27s.24-2.36.72-3.29c.48-.93,1.14-1.64,1.99-2.14.85-.49,1.83-.74,2.93-.74,1.22,0,2.26.32,3.12.95Zm-5.97,1.71c-.81.86-1.22,2.03-1.22,3.51s.41,2.65,1.22,3.51,1.9,1.29,3.25,1.29c.85,0,1.62-.2,2.3-.59s1.22-.96,1.61-1.68c.39-.73.58-1.57.58-2.52s-.19-1.79-.58-2.52c-.39-.73-.92-1.29-1.61-1.68-.68-.4-1.45-.59-2.3-.59-1.35,0-2.43.43-3.25,1.29Z"></path>
      <path d="m192.28,188.23v16.29h-1.56v-16.29h1.56Z"></path>
      <path d="m209.53,193.3c.86.63,1.45,1.47,1.77,2.51v-3.3h1.52v12.02h-1.52v-3.3c-.32,1.04-.91,1.88-1.77,2.51-.86.63-1.9.95-3.12.95-1.09,0-2.06-.25-2.92-.75-.86-.5-1.53-1.21-2-2.15-.48-.93-.72-2.02-.72-3.27s.24-2.36.72-3.29c.48-.93,1.14-1.64,1.99-2.14.85-.49,1.83-.74,2.93-.74,1.22,0,2.26.32,3.12.95Zm-5.97,1.71c-.81.86-1.22,2.03-1.22,3.51s.41,2.65,1.22,3.51,1.9,1.29,3.25,1.29c.85,0,1.62-.2,2.3-.59s1.22-.96,1.61-1.68c.39-.73.58-1.57.58-2.52s-.19-1.79-.58-2.52c-.39-.73-.92-1.29-1.61-1.68-.68-.4-1.45-.59-2.3-.59-1.35,0-2.43.43-3.25,1.29Z"></path>
      <path d="m225.51,193.09c.84.49,1.5,1.2,1.98,2.14.48.93.72,2.03.72,3.29s-.24,2.34-.72,3.27c-.48.93-1.14,1.65-1.99,2.15-.85.5-1.82.75-2.91.75-1.23,0-2.28-.32-3.13-.95-.85-.63-1.44-1.47-1.76-2.51v8.98h-1.54v-17.7h1.54v3.3c.32-1.04.91-1.88,1.76-2.51.85-.63,1.89-.95,3.13-.95,1.1,0,2.07.25,2.92.74Zm-5.64,1.22c-.68.4-1.21.96-1.6,1.68-.38.73-.57,1.57-.57,2.52s.19,1.79.57,2.52c.38.73.91,1.29,1.6,1.68s1.45.59,2.3.59c1.37,0,2.45-.43,3.26-1.29.81-.86,1.21-2.03,1.21-3.51s-.4-2.65-1.21-3.51c-.81-.86-1.89-1.29-3.26-1.29-.85,0-1.62.2-2.3.59Z"></path>
      <path d="m240.33,193.09c.84.49,1.5,1.2,1.98,2.14.48.93.72,2.03.72,3.29s-.24,2.34-.72,3.27c-.48.93-1.14,1.65-1.99,2.15-.85.5-1.82.75-2.91.75-1.23,0-2.28-.32-3.13-.95-.85-.63-1.44-1.47-1.76-2.51v8.98h-1.54v-17.7h1.54v3.3c.32-1.04.91-1.88,1.76-2.51.85-.63,1.89-.95,3.13-.95,1.1,0,2.07.25,2.92.74Zm-5.64,1.22c-.68.4-1.21.96-1.6,1.68-.38.73-.57,1.57-.57,2.52s.19,1.79.57,2.52c.38.73.91,1.29,1.6,1.68s1.45.59,2.3.59c1.37,0,2.45-.43,3.26-1.29.81-.86,1.21-2.03,1.21-3.51s-.4-2.65-1.21-3.51c-.81-.86-1.89-1.29-3.26-1.29-.85,0-1.62.2-2.3.59Z"></path>
      <path d="m247.36,188.23v16.29h-1.56v-16.29h1.56Z"></path>
      <path d="m250.68,188.17c.21-.19.49-.29.83-.29s.61.1.81.29c.21.19.31.45.31.77s-.1.56-.31.75c-.21.19-.48.29-.81.29s-.61-.09-.83-.29c-.21-.19-.32-.44-.32-.75,0-.32.11-.58.32-.77Zm1.6,4.34v12.02h-1.56v-12.02h1.56Z"></path>
      <path d="m264.72,193.56c1,.81,1.62,1.88,1.84,3.21h-1.61c-.16-.95-.61-1.71-1.34-2.26-.73-.55-1.64-.83-2.71-.83-.78,0-1.49.18-2.15.53-.65.35-1.17.89-1.56,1.62s-.58,1.62-.58,2.67.19,1.95.58,2.67.91,1.27,1.56,1.62c.65.35,1.37.53,2.15.53,1.07,0,1.97-.27,2.71-.83.73-.55,1.18-1.3,1.34-2.26h1.61c-.22,1.34-.83,2.41-1.84,3.21-1,.81-2.27,1.21-3.8,1.21-1.14,0-2.16-.25-3.05-.74-.89-.49-1.58-1.2-2.08-2.13-.5-.93-.75-2.03-.75-3.29s.25-2.36.75-3.29c.5-.93,1.19-1.64,2.08-2.14.89-.49,1.9-.74,3.05-.74,1.53,0,2.79.4,3.8,1.21Z"></path>
      <path d="m277.51,193.3c.86.63,1.45,1.47,1.77,2.51v-3.3h1.52v12.02h-1.52v-3.3c-.32,1.04-.91,1.88-1.77,2.51-.86.63-1.9.95-3.12.95-1.09,0-2.06-.25-2.92-.75-.86-.5-1.53-1.21-2-2.15-.48-.93-.72-2.02-.72-3.27s.24-2.36.72-3.29c.48-.93,1.14-1.64,1.99-2.14.85-.49,1.83-.74,2.93-.74,1.22,0,2.26.32,3.12.95Zm-5.97,1.71c-.81.86-1.22,2.03-1.22,3.51s.41,2.65,1.22,3.51,1.9,1.29,3.25,1.29c.85,0,1.62-.2,2.3-.59s1.22-.96,1.61-1.68c.39-.73.58-1.57.58-2.52s-.19-1.79-.58-2.52c-.39-.73-.92-1.29-1.61-1.68-.68-.4-1.45-.59-2.3-.59-1.35,0-2.43.43-3.25,1.29Z"></path>
      <path d="m289.61,203.16v1.37h-1.43c-1.16,0-2.03-.28-2.6-.83-.57-.55-.86-1.48-.86-2.78v-7.07h-1.83v-1.34h1.83v-3.04h1.56v3.04h3.3v1.34h-3.3v7.09c0,.85.15,1.43.46,1.75.31.32.85.47,1.63.47h1.23Z"></path>
      <path d="m292.11,188.17c.21-.19.49-.29.83-.29s.61.1.81.29c.21.19.31.45.31.77s-.1.56-.31.75c-.21.19-.48.29-.81.29s-.61-.09-.83-.29c-.21-.19-.32-.44-.32-.75,0-.32.11-.58.32-.77Zm1.6,4.34v12.02h-1.56v-12.02h1.56Z"></path>
      <path d="m305.56,193.09c.9.49,1.61,1.2,2.12,2.14.51.93.77,2.03.77,3.29s-.26,2.36-.77,3.28-1.22,1.64-2.12,2.14c-.9.5-1.93.75-3.07.75s-2.17-.25-3.08-.75c-.91-.5-1.63-1.21-2.15-2.15-.52-.93-.78-2.02-.78-3.27s.26-2.36.78-3.29c.52-.93,1.24-1.64,2.15-2.14.91-.49,1.94-.74,3.08-.74s2.17.25,3.07.74Zm-5.27,1.13c-.67.35-1.22.89-1.63,1.62s-.62,1.62-.62,2.67.21,1.95.62,2.66c.41.72.95,1.25,1.63,1.61.67.35,1.41.53,2.2.53s1.5-.18,2.17-.53c.67-.35,1.21-.89,1.62-1.61.41-.72.62-1.61.62-2.66s-.21-1.95-.62-2.67-.95-1.27-1.62-1.62c-.67-.35-1.39-.53-2.17-.53s-1.53.18-2.2.53Z"></path>
      <path d="m320.64,193.62c.87.89,1.31,2.19,1.31,3.91v7h-1.52v-6.89c0-1.31-.33-2.31-.99-3.01-.66-.7-1.56-1.05-2.71-1.05-1.2,0-2.16.39-2.87,1.16s-1.07,1.9-1.07,3.4v6.38h-1.56v-12.02h1.56v2.95c.31-1.03.87-1.81,1.67-2.36.81-.54,1.73-.81,2.77-.81,1.39,0,2.53.44,3.4,1.33Z"></path>
      <path d="m331.99,193.39c.79.69,1.28,1.62,1.45,2.8h-1.48c-.09-.78-.41-1.42-.96-1.93-.55-.51-1.29-.76-2.21-.76-.79,0-1.41.2-1.86.58-.45.39-.67.91-.67,1.55,0,.48.14.87.43,1.17s.64.52,1.07.67c.43.15,1,.31,1.72.47.88.21,1.59.42,2.12.63.54.21.99.55,1.38,1,.38.46.57,1.07.57,1.85,0,.95-.36,1.74-1.07,2.34-.71.61-1.66.91-2.83.91-1.38,0-2.51-.34-3.39-1.02-.88-.68-1.4-1.62-1.56-2.81h1.5c.09.79.43,1.44,1.03,1.94s1.42.75,2.44.75c.76,0,1.36-.2,1.78-.59.43-.4.64-.91.64-1.54,0-.51-.15-.92-.44-1.23-.29-.31-.66-.54-1.09-.69-.43-.15-1.02-.32-1.77-.5-.87-.21-1.56-.41-2.08-.62-.52-.21-.97-.52-1.33-.96-.37-.43-.55-1.02-.55-1.77,0-.98.36-1.78,1.08-2.38.72-.6,1.7-.9,2.93-.9,1.31,0,2.36.34,3.15,1.04Z"></path>
      <path d="m358.34,192.5l-3.54,12.02h-1.63l-3.61-10.22-3.66,10.22h-1.61l-3.54-12.02h1.56l2.86,10.41,3.61-10.41h1.58l3.63,10.41,2.84-10.41h1.5Z"></path>
      <path d="m360.29,188.17c.21-.19.49-.29.83-.29s.61.1.81.29c.21.19.31.45.31.77s-.1.56-.31.75c-.21.19-.48.29-.81.29s-.61-.09-.83-.29c-.21-.19-.32-.44-.32-.75,0-.32.11-.58.32-.77Zm1.6,4.34v12.02h-1.56v-12.02h1.56Z"></path>
      <path d="m370.69,203.16v1.37h-1.43c-1.16,0-2.03-.28-2.6-.83-.57-.55-.86-1.48-.86-2.78v-7.07h-1.83v-1.34h1.83v-3.04h1.56v3.04h3.3v1.34h-3.3v7.09c0,.85.15,1.43.46,1.75.31.32.85.47,1.63.47h1.23Z"></path>
      <path d="m382.63,193.62c.87.89,1.31,2.19,1.31,3.91v7h-1.52v-6.89c0-1.31-.33-2.31-.99-3.01-.66-.7-1.56-1.05-2.71-1.05-1.2,0-2.16.39-2.87,1.16s-1.07,1.9-1.07,3.4v6.38h-1.56v-16.29h1.56v7.22c.31-1.03.87-1.81,1.67-2.36.81-.54,1.73-.81,2.77-.81,1.39,0,2.53.44,3.4,1.33Z"></path>
      <path d="m27.56,231v1.37h-1.43c-1.16,0-2.03-.28-2.6-.83-.57-.55-.86-1.48-.86-2.78v-7.07h-1.83v-1.34h1.83v-3.04h1.56v3.04h3.3v1.34h-3.3v7.09c0,.85.15,1.43.46,1.75.31.32.85.47,1.63.47h1.23Z"></path>
      <path d="m39.51,221.46c.87.89,1.31,2.19,1.31,3.91v7h-1.52v-6.89c0-1.31-.33-2.31-.99-3.01-.66-.7-1.56-1.05-2.71-1.05-1.2,0-2.16.39-2.87,1.16s-1.07,1.9-1.07,3.4v6.38h-1.56v-16.29h1.56v7.22c.31-1.03.87-1.81,1.67-2.36.81-.54,1.73-.81,2.77-.81,1.39,0,2.53.44,3.4,1.33Z"></path>
      <path d="m52.04,230.43c.73-.54,1.17-1.28,1.32-2.2h1.63c-.22,1.28-.83,2.31-1.83,3.1-1,.79-2.26,1.19-3.79,1.19-1.14,0-2.16-.25-3.05-.74-.89-.49-1.58-1.2-2.08-2.13-.5-.93-.75-2.03-.75-3.29s.25-2.36.75-3.29c.5-.93,1.19-1.64,2.08-2.14.89-.49,1.9-.74,3.05-.74s2.19.25,3.05.74c.86.49,1.51,1.15,1.96,1.97s.67,1.72.67,2.69c0,.41-.03.79-.09,1.12h-9.95c.01,1.01.22,1.86.63,2.54s.93,1.19,1.57,1.51c.65.32,1.34.48,2.09.48,1.09,0,2-.27,2.73-.81Zm-4.8-8.5c-.65.32-1.17.82-1.57,1.49-.4.67-.62,1.5-.65,2.5h8.5c.06-.98-.1-1.81-.48-2.49-.38-.67-.9-1.17-1.54-1.5-.65-.32-1.35-.48-2.11-.48s-1.49.16-2.13.48Z"></path>
      <path d="m65.12,216.07v16.29h-1.56v-16.29h1.56Z"></path>
      <path d="m76.44,230.43c.73-.54,1.17-1.28,1.32-2.2h1.63c-.22,1.28-.83,2.31-1.83,3.1-1,.79-2.26,1.19-3.79,1.19-1.14,0-2.16-.25-3.05-.74-.89-.49-1.58-1.2-2.08-2.13-.5-.93-.75-2.03-.75-3.29s.25-2.36.75-3.29c.5-.93,1.19-1.64,2.08-2.14.89-.49,1.9-.74,3.05-.74s2.19.25,3.05.74c.86.49,1.51,1.15,1.96,1.97s.67,1.72.67,2.69c0,.41-.03.79-.09,1.12h-9.95c.01,1.01.22,1.86.63,2.54s.93,1.19,1.57,1.51c.65.32,1.34.48,2.09.48,1.09,0,2-.27,2.73-.81Zm-4.8-8.5c-.65.32-1.17.82-1.57,1.49-.4.67-.62,1.5-.65,2.5h8.5c.06-.98-.1-1.81-.48-2.49-.38-.67-.9-1.17-1.54-1.5-.65-.32-1.35-.48-2.11-.48s-1.49.16-2.13.48Z"></path>
      <path d="m90.41,221.14c.86.63,1.45,1.47,1.77,2.51v-3.3h1.52v12.02h-1.52v-3.3c-.32,1.04-.91,1.88-1.77,2.51-.86.63-1.9.95-3.12.95-1.09,0-2.06-.25-2.92-.75-.86-.5-1.53-1.21-2-2.15-.48-.93-.72-2.02-.72-3.27s.24-2.36.72-3.29c.48-.93,1.14-1.64,1.99-2.14.85-.49,1.83-.74,2.93-.74,1.22,0,2.26.32,3.12.95Zm-5.97,1.71c-.81.86-1.22,2.03-1.22,3.51s.41,2.65,1.22,3.51,1.9,1.29,3.25,1.29c.85,0,1.62-.2,2.3-.59s1.22-.96,1.61-1.68c.39-.73.58-1.57.58-2.52s-.19-1.79-.58-2.52c-.39-.73-.92-1.29-1.61-1.68-.68-.4-1.45-.59-2.3-.59-1.35,0-2.43.43-3.25,1.29Z"></path>
      <path d="m105.22,221.14c.86.63,1.44,1.47,1.75,2.51v-7.57h1.54v16.29h-1.54v-3.3c-.31,1.04-.89,1.88-1.75,2.51-.86.63-1.9.95-3.12.95-1.09,0-2.06-.25-2.92-.75-.86-.5-1.53-1.21-2-2.15-.48-.93-.72-2.02-.72-3.27s.24-2.36.72-3.29c.48-.93,1.14-1.64,1.99-2.14.85-.49,1.83-.74,2.93-.74,1.22,0,2.26.32,3.12.95Zm-5.97,1.71c-.81.86-1.22,2.03-1.22,3.51s.41,2.65,1.22,3.51,1.9,1.29,3.25,1.29c.85,0,1.62-.2,2.3-.59s1.22-.96,1.61-1.68c.39-.73.58-1.57.58-2.52s-.19-1.79-.58-2.52c-.39-.73-.92-1.29-1.61-1.68-.68-.4-1.45-.59-2.3-.59-1.35,0-2.43.43-3.25,1.29Z"></path>
      <path d="m111.83,216.01c.21-.19.49-.29.83-.29s.61.1.81.29c.21.19.31.45.31.77s-.1.56-.31.75c-.21.19-.48.29-.81.29s-.61-.09-.83-.29c-.21-.19-.32-.44-.32-.75,0-.32.11-.58.32-.77Zm1.6,4.34v12.02h-1.56v-12.02h1.56Z"></path>
      <path d="m126.18,221.46c.87.89,1.31,2.19,1.31,3.91v7h-1.52v-6.89c0-1.31-.33-2.31-.99-3.01-.66-.7-1.56-1.05-2.71-1.05-1.2,0-2.16.39-2.87,1.16s-1.07,1.9-1.07,3.4v6.38h-1.56v-12.02h1.56v2.95c.31-1.03.87-1.81,1.67-2.36.81-.54,1.73-.81,2.77-.81,1.39,0,2.53.44,3.4,1.33Z"></path>
      <path d="m138.93,221.14c.86.63,1.45,1.47,1.77,2.51v-3.3h1.52v12.31c0,1.12-.24,2.09-.71,2.94s-1.12,1.5-1.96,1.96c-.84.46-1.79.69-2.86.69-1.57,0-2.86-.38-3.86-1.13-1.01-.76-1.66-1.78-1.97-3.07h1.54c.26.88.75,1.58,1.46,2.09.71.51,1.63.77,2.74.77.76,0,1.46-.17,2.08-.5.62-.33,1.12-.82,1.48-1.46.36-.65.54-1.41.54-2.29v-3.59c-.32,1.04-.91,1.88-1.77,2.51-.86.63-1.9.95-3.12.95-1.09,0-2.06-.25-2.92-.75-.86-.5-1.53-1.21-2-2.15-.48-.93-.72-2.02-.72-3.27s.24-2.36.72-3.29c.48-.93,1.14-1.64,1.99-2.14.85-.49,1.83-.74,2.93-.74,1.22,0,2.26.32,3.12.95Zm-5.97,1.71c-.81.86-1.22,2.03-1.22,3.51s.41,2.65,1.22,3.51,1.9,1.29,3.25,1.29c.85,0,1.62-.2,2.3-.59s1.22-.96,1.61-1.68c.39-.73.58-1.57.58-2.52s-.19-1.79-.58-2.52c-.39-.73-.92-1.29-1.61-1.68-.68-.4-1.45-.59-2.3-.59-1.35,0-2.43.43-3.25,1.29Z"></path>
      <path d="m154.68,229.48h5.02v2.88h-8.78v-15.57h3.76v12.68Z"></path>
      <path d="m170.45,220.69c.96.51,1.72,1.24,2.27,2.19.55.95.83,2.07.83,3.35s-.28,2.39-.83,3.35c-.55.95-1.31,1.68-2.27,2.19-.96.51-2.05.76-3.27.76s-2.31-.25-3.28-.76c-.97-.51-1.73-1.24-2.28-2.19-.55-.95-.83-2.07-.83-3.35s.28-2.39.83-3.35c.55-.95,1.31-1.68,2.28-2.19.97-.51,2.06-.76,3.28-.76s2.31.25,3.27.76Zm-5.09,3.28c-.49.52-.74,1.27-.74,2.26s.25,1.73.74,2.25c.49.51,1.1.77,1.82.77s1.32-.26,1.81-.77c.48-.51.73-1.26.73-2.25s-.24-1.74-.73-2.26c-.48-.52-1.09-.78-1.81-.78s-1.32.26-1.82.78Z"></path>
      <path d="m193.47,220.08l-3.15,12.29h-4.21l-2.22-8.23-2.25,8.23h-4.21l-3.15-12.29h3.76l1.63,8.85,2.29-8.85h4.01l2.36,8.87,1.63-8.87h3.5Z"></path>
      <path d="m211.27,218.21c1.3,1.04,2.14,2.45,2.52,4.23h-3.99c-.29-.72-.75-1.28-1.35-1.69-.61-.41-1.33-.62-2.17-.62-1.1,0-1.99.4-2.66,1.21-.67.81-1.01,1.89-1.01,3.24s.34,2.43,1.01,3.23,1.56,1.2,2.66,1.2c.84,0,1.56-.21,2.17-.62.61-.41,1.06-.97,1.35-1.67h3.99c-.38,1.76-1.22,3.17-2.52,4.22-1.3,1.05-2.94,1.57-4.92,1.57-1.51,0-2.84-.33-3.99-1-1.14-.67-2.03-1.6-2.65-2.81-.62-1.2-.94-2.58-.94-4.12s.31-2.91.94-4.12c.62-1.2,1.51-2.14,2.65-2.81,1.15-.67,2.47-1,3.99-1,1.98,0,3.62.52,4.92,1.56Z"></path>
      <path d="m224.92,220.69c.96.51,1.72,1.24,2.27,2.19.55.95.83,2.07.83,3.35s-.28,2.39-.83,3.35c-.55.95-1.31,1.68-2.27,2.19-.96.51-2.05.76-3.27.76s-2.31-.25-3.28-.76c-.97-.51-1.73-1.24-2.28-2.19-.55-.95-.83-2.07-.83-3.35s.28-2.39.83-3.35c.55-.95,1.31-1.68,2.28-2.19.97-.51,2.06-.76,3.28-.76s2.31.25,3.27.76Zm-5.09,3.28c-.49.52-.74,1.27-.74,2.26s.25,1.73.74,2.25c.49.51,1.1.77,1.82.77s1.32-.26,1.81-.77c.48-.51.73-1.26.73-2.25s-.24-1.74-.73-2.26c-.48-.52-1.09-.78-1.81-.78s-1.32.26-1.82.78Z"></path>
      <path d="m237.06,220.56c.67.43,1.17,1.01,1.48,1.74v-6.23h3.76v16.29h-3.76v-2.22c-.31.73-.8,1.31-1.48,1.74s-1.48.64-2.42.64c-1.01,0-1.92-.25-2.72-.76-.8-.51-1.43-1.24-1.89-2.19-.46-.95-.69-2.07-.69-3.35s.23-2.41.69-3.36c.46-.95,1.09-1.67,1.89-2.18.8-.51,1.71-.76,2.72-.76.94,0,1.75.21,2.42.64Zm-3.16,3.46c-.49.53-.74,1.26-.74,2.2s.25,1.67.74,2.2,1.14.79,1.95.79,1.44-.27,1.95-.81c.51-.54.76-1.27.76-2.18s-.25-1.65-.76-2.19c-.51-.54-1.16-.8-1.95-.8s-1.46.26-1.95.79Z"></path>
      <path d="m256.46,226.91h-8.52c.04.92.28,1.59.71,1.99.42.4.97.61,1.63.61.56,0,1.02-.14,1.39-.42.37-.28.61-.64.73-1.08h3.98c-.16.87-.51,1.64-1.06,2.32-.54.68-1.23,1.22-2.07,1.61-.84.39-1.77.58-2.8.58-1.2,0-2.27-.25-3.2-.76-.93-.51-1.66-1.24-2.19-2.19s-.79-2.07-.79-3.35.26-2.41.78-3.36c.52-.95,1.25-1.67,2.19-2.18.94-.51,2.01-.76,3.21-.76s2.29.25,3.21.75c.92.5,1.64,1.2,2.15,2.1.51.9.76,1.94.76,3.12,0,.31-.04.65-.11,1.01Zm-4.35-3.4c-.45-.4-1-.61-1.66-.61s-1.26.21-1.72.62c-.46.41-.71,1.01-.77,1.81h4.8c.01-.81-.2-1.41-.65-1.82Z"></path>
      <path d="m266.19,225.89v6.47h-1.56v-15.52h4.65c1.75,0,3.05.4,3.91,1.21.86.81,1.29,1.92,1.29,3.32s-.44,2.55-1.33,3.34c-.89.79-2.18,1.18-3.86,1.18h-3.08Zm5.83-2.15c.59-.55.88-1.34.88-2.37s-.29-1.86-.88-2.41c-.59-.55-1.55-.83-2.88-.83h-2.95v6.43h2.95c1.33,0,2.3-.28,2.88-.83Z"></path>
      <path d="m278.47,216.07v16.29h-1.56v-16.29h1.56Z"></path>
      <path d="m289.99,221.14c.86.63,1.45,1.47,1.77,2.51v-3.3h1.52v12.02h-1.52v-3.3c-.32,1.04-.91,1.88-1.77,2.51-.86.63-1.9.95-3.12.95-1.09,0-2.06-.25-2.92-.75-.86-.5-1.53-1.21-2-2.15-.48-.93-.72-2.02-.72-3.27s.24-2.36.72-3.29c.48-.93,1.14-1.64,1.99-2.14.85-.49,1.83-.74,2.93-.74,1.22,0,2.26.32,3.12.95Zm-5.97,1.71c-.81.86-1.22,2.03-1.22,3.51s.41,2.65,1.22,3.51,1.9,1.29,3.25,1.29c.85,0,1.62-.2,2.3-.59s1.22-.96,1.61-1.68c.39-.73.58-1.57.58-2.52s-.19-1.79-.58-2.52c-.39-.73-.92-1.29-1.61-1.68-.68-.4-1.45-.59-2.3-.59-1.35,0-2.43.43-3.25,1.29Z"></path>
      <path d="m302.09,231v1.37h-1.43c-1.16,0-2.03-.28-2.6-.83-.57-.55-.86-1.48-.86-2.78v-7.07h-1.83v-1.34h1.83v-3.04h1.56v3.04h3.3v1.34h-3.3v7.09c0,.85.15,1.43.46,1.75.31.32.85.47,1.63.47h1.23Z"></path>
      <path d="m307.34,217.76c-.45.42-.67,1.12-.67,2.1v.48h3.02v1.37h-3.02v10.66h-1.54v-10.66h-1.78v-1.37h1.78v-.59c0-1.35.37-2.36,1.1-3.04.73-.67,1.89-.98,3.46-.92v1.37c-1.12-.01-1.9.19-2.34.61Z"></path>
      <path d="m320.51,220.93c.9.49,1.61,1.2,2.12,2.14.51.93.77,2.03.77,3.29s-.26,2.36-.77,3.28-1.22,1.64-2.12,2.14c-.9.5-1.93.75-3.07.75s-2.17-.25-3.08-.75c-.91-.5-1.63-1.21-2.15-2.15-.52-.93-.78-2.02-.78-3.27s.26-2.36.78-3.29c.52-.93,1.24-1.64,2.15-2.14.91-.49,1.94-.74,3.08-.74s2.17.25,3.07.74Zm-5.27,1.13c-.67.35-1.22.89-1.63,1.62s-.62,1.62-.62,2.67.21,1.95.62,2.66c.41.72.95,1.25,1.63,1.61.67.35,1.41.53,2.2.53s1.5-.18,2.17-.53c.67-.35,1.21-.89,1.62-1.61.41-.72.62-1.61.62-2.66s-.21-1.95-.62-2.67-.95-1.27-1.62-1.62c-.67-.35-1.39-.53-2.17-.53s-1.53.18-2.2.53Z"></path>
      <path d="m329.43,220.83c.78-.47,1.72-.71,2.84-.71v1.67h-.51c-1.16,0-2.12.31-2.88.94-.76.62-1.14,1.64-1.14,3.05v6.58h-1.56v-12.02h1.56v2.49c.35-.87.92-1.53,1.7-2Z"></path>
      <path d="m352.28,221.46c.86.89,1.29,2.19,1.29,3.91v7h-1.54v-6.89c0-1.29-.31-2.28-.94-2.97-.62-.69-1.48-1.03-2.57-1.03-1.16,0-2.08.38-2.77,1.14-.69.76-1.04,1.89-1.04,3.37v6.38h-1.52v-6.89c0-1.29-.31-2.28-.94-2.97-.62-.69-1.48-1.03-2.56-1.03-1.16,0-2.08.38-2.77,1.14-.69.76-1.04,1.89-1.04,3.37v6.38h-1.56v-12.02h1.56v2.86c.29-1.01.83-1.78,1.6-2.3.77-.52,1.66-.78,2.67-.78s1.97.28,2.73.84c.76.56,1.29,1.38,1.58,2.47.32-1.07.89-1.89,1.7-2.46.81-.56,1.72-.85,2.75-.85,1.38,0,2.5.44,3.36,1.33Z"></path>
      <path d="m363.58,221.23c.79.69,1.28,1.62,1.45,2.8h-1.48c-.09-.78-.41-1.42-.96-1.93-.55-.51-1.29-.76-2.21-.76-.79,0-1.41.2-1.86.58-.45.39-.67.91-.67,1.55,0,.48.14.87.43,1.17s.64.52,1.07.67c.43.15,1,.31,1.72.47.88.21,1.59.42,2.12.63.54.21.99.55,1.38,1,.38.46.57,1.07.57,1.85,0,.95-.36,1.74-1.07,2.34-.71.61-1.66.91-2.83.91-1.38,0-2.51-.34-3.39-1.02-.88-.68-1.4-1.62-1.56-2.81h1.5c.09.79.43,1.44,1.03,1.94s1.42.75,2.44.75c.76,0,1.36-.2,1.78-.59.43-.4.64-.91.64-1.54,0-.51-.15-.92-.44-1.23-.29-.31-.66-.54-1.09-.69-.43-.15-1.02-.32-1.77-.5-.87-.21-1.56-.41-2.08-.62-.52-.21-.97-.52-1.33-.96-.37-.43-.55-1.02-.55-1.77,0-.98.36-1.78,1.08-2.38.72-.6,1.7-.9,2.93-.9,1.31,0,2.36.34,3.15,1.04Z"></path>
      <path d="m369,230.38v1.98h-2.05v-1.98h2.05Z"></path>
    </g>
    <polyline class="cls-2" points="32.04 4.64 4.2 4.64 4.2 63.86"></polyline>
    <polyline class="cls-2" points="192.82 246.47 420.1 246.47 420.1 190.28"></polyline>
    <g>
      <g>
        <g>
          <path d="m30.44,287.49v-7.32h1.36v6.17h3.83v1.15h-5.18Z"></path>
          <path d="m38.05,286.35h4.13v1.14h-5.49v-7.32h5.34v1.14h-3.98v5.04Zm-.1-3.13h3.64v1.12h-3.64v-1.12Z"></path>
          <path d="m42.66,287.49l3.29-7.32h1.34l3.3,7.32h-1.42l-2.83-6.59h.54l-2.82,6.59h-1.4Zm1.52-1.69l.37-1.07h3.95l.37,1.07h-4.68Z"></path>
          <path d="m51.52,287.49v-7.32h3.01c.65,0,1.2.1,1.67.31.46.21.82.51,1.07.9.25.39.38.85.38,1.39s-.13,1-.38,1.38c-.25.39-.61.68-1.07.89-.46.21-1.02.31-1.67.31h-2.26l.61-.62v2.75h-1.36Zm1.36-2.6l-.61-.65h2.2c.6,0,1.05-.13,1.35-.39.3-.26.46-.62.46-1.08s-.15-.83-.46-1.08c-.3-.25-.75-.38-1.35-.38h-2.2l.61-.67v4.23Zm3.43,2.6l-1.85-2.65h1.45l1.86,2.65h-1.46Z"></path>
          <path d="m59.16,287.49v-7.32h1.12l4.59,5.63h-.55v-5.63h1.35v7.32h-1.12l-4.59-5.63h.55v5.63h-1.35Z"></path>
          <path class="cls-1" d="m70.51,287.49v-7.32h1.12l3.2,5.34h-.58l3.15-5.34h1.12v7.32s-1.27,0-1.27,0v-5.3s.26,0,.26,0l-2.67,4.46h-.61l-2.72-4.46h.31v5.3h-1.3Z"></path>
          <path class="cls-1" d="m83.92,287.6c-.57,0-1.1-.09-1.58-.28-.48-.19-.9-.45-1.25-.79s-.63-.74-.83-1.19c-.19-.46-.29-.96-.29-1.5s.1-1.04.29-1.5c.2-.46.47-.85.83-1.19s.77-.6,1.25-.79,1-.28,1.57-.28,1.1.09,1.57.28c.48.19.89.45,1.25.79.36.34.63.74.83,1.19.19.46.29.96.29,1.5s-.1,1.04-.29,1.5c-.2.46-.47.86-.83,1.19-.35.33-.77.6-1.25.78-.48.19-1,.28-1.56.28Zm-.01-1.19c.37,0,.71-.06,1.02-.19.31-.12.58-.3.82-.54.23-.23.41-.5.54-.82.13-.31.19-.65.19-1.03s-.06-.72-.19-1.03c-.13-.31-.31-.58-.54-.81-.23-.23-.5-.41-.82-.54-.31-.13-.66-.19-1.02-.19s-.71.06-1.02.19c-.31.12-.58.3-.82.54s-.41.5-.54.81c-.13.31-.19.65-.19,1.03s.06.71.19,1.02.31.59.54.82c.23.23.5.41.81.54.31.13.66.19,1.02.19Z"></path>
          <path class="cls-1" d="m89.29,287.49v-7.32h3.01c.65,0,1.2.1,1.67.31.46.21.82.51,1.07.9.25.39.38.85.38,1.39s-.13,1-.38,1.38c-.25.39-.61.68-1.07.89-.46.21-1.02.31-1.67.31h-2.26l.61-.62v2.75h-1.36Zm1.36-2.6l-.61-.65h2.2c.6,0,1.05-.13,1.35-.39.3-.26.46-.62.46-1.08s-.15-.83-.46-1.08c-.3-.25-.75-.38-1.35-.38h-2.2l.61-.67v4.23Zm3.43,2.6l-1.85-2.65h1.45l1.86,2.65h-1.46Z"></path>
          <path class="cls-1" d="m98.29,286.35h4.13v1.14h-5.49v-7.32h5.34v1.14h-3.98v5.04Zm-.1-3.13h3.64v1.12h-3.64v-1.12Z"></path>
        </g>
        <polygon class="cls-1" points="115.66 286.19 105.84 286.19 110.56 281.47 115.66 286.19"></polygon>
      </g>
      <g>
        <rect class="cls-3" x="4.2" y="266.06" width="137.73" height="36.29"></rect>
        <rect class="cls-3" x="6.73" y="268.59" width="132.66" height="31.6"></rect>
      </g>
    </g>
  </g>
</svg>
