<?xml version="1.0" encoding="UTF-8"?>
<svg xmlns="http://www.w3.org/2000/svg" id="Layer_4" data-name="Layer 4" viewBox="0 0 455 250">
  <defs>
    <style>
      .cls-1 {
        fill: #c64027;
      }

      .cls-2 {
        stroke-width: 4px;
      }

      .cls-2, .cls-3 {
        fill: none;
        stroke: #000;
        stroke-miterlimit: 10;
      }
    </style>
  </defs>
  <g id="Text">
    <polyline class="cls-2" points="4.93 78.96 4.93 10.42 33.65 10.42"></polyline>
    <polyline class="cls-2" points="119.76 190.46 450.07 190.49 450.07 133.16"></polyline>
    <g>
      <path d="m35.16,64.43v2.99h-4.23v12.57h-3.79v-12.57h-4.18v-2.99h12.19Z"></path>
      <path d="m42.33,68.24c.74-.44,1.54-.66,2.41-.66v4.03h-1.08c-1,0-1.77.21-2.32.64-.55.43-.83,1.14-.83,2.16v5.59h-3.76v-12.28h3.76v2.31c.47-.75,1.08-1.34,1.82-1.78Z"></path>
      <path d="m53.41,68.2c.67.43,1.17,1,1.5,1.74v-2.22h3.74v12.28h-3.74v-2.22c-.32.73-.82,1.31-1.5,1.74-.68.43-1.48.64-2.42.64-1.01,0-1.92-.25-2.72-.76-.8-.51-1.43-1.24-1.89-2.19-.46-.95-.69-2.07-.69-3.35s.23-2.41.69-3.36c.46-.95,1.09-1.67,1.89-2.18.8-.51,1.71-.76,2.72-.76.94,0,1.75.21,2.42.64Zm-3.16,3.46c-.49.53-.74,1.26-.74,2.2s.25,1.67.74,2.2c.49.53,1.14.79,1.95.79s1.44-.27,1.95-.81c.51-.54.76-1.27.76-2.18s-.25-1.65-.76-2.19c-.51-.54-1.16-.8-1.95-.8s-1.46.26-1.95.79Z"></path>
      <path d="m72.4,68.99c.83.94,1.24,2.23,1.24,3.87v7.13h-3.76v-6.69c0-.82-.22-1.46-.65-1.93-.43-.46-1.01-.69-1.73-.69-.76,0-1.37.24-1.82.73-.45.48-.67,1.17-.67,2.07v6.52h-3.76v-12.28h3.76v2.25c.35-.73.88-1.31,1.57-1.74.7-.43,1.51-.64,2.45-.64,1.41,0,2.53.47,3.36,1.41Z"></path>
      <path d="m84.33,68.72c.93.78,1.51,1.81,1.75,3.08h-3.52c-.1-.5-.33-.89-.69-1.18-.36-.29-.81-.43-1.35-.43-.43,0-.75.09-.97.28-.22.18-.33.44-.33.78,0,.38.2.67.61.86.4.19,1.04.38,1.9.57.94.22,1.71.44,2.31.67.6.23,1.12.6,1.56,1.11s.66,1.2.66,2.07c0,.71-.19,1.33-.57,1.87s-.93.97-1.65,1.28c-.72.31-1.57.46-2.55.46-1.66,0-2.99-.37-3.98-1.1s-1.61-1.78-1.83-3.15h3.63c.06.53.28.93.67,1.21.39.28.89.42,1.51.42.43,0,.75-.1.97-.3.22-.2.33-.46.33-.78,0-.43-.2-.73-.61-.91-.4-.18-1.06-.38-1.97-.58-.91-.19-1.66-.4-2.25-.62-.59-.22-1.09-.58-1.52-1.07s-.64-1.16-.64-2.01c0-1.1.42-1.99,1.25-2.67.84-.68,2.02-1.02,3.54-1.02s2.8.39,3.73,1.17Z"></path>
      <path d="m94.38,66.04c-.62,0-1.06.13-1.34.4-.28.26-.43.69-.46,1.28h2.22v3.17h-2.22v9.11h-3.76v-9.11h-1.47v-3.17h1.47v-.13c0-1.53.44-2.7,1.33-3.53s2.17-1.24,3.86-1.24c.35,0,.62,0,.79.02v3.24l-.42-.02Z"></path>
      <path d="m105.46,68.32c.96.51,1.72,1.24,2.27,2.19.55.95.83,2.07.83,3.35s-.28,2.39-.83,3.35c-.55.96-1.31,1.68-2.27,2.19s-2.05.76-3.27.76-2.31-.25-3.28-.76c-.97-.51-1.73-1.24-2.28-2.19-.55-.95-.83-2.07-.83-3.35s.28-2.39.83-3.35c.55-.95,1.31-1.68,2.28-2.19.97-.51,2.06-.76,3.28-.76s2.31.25,3.27.76Zm-5.08,3.28c-.49.52-.74,1.27-.74,2.26s.25,1.73.74,2.25c.49.51,1.1.77,1.82.77s1.32-.26,1.8-.77.73-1.26.73-2.25-.24-1.73-.73-2.26c-.48-.52-1.09-.78-1.8-.78s-1.32.26-1.82.78Z"></path>
      <path d="m116.09,68.24c.74-.44,1.54-.66,2.41-.66v4.03h-1.08c-1,0-1.77.21-2.32.64-.55.43-.83,1.14-.83,2.16v5.59h-3.76v-12.28h3.76v2.31c.47-.75,1.08-1.34,1.82-1.78Z"></path>
      <path d="m139.57,68.98c.87.93,1.3,2.23,1.3,3.88v7.13h-3.74v-6.69c0-.78-.21-1.38-.63-1.82-.42-.43-.99-.65-1.71-.65s-1.34.23-1.77.69c-.43.46-.65,1.11-.65,1.95v6.52h-3.76v-6.69c0-.78-.21-1.38-.62-1.82-.41-.43-.98-.65-1.7-.65s-1.34.23-1.78.68c-.44.46-.66,1.11-.66,1.96v6.52h-3.76v-12.28h3.76v2.09c.32-.69.82-1.23,1.49-1.63.67-.4,1.45-.59,2.34-.59.94,0,1.77.22,2.49.65.72.43,1.26,1.05,1.63,1.86.43-.76,1.01-1.37,1.75-1.83.74-.45,1.56-.68,2.45-.68,1.51,0,2.7.47,3.57,1.4Z"></path>
      <path d="m151.54,63.71v16.29h-3.76v-16.29h3.76Z"></path>
      <path d="m165.69,74.53h-8.52c.04.92.28,1.59.71,1.99.42.4.97.61,1.63.61.56,0,1.02-.14,1.39-.42.37-.28.61-.64.73-1.08h3.98c-.16.87-.51,1.64-1.06,2.32-.54.68-1.23,1.22-2.07,1.61-.84.39-1.77.58-2.8.58-1.2,0-2.27-.25-3.2-.76s-1.66-1.24-2.19-2.19c-.53-.95-.79-2.07-.79-3.35s.26-2.41.78-3.36c.52-.95,1.25-1.67,2.19-2.18.94-.51,2.01-.76,3.21-.76s2.29.25,3.21.75c.92.5,1.64,1.2,2.15,2.1.51.9.76,1.94.76,3.11,0,.31-.04.65-.11,1.01Zm-4.35-3.4c-.45-.4-1-.6-1.66-.6s-1.26.21-1.72.62c-.46.41-.71,1.01-.77,1.8h4.8c.01-.81-.2-1.41-.65-1.82Z"></path>
      <path d="m174.85,68.2c.67.43,1.17,1,1.5,1.74v-2.22h3.74v12.22c0,1.14-.22,2.17-.66,3.09s-1.12,1.65-2.03,2.19c-.91.54-2.04.81-3.39.81-1.85,0-3.33-.44-4.44-1.31-1.11-.87-1.77-2.06-1.99-3.55h3.72c.12.5.38.89.8,1.17.42.28.96.42,1.64.42.78,0,1.4-.22,1.88-.67.48-.45.71-1.16.71-2.15v-2.16c-.32.73-.82,1.31-1.5,1.74-.68.43-1.48.64-2.42.64-1.01,0-1.92-.25-2.72-.76-.8-.51-1.43-1.24-1.89-2.19-.46-.95-.69-2.07-.69-3.35s.23-2.41.69-3.36c.46-.95,1.09-1.67,1.89-2.18.8-.51,1.71-.76,2.72-.76.94,0,1.75.21,2.42.64Zm-3.16,3.46c-.49.53-.74,1.26-.74,2.2s.25,1.67.74,2.2c.49.53,1.14.79,1.95.79s1.44-.27,1.95-.81c.51-.54.76-1.27.76-2.18s-.25-1.65-.76-2.19c-.51-.54-1.16-.8-1.95-.8s-1.46.26-1.95.79Z"></path>
      <path d="m189.77,68.2c.67.43,1.17,1,1.5,1.74v-2.22h3.74v12.28h-3.74v-2.22c-.32.73-.82,1.31-1.5,1.74-.68.43-1.48.64-2.42.64-1.01,0-1.92-.25-2.72-.76-.8-.51-1.43-1.24-1.89-2.19-.46-.95-.69-2.07-.69-3.35s.23-2.41.69-3.36c.46-.95,1.09-1.67,1.89-2.18.8-.51,1.71-.76,2.72-.76.94,0,1.75.21,2.42.64Zm-3.16,3.46c-.49.53-.74,1.26-.74,2.2s.25,1.67.74,2.2c.49.53,1.14.79,1.95.79s1.44-.27,1.95-.81c.51-.54.76-1.27.76-2.18s-.25-1.65-.76-2.19c-.51-.54-1.16-.8-1.95-.8s-1.46.26-1.95.79Z"></path>
      <path d="m207.14,68.87c1.07.87,1.75,2.07,2.02,3.6h-3.98c-.12-.53-.36-.94-.73-1.23-.37-.29-.83-.44-1.39-.44-.66,0-1.2.26-1.63.78-.43.52-.64,1.28-.64,2.28s.21,1.76.64,2.28c.42.52.97.78,1.63.78.56,0,1.02-.15,1.39-.44.37-.29.61-.7.73-1.23h3.98c-.28,1.53-.95,2.73-2.02,3.6-1.07.87-2.4,1.31-3.98,1.31-1.2,0-2.27-.25-3.2-.76s-1.66-1.24-2.19-2.19c-.53-.95-.79-2.07-.79-3.35s.26-2.41.78-3.36c.52-.95,1.25-1.67,2.19-2.18.94-.51,2.01-.76,3.21-.76,1.58,0,2.91.44,3.98,1.31Z"></path>
      <path d="m213.97,67.71l2.95,7.53,2.75-7.53h4.16l-7.66,18.14h-4.14l2.88-6.32-5.15-11.82h4.21Z"></path>
      <path d="m236.57,68.2c.67.43,1.17,1,1.5,1.74v-2.22h3.74v12.28h-3.74v-2.22c-.32.73-.82,1.31-1.5,1.74-.68.43-1.48.64-2.42.64-1.01,0-1.92-.25-2.72-.76-.8-.51-1.43-1.24-1.89-2.19-.46-.95-.69-2.07-.69-3.35s.23-2.41.69-3.36c.46-.95,1.09-1.67,1.89-2.18.8-.51,1.71-.76,2.72-.76.94,0,1.75.21,2.42.64Zm-3.16,3.46c-.49.53-.74,1.26-.74,2.2s.25,1.67.74,2.2c.49.53,1.14.79,1.95.79s1.44-.27,1.95-.81c.51-.54.76-1.27.76-2.18s-.25-1.65-.76-2.19c-.51-.54-1.16-.8-1.95-.8s-1.46.26-1.95.79Z"></path>
      <path d="m254.79,68.32c.8.51,1.43,1.23,1.89,2.18s.69,2.07.69,3.36-.23,2.39-.69,3.35c-.46.96-1.09,1.68-1.89,2.19s-1.71.76-2.72.76c-.94,0-1.75-.21-2.42-.64-.67-.42-1.17-1-1.47-1.74v8.08h-3.76v-18.14h3.76v2.22c.31-.73.8-1.31,1.47-1.74s1.48-.64,2.42-.64c1.01,0,1.92.25,2.72.76Zm-5.88,3.35c-.51.54-.76,1.27-.76,2.19s.25,1.64.76,2.18c.51.54,1.16.81,1.95.81s1.46-.26,1.95-.79c.49-.53.74-1.26.74-2.2s-.25-1.67-.74-2.2c-.49-.53-1.14-.79-1.95-.79s-1.44.27-1.95.8Z"></path>
      <path d="m269.71,68.32c.8.51,1.43,1.23,1.89,2.18s.69,2.07.69,3.36-.23,2.39-.69,3.35c-.46.96-1.09,1.68-1.89,2.19s-1.71.76-2.72.76c-.94,0-1.75-.21-2.42-.64-.67-.42-1.17-1-1.47-1.74v8.08h-3.76v-18.14h3.76v2.22c.31-.73.8-1.31,1.47-1.74s1.48-.64,2.42-.64c1.01,0,1.92.25,2.72.76Zm-5.88,3.35c-.51.54-.76,1.27-.76,2.19s.25,1.64.76,2.18c.51.54,1.16.81,1.95.81s1.46-.26,1.95-.79c.49-.53.74-1.26.74-2.2s-.25-1.67-.74-2.2c-.49-.53-1.14-.79-1.95-.79s-1.44.27-1.95.8Z"></path>
      <path d="m278.02,63.71v16.29h-3.76v-16.29h3.76Z"></path>
      <path d="m280.88,62.83c.41-.37.95-.56,1.63-.56s1.22.19,1.63.56.62.85.62,1.42-.21,1.02-.62,1.4c-.41.38-.95.56-1.63.56s-1.22-.19-1.63-.56c-.41-.37-.62-.84-.62-1.4s.21-1.05.62-1.42Zm3.5,4.88v12.28h-3.76v-12.28h3.76Z"></path>
      <path d="m296.51,68.87c1.07.87,1.75,2.07,2.02,3.6h-3.98c-.12-.53-.36-.94-.73-1.23-.37-.29-.83-.44-1.39-.44-.66,0-1.2.26-1.63.78-.43.52-.64,1.28-.64,2.28s.21,1.76.64,2.28c.42.52.97.78,1.63.78.56,0,1.02-.15,1.39-.44.37-.29.61-.7.73-1.23h3.98c-.28,1.53-.95,2.73-2.02,3.6-1.07.87-2.4,1.31-3.98,1.31-1.2,0-2.27-.25-3.2-.76s-1.66-1.24-2.19-2.19c-.53-.95-.79-2.07-.79-3.35s.26-2.41.78-3.36c.52-.95,1.25-1.67,2.19-2.18.94-.51,2.01-.76,3.21-.76,1.58,0,2.91.44,3.98,1.31Z"></path>
      <path d="m307.58,68.2c.67.43,1.17,1,1.5,1.74v-2.22h3.74v12.28h-3.74v-2.22c-.32.73-.82,1.31-1.5,1.74-.68.43-1.48.64-2.42.64-1.01,0-1.92-.25-2.72-.76-.8-.51-1.43-1.24-1.89-2.19-.46-.95-.69-2.07-.69-3.35s.23-2.41.69-3.36c.46-.95,1.09-1.67,1.89-2.18.8-.51,1.71-.76,2.72-.76.94,0,1.75.21,2.42.64Zm-3.16,3.46c-.49.53-.74,1.26-.74,2.2s.25,1.67.74,2.2c.49.53,1.14.79,1.95.79s1.44-.27,1.95-.81c.51-.54.76-1.27.76-2.18s-.25-1.65-.76-2.19c-.51-.54-1.16-.8-1.95-.8s-1.46.26-1.95.79Z"></path>
      <path d="m322.37,76.76v3.24h-1.7c-1.44,0-2.56-.36-3.36-1.07-.8-.71-1.2-1.89-1.2-3.53v-4.51h-1.65v-3.17h1.65v-3.02h3.76v3.02h2.47v3.17h-2.47v4.58c0,.48.1.82.3,1.01.2.19.53.29,1,.29h1.19Z"></path>
      <path d="m324.75,62.83c.41-.37.95-.56,1.63-.56s1.22.19,1.63.56.62.85.62,1.42-.21,1.02-.62,1.4c-.41.38-.95.56-1.63.56s-1.22-.19-1.63-.56c-.41-.37-.62-.84-.62-1.4s.21-1.05.62-1.42Zm3.5,4.88v12.28h-3.76v-12.28h3.76Z"></path>
      <path d="m339.86,68.32c.96.51,1.72,1.24,2.27,2.19.55.95.83,2.07.83,3.35s-.28,2.39-.83,3.35c-.55.96-1.31,1.68-2.27,2.19s-2.05.76-3.27.76-2.31-.25-3.28-.76c-.97-.51-1.73-1.24-2.28-2.19-.55-.95-.83-2.07-.83-3.35s.28-2.39.83-3.35c.55-.95,1.31-1.68,2.28-2.19.97-.51,2.06-.76,3.28-.76s2.31.25,3.27.76Zm-5.08,3.28c-.49.52-.74,1.27-.74,2.26s.25,1.73.74,2.25c.49.51,1.1.77,1.82.77s1.32-.26,1.8-.77.73-1.26.73-2.25-.24-1.73-.73-2.26c-.48-.52-1.09-.78-1.8-.78s-1.32.26-1.82.78Z"></path>
      <path d="m356.06,68.99c.83.94,1.24,2.23,1.24,3.87v7.13h-3.76v-6.69c0-.82-.22-1.46-.65-1.93-.43-.46-1.01-.69-1.73-.69-.76,0-1.37.24-1.82.73-.45.48-.67,1.17-.67,2.07v6.52h-3.76v-12.28h3.76v2.25c.35-.73.88-1.31,1.57-1.74.7-.43,1.51-.64,2.45-.64,1.41,0,2.53.47,3.36,1.41Z"></path>
      <path d="m367.99,68.72c.93.78,1.51,1.81,1.75,3.08h-3.52c-.1-.5-.33-.89-.69-1.18-.36-.29-.81-.43-1.35-.43-.43,0-.75.09-.97.28-.22.18-.33.44-.33.78,0,.38.2.67.61.86.4.19,1.04.38,1.9.57.94.22,1.71.44,2.31.67.6.23,1.12.6,1.56,1.11s.66,1.2.66,2.07c0,.71-.19,1.33-.57,1.87s-.93.97-1.65,1.28c-.72.31-1.57.46-2.55.46-1.66,0-2.99-.37-3.98-1.1s-1.61-1.78-1.83-3.15h3.63c.06.53.28.93.67,1.21.39.28.89.42,1.51.42.43,0,.75-.1.97-.3.22-.2.33-.46.33-.78,0-.43-.2-.73-.61-.91-.4-.18-1.06-.38-1.97-.58-.91-.19-1.66-.4-2.25-.62-.59-.22-1.09-.58-1.52-1.07s-.64-1.16-.64-2.01c0-1.1.42-1.99,1.25-2.67.84-.68,2.02-1.02,3.54-1.02s2.8.39,3.73,1.17Z"></path>
      <path d="m388.47,67.97v12.02h-1.54v-2.97c-.31,1.04-.87,1.83-1.67,2.38-.81.54-1.73.81-2.77.81-1.41,0-2.55-.44-3.42-1.33-.87-.89-1.31-2.19-1.31-3.91v-7h1.54v6.87c0,1.32.33,2.33.99,3.03.66.7,1.56,1.04,2.71,1.04,1.2,0,2.16-.38,2.87-1.16s1.07-1.9,1.07-3.4v-6.38h1.54Z"></path>
      <path d="m398.62,68.86c.79.69,1.28,1.62,1.45,2.79h-1.47c-.09-.78-.41-1.42-.96-1.93-.55-.51-1.29-.76-2.21-.76-.79,0-1.41.2-1.86.58-.45.39-.67.91-.67,1.55,0,.48.14.87.43,1.17.29.29.64.52,1.07.67.42.15,1,.31,1.72.47.88.21,1.59.41,2.12.63.54.21.99.55,1.38,1,.38.46.57,1.07.57,1.85,0,.95-.36,1.74-1.07,2.34-.71.61-1.66.91-2.83.91-1.38,0-2.51-.34-3.39-1.02-.88-.68-1.4-1.62-1.56-2.81h1.5c.09.79.43,1.44,1.04,1.94.6.5,1.42.75,2.44.75.76,0,1.36-.2,1.78-.59s.64-.91.64-1.54c0-.51-.15-.92-.44-1.23s-.66-.54-1.09-.69c-.43-.15-1.02-.32-1.77-.5-.87-.21-1.56-.41-2.08-.62-.52-.21-.96-.53-1.33-.96-.37-.43-.55-1.02-.55-1.77,0-.98.36-1.78,1.08-2.38.72-.6,1.7-.9,2.93-.9,1.31,0,2.36.35,3.15,1.04Z"></path>
      <path d="m402.97,63.64c.21-.19.49-.29.83-.29s.61.1.81.29c.21.19.31.45.31.77s-.1.56-.31.75c-.21.19-.48.29-.81.29s-.61-.1-.83-.29-.32-.44-.32-.75.11-.58.32-.77Zm1.6,4.34v12.02h-1.56v-12.02h1.56Z"></path>
      <path d="m417.32,69.09c.87.89,1.31,2.19,1.31,3.91v7h-1.52v-6.89c0-1.31-.33-2.31-.99-3-.66-.7-1.56-1.05-2.71-1.05-1.2,0-2.16.39-2.87,1.16-.71.77-1.07,1.9-1.07,3.4v6.38h-1.56v-12.02h1.56v2.95c.31-1.03.87-1.81,1.67-2.36.81-.54,1.73-.81,2.77-.81,1.39,0,2.53.45,3.4,1.33Z"></path>
      <path d="m430.06,68.77c.86.63,1.45,1.47,1.77,2.51v-3.3h1.52v12.3c0,1.12-.23,2.09-.7,2.94s-1.12,1.5-1.96,1.96c-.84.46-1.79.69-2.86.69-1.57,0-2.86-.38-3.86-1.13s-1.66-1.78-1.97-3.07h1.54c.26.88.75,1.58,1.46,2.09.71.51,1.63.77,2.74.77.76,0,1.46-.17,2.08-.5.62-.33,1.12-.82,1.47-1.46s.54-1.41.54-2.29v-3.59c-.32,1.04-.91,1.88-1.77,2.51s-1.9.95-3.12.95c-1.09,0-2.06-.25-2.92-.75-.86-.5-1.53-1.21-2-2.15-.48-.93-.72-2.02-.72-3.27s.24-2.36.72-3.29c.48-.93,1.14-1.64,1.99-2.13.85-.49,1.83-.74,2.93-.74,1.22,0,2.26.32,3.12.95Zm-5.97,1.71c-.81.86-1.22,2.03-1.22,3.51s.41,2.65,1.22,3.51c.81.86,1.9,1.29,3.25,1.29.85,0,1.62-.2,2.3-.6.68-.4,1.22-.96,1.61-1.68.39-.73.58-1.57.58-2.52s-.19-1.79-.58-2.52c-.39-.73-.92-1.29-1.61-1.68-.68-.4-1.45-.59-2.3-.59-1.35,0-2.43.43-3.25,1.29Z"></path>
      <path d="m32.53,97.89c.86.63,1.45,1.47,1.77,2.51v-3.3h1.52v12.02h-1.52v-3.3c-.32,1.04-.91,1.88-1.77,2.51s-1.9.95-3.12.95c-1.09,0-2.06-.25-2.92-.75-.86-.5-1.53-1.21-2-2.15-.48-.93-.72-2.02-.72-3.27s.24-2.36.72-3.29c.48-.93,1.14-1.64,1.99-2.13.85-.49,1.83-.74,2.93-.74,1.22,0,2.26.32,3.12.95Zm-5.97,1.71c-.81.86-1.22,2.03-1.22,3.51s.41,2.65,1.22,3.51c.81.86,1.9,1.29,3.25,1.29.85,0,1.62-.2,2.3-.6.68-.4,1.22-.96,1.61-1.68.39-.73.58-1.57.58-2.52s-.19-1.79-.58-2.52c-.39-.73-.92-1.29-1.61-1.68-.68-.4-1.45-.59-2.3-.59-1.35,0-2.43.43-3.25,1.29Z"></path>
      <path d="m47.61,94.51c-.45.42-.67,1.12-.67,2.1v.48h3.02v1.37h-3.02v10.65h-1.54v-10.65h-1.78v-1.37h1.78v-.59c0-1.35.37-2.36,1.1-3.04.73-.67,1.89-.98,3.46-.92v1.37c-1.12-.01-1.9.19-2.34.61Z"></path>
      <path d="m60.77,97.68c.9.49,1.61,1.2,2.12,2.13s.77,2.03.77,3.29-.26,2.36-.77,3.28-1.22,1.64-2.12,2.13c-.9.5-1.93.75-3.07.75s-2.17-.25-3.08-.75c-.91-.5-1.63-1.21-2.15-2.15-.52-.93-.78-2.02-.78-3.27s.26-2.36.78-3.29,1.24-1.64,2.15-2.13c.91-.49,1.94-.74,3.08-.74s2.17.25,3.07.74Zm-5.27,1.13c-.67.35-1.22.89-1.63,1.62-.41.73-.62,1.62-.62,2.67s.21,1.94.62,2.66c.41.72.95,1.25,1.63,1.61.67.35,1.41.53,2.2.53s1.5-.18,2.17-.53c.67-.35,1.21-.89,1.62-1.61.41-.72.62-1.61.62-2.66s-.21-1.95-.62-2.67-.95-1.27-1.62-1.62c-.67-.35-1.39-.53-2.17-.53s-1.53.18-2.2.53Z"></path>
      <path d="m74.95,97.68c.9.49,1.61,1.2,2.12,2.13s.77,2.03.77,3.29-.26,2.36-.77,3.28-1.22,1.64-2.12,2.13c-.9.5-1.93.75-3.07.75s-2.17-.25-3.08-.75c-.91-.5-1.63-1.21-2.15-2.15-.52-.93-.78-2.02-.78-3.27s.26-2.36.78-3.29,1.24-1.64,2.15-2.13c.91-.49,1.94-.74,3.08-.74s2.17.25,3.07.74Zm-5.27,1.13c-.67.35-1.22.89-1.63,1.62-.41.73-.62,1.62-.62,2.67s.21,1.94.62,2.66c.41.72.95,1.25,1.63,1.61.67.35,1.41.53,2.2.53s1.5-.18,2.17-.53c.67-.35,1.21-.89,1.62-1.61.41-.72.62-1.61.62-2.66s-.21-1.95-.62-2.67-.95-1.27-1.62-1.62c-.67-.35-1.39-.53-2.17-.53s-1.53.18-2.2.53Z"></path>
      <path d="m82.18,92.83v16.29h-1.56v-16.29h1.56Z"></path>
      <path d="m91.98,100.31v1.3h-8.58v-1.3h8.58Z"></path>
      <path d="m105.37,97.68c.84.49,1.5,1.2,1.98,2.13.48.93.71,2.03.71,3.29s-.24,2.34-.71,3.27c-.48.93-1.14,1.65-1.99,2.15-.85.5-1.82.75-2.91.75-1.23,0-2.28-.32-3.13-.95-.85-.63-1.44-1.47-1.76-2.51v8.98h-1.54v-17.7h1.54v3.3c.32-1.04.91-1.88,1.76-2.51.85-.63,1.89-.95,3.13-.95,1.1,0,2.07.25,2.92.74Zm-5.63,1.22c-.68.4-1.21.96-1.6,1.68-.38.73-.57,1.57-.57,2.52s.19,1.79.57,2.52c.38.73.91,1.29,1.6,1.68.68.4,1.45.6,2.3.6,1.37,0,2.45-.43,3.26-1.29.81-.86,1.21-2.03,1.21-3.51s-.4-2.65-1.21-3.51c-.81-.86-1.89-1.29-3.26-1.29-.85,0-1.62.2-2.3.59Z"></path>
      <path d="m114.1,97.58c.78-.47,1.72-.71,2.84-.71v1.67h-.51c-1.16,0-2.12.31-2.88.94-.76.62-1.14,1.64-1.14,3.05v6.58h-1.56v-12.02h1.56v2.49c.35-.87.92-1.53,1.7-2Z"></path>
      <path d="m127.49,97.68c.9.49,1.61,1.2,2.12,2.13s.77,2.03.77,3.29-.26,2.36-.77,3.28-1.22,1.64-2.12,2.13c-.9.5-1.93.75-3.07.75s-2.17-.25-3.08-.75c-.91-.5-1.63-1.21-2.15-2.15-.52-.93-.78-2.02-.78-3.27s.26-2.36.78-3.29,1.24-1.64,2.15-2.13c.91-.49,1.94-.74,3.08-.74s2.17.25,3.07.74Zm-5.27,1.13c-.67.35-1.22.89-1.63,1.62-.41.73-.62,1.62-.62,2.67s.21,1.94.62,2.66c.41.72.95,1.25,1.63,1.61.67.35,1.41.53,2.2.53s1.5-.18,2.17-.53c.67-.35,1.21-.89,1.62-1.61.41-.72.62-1.61.62-2.66s-.21-1.95-.62-2.67-.95-1.27-1.62-1.62c-.67-.35-1.39-.53-2.17-.53s-1.53.18-2.2.53Z"></path>
      <path d="m141.67,97.68c.9.49,1.61,1.2,2.12,2.13s.77,2.03.77,3.29-.26,2.36-.77,3.28-1.22,1.64-2.12,2.13c-.9.5-1.93.75-3.07.75s-2.17-.25-3.08-.75c-.91-.5-1.63-1.21-2.15-2.15-.52-.93-.78-2.02-.78-3.27s.26-2.36.78-3.29,1.24-1.64,2.15-2.13c.91-.49,1.94-.74,3.08-.74s2.17.25,3.07.74Zm-5.27,1.13c-.67.35-1.22.89-1.63,1.62-.41.73-.62,1.62-.62,2.67s.21,1.94.62,2.66c.41.72.95,1.25,1.63,1.61.67.35,1.41.53,2.2.53s1.5-.18,2.17-.53c.67-.35,1.21-.89,1.62-1.61.41-.72.62-1.61.62-2.66s-.21-1.95-.62-2.67-.95-1.27-1.62-1.62c-.67-.35-1.39-.53-2.17-.53s-1.53.18-2.2.53Z"></path>
      <path d="m150.05,94.51c-.45.42-.67,1.12-.67,2.1v.48h3.02v1.37h-3.02v10.65h-1.54v-10.65h-1.78v-1.37h1.78v-.59c0-1.35.37-2.36,1.1-3.04.73-.67,1.89-.98,3.46-.92v1.37c-1.12-.01-1.9.19-2.34.61Z"></path>
      <path d="m165.89,107.75v1.36h-1.43c-1.16,0-2.03-.28-2.6-.83-.57-.55-.86-1.48-.86-2.79v-7.07h-1.83v-1.34h1.83v-3.04h1.56v3.04h3.3v1.34h-3.3v7.09c0,.85.15,1.43.46,1.75.31.32.85.47,1.63.47h1.23Z"></path>
      <path d="m176.39,107.18c.73-.54,1.17-1.28,1.32-2.2h1.63c-.22,1.28-.83,2.31-1.83,3.1-1,.79-2.26,1.19-3.79,1.19-1.14,0-2.16-.25-3.05-.74s-1.58-1.2-2.08-2.13c-.5-.93-.75-2.03-.75-3.29s.25-2.36.75-3.29,1.19-1.64,2.08-2.13c.89-.49,1.9-.74,3.05-.74s2.19.25,3.05.74c.86.49,1.51,1.15,1.96,1.97.45.82.67,1.72.67,2.68,0,.41-.03.79-.09,1.12h-9.95c.01,1.01.22,1.86.63,2.54.4.68.93,1.18,1.57,1.51.65.32,1.34.48,2.09.48,1.08,0,2-.27,2.73-.81Zm-4.8-8.5c-.65.32-1.17.82-1.57,1.49-.4.67-.62,1.5-.65,2.5h8.5c.06-.98-.1-1.81-.48-2.49-.38-.67-.9-1.17-1.54-1.5s-1.35-.48-2.11-.48-1.49.16-2.13.48Z"></path>
      <path d="m191.28,98.15c1,.81,1.62,1.88,1.84,3.21h-1.61c-.16-.95-.61-1.71-1.34-2.26-.73-.55-1.64-.82-2.71-.82-.78,0-1.49.18-2.15.53-.65.35-1.17.89-1.56,1.62-.39.73-.58,1.62-.58,2.67s.19,1.95.58,2.67c.39.73.91,1.27,1.56,1.62.65.35,1.37.53,2.15.53,1.07,0,1.97-.28,2.71-.83.73-.55,1.18-1.3,1.34-2.26h1.61c-.22,1.34-.83,2.41-1.84,3.21-1,.81-2.27,1.21-3.8,1.21-1.14,0-2.16-.25-3.05-.74s-1.58-1.2-2.08-2.13c-.5-.93-.75-2.03-.75-3.29s.25-2.36.75-3.29,1.19-1.64,2.08-2.13c.89-.49,1.9-.74,3.05-.74,1.53,0,2.79.4,3.8,1.21Z"></path>
      <path d="m205.3,98.21c.87.89,1.31,2.19,1.31,3.91v7h-1.52v-6.89c0-1.31-.33-2.31-.99-3-.66-.7-1.56-1.05-2.71-1.05-1.2,0-2.16.39-2.87,1.16-.71.77-1.07,1.9-1.07,3.4v6.38h-1.56v-16.29h1.56v7.22c.31-1.03.87-1.81,1.67-2.36.81-.54,1.73-.81,2.77-.81,1.39,0,2.53.45,3.4,1.33Z"></path>
      <path d="m219.28,98.21c.87.89,1.31,2.19,1.31,3.91v7h-1.52v-6.89c0-1.31-.33-2.31-.99-3-.66-.7-1.56-1.05-2.71-1.05-1.2,0-2.16.39-2.87,1.16-.71.77-1.07,1.9-1.07,3.4v6.38h-1.56v-12.02h1.56v2.95c.31-1.03.87-1.81,1.67-2.36.81-.54,1.73-.81,2.77-.81,1.39,0,2.53.45,3.4,1.33Z"></path>
      <path d="m232.36,97.68c.9.49,1.61,1.2,2.12,2.13s.77,2.03.77,3.29-.26,2.36-.77,3.28-1.22,1.64-2.12,2.13c-.9.5-1.93.75-3.07.75s-2.17-.25-3.08-.75c-.91-.5-1.63-1.21-2.15-2.15-.52-.93-.78-2.02-.78-3.27s.26-2.36.78-3.29,1.24-1.64,2.15-2.13c.91-.49,1.94-.74,3.08-.74s2.17.25,3.07.74Zm-5.27,1.13c-.67.35-1.22.89-1.63,1.62-.41.73-.62,1.62-.62,2.67s.21,1.94.62,2.66c.41.72.95,1.25,1.63,1.61.67.35,1.41.53,2.2.53s1.5-.18,2.17-.53c.67-.35,1.21-.89,1.62-1.61.41-.72.62-1.61.62-2.66s-.21-1.95-.62-2.67-.95-1.27-1.62-1.62c-.67-.35-1.39-.53-2.17-.53s-1.53.18-2.2.53Z"></path>
      <path d="m239.59,92.83v16.29h-1.56v-16.29h1.56Z"></path>
      <path d="m251.44,97.68c.9.49,1.61,1.2,2.12,2.13s.77,2.03.77,3.29-.26,2.36-.77,3.28-1.22,1.64-2.12,2.13c-.9.5-1.93.75-3.07.75s-2.17-.25-3.08-.75c-.91-.5-1.63-1.21-2.15-2.15-.52-.93-.78-2.02-.78-3.27s.26-2.36.78-3.29,1.24-1.64,2.15-2.13c.91-.49,1.94-.74,3.08-.74s2.17.25,3.07.74Zm-5.27,1.13c-.67.35-1.22.89-1.63,1.62-.41.73-.62,1.62-.62,2.67s.21,1.94.62,2.66c.41.72.95,1.25,1.63,1.61.67.35,1.41.53,2.2.53s1.5-.18,2.17-.53c.67-.35,1.21-.89,1.62-1.61.41-.72.62-1.61.62-2.66s-.21-1.95-.62-2.67-.95-1.27-1.62-1.62c-.67-.35-1.39-.53-2.17-.53s-1.53.18-2.2.53Z"></path>
      <path d="m265.29,97.89c.86.63,1.45,1.47,1.77,2.51v-3.3h1.52v12.3c0,1.12-.23,2.09-.7,2.94s-1.12,1.5-1.96,1.96c-.84.46-1.79.69-2.86.69-1.57,0-2.86-.38-3.86-1.13s-1.66-1.78-1.97-3.07h1.54c.26.88.75,1.58,1.46,2.09.71.51,1.63.77,2.74.77.76,0,1.46-.17,2.08-.5.62-.33,1.12-.82,1.47-1.46s.54-1.41.54-2.29v-3.59c-.32,1.04-.91,1.88-1.77,2.51s-1.9.95-3.12.95c-1.09,0-2.06-.25-2.92-.75-.86-.5-1.53-1.21-2-2.15-.48-.93-.72-2.02-.72-3.27s.24-2.36.72-3.29c.48-.93,1.14-1.64,1.99-2.13.85-.49,1.83-.74,2.93-.74,1.22,0,2.26.32,3.12.95Zm-5.97,1.71c-.81.86-1.22,2.03-1.22,3.51s.41,2.65,1.22,3.51c.81.86,1.9,1.29,3.25,1.29.85,0,1.62-.2,2.3-.6.68-.4,1.22-.96,1.61-1.68.39-.73.58-1.57.58-2.52s-.19-1.79-.58-2.52c-.39-.73-.92-1.29-1.61-1.68-.68-.4-1.45-.59-2.3-.59-1.35,0-2.43.43-3.25,1.29Z"></path>
      <path d="m272.25,97.1l4.18,10.02,3.85-10.02h1.72l-7.07,17.7h-1.76l2.42-5.81-5.06-11.89h1.72Z"></path>
      <path d="m292.94,97.58c.78-.47,1.72-.71,2.84-.71v1.67h-.51c-1.16,0-2.12.31-2.88.94-.76.62-1.14,1.64-1.14,3.05v6.58h-1.56v-12.02h1.56v2.49c.35-.87.92-1.53,1.7-2Z"></path>
      <path d="m306.34,97.68c.9.49,1.61,1.2,2.12,2.13s.77,2.03.77,3.29-.26,2.36-.77,3.28-1.22,1.64-2.12,2.13c-.9.5-1.93.75-3.07.75s-2.17-.25-3.08-.75c-.91-.5-1.63-1.21-2.15-2.15-.52-.93-.78-2.02-.78-3.27s.26-2.36.78-3.29,1.24-1.64,2.15-2.13c.91-.49,1.94-.74,3.08-.74s2.17.25,3.07.74Zm-5.27,1.13c-.67.35-1.22.89-1.63,1.62-.41.73-.62,1.62-.62,2.67s.21,1.94.62,2.66c.41.72.95,1.25,1.63,1.61.67.35,1.41.53,2.2.53s1.5-.18,2.17-.53c.67-.35,1.21-.89,1.62-1.61.41-.72.62-1.61.62-2.66s-.21-1.95-.62-2.67-.95-1.27-1.62-1.62c-.67-.35-1.39-.53-2.17-.53s-1.53.18-2.2.53Z"></path>
      <path d="m320.18,97.89c.86.63,1.45,1.47,1.77,2.51v-3.3h1.52v12.02h-1.52v-3.3c-.32,1.04-.91,1.88-1.77,2.51s-1.9.95-3.12.95c-1.09,0-2.06-.25-2.92-.75-.86-.5-1.53-1.21-2-2.15-.48-.93-.72-2.02-.72-3.27s.24-2.36.72-3.29c.48-.93,1.14-1.64,1.99-2.13.85-.49,1.83-.74,2.93-.74,1.22,0,2.26.32,3.12.95Zm-5.97,1.71c-.81.86-1.22,2.03-1.22,3.51s.41,2.65,1.22,3.51c.81.86,1.9,1.29,3.25,1.29.85,0,1.62-.2,2.3-.6.68-.4,1.22-.96,1.61-1.68.39-.73.58-1.57.58-2.52s-.19-1.79-.58-2.52c-.39-.73-.92-1.29-1.61-1.68-.68-.4-1.45-.59-2.3-.59-1.35,0-2.43.43-3.25,1.29Z"></path>
      <path d="m335,97.89c.86.63,1.44,1.47,1.75,2.51v-7.57h1.54v16.29h-1.54v-3.3c-.31,1.04-.89,1.88-1.75,2.51s-1.9.95-3.12.95c-1.09,0-2.06-.25-2.92-.75-.86-.5-1.53-1.21-2-2.15-.48-.93-.72-2.02-.72-3.27s.24-2.36.72-3.29c.48-.93,1.14-1.64,1.99-2.13.85-.49,1.83-.74,2.93-.74,1.22,0,2.26.32,3.12.95Zm-5.97,1.71c-.81.86-1.22,2.03-1.22,3.51s.41,2.65,1.22,3.51c.81.86,1.9,1.29,3.25,1.29.85,0,1.62-.2,2.3-.6.68-.4,1.22-.96,1.61-1.68.39-.73.58-1.57.58-2.52s-.19-1.79-.58-2.52c-.39-.73-.92-1.29-1.61-1.68-.68-.4-1.45-.59-2.3-.59-1.35,0-2.43.43-3.25,1.29Z"></path>
      <path d="m359.58,98.21c.86.89,1.29,2.19,1.29,3.91v7h-1.54v-6.89c0-1.29-.31-2.28-.94-2.97-.62-.69-1.48-1.03-2.56-1.03-1.16,0-2.08.38-2.77,1.14s-1.03,1.89-1.03,3.37v6.38h-1.52v-6.89c0-1.29-.31-2.28-.94-2.97-.62-.69-1.48-1.03-2.56-1.03-1.16,0-2.08.38-2.77,1.14-.69.76-1.04,1.89-1.04,3.37v6.38h-1.56v-12.02h1.56v2.86c.29-1.01.83-1.78,1.6-2.3.77-.52,1.66-.78,2.67-.78s1.97.28,2.73.84c.76.56,1.29,1.38,1.58,2.46.32-1.07.89-1.89,1.7-2.46.81-.56,1.72-.85,2.75-.85,1.38,0,2.5.45,3.36,1.33Z"></path>
      <path d="m372.28,97.89c.86.63,1.45,1.47,1.77,2.51v-3.3h1.52v12.02h-1.52v-3.3c-.32,1.04-.91,1.88-1.77,2.51s-1.9.95-3.12.95c-1.09,0-2.06-.25-2.92-.75-.86-.5-1.53-1.21-2-2.15-.48-.93-.72-2.02-.72-3.27s.24-2.36.72-3.29c.48-.93,1.14-1.64,1.99-2.13.85-.49,1.83-.74,2.93-.74,1.22,0,2.26.32,3.12.95Zm-5.97,1.71c-.81.86-1.22,2.03-1.22,3.51s.41,2.65,1.22,3.51c.81.86,1.9,1.29,3.25,1.29.85,0,1.62-.2,2.3-.6.68-.4,1.22-.96,1.61-1.68.39-.73.58-1.57.58-2.52s-.19-1.79-.58-2.52c-.39-.73-.92-1.29-1.61-1.68-.68-.4-1.45-.59-2.3-.59-1.35,0-2.43.43-3.25,1.29Z"></path>
      <path d="m388.26,97.68c.84.49,1.5,1.2,1.98,2.13.48.93.71,2.03.71,3.29s-.24,2.34-.71,3.27c-.48.93-1.14,1.65-1.99,2.15-.85.5-1.82.75-2.91.75-1.23,0-2.28-.32-3.13-.95-.85-.63-1.44-1.47-1.76-2.51v8.98h-1.54v-17.7h1.54v3.3c.32-1.04.91-1.88,1.76-2.51.85-.63,1.89-.95,3.13-.95,1.1,0,2.07.25,2.92.74Zm-5.63,1.22c-.68.4-1.21.96-1.6,1.68-.38.73-.57,1.57-.57,2.52s.19,1.79.57,2.52c.38.73.91,1.29,1.6,1.68.68.4,1.45.6,2.3.6,1.37,0,2.45-.43,3.26-1.29.81-.86,1.21-2.03,1.21-3.51s-.4-2.65-1.21-3.51c-.81-.86-1.89-1.29-3.26-1.29-.85,0-1.62.2-2.3.59Z"></path>
      <path d="m404.91,107.75v1.36h-1.43c-1.16,0-2.03-.28-2.6-.83-.57-.55-.86-1.48-.86-2.79v-7.07h-1.83v-1.34h1.83v-3.04h1.56v3.04h3.3v1.34h-3.3v7.09c0,.85.15,1.43.46,1.75.31.32.85.47,1.63.47h1.23Z"></path>
      <path d="m416.85,98.21c.87.89,1.31,2.19,1.31,3.91v7h-1.52v-6.89c0-1.31-.33-2.31-.99-3-.66-.7-1.56-1.05-2.71-1.05-1.2,0-2.16.39-2.87,1.16-.71.77-1.07,1.9-1.07,3.4v6.38h-1.56v-16.29h1.56v7.22c.31-1.03.87-1.81,1.67-2.36.81-.54,1.73-.81,2.77-.81,1.39,0,2.53.45,3.4,1.33Z"></path>
      <path d="m429.6,97.89c.86.63,1.45,1.47,1.77,2.51v-3.3h1.52v12.02h-1.52v-3.3c-.32,1.04-.91,1.88-1.77,2.51s-1.9.95-3.12.95c-1.09,0-2.06-.25-2.92-.75-.86-.5-1.53-1.21-2-2.15-.48-.93-.72-2.02-.72-3.27s.24-2.36.72-3.29c.48-.93,1.14-1.64,1.99-2.13.85-.49,1.83-.74,2.93-.74,1.22,0,2.26.32,3.12.95Zm-5.97,1.71c-.81.86-1.22,2.03-1.22,3.51s.41,2.65,1.22,3.51c.81.86,1.9,1.29,3.25,1.29.85,0,1.62-.2,2.3-.6.68-.4,1.22-.96,1.61-1.68.39-.73.58-1.57.58-2.52s-.19-1.79-.58-2.52c-.39-.73-.92-1.29-1.61-1.68-.68-.4-1.45-.59-2.3-.59-1.35,0-2.43.43-3.25,1.29Z"></path>
      <path d="m441.69,107.75v1.36h-1.43c-1.16,0-2.03-.28-2.6-.83-.57-.55-.86-1.48-.86-2.79v-7.07h-1.83v-1.34h1.83v-3.04h1.56v3.04h3.3v1.34h-3.3v7.09c0,.85.15,1.43.46,1.75.31.32.85.47,1.63.47h1.23Z"></path>
      <path d="m32.33,136.3c.73-.54,1.17-1.28,1.32-2.2h1.63c-.22,1.28-.83,2.31-1.83,3.1-1,.79-2.26,1.19-3.79,1.19-1.14,0-2.16-.25-3.05-.74s-1.58-1.2-2.08-2.13c-.5-.93-.75-2.03-.75-3.29s.25-2.36.75-3.29,1.19-1.64,2.08-2.13c.89-.49,1.9-.74,3.05-.74s2.19.25,3.05.74c.86.49,1.51,1.15,1.96,1.97.45.82.67,1.72.67,2.68,0,.41-.03.79-.09,1.12h-9.95c.01,1.01.22,1.86.63,2.54.4.68.93,1.18,1.57,1.51.65.32,1.34.48,2.09.48,1.08,0,2-.27,2.73-.81Zm-4.8-8.5c-.65.32-1.17.82-1.57,1.49-.4.67-.62,1.5-.65,2.5h8.5c.06-.98-.1-1.81-.48-2.49-.38-.67-.9-1.17-1.54-1.5s-1.35-.48-2.11-.48-1.49.16-2.13.48Z"></path>
      <path d="m47.52,127.33c.87.89,1.31,2.19,1.31,3.91v7h-1.52v-6.89c0-1.31-.33-2.31-.99-3-.66-.7-1.56-1.05-2.71-1.05-1.2,0-2.16.39-2.87,1.16-.71.77-1.07,1.9-1.07,3.4v6.38h-1.56v-12.02h1.56v2.95c.31-1.03.87-1.81,1.67-2.36.81-.54,1.73-.81,2.77-.81,1.39,0,2.53.45,3.4,1.33Z"></path>
      <path d="m60.27,127.01c.86.63,1.45,1.47,1.77,2.51v-3.3h1.52v12.02h-1.52v-3.3c-.32,1.04-.91,1.88-1.77,2.51s-1.9.95-3.12.95c-1.09,0-2.06-.25-2.92-.75-.86-.5-1.53-1.21-2-2.15-.48-.93-.72-2.02-.72-3.27s.24-2.36.72-3.29c.48-.93,1.14-1.64,1.99-2.13.85-.49,1.83-.74,2.93-.74,1.22,0,2.26.32,3.12.95Zm-5.97,1.71c-.81.86-1.22,2.03-1.22,3.51s.41,2.65,1.22,3.51c.81.86,1.9,1.29,3.25,1.29.85,0,1.62-.2,2.3-.6.68-.4,1.22-.96,1.61-1.68.39-.73.58-1.57.58-2.52s-.19-1.79-.58-2.52c-.39-.73-.92-1.29-1.61-1.68-.68-.4-1.45-.59-2.3-.59-1.35,0-2.43.43-3.25,1.29Z"></path>
      <path d="m76.25,126.8c.84.49,1.5,1.2,1.98,2.13.48.93.71,2.03.71,3.29s-.24,2.34-.71,3.27c-.48.93-1.14,1.65-1.99,2.15-.85.5-1.82.75-2.91.75-1.23,0-2.28-.32-3.13-.95-.85-.63-1.44-1.47-1.76-2.51v3.3h-1.54v-16.29h1.54v7.57c.32-1.04.91-1.88,1.76-2.51.85-.63,1.89-.95,3.13-.95,1.1,0,2.07.25,2.92.74Zm-5.63,1.22c-.68.4-1.21.96-1.6,1.68-.38.73-.57,1.57-.57,2.52s.19,1.79.57,2.52c.38.73.91,1.29,1.6,1.68.68.4,1.45.6,2.3.6,1.37,0,2.45-.43,3.26-1.29.81-.86,1.21-2.03,1.21-3.51s-.4-2.65-1.21-3.51c-.81-.86-1.89-1.29-3.26-1.29-.85,0-1.62.2-2.3.59Z"></path>
      <path d="m83.28,121.95v16.29h-1.56v-16.29h1.56Z"></path>
      <path d="m94.59,136.3c.73-.54,1.17-1.28,1.32-2.2h1.63c-.22,1.28-.83,2.31-1.83,3.1-1,.79-2.26,1.19-3.79,1.19-1.14,0-2.16-.25-3.05-.74s-1.58-1.2-2.08-2.13c-.5-.93-.75-2.03-.75-3.29s.25-2.36.75-3.29,1.19-1.64,2.08-2.13c.89-.49,1.9-.74,3.05-.74s2.19.25,3.05.74c.86.49,1.51,1.15,1.96,1.97.45.82.67,1.72.67,2.68,0,.41-.03.79-.09,1.12h-9.95c.01,1.01.22,1.86.63,2.54.4.68.93,1.18,1.57,1.51.65.32,1.34.48,2.09.48,1.08,0,2-.27,2.73-.81Zm-4.8-8.5c-.65.32-1.17.82-1.57,1.49-.4.67-.62,1.5-.65,2.5h8.5c.06-.98-.1-1.81-.48-2.49-.38-.67-.9-1.17-1.54-1.5s-1.35-.48-2.11-.48-1.49.16-2.13.48Z"></path>
      <path d="m107.16,127.1c.79.69,1.28,1.62,1.45,2.79h-1.47c-.09-.78-.41-1.42-.96-1.93-.55-.51-1.29-.76-2.21-.76-.79,0-1.41.2-1.86.58-.45.39-.67.91-.67,1.55,0,.48.14.87.43,1.17.29.29.64.52,1.07.67.42.15,1,.31,1.72.47.88.21,1.59.41,2.12.63.54.21.99.55,1.38,1,.38.46.57,1.07.57,1.85,0,.95-.36,1.74-1.07,2.34-.71.61-1.66.91-2.83.91-1.38,0-2.51-.34-3.39-1.02-.88-.68-1.4-1.62-1.56-2.81h1.5c.09.79.43,1.44,1.04,1.94.6.5,1.42.75,2.44.75.76,0,1.36-.2,1.78-.59s.64-.91.64-1.54c0-.51-.15-.92-.44-1.23s-.66-.54-1.09-.69c-.43-.15-1.02-.32-1.77-.5-.87-.21-1.56-.41-2.08-.62-.52-.21-.96-.53-1.33-.96-.37-.43-.55-1.02-.55-1.77,0-.98.36-1.78,1.08-2.38.72-.6,1.7-.9,2.93-.9,1.31,0,2.36.35,3.15,1.04Z"></path>
      <path d="m125.09,126.96c.93.78,1.51,1.81,1.75,3.08h-3.52c-.1-.5-.33-.89-.69-1.18-.36-.29-.81-.43-1.35-.43-.43,0-.75.09-.97.28-.22.18-.33.44-.33.78,0,.38.2.67.61.86.4.19,1.04.38,1.9.57.94.22,1.71.44,2.31.67.6.23,1.12.6,1.56,1.11s.66,1.2.66,2.07c0,.71-.19,1.33-.57,1.87s-.93.97-1.65,1.28c-.72.31-1.57.46-2.55.46-1.66,0-2.99-.37-3.98-1.1s-1.61-1.78-1.83-3.15h3.63c.06.53.28.93.67,1.21.39.28.89.42,1.51.42.43,0,.75-.1.97-.3.22-.2.33-.46.33-.78,0-.43-.2-.73-.61-.91-.4-.18-1.06-.38-1.97-.58-.91-.19-1.66-.4-2.25-.62-.59-.22-1.09-.58-1.52-1.07s-.64-1.16-.64-2.01c0-1.1.42-1.99,1.25-2.67.84-.68,2.02-1.02,3.54-1.02s2.8.39,3.73,1.17Z"></path>
      <path d="m140.66,132.78h-8.52c.04.92.28,1.59.71,1.99.42.4.97.61,1.63.61.56,0,1.02-.14,1.39-.42.37-.28.61-.64.73-1.08h3.98c-.16.87-.51,1.64-1.06,2.32-.54.68-1.23,1.22-2.07,1.61-.84.39-1.77.58-2.8.58-1.2,0-2.27-.25-3.2-.76s-1.66-1.24-2.19-2.19c-.53-.95-.79-2.07-.79-3.35s.26-2.41.78-3.36c.52-.95,1.25-1.67,2.19-2.18.94-.51,2.01-.76,3.21-.76s2.29.25,3.21.75c.92.5,1.64,1.2,2.15,2.1.51.9.76,1.94.76,3.11,0,.31-.04.65-.11,1.01Zm-4.35-3.4c-.45-.4-1-.6-1.66-.6s-1.26.21-1.72.62c-.46.41-.71,1.01-.77,1.8h4.8c.01-.81-.2-1.41-.65-1.82Z"></path>
      <path d="m149.82,126.44c.67.43,1.17,1,1.5,1.74v-2.22h3.74v12.28h-3.74v-2.22c-.32.73-.82,1.31-1.5,1.74-.68.43-1.48.64-2.42.64-1.01,0-1.92-.25-2.72-.76-.8-.51-1.43-1.24-1.89-2.19-.46-.95-.69-2.07-.69-3.35s.23-2.41.69-3.36c.46-.95,1.09-1.67,1.89-2.18.8-.51,1.71-.76,2.72-.76.94,0,1.75.21,2.42.64Zm-3.16,3.46c-.49.53-.74,1.26-.74,2.2s.25,1.67.74,2.2c.49.53,1.14.79,1.95.79s1.44-.27,1.95-.81c.51-.54.76-1.27.76-2.18s-.25-1.65-.76-2.19c-.51-.54-1.16-.8-1.95-.8s-1.46.26-1.95.79Z"></path>
      <path d="m177.14,127.22c.87.93,1.3,2.23,1.3,3.88v7.13h-3.74v-6.69c0-.78-.21-1.38-.63-1.82-.42-.43-.99-.65-1.71-.65s-1.34.23-1.77.69c-.43.46-.65,1.11-.65,1.95v6.52h-3.76v-6.69c0-.78-.21-1.38-.62-1.82-.41-.43-.98-.65-1.7-.65s-1.34.23-1.78.68c-.44.46-.66,1.11-.66,1.96v6.52h-3.76v-12.28h3.76v2.09c.32-.69.82-1.23,1.49-1.63.67-.4,1.45-.59,2.34-.59.94,0,1.77.22,2.49.65.72.43,1.26,1.05,1.63,1.86.43-.76,1.01-1.37,1.75-1.83.74-.45,1.56-.68,2.45-.68,1.51,0,2.7.47,3.57,1.4Z"></path>
      <path d="m184.71,121.95v16.29h-3.76v-16.29h3.76Z"></path>
      <path d="m198.86,132.78h-8.52c.04.92.28,1.59.71,1.99.42.4.97.61,1.63.61.56,0,1.02-.14,1.39-.42.37-.28.61-.64.73-1.08h3.98c-.16.87-.51,1.64-1.06,2.32-.54.68-1.23,1.22-2.07,1.61-.84.39-1.77.58-2.8.58-1.2,0-2.27-.25-3.2-.76s-1.66-1.24-2.19-2.19c-.53-.95-.79-2.07-.79-3.35s.26-2.41.78-3.36c.52-.95,1.25-1.67,2.19-2.18.94-.51,2.01-.76,3.21-.76s2.29.25,3.21.75c.92.5,1.64,1.2,2.15,2.1.51.9.76,1.94.76,3.11,0,.31-.04.65-.11,1.01Zm-4.35-3.4c-.45-.4-1-.6-1.66-.6s-1.26.21-1.72.62c-.46.41-.71,1.01-.77,1.8h4.8c.01-.81-.2-1.41-.65-1.82Z"></path>
      <path d="m209.13,126.96c.93.78,1.51,1.81,1.75,3.08h-3.52c-.1-.5-.33-.89-.69-1.18-.36-.29-.81-.43-1.35-.43-.43,0-.75.09-.97.28-.22.18-.33.44-.33.78,0,.38.2.67.61.86.4.19,1.04.38,1.9.57.94.22,1.71.44,2.31.67.6.23,1.12.6,1.56,1.11s.66,1.2.66,2.07c0,.71-.19,1.33-.57,1.87s-.93.97-1.65,1.28c-.72.31-1.57.46-2.55.46-1.66,0-2.99-.37-3.98-1.1s-1.61-1.78-1.83-3.15h3.63c.06.53.28.93.67,1.21.39.28.89.42,1.51.42.43,0,.75-.1.97-.3.22-.2.33-.46.33-.78,0-.43-.2-.73-.61-.91-.4-.18-1.06-.38-1.97-.58-.91-.19-1.66-.4-2.25-.62-.59-.22-1.09-.58-1.52-1.07s-.64-1.16-.64-2.01c0-1.1.42-1.99,1.25-2.67.84-.68,2.02-1.02,3.54-1.02s2.8.39,3.73,1.17Z"></path>
      <path d="m221.35,126.96c.93.78,1.51,1.81,1.75,3.08h-3.52c-.1-.5-.33-.89-.69-1.18-.36-.29-.81-.43-1.35-.43-.43,0-.75.09-.97.28-.22.18-.33.44-.33.78,0,.38.2.67.61.86.4.19,1.04.38,1.9.57.94.22,1.71.44,2.31.67.6.23,1.12.6,1.56,1.11s.66,1.2.66,2.07c0,.71-.19,1.33-.57,1.87s-.93.97-1.65,1.28c-.72.31-1.57.46-2.55.46-1.66,0-2.99-.37-3.98-1.1s-1.61-1.78-1.83-3.15h3.63c.06.53.28.93.67,1.21.39.28.89.42,1.51.42.43,0,.75-.1.97-.3.22-.2.33-.46.33-.78,0-.43-.2-.73-.61-.91-.4-.18-1.06-.38-1.97-.58-.91-.19-1.66-.4-2.25-.62-.59-.22-1.09-.58-1.52-1.07s-.64-1.16-.64-2.01c0-1.1.42-1.99,1.25-2.67.84-.68,2.02-1.02,3.54-1.02s2.8.39,3.73,1.17Z"></path>
      <path d="m249.25,127.22c.87.93,1.3,2.23,1.3,3.88v7.13h-3.74v-6.69c0-.78-.21-1.38-.63-1.82-.42-.43-.99-.65-1.71-.65s-1.34.23-1.77.69c-.43.46-.65,1.11-.65,1.95v6.52h-3.76v-6.69c0-.78-.21-1.38-.62-1.82-.41-.43-.98-.65-1.7-.65s-1.34.23-1.78.68c-.44.46-.66,1.11-.66,1.96v6.52h-3.76v-12.28h3.76v2.09c.32-.69.82-1.23,1.49-1.63.67-.4,1.45-.59,2.34-.59.94,0,1.77.22,2.49.65.72.43,1.26,1.05,1.63,1.86.43-.76,1.01-1.37,1.75-1.83.74-.45,1.56-.68,2.45-.68,1.51,0,2.7.47,3.57,1.4Z"></path>
      <path d="m262.07,126.56c.96.51,1.72,1.24,2.27,2.19.55.95.83,2.07.83,3.35s-.28,2.39-.83,3.35c-.55.96-1.31,1.68-2.27,2.19s-2.05.76-3.27.76-2.31-.25-3.28-.76c-.97-.51-1.73-1.24-2.28-2.19-.55-.95-.83-2.07-.83-3.35s.28-2.39.83-3.35c.55-.95,1.31-1.68,2.28-2.19.97-.51,2.06-.76,3.28-.76s2.31.25,3.27.76Zm-5.08,3.28c-.49.52-.74,1.27-.74,2.26s.25,1.73.74,2.25c.49.51,1.1.77,1.82.77s1.32-.26,1.8-.77.73-1.26.73-2.25-.24-1.73-.73-2.26c-.48-.52-1.09-.78-1.8-.78s-1.32.26-1.82.78Z"></path>
      <path d="m274.21,126.44c.67.43,1.17,1,1.47,1.74v-6.23h3.76v16.29h-3.76v-2.22c-.31.73-.8,1.31-1.47,1.74-.68.43-1.48.64-2.42.64-1.01,0-1.92-.25-2.72-.76-.8-.51-1.43-1.24-1.89-2.19-.46-.95-.69-2.07-.69-3.35s.23-2.41.69-3.36c.46-.95,1.09-1.67,1.89-2.18.8-.51,1.71-.76,2.72-.76.94,0,1.75.21,2.42.64Zm-3.16,3.46c-.49.53-.74,1.26-.74,2.2s.25,1.67.74,2.2c.49.53,1.14.79,1.95.79s1.44-.27,1.95-.81c.51-.54.76-1.27.76-2.18s-.25-1.65-.76-2.19c-.51-.54-1.16-.8-1.95-.8s-1.46.26-1.95.79Z"></path>
      <path d="m293.6,132.78h-8.52c.04.92.28,1.59.71,1.99.42.4.97.61,1.63.61.56,0,1.02-.14,1.39-.42.37-.28.61-.64.73-1.08h3.98c-.16.87-.51,1.64-1.06,2.32-.54.68-1.23,1.22-2.07,1.61-.84.39-1.77.58-2.8.58-1.2,0-2.27-.25-3.2-.76s-1.66-1.24-2.19-2.19c-.53-.95-.79-2.07-.79-3.35s.26-2.41.78-3.36c.52-.95,1.25-1.67,2.19-2.18.94-.51,2.01-.76,3.21-.76s2.29.25,3.21.75c.92.5,1.64,1.2,2.15,2.1.51.9.76,1.94.76,3.11,0,.31-.04.65-.11,1.01Zm-4.35-3.4c-.45-.4-1-.6-1.66-.6s-1.26.21-1.72.62c-.46.41-.71,1.01-.77,1.8h4.8c.01-.81-.2-1.41-.65-1.82Z"></path>
      <path d="m301.25,126.48c.74-.44,1.54-.66,2.41-.66v4.03h-1.08c-1,0-1.77.21-2.32.64-.55.43-.83,1.14-.83,2.16v5.59h-3.76v-12.28h3.76v2.31c.47-.75,1.08-1.34,1.82-1.78Z"></path>
      <path d="m316.39,127.23c.83.94,1.24,2.23,1.24,3.87v7.13h-3.76v-6.69c0-.82-.22-1.46-.65-1.93-.43-.46-1.01-.69-1.73-.69-.76,0-1.37.24-1.82.73-.45.48-.67,1.17-.67,2.07v6.52h-3.76v-12.28h3.76v2.25c.35-.73.88-1.31,1.57-1.74.7-.43,1.51-.64,2.45-.64,1.41,0,2.53.47,3.36,1.41Z"></path>
      <path d="m320.39,121.08c.41-.37.95-.56,1.63-.56s1.22.19,1.63.56.62.85.62,1.42-.21,1.02-.62,1.4c-.41.38-.95.56-1.63.56s-1.22-.19-1.63-.56c-.41-.37-.62-.84-.62-1.4s.21-1.05.62-1.42Zm3.5,4.88v12.28h-3.76v-12.28h3.76Z"></path>
      <path d="m329.81,135.09h5.68v3.15h-9.8v-2.97l5.28-6.19h-5.19v-3.12h9.49v2.97l-5.46,6.16Z"></path>
      <path d="m344.36,126.44c.67.43,1.17,1,1.5,1.74v-2.22h3.74v12.28h-3.74v-2.22c-.32.73-.82,1.31-1.5,1.74-.68.43-1.48.64-2.42.64-1.01,0-1.92-.25-2.72-.76-.8-.51-1.43-1.24-1.89-2.19-.46-.95-.69-2.07-.69-3.35s.23-2.41.69-3.36c.46-.95,1.09-1.67,1.89-2.18.8-.51,1.71-.76,2.72-.76.94,0,1.75.21,2.42.64Zm-3.16,3.46c-.49.53-.74,1.26-.74,2.2s.25,1.67.74,2.2c.49.53,1.14.79,1.95.79s1.44-.27,1.95-.81c.51-.54.76-1.27.76-2.18s-.25-1.65-.76-2.19c-.51-.54-1.16-.8-1.95-.8s-1.46.26-1.95.79Z"></path>
      <path d="m359.15,135v3.24h-1.7c-1.44,0-2.56-.36-3.36-1.07-.8-.71-1.2-1.89-1.2-3.53v-4.51h-1.65v-3.17h1.65v-3.02h3.76v3.02h2.47v3.17h-2.47v4.58c0,.48.1.82.3,1.01.2.19.53.29,1,.29h1.19Z"></path>
      <path d="m361.53,121.08c.41-.37.95-.56,1.63-.56s1.22.19,1.63.56.62.85.62,1.42-.21,1.02-.62,1.4c-.41.38-.95.56-1.63.56s-1.22-.19-1.63-.56c-.41-.37-.62-.84-.62-1.4s.21-1.05.62-1.42Zm3.5,4.88v12.28h-3.76v-12.28h3.76Z"></path>
      <path d="m376.64,126.56c.96.51,1.72,1.24,2.27,2.19.55.95.83,2.07.83,3.35s-.28,2.39-.83,3.35c-.55.96-1.31,1.68-2.27,2.19s-2.05.76-3.27.76-2.31-.25-3.28-.76c-.97-.51-1.73-1.24-2.28-2.19-.55-.95-.83-2.07-.83-3.35s.28-2.39.83-3.35c.55-.95,1.31-1.68,2.28-2.19.97-.51,2.06-.76,3.28-.76s2.31.25,3.27.76Zm-5.08,3.28c-.49.52-.74,1.27-.74,2.26s.25,1.73.74,2.25c.49.51,1.1.77,1.82.77s1.32-.26,1.8-.77.73-1.26.73-2.25-.24-1.73-.73-2.26c-.48-.52-1.09-.78-1.8-.78s-1.32.26-1.82.78Z"></path>
      <path d="m392.84,127.23c.83.94,1.24,2.23,1.24,3.87v7.13h-3.76v-6.69c0-.82-.22-1.46-.65-1.93-.43-.46-1.01-.69-1.73-.69-.76,0-1.37.24-1.82.73-.45.48-.67,1.17-.67,2.07v6.52h-3.76v-12.28h3.76v2.25c.35-.73.88-1.31,1.57-1.74.7-.43,1.51-.64,2.45-.64,1.41,0,2.53.47,3.36,1.41Z"></path>
      <path d="m411.17,126.8c.9.49,1.61,1.2,2.12,2.13s.77,2.03.77,3.29-.26,2.36-.77,3.28-1.22,1.64-2.12,2.13c-.9.5-1.93.75-3.07.75s-2.17-.25-3.08-.75c-.91-.5-1.63-1.21-2.15-2.15-.52-.93-.78-2.02-.78-3.27s.26-2.36.78-3.29,1.24-1.64,2.15-2.13c.91-.49,1.94-.74,3.08-.74s2.17.25,3.07.74Zm-5.27,1.13c-.67.35-1.22.89-1.63,1.62-.41.73-.62,1.62-.62,2.67s.21,1.94.62,2.66c.41.72.95,1.25,1.63,1.61.67.35,1.41.53,2.2.53s1.5-.18,2.17-.53c.67-.35,1.21-.89,1.62-1.61.41-.72.62-1.61.62-2.66s-.21-1.95-.62-2.67-.95-1.27-1.62-1.62c-.67-.35-1.39-.53-2.17-.53s-1.53.18-2.2.53Z"></path>
      <path d="m419.56,123.63c-.45.42-.67,1.12-.67,2.1v.48h3.02v1.37h-3.02v10.65h-1.54v-10.65h-1.78v-1.37h1.78v-.59c0-1.35.37-2.36,1.1-3.04.73-.67,1.89-.98,3.46-.92v1.37c-1.12-.01-1.9.19-2.34.61Z"></path>
      <path d="m24.69,155.34l4.18,10.02,3.85-10.02h1.72l-7.07,17.7h-1.76l2.42-5.81-5.06-11.89h1.72Z"></path>
      <path d="m44.9,155.92c.9.49,1.61,1.2,2.12,2.13s.77,2.03.77,3.29-.26,2.36-.77,3.28-1.22,1.64-2.12,2.13c-.9.5-1.93.75-3.07.75s-2.17-.25-3.08-.75c-.91-.5-1.63-1.21-2.15-2.15-.52-.93-.78-2.02-.78-3.27s.26-2.36.78-3.29,1.24-1.64,2.15-2.13c.91-.49,1.94-.74,3.08-.74s2.17.25,3.07.74Zm-5.27,1.13c-.67.35-1.22.89-1.63,1.62-.41.73-.62,1.62-.62,2.67s.21,1.94.62,2.66c.41.72.95,1.25,1.63,1.61.67.35,1.41.53,2.2.53s1.5-.18,2.17-.53c.67-.35,1.21-.89,1.62-1.61.41-.72.62-1.61.62-2.66s-.21-1.95-.62-2.67-.95-1.27-1.62-1.62c-.67-.35-1.39-.53-2.17-.53s-1.53.18-2.2.53Z"></path>
      <path d="m60.94,155.34v12.02h-1.54v-2.97c-.31,1.04-.87,1.83-1.67,2.38-.81.54-1.73.81-2.77.81-1.41,0-2.55-.44-3.42-1.33-.87-.89-1.31-2.19-1.31-3.91v-7h1.54v6.87c0,1.32.33,2.33.99,3.03.66.7,1.56,1.04,2.71,1.04,1.2,0,2.16-.38,2.87-1.16s1.07-1.9,1.07-3.4v-6.38h1.54Z"></path>
      <path d="m67.57,155.82c.78-.47,1.72-.71,2.84-.71v1.67h-.51c-1.16,0-2.12.31-2.88.94-.76.62-1.14,1.64-1.14,3.05v6.58h-1.56v-12.02h1.56v2.49c.35-.87.92-1.53,1.7-2Z"></path>
      <path d="m84.89,155.56c.67.43,1.17,1,1.5,1.74v-2.22h3.74v12.28h-3.74v-2.22c-.32.73-.82,1.31-1.5,1.74-.68.43-1.48.64-2.42.64-1.01,0-1.92-.25-2.72-.76-.8-.51-1.43-1.24-1.89-2.19-.46-.95-.69-2.07-.69-3.35s.23-2.41.69-3.36c.46-.95,1.09-1.67,1.89-2.18.8-.51,1.71-.76,2.72-.76.94,0,1.75.21,2.42.64Zm-3.16,3.46c-.49.53-.74,1.26-.74,2.2s.25,1.67.74,2.2c.49.53,1.14.79,1.95.79s1.44-.27,1.95-.81c.51-.54.76-1.27.76-2.18s-.25-1.65-.76-2.19c-.51-.54-1.16-.8-1.95-.8s-1.46.26-1.95.79Z"></path>
      <path d="m103.1,155.68c.8.51,1.43,1.23,1.89,2.18s.69,2.07.69,3.36-.23,2.39-.69,3.35c-.46.96-1.09,1.68-1.89,2.19s-1.71.76-2.72.76c-.94,0-1.75-.21-2.42-.64-.67-.42-1.17-1-1.47-1.74v8.08h-3.76v-18.14h3.76v2.22c.31-.73.8-1.31,1.47-1.74s1.48-.64,2.42-.64c1.01,0,1.92.25,2.72.76Zm-5.88,3.35c-.51.54-.76,1.27-.76,2.19s.25,1.64.76,2.18c.51.54,1.16.81,1.95.81s1.46-.26,1.95-.79c.49-.53.74-1.26.74-2.2s-.25-1.67-.74-2.2c-.49-.53-1.14-.79-1.95-.79s-1.44.27-1.95.8Z"></path>
      <path d="m118.03,155.68c.8.51,1.43,1.23,1.89,2.18s.69,2.07.69,3.36-.23,2.39-.69,3.35c-.46.96-1.09,1.68-1.89,2.19s-1.71.76-2.72.76c-.94,0-1.75-.21-2.42-.64-.67-.42-1.17-1-1.47-1.74v8.08h-3.76v-18.14h3.76v2.22c.31-.73.8-1.31,1.47-1.74s1.48-.64,2.42-.64c1.01,0,1.92.25,2.72.76Zm-5.88,3.35c-.51.54-.76,1.27-.76,2.19s.25,1.64.76,2.18c.51.54,1.16.81,1.95.81s1.46-.26,1.95-.79c.49-.53.74-1.26.74-2.2s-.25-1.67-.74-2.2c-.49-.53-1.14-.79-1.95-.79s-1.44.27-1.95.8Z"></path>
      <path d="m126.34,151.07v16.29h-3.76v-16.29h3.76Z"></path>
      <path d="m129.2,150.2c.41-.37.95-.56,1.63-.56s1.22.19,1.63.56.62.85.62,1.42-.21,1.02-.62,1.4c-.41.38-.95.56-1.63.56s-1.22-.19-1.63-.56c-.41-.37-.62-.84-.62-1.4s.21-1.05.62-1.42Zm3.5,4.88v12.28h-3.76v-12.28h3.76Z"></path>
      <path d="m144.83,156.23c1.07.87,1.75,2.07,2.02,3.6h-3.98c-.12-.53-.36-.94-.73-1.23-.37-.29-.83-.44-1.39-.44-.66,0-1.2.26-1.63.78-.43.52-.64,1.28-.64,2.28s.21,1.76.64,2.28c.42.52.97.78,1.63.78.56,0,1.02-.15,1.39-.44.37-.29.61-.7.73-1.23h3.98c-.28,1.53-.95,2.73-2.02,3.6-1.07.87-2.4,1.31-3.98,1.31-1.2,0-2.27-.25-3.2-.76s-1.66-1.24-2.19-2.19c-.53-.95-.79-2.07-.79-3.35s.26-2.41.78-3.36c.52-.95,1.25-1.67,2.19-2.18.94-.51,2.01-.76,3.21-.76,1.58,0,2.91.44,3.98,1.31Z"></path>
      <path d="m155.9,155.56c.67.43,1.17,1,1.5,1.74v-2.22h3.74v12.28h-3.74v-2.22c-.32.73-.82,1.31-1.5,1.74-.68.43-1.48.64-2.42.64-1.01,0-1.92-.25-2.72-.76-.8-.51-1.43-1.24-1.89-2.19-.46-.95-.69-2.07-.69-3.35s.23-2.41.69-3.36c.46-.95,1.09-1.67,1.89-2.18.8-.51,1.71-.76,2.72-.76.94,0,1.75.21,2.42.64Zm-3.16,3.46c-.49.53-.74,1.26-.74,2.2s.25,1.67.74,2.2c.49.53,1.14.79,1.95.79s1.44-.27,1.95-.81c.51-.54.76-1.27.76-2.18s-.25-1.65-.76-2.19c-.51-.54-1.16-.8-1.95-.8s-1.46.26-1.95.79Z"></path>
      <path d="m170.69,164.12v3.24h-1.7c-1.44,0-2.56-.36-3.36-1.07-.8-.71-1.2-1.89-1.2-3.53v-4.51h-1.65v-3.17h1.65v-3.02h3.76v3.02h2.47v3.17h-2.47v4.58c0,.48.1.82.3,1.01.2.19.53.29,1,.29h1.19Z"></path>
      <path d="m173.07,150.2c.41-.37.95-.56,1.63-.56s1.22.19,1.63.56.62.85.62,1.42-.21,1.02-.62,1.4c-.41.38-.95.56-1.63.56s-1.22-.19-1.63-.56c-.41-.37-.62-.84-.62-1.4s.21-1.05.62-1.42Zm3.5,4.88v12.28h-3.76v-12.28h3.76Z"></path>
      <path d="m188.18,155.68c.96.51,1.72,1.24,2.27,2.19.55.95.83,2.07.83,3.35s-.28,2.39-.83,3.35c-.55.96-1.31,1.68-2.27,2.19s-2.05.76-3.27.76-2.31-.25-3.28-.76c-.97-.51-1.73-1.24-2.28-2.19-.55-.95-.83-2.07-.83-3.35s.28-2.39.83-3.35c.55-.95,1.31-1.68,2.28-2.19.97-.51,2.06-.76,3.28-.76s2.31.25,3.27.76Zm-5.08,3.28c-.49.52-.74,1.27-.74,2.26s.25,1.73.74,2.25c.49.51,1.1.77,1.82.77s1.32-.26,1.8-.77.73-1.26.73-2.25-.24-1.73-.73-2.26c-.48-.52-1.09-.78-1.8-.78s-1.32.26-1.82.78Z"></path>
      <path d="m204.38,156.35c.83.94,1.24,2.23,1.24,3.87v7.13h-3.76v-6.69c0-.82-.22-1.46-.65-1.93-.43-.46-1.01-.69-1.73-.69-.76,0-1.37.24-1.82.73-.45.48-.67,1.17-.67,2.07v6.52h-3.76v-12.28h3.76v2.25c.35-.73.88-1.31,1.57-1.74.7-.43,1.51-.64,2.45-.64,1.41,0,2.53.47,3.36,1.41Z"></path>
      <path d="m216.31,156.09c.93.78,1.51,1.81,1.75,3.08h-3.52c-.1-.5-.33-.89-.69-1.18-.36-.29-.81-.43-1.35-.43-.43,0-.75.09-.97.28-.22.18-.33.44-.33.78,0,.38.2.67.61.86.4.19,1.04.38,1.9.57.94.22,1.71.44,2.31.67.6.23,1.12.6,1.56,1.11s.66,1.2.66,2.07c0,.71-.19,1.33-.57,1.87s-.93.97-1.65,1.28c-.72.31-1.57.46-2.55.46-1.66,0-2.99-.37-3.98-1.1s-1.61-1.78-1.83-3.15h3.63c.06.53.28.93.67,1.21.39.28.89.42,1.51.42.43,0,.75-.1.97-.3.22-.2.33-.46.33-.78,0-.43-.2-.73-.61-.91-.4-.18-1.06-.38-1.97-.58-.91-.19-1.66-.4-2.25-.62-.59-.22-1.09-.58-1.52-1.07s-.64-1.16-.64-2.01c0-1.1.42-1.99,1.25-2.67.84-.68,2.02-1.02,3.54-1.02s2.8.39,3.73,1.17Z"></path>
      <path d="m231.82,155.56c.67.43,1.17,1,1.5,1.74v-2.22h3.74v12.28h-3.74v-2.22c-.32.73-.82,1.31-1.5,1.74-.68.43-1.48.64-2.42.64-1.01,0-1.92-.25-2.72-.76-.8-.51-1.43-1.24-1.89-2.19-.46-.95-.69-2.07-.69-3.35s.23-2.41.69-3.36c.46-.95,1.09-1.67,1.89-2.18.8-.51,1.71-.76,2.72-.76.94,0,1.75.21,2.42.64Zm-3.16,3.46c-.49.53-.74,1.26-.74,2.2s.25,1.67.74,2.2c.49.53,1.14.79,1.95.79s1.44-.27,1.95-.81c.51-.54.76-1.27.76-2.18s-.25-1.65-.76-2.19c-.51-.54-1.16-.8-1.95-.8s-1.46.26-1.95.79Z"></path>
      <path d="m250.8,156.35c.83.94,1.24,2.23,1.24,3.87v7.13h-3.76v-6.69c0-.82-.22-1.46-.65-1.93-.43-.46-1.01-.69-1.73-.69-.76,0-1.37.24-1.82.73-.45.48-.67,1.17-.67,2.07v6.52h-3.76v-12.28h3.76v2.25c.35-.73.88-1.31,1.57-1.74.7-.43,1.51-.64,2.45-.64,1.41,0,2.53.47,3.36,1.41Z"></path>
      <path d="m261.62,155.56c.67.43,1.17,1,1.47,1.74v-6.23h3.76v16.29h-3.76v-2.22c-.31.73-.8,1.31-1.47,1.74-.68.43-1.48.64-2.42.64-1.01,0-1.92-.25-2.72-.76-.8-.51-1.43-1.24-1.89-2.19-.46-.95-.69-2.07-.69-3.35s.23-2.41.69-3.36c.46-.95,1.09-1.67,1.89-2.18.8-.51,1.71-.76,2.72-.76.94,0,1.75.21,2.42.64Zm-3.16,3.46c-.49.53-.74,1.26-.74,2.2s.25,1.67.74,2.2c.49.53,1.14.79,1.95.79s1.44-.27,1.95-.81c.51-.54.76-1.27.76-2.18s-.25-1.65-.76-2.19c-.51-.54-1.16-.8-1.95-.8s-1.46.26-1.95.79Z"></path>
      <path d="m282.06,156.09c.93.78,1.51,1.81,1.75,3.08h-3.52c-.1-.5-.33-.89-.69-1.18-.36-.29-.81-.43-1.35-.43-.43,0-.75.09-.97.28-.22.18-.33.44-.33.78,0,.38.2.67.61.86.4.19,1.04.38,1.9.57.94.22,1.71.44,2.31.67.6.23,1.12.6,1.56,1.11s.66,1.2.66,2.07c0,.71-.19,1.33-.57,1.87s-.93.97-1.65,1.28c-.72.31-1.57.46-2.55.46-1.66,0-2.99-.37-3.98-1.1s-1.61-1.78-1.83-3.15h3.63c.06.53.28.93.67,1.21.39.28.89.42,1.51.42.43,0,.75-.1.97-.3.22-.2.33-.46.33-.78,0-.43-.2-.73-.61-.91-.4-.18-1.06-.38-1.97-.58-.91-.19-1.66-.4-2.25-.62-.59-.22-1.09-.58-1.52-1.07s-.64-1.16-.64-2.01c0-1.1.42-1.99,1.25-2.67.84-.68,2.02-1.02,3.54-1.02s2.8.39,3.73,1.17Z"></path>
      <path d="m288.92,155.07l2.95,7.53,2.75-7.53h4.16l-7.66,18.14h-4.14l2.88-6.32-5.15-11.82h4.21Z"></path>
      <path d="m308.23,156.09c.93.78,1.51,1.81,1.75,3.08h-3.52c-.1-.5-.33-.89-.69-1.18-.36-.29-.81-.43-1.35-.43-.43,0-.75.09-.97.28-.22.18-.33.44-.33.78,0,.38.2.67.61.86.4.19,1.04.38,1.9.57.94.22,1.71.44,2.31.67.6.23,1.12.6,1.56,1.11s.66,1.2.66,2.07c0,.71-.19,1.33-.57,1.87s-.93.97-1.65,1.28c-.72.31-1.57.46-2.55.46-1.66,0-2.99-.37-3.98-1.1s-1.61-1.78-1.83-3.15h3.63c.06.53.28.93.67,1.21.39.28.89.42,1.51.42.43,0,.75-.1.97-.3.22-.2.33-.46.33-.78,0-.43-.2-.73-.61-.91-.4-.18-1.06-.38-1.97-.58-.91-.19-1.66-.4-2.25-.62-.59-.22-1.09-.58-1.52-1.07s-.64-1.16-.64-2.01c0-1.1.42-1.99,1.25-2.67.84-.68,2.02-1.02,3.54-1.02s2.8.39,3.73,1.17Z"></path>
      <path d="m319.2,164.12v3.24h-1.7c-1.44,0-2.56-.36-3.36-1.07-.8-.71-1.2-1.89-1.2-3.53v-4.51h-1.65v-3.17h1.65v-3.02h3.76v3.02h2.47v3.17h-2.47v4.58c0,.48.1.82.3,1.01.2.19.53.29,1,.29h1.19Z"></path>
      <path d="m332.87,161.9h-8.52c.04.92.28,1.59.71,1.99.42.4.97.61,1.63.61.56,0,1.02-.14,1.39-.42.37-.28.61-.64.73-1.08h3.98c-.16.87-.51,1.64-1.06,2.32-.54.68-1.23,1.22-2.07,1.61-.84.39-1.77.58-2.8.58-1.2,0-2.27-.25-3.2-.76s-1.66-1.24-2.19-2.19c-.53-.95-.79-2.07-.79-3.35s.26-2.41.78-3.36c.52-.95,1.25-1.67,2.19-2.18.94-.51,2.01-.76,3.21-.76s2.29.25,3.21.75c.92.5,1.64,1.2,2.15,2.1.51.9.76,1.94.76,3.11,0,.31-.04.65-.11,1.01Zm-4.35-3.4c-.45-.4-1-.6-1.66-.6s-1.26.21-1.72.62c-.46.41-.71,1.01-.77,1.8h4.8c.01-.81-.2-1.41-.65-1.82Z"></path>
      <path d="m354.42,156.34c.87.93,1.3,2.23,1.3,3.88v7.13h-3.74v-6.69c0-.78-.21-1.38-.63-1.82-.42-.43-.99-.65-1.71-.65s-1.34.23-1.77.69c-.43.46-.65,1.11-.65,1.95v6.52h-3.76v-6.69c0-.78-.21-1.38-.62-1.82-.41-.43-.98-.65-1.7-.65s-1.34.23-1.78.68c-.44.46-.66,1.11-.66,1.96v6.52h-3.76v-12.28h3.76v2.09c.32-.69.82-1.23,1.49-1.63.67-.4,1.45-.59,2.34-.59.94,0,1.77.22,2.49.65.72.43,1.26,1.05,1.63,1.86.43-.76,1.01-1.37,1.75-1.83.74-.45,1.56-.68,2.45-.68,1.51,0,2.7.47,3.57,1.4Z"></path>
      <path d="m366.43,156.09c.93.78,1.51,1.81,1.75,3.08h-3.52c-.1-.5-.33-.89-.69-1.18-.36-.29-.81-.43-1.35-.43-.43,0-.75.09-.97.28-.22.18-.33.44-.33.78,0,.38.2.67.61.86.4.19,1.04.38,1.9.57.94.22,1.71.44,2.31.67.6.23,1.12.6,1.56,1.11s.66,1.2.66,2.07c0,.71-.19,1.33-.57,1.87s-.93.97-1.65,1.28c-.72.31-1.57.46-2.55.46-1.66,0-2.99-.37-3.98-1.1s-1.61-1.78-1.83-3.15h3.63c.06.53.28.93.67,1.21.39.28.89.42,1.51.42.43,0,.75-.1.97-.3.22-.2.33-.46.33-.78,0-.43-.2-.73-.61-.91-.4-.18-1.06-.38-1.97-.58-.91-.19-1.66-.4-2.25-.62-.59-.22-1.09-.58-1.52-1.07s-.64-1.16-.64-2.01c0-1.1.42-1.99,1.25-2.67.84-.68,2.02-1.02,3.54-1.02s2.8.39,3.73,1.17Z"></path>
    </g>
    <g>
      <path class="cls-1" d="m41.3,41.47h-10.94l-2.09,5.05h-5.59l10.5-23.56h5.39l10.54,23.56h-5.72l-2.09-5.05Zm-1.72-4.14l-3.74-9.02-3.74,9.02h7.47Z"></path>
      <path class="cls-1" d="m72,31.51c0,5.25-3.94,8.52-10.23,8.52h-4.75v6.5h-5.45v-23.56h10.2c6.29,0,10.23,3.27,10.23,8.55Zm-5.52,0c0-2.59-1.68-4.11-5.02-4.11h-4.44v8.18h4.44c3.33,0,5.02-1.51,5.02-4.07Z"></path>
      <path class="cls-1" d="m96.31,31.51c0,5.25-3.94,8.52-10.23,8.52h-4.75v6.5h-5.45v-23.56h10.2c6.29,0,10.23,3.27,10.23,8.55Zm-5.52,0c0-2.59-1.68-4.11-5.02-4.11h-4.44v8.18h4.44c3.33,0,5.02-1.51,5.02-4.07Z"></path>
      <path class="cls-1" d="m131.49,46.52l-.03-14.14-6.93,11.65h-2.46l-6.9-11.34v13.83h-5.12v-23.56h4.51l8.82,14.64,8.68-14.64h4.48l.07,23.56h-5.12Z"></path>
      <path class="cls-1" d="m140.71,34.74c0-7,5.45-12.19,12.89-12.19s12.89,5.15,12.89,12.19-5.49,12.19-12.89,12.19-12.89-5.18-12.89-12.19Zm20.26,0c0-4.48-3.16-7.54-7.37-7.54s-7.37,3.06-7.37,7.54,3.16,7.54,7.37,7.54,7.37-3.06,7.37-7.54Z"></path>
      <path class="cls-1" d="m170.61,22.96h10.7c7.71,0,12.99,4.65,12.99,11.78s-5.29,11.78-12.99,11.78h-10.7v-23.56Zm10.43,19.09c4.68,0,7.74-2.79,7.74-7.3s-3.06-7.3-7.74-7.3h-4.98v14.61h4.98Z"></path>
      <path class="cls-1" d="m216.66,42.15v4.38h-18.24v-23.56h17.81v4.38h-12.39v5.12h10.94v4.24h-10.94v5.45h12.83Z"></path>
      <path class="cls-1" d="m236.02,46.52l-4.54-6.56h-5.02v6.56h-5.45v-23.56h10.2c6.29,0,10.23,3.27,10.23,8.55,0,3.53-1.78,6.12-4.85,7.44l5.29,7.57h-5.86Zm-5.12-19.12h-4.44v8.21h4.44c3.33,0,5.02-1.55,5.02-4.11s-1.68-4.11-5.02-4.11Z"></path>
      <path class="cls-1" d="m267.36,22.96v23.56h-4.48l-11.75-14.3v14.3h-5.39v-23.56h4.51l11.71,14.31v-14.31h5.39Z"></path>
      <path class="cls-1" d="m272.95,22.96h5.45v23.56h-5.45v-23.56Z"></path>
      <path class="cls-1" d="m303.07,42.08v4.44h-20.6v-3.53l12.93-15.59h-12.66v-4.44h19.83v3.54l-12.89,15.58h13.4Z"></path>
      <path class="cls-1" d="m322.1,41.47h-10.94l-2.09,5.05h-5.59l10.5-23.56h5.39l10.54,23.56h-5.72l-2.09-5.05Zm-1.72-4.14l-3.74-9.02-3.74,9.02h7.47Z"></path>
      <path class="cls-1" d="m336.07,27.4h-7.54v-4.44h20.53v4.44h-7.54v19.12h-5.45v-19.12Z"></path>
      <path class="cls-1" d="m351.99,22.96h5.45v23.56h-5.45v-23.56Z"></path>
      <path class="cls-1" d="m361.55,34.74c0-7,5.45-12.19,12.89-12.19s12.89,5.15,12.89,12.19-5.49,12.19-12.89,12.19-12.89-5.18-12.89-12.19Zm20.26,0c0-4.48-3.16-7.54-7.37-7.54s-7.37,3.06-7.37,7.54,3.16,7.54,7.37,7.54,7.37-3.06,7.37-7.54Z"></path>
      <path class="cls-1" d="m413.06,22.96v23.56h-4.48l-11.75-14.3v14.3h-5.39v-23.56h4.51l11.71,14.31v-14.31h5.39Z"></path>
    </g>
    <g>
      <g>
        <g>
          <path d="m31.09,224.75v-7.31h1.36v6.17h3.82v1.15h-5.18Z"></path>
          <path d="m38.7,223.61h4.13v1.14h-5.49v-7.31h5.34v1.14h-3.98v5.04Zm-.1-3.13h3.64v1.12h-3.64v-1.12Z"></path>
          <path d="m43.31,224.75l3.29-7.31h1.34l3.3,7.31h-1.42l-2.83-6.59h.54l-2.82,6.59h-1.4Zm1.51-1.69l.37-1.07h3.95l.37,1.07h-4.68Z"></path>
          <path d="m52.17,224.75v-7.31h3.01c.65,0,1.2.1,1.67.31s.82.51,1.07.9c.25.39.38.85.38,1.39s-.12,1-.38,1.38-.61.68-1.07.89-1.02.31-1.67.31h-2.26l.61-.62v2.75h-1.36Zm1.36-2.6l-.61-.65h2.19c.6,0,1.05-.13,1.35-.39s.45-.62.45-1.08-.15-.83-.45-1.08c-.3-.25-.75-.38-1.35-.38h-2.19l.61-.67v4.23Zm3.43,2.6l-1.85-2.65h1.45l1.86,2.65h-1.46Z"></path>
          <path d="m59.81,224.75v-7.31h1.12l4.59,5.63h-.55v-5.63h1.35v7.31h-1.12l-4.59-5.63h.55v5.63h-1.35Z"></path>
          <path class="cls-1" d="m71.16,224.75v-7.31h1.12l3.2,5.34h-.58l3.14-5.34h1.12v7.31s-1.27,0-1.27,0v-5.3s.26,0,.26,0l-2.67,4.46h-.61l-2.72-4.46h.31v5.3h-1.3Z"></path>
          <path class="cls-1" d="m84.56,224.85c-.57,0-1.1-.09-1.58-.28-.48-.19-.9-.45-1.25-.79-.36-.34-.63-.73-.83-1.19-.19-.46-.29-.96-.29-1.5s.1-1.04.29-1.5c.2-.46.47-.85.83-1.19.35-.34.77-.6,1.25-.79.48-.19,1-.28,1.57-.28s1.09.09,1.57.28.89.45,1.25.79c.35.34.63.73.83,1.19.2.46.29.96.29,1.5s-.1,1.04-.29,1.5c-.2.46-.47.86-.83,1.19-.36.33-.77.6-1.25.78s-1,.28-1.56.28Zm0-1.19c.37,0,.71-.06,1.02-.19.31-.12.58-.3.82-.54.23-.23.41-.51.54-.82s.19-.65.19-1.03-.06-.72-.19-1.03-.31-.58-.54-.82c-.23-.23-.5-.41-.82-.54-.31-.13-.65-.19-1.02-.19s-.71.06-1.02.19c-.31.12-.58.3-.81.54-.23.23-.42.51-.54.82s-.19.65-.19,1.03.06.71.19,1.02c.13.31.31.59.54.82.23.23.5.41.82.54.31.13.65.19,1.02.19Z"></path>
          <path class="cls-1" d="m89.94,224.75v-7.31h3.01c.65,0,1.2.1,1.67.31s.82.51,1.07.9c.25.39.38.85.38,1.39s-.12,1-.38,1.38-.61.68-1.07.89-1.02.31-1.67.31h-2.26l.61-.62v2.75h-1.36Zm1.36-2.6l-.61-.65h2.19c.6,0,1.05-.13,1.35-.39s.45-.62.45-1.08-.15-.83-.45-1.08c-.3-.25-.75-.38-1.35-.38h-2.19l.61-.67v4.23Zm3.43,2.6l-1.85-2.65h1.45l1.86,2.65h-1.46Z"></path>
          <path class="cls-1" d="m98.93,223.61h4.13v1.14h-5.49v-7.31h5.34v1.14h-3.98v5.04Zm-.1-3.13h3.64v1.12h-3.64v-1.12Z"></path>
        </g>
        <polygon class="cls-1" points="116.25 223.44 106.44 223.44 111.15 218.73 116.25 223.44"></polygon>
      </g>
      <g>
        <rect class="cls-3" x="4.93" y="203.34" width="137.55" height="36.24"></rect>
        <rect class="cls-3" x="7.46" y="205.87" width="132.48" height="31.56"></rect>
      </g>
    </g>
  </g>
</svg>
