<?xml version="1.0" encoding="UTF-8"?>
<svg xmlns="http://www.w3.org/2000/svg" id="Layer_5" data-name="Layer 5" viewBox="0 0 432.57 260.14">
  <defs>
    <style>
      .cls-1 {
        fill: #c64027;
      }

      .cls-2 {
        stroke-width: 4px;
      }

      .cls-2, .cls-3 {
        fill: none;
        stroke: #000;
        stroke-miterlimit: 10;
      }
    </style>
  </defs>
  <g id="Text">
    <g>
      <path d="m24.48,66.37c0-1.5.68-2.25,2.03-2.25v.75c-.38,0-.65.1-.81.29-.16.19-.24.48-.24.88v.53h1.04v1.7h-1.78c-.15-.72-.22-1.35-.22-1.89Zm2.66,0c0-1.5.67-2.25,2-2.25v.75c-.38,0-.65.1-.8.29-.15.19-.23.48-.23.88v.53h1.01v1.7h-1.78c-.13-.65-.2-1.28-.2-1.89Z"></path>
      <path d="m40.71,65.64v1.26h-4.43v14.27h-1.54v-14.27h-4.4v-1.26h10.37Z"></path>
      <path d="m46.03,69.63c.78-.47,1.72-.7,2.84-.7v1.67h-.51c-1.16,0-2.12.31-2.88.94-.76.62-1.14,1.64-1.14,3.05v6.58h-1.56v-12.02h1.56v2.49c.35-.87.92-1.53,1.7-2Z"></path>
      <path d="m59.1,69.93c.86.63,1.45,1.47,1.77,2.51v-3.3h1.52v12.02h-1.52v-3.3c-.32,1.04-.91,1.88-1.77,2.51-.86.63-1.9.95-3.12.95-1.09,0-2.06-.25-2.92-.75-.86-.5-1.53-1.21-2-2.15-.48-.93-.72-2.02-.72-3.27s.24-2.36.72-3.29c.48-.93,1.14-1.64,1.99-2.14.85-.49,1.83-.74,2.93-.74,1.22,0,2.26.32,3.12.95Zm-5.97,1.71c-.81.86-1.22,2.03-1.22,3.51s.41,2.65,1.22,3.51c.81.86,1.9,1.29,3.25,1.29.85,0,1.62-.2,2.3-.59.68-.4,1.22-.96,1.61-1.68.39-.73.58-1.57.58-2.52s-.19-1.79-.58-2.52c-.39-.73-.93-1.29-1.61-1.68-.68-.4-1.45-.59-2.3-.59-1.35,0-2.43.43-3.25,1.29Z"></path>
      <path d="m75.15,70.26c.87.89,1.31,2.19,1.31,3.91v7h-1.52v-6.89c0-1.31-.33-2.31-.99-3.01-.66-.7-1.56-1.04-2.71-1.04-1.2,0-2.16.38-2.87,1.16-.71.77-1.07,1.91-1.07,3.4v6.38h-1.56v-12.02h1.56v2.95c.31-1.03.87-1.81,1.67-2.36.81-.54,1.73-.81,2.78-.81,1.39,0,2.53.44,3.4,1.33Z"></path>
      <path d="m86.5,70.02c.79.69,1.28,1.62,1.45,2.8h-1.48c-.09-.78-.41-1.42-.96-1.93-.55-.51-1.29-.76-2.21-.76-.79,0-1.41.19-1.86.58-.45.39-.67.91-.67,1.55,0,.48.14.87.43,1.17.29.29.64.52,1.07.67.43.15,1,.31,1.72.47.88.21,1.59.41,2.12.63.54.21.99.55,1.38,1,.38.46.57,1.07.57,1.85,0,.95-.36,1.74-1.07,2.34-.71.61-1.65.91-2.83.91-1.38,0-2.51-.34-3.39-1.02-.88-.68-1.4-1.62-1.56-2.81h1.5c.09.79.43,1.44,1.04,1.94s1.42.75,2.44.75c.76,0,1.36-.2,1.78-.59.43-.4.64-.91.64-1.54,0-.51-.15-.92-.44-1.23-.29-.31-.66-.54-1.09-.69-.43-.15-1.03-.32-1.77-.5-.87-.21-1.56-.41-2.08-.62s-.96-.53-1.33-.96-.55-1.02-.55-1.77c0-.98.36-1.78,1.08-2.38.72-.6,1.7-.9,2.93-.9,1.31,0,2.36.34,3.15,1.04Z"></path>
      <path d="m93.6,66.56c-.45.42-.67,1.12-.67,2.1v.48h3.02v1.37h-3.02v10.66h-1.54v-10.66h-1.78v-1.37h1.78v-.59c0-1.35.37-2.36,1.1-3.04.73-.68,1.89-.98,3.46-.93v1.37c-1.12-.01-1.9.19-2.34.61Z"></path>
      <path d="m106.76,69.73c.9.49,1.61,1.2,2.12,2.14.51.93.77,2.03.77,3.29s-.26,2.36-.77,3.28c-.51.93-1.22,1.64-2.12,2.14-.9.5-1.93.75-3.07.75s-2.17-.25-3.08-.75c-.91-.5-1.63-1.21-2.15-2.15-.52-.93-.78-2.02-.78-3.27s.26-2.36.78-3.29c.52-.93,1.23-1.64,2.15-2.14.91-.49,1.94-.74,3.08-.74s2.17.25,3.07.74Zm-5.27,1.13c-.67.35-1.22.89-1.63,1.62-.41.73-.62,1.62-.62,2.68s.21,1.94.62,2.66c.41.72.96,1.25,1.63,1.61.68.35,1.41.53,2.2.53s1.5-.18,2.17-.53,1.21-.89,1.62-1.61c.41-.72.62-1.61.62-2.66s-.21-1.95-.62-2.68c-.41-.73-.95-1.27-1.62-1.62-.67-.35-1.39-.53-2.17-.53s-1.53.18-2.2.53Z"></path>
      <path d="m115.69,69.63c.78-.47,1.72-.7,2.84-.7v1.67h-.51c-1.16,0-2.12.31-2.88.94s-1.14,1.64-1.14,3.05v6.58h-1.56v-12.02h1.56v2.49c.35-.87.92-1.53,1.7-2Z"></path>
      <path d="m138.53,70.26c.86.89,1.29,2.19,1.29,3.91v7h-1.54v-6.89c0-1.29-.31-2.28-.94-2.97-.62-.69-1.48-1.03-2.57-1.03-1.16,0-2.08.38-2.77,1.14s-1.04,1.89-1.04,3.37v6.38h-1.52v-6.89c0-1.29-.31-2.28-.94-2.97-.62-.69-1.48-1.03-2.56-1.03-1.16,0-2.08.38-2.77,1.14s-1.04,1.89-1.04,3.37v6.38h-1.56v-12.02h1.56v2.86c.29-1.01.83-1.78,1.6-2.3.77-.52,1.66-.78,2.68-.78s1.97.28,2.73.84c.76.56,1.29,1.38,1.58,2.47.32-1.07.89-1.89,1.7-2.45.81-.57,1.72-.85,2.75-.85,1.38,0,2.5.44,3.36,1.33Z"></path>
      <path d="m143.02,64.81c.21-.19.49-.29.82-.29s.61.1.81.29c.21.19.31.45.31.77s-.1.56-.31.75c-.21.19-.48.29-.81.29s-.61-.09-.82-.29c-.21-.19-.32-.44-.32-.75,0-.32.11-.58.32-.77Zm1.6,4.34v12.02h-1.56v-12.02h1.56Z"></path>
      <path d="m157.37,70.26c.87.89,1.31,2.19,1.31,3.91v7h-1.52v-6.89c0-1.31-.33-2.31-.99-3.01-.66-.7-1.56-1.04-2.71-1.04-1.2,0-2.16.38-2.87,1.16-.71.77-1.07,1.91-1.07,3.4v6.38h-1.56v-12.02h1.56v2.95c.31-1.03.87-1.81,1.67-2.36s1.73-.81,2.77-.81c1.39,0,2.53.44,3.4,1.33Z"></path>
      <path d="m170.12,69.93c.86.63,1.45,1.47,1.77,2.51v-3.3h1.52v12.31c0,1.12-.23,2.09-.71,2.94-.47.84-1.12,1.5-1.96,1.96-.84.46-1.79.69-2.86.69-1.57,0-2.86-.38-3.86-1.13-1.01-.76-1.66-1.78-1.97-3.07h1.54c.26.88.75,1.58,1.46,2.09.71.51,1.63.77,2.74.77.76,0,1.46-.17,2.08-.5.62-.33,1.12-.82,1.47-1.46.36-.65.54-1.41.54-2.29v-3.59c-.32,1.04-.91,1.88-1.77,2.51-.86.63-1.9.95-3.12.95-1.09,0-2.06-.25-2.92-.75-.86-.5-1.53-1.21-2-2.15-.48-.93-.72-2.02-.72-3.27s.24-2.36.72-3.29c.48-.93,1.14-1.64,1.99-2.14.85-.49,1.83-.74,2.93-.74,1.22,0,2.26.32,3.12.95Zm-5.97,1.71c-.81.86-1.22,2.03-1.22,3.51s.41,2.65,1.22,3.51c.81.86,1.9,1.29,3.25,1.29.85,0,1.62-.2,2.3-.59.68-.4,1.22-.96,1.61-1.68.39-.73.58-1.57.58-2.52s-.19-1.79-.58-2.52c-.39-.73-.93-1.29-1.61-1.68-.68-.4-1.45-.59-2.3-.59-1.35,0-2.43.43-3.25,1.29Z"></path>
      <path d="m194.39,77.54c-.63,1.17-1.56,2.06-2.79,2.69-1.22.62-2.71.94-4.44.94h-4.69v-15.52h4.69c2.61,0,4.63.69,6.04,2.06,1.42,1.37,2.12,3.27,2.12,5.69,0,1.6-.32,2.98-.95,4.15Zm-2.33.55c1.14-1.12,1.72-2.69,1.72-4.7s-.57-3.58-1.72-4.7c-1.14-1.12-2.81-1.68-5-1.68h-3.02v12.77h3.02c2.19,0,3.85-.56,5-1.68Z"></path>
      <path d="m206.33,69.93c.86.63,1.45,1.47,1.77,2.51v-3.3h1.52v12.02h-1.52v-3.3c-.32,1.04-.91,1.88-1.77,2.51-.86.63-1.9.95-3.12.95-1.09,0-2.06-.25-2.92-.75-.86-.5-1.53-1.21-2-2.15-.48-.93-.72-2.02-.72-3.27s.24-2.36.72-3.29c.48-.93,1.14-1.64,1.99-2.14.85-.49,1.83-.74,2.93-.74,1.22,0,2.26.32,3.12.95Zm-5.97,1.71c-.81.86-1.22,2.03-1.22,3.51s.41,2.65,1.22,3.51c.81.86,1.9,1.29,3.25,1.29.85,0,1.62-.2,2.3-.59.68-.4,1.22-.96,1.61-1.68.39-.73.58-1.57.58-2.52s-.19-1.79-.58-2.52c-.39-.73-.93-1.29-1.61-1.68-.68-.4-1.45-.59-2.3-.59-1.35,0-2.43.43-3.25,1.29Z"></path>
      <path d="m218.43,79.8v1.37h-1.43c-1.16,0-2.03-.28-2.6-.83-.57-.55-.86-1.48-.86-2.78v-7.07h-1.83v-1.34h1.83v-3.04h1.56v3.04h3.3v1.34h-3.3v7.09c0,.85.15,1.43.46,1.75.31.32.85.47,1.63.47h1.23Z"></path>
      <path d="m229.14,69.93c.86.63,1.45,1.47,1.77,2.51v-3.3h1.52v12.02h-1.52v-3.3c-.32,1.04-.91,1.88-1.77,2.51-.86.63-1.9.95-3.12.95-1.09,0-2.06-.25-2.92-.75-.86-.5-1.53-1.21-2-2.15-.48-.93-.71-2.02-.71-3.27s.24-2.36.71-3.29c.48-.93,1.14-1.64,1.99-2.14.85-.49,1.83-.74,2.93-.74,1.22,0,2.26.32,3.12.95Zm-5.96,1.71c-.81.86-1.22,2.03-1.22,3.51s.41,2.65,1.22,3.51c.81.86,1.9,1.29,3.25,1.29.85,0,1.62-.2,2.3-.59.68-.4,1.22-.96,1.61-1.68.39-.73.58-1.57.58-2.52s-.2-1.79-.58-2.52-.92-1.29-1.61-1.68c-.68-.4-1.45-.59-2.3-.59-1.35,0-2.43.43-3.25,1.29Z"></path>
      <path d="m241.47,64.81c.21-.19.49-.29.82-.29s.61.1.81.29c.21.19.31.45.31.77s-.1.56-.31.75c-.21.19-.48.29-.81.29s-.61-.09-.82-.29c-.21-.19-.32-.44-.32-.75,0-.32.11-.58.32-.77Zm1.6,4.34v12.02h-1.56v-12.02h1.56Z"></path>
      <path d="m255.82,70.26c.87.89,1.31,2.19,1.31,3.91v7h-1.52v-6.89c0-1.31-.33-2.31-.99-3.01-.66-.7-1.56-1.04-2.71-1.04-1.2,0-2.16.38-2.87,1.16-.71.77-1.07,1.91-1.07,3.4v6.38h-1.56v-12.02h1.56v2.95c.31-1.03.87-1.81,1.67-2.36s1.73-.81,2.77-.81c1.39,0,2.53.44,3.4,1.33Z"></path>
      <path d="m265.85,79.8v1.37h-1.43c-1.16,0-2.03-.28-2.6-.83-.57-.55-.86-1.48-.86-2.78v-7.07h-1.83v-1.34h1.83v-3.04h1.56v3.04h3.3v1.34h-3.3v7.09c0,.85.15,1.43.46,1.75.31.32.85.47,1.63.47h1.23Z"></path>
      <path d="m276.89,69.73c.9.49,1.61,1.2,2.12,2.14.51.93.77,2.03.77,3.29s-.26,2.36-.77,3.28c-.51.93-1.22,1.64-2.12,2.14-.9.5-1.93.75-3.07.75s-2.17-.25-3.08-.75c-.91-.5-1.62-1.21-2.15-2.15-.52-.93-.78-2.02-.78-3.27s.26-2.36.78-3.29c.52-.93,1.24-1.64,2.15-2.14.91-.49,1.94-.74,3.08-.74s2.17.25,3.07.74Zm-5.27,1.13c-.68.35-1.22.89-1.63,1.62-.41.73-.62,1.62-.62,2.68s.21,1.94.62,2.66c.41.72.95,1.25,1.63,1.61.67.35,1.41.53,2.2.53s1.5-.18,2.17-.53,1.21-.89,1.62-1.61c.41-.72.62-1.61.62-2.66s-.21-1.95-.62-2.68c-.41-.73-.95-1.27-1.62-1.62-.67-.35-1.39-.53-2.17-.53s-1.53.18-2.2.53Z"></path>
      <path d="m297.38,65.64v1.26h-4.43v14.27h-1.54v-14.27h-4.4v-1.26h10.37Z"></path>
      <path d="m307.96,69.73c.9.49,1.61,1.2,2.12,2.14.51.93.77,2.03.77,3.29s-.26,2.36-.77,3.28c-.51.93-1.22,1.64-2.12,2.14-.9.5-1.93.75-3.07.75s-2.17-.25-3.08-.75c-.91-.5-1.62-1.21-2.15-2.15-.52-.93-.78-2.02-.78-3.27s.26-2.36.78-3.29c.52-.93,1.24-1.64,2.15-2.14.91-.49,1.94-.74,3.08-.74s2.17.25,3.07.74Zm-5.27,1.13c-.68.35-1.22.89-1.63,1.62-.41.73-.62,1.62-.62,2.68s.21,1.94.62,2.66c.41.72.95,1.25,1.63,1.61.67.35,1.41.53,2.2.53s1.5-.18,2.17-.53,1.21-.89,1.62-1.61c.41-.72.62-1.61.62-2.66s-.21-1.95-.62-2.68c-.41-.73-.95-1.27-1.62-1.62-.67-.35-1.39-.53-2.17-.53s-1.53.18-2.2.53Z"></path>
      <path d="m331.58,70.26c.86.89,1.29,2.19,1.29,3.91v7h-1.54v-6.89c0-1.29-.31-2.28-.94-2.97-.62-.69-1.48-1.03-2.57-1.03-1.16,0-2.08.38-2.77,1.14s-1.04,1.89-1.04,3.37v6.38h-1.52v-6.89c0-1.29-.31-2.28-.94-2.97-.62-.69-1.48-1.03-2.56-1.03-1.16,0-2.08.38-2.77,1.14s-1.04,1.89-1.04,3.37v6.38h-1.56v-12.02h1.56v2.86c.29-1.01.83-1.78,1.6-2.3.77-.52,1.66-.78,2.68-.78s1.97.28,2.73.84c.76.56,1.29,1.38,1.58,2.47.32-1.07.89-1.89,1.7-2.45.81-.57,1.72-.85,2.75-.85,1.38,0,2.5.44,3.36,1.33Z"></path>
      <path d="m344.61,69.73c.9.49,1.61,1.2,2.12,2.14.51.93.77,2.03.77,3.29s-.26,2.36-.77,3.28c-.51.93-1.22,1.64-2.12,2.14-.9.5-1.93.75-3.07.75s-2.17-.25-3.08-.75c-.91-.5-1.63-1.21-2.15-2.15-.52-.93-.78-2.02-.78-3.27s.26-2.36.78-3.29c.52-.93,1.23-1.64,2.15-2.14.91-.49,1.94-.74,3.08-.74s2.17.25,3.07.74Zm-5.27,1.13c-.67.35-1.22.89-1.63,1.62-.41.73-.62,1.62-.62,2.68s.21,1.94.62,2.66c.41.72.96,1.25,1.63,1.61.68.35,1.41.53,2.2.53s1.5-.18,2.17-.53,1.21-.89,1.62-1.61c.41-.72.62-1.61.62-2.66s-.21-1.95-.62-2.68c-.41-.73-.95-1.27-1.62-1.62-.67-.35-1.39-.53-2.17-.53s-1.53.18-2.2.53Z"></path>
      <path d="m353.54,69.63c.78-.47,1.72-.7,2.84-.7v1.67h-.51c-1.16,0-2.12.31-2.88.94s-1.14,1.64-1.14,3.05v6.58h-1.56v-12.02h1.56v2.49c.35-.87.92-1.53,1.7-2Z"></path>
      <path d="m361.68,69.63c.78-.47,1.72-.7,2.84-.7v1.67h-.51c-1.16,0-2.12.31-2.88.94-.76.62-1.14,1.64-1.14,3.05v6.58h-1.56v-12.02h1.56v2.49c.35-.87.92-1.53,1.7-2Z"></path>
      <path d="m375.08,69.73c.9.49,1.61,1.2,2.12,2.14.51.93.77,2.03.77,3.29s-.26,2.36-.77,3.28c-.51.93-1.22,1.64-2.12,2.14-.9.5-1.93.75-3.07.75s-2.17-.25-3.08-.75c-.91-.5-1.63-1.21-2.15-2.15-.52-.93-.78-2.02-.78-3.27s.26-2.36.78-3.29c.52-.93,1.23-1.64,2.15-2.14.91-.49,1.94-.74,3.08-.74s2.17.25,3.07.74Zm-5.27,1.13c-.67.35-1.22.89-1.63,1.62-.41.73-.62,1.62-.62,2.68s.21,1.94.62,2.66c.41.72.96,1.25,1.63,1.61.68.35,1.41.53,2.2.53s1.5-.18,2.17-.53,1.21-.89,1.62-1.61c.41-.72.62-1.61.62-2.66s-.21-1.95-.62-2.68c-.41-.73-.95-1.27-1.62-1.62-.67-.35-1.39-.53-2.17-.53s-1.53.18-2.2.53Z"></path>
      <path d="m396.99,69.14l-3.54,12.02h-1.63l-3.61-10.21-3.66,10.21h-1.61l-3.54-12.02h1.56l2.86,10.41,3.61-10.41h1.59l3.63,10.41,2.84-10.41h1.5Z"></path>
      <path d="m33.7,109.24l-4.25-6.47h-2.51v6.47h-1.56v-15.52h4.76c1.75,0,3.05.41,3.91,1.23.86.82,1.29,1.93,1.29,3.32,0,1.29-.36,2.32-1.09,3.08-.73.76-1.78,1.22-3.16,1.36l4.38,6.52h-1.76Zm-6.76-7.64h3.08c2.49,0,3.74-1.08,3.74-3.24s-1.25-3.3-3.74-3.3h-3.08v6.54Z"></path>
      <path d="m45.88,107.3c.73-.54,1.17-1.28,1.32-2.2h1.63c-.22,1.28-.83,2.31-1.83,3.1-1,.79-2.26,1.19-3.79,1.19-1.14,0-2.16-.25-3.05-.74-.89-.49-1.58-1.2-2.08-2.13s-.75-2.03-.75-3.29.25-2.36.75-3.29c.5-.93,1.19-1.64,2.08-2.14.89-.49,1.9-.74,3.05-.74s2.19.25,3.05.74c.86.49,1.51,1.15,1.96,1.97s.67,1.72.67,2.69c0,.41-.03.79-.09,1.12h-9.95c.01,1.01.22,1.86.63,2.54.4.68.93,1.19,1.57,1.51.64.32,1.34.48,2.09.48,1.09,0,2-.27,2.73-.81Zm-4.8-8.5c-.65.32-1.17.82-1.57,1.49s-.62,1.5-.65,2.5h8.5c.06-.98-.1-1.81-.48-2.49-.38-.67-.9-1.17-1.54-1.5-.65-.32-1.35-.48-2.12-.48s-1.49.16-2.13.48Z"></path>
      <path d="m59.85,98.01c.86.63,1.45,1.47,1.77,2.51v-3.3h1.52v12.02h-1.52v-3.3c-.32,1.04-.91,1.88-1.77,2.51-.86.63-1.9.95-3.12.95-1.09,0-2.06-.25-2.92-.75-.86-.5-1.53-1.21-2-2.15-.48-.93-.71-2.02-.71-3.27s.24-2.36.71-3.29c.48-.93,1.14-1.64,1.99-2.14.85-.49,1.83-.74,2.93-.74,1.22,0,2.26.32,3.12.95Zm-5.96,1.71c-.81.86-1.22,2.03-1.22,3.51s.41,2.65,1.22,3.51c.81.86,1.9,1.29,3.25,1.29.85,0,1.62-.2,2.3-.59.68-.4,1.22-.96,1.61-1.68.39-.73.58-1.57.58-2.52s-.2-1.79-.58-2.52-.92-1.29-1.61-1.68c-.68-.4-1.45-.59-2.3-.59-1.35,0-2.43.43-3.25,1.29Z"></path>
      <path d="m74.66,98.01c.86.63,1.44,1.47,1.75,2.51v-7.57h1.54v16.29h-1.54v-3.3c-.31,1.04-.89,1.88-1.75,2.51-.86.63-1.9.95-3.12.95-1.09,0-2.06-.25-2.92-.75-.86-.5-1.53-1.21-2-2.15-.48-.93-.71-2.02-.71-3.27s.24-2.36.71-3.29c.48-.93,1.14-1.64,1.99-2.14.85-.49,1.83-.74,2.93-.74,1.22,0,2.26.32,3.12.95Zm-5.96,1.71c-.81.86-1.22,2.03-1.22,3.51s.41,2.65,1.22,3.51c.81.86,1.9,1.29,3.25,1.29.85,0,1.62-.2,2.3-.59.68-.4,1.22-.96,1.61-1.68.39-.73.58-1.57.58-2.52s-.2-1.79-.58-2.52-.92-1.29-1.61-1.68c-.68-.4-1.45-.59-2.3-.59-1.35,0-2.43.43-3.25,1.29Z"></path>
      <path d="m81.63,97.21l4.18,10.02,3.85-10.02h1.72l-7.07,17.7h-1.76l2.42-5.81-5.06-11.89h1.72Z"></path>
      <path d="m94.46,94.07c0,1.51-.67,2.27-2,2.27v-.77c.37,0,.63-.1.79-.29.16-.19.24-.48.24-.86v-.55h-1.01v-1.67h1.78c.13.72.2,1.34.2,1.87Zm2.66,0c0,1.51-.68,2.27-2.03,2.27v-.77c.38,0,.65-.1.81-.29s.24-.48.24-.86v-.55h-1.04v-1.67h1.78c.15.69.22,1.31.22,1.87Z"></path>
      <path d="m115.67,97.21v12.02h-1.54v-2.97c-.31,1.04-.87,1.84-1.67,2.38s-1.73.81-2.77.81c-1.41,0-2.55-.44-3.42-1.33-.87-.89-1.31-2.19-1.31-3.91v-7h1.54v6.87c0,1.32.33,2.33.99,3.03.66.7,1.56,1.05,2.71,1.05,1.2,0,2.16-.39,2.87-1.16.71-.77,1.07-1.9,1.07-3.4v-6.38h1.54Z"></path>
      <path d="m125.81,98.1c.79.69,1.28,1.62,1.45,2.8h-1.47c-.09-.78-.41-1.42-.96-1.93-.55-.51-1.29-.76-2.21-.76-.79,0-1.41.19-1.86.58-.45.39-.67.91-.67,1.55,0,.48.14.87.43,1.17.29.29.64.52,1.07.67.43.15,1,.31,1.72.47.88.21,1.59.41,2.12.63s.99.55,1.38,1c.38.46.57,1.07.57,1.85,0,.95-.36,1.74-1.07,2.34-.71.61-1.66.91-2.83.91-1.38,0-2.51-.34-3.39-1.02-.88-.68-1.4-1.62-1.56-2.81h1.5c.09.79.43,1.44,1.03,1.94s1.42.75,2.45.75c.76,0,1.36-.2,1.78-.59.43-.4.64-.91.64-1.54,0-.51-.15-.92-.44-1.23s-.66-.54-1.09-.69-1.02-.32-1.77-.5c-.87-.21-1.56-.41-2.08-.62-.52-.21-.97-.53-1.33-.96-.37-.43-.55-1.02-.55-1.77,0-.98.36-1.78,1.08-2.38s1.7-.9,2.93-.9c1.31,0,2.36.34,3.15,1.04Z"></path>
      <path d="m130.16,92.88c.21-.19.49-.29.83-.29s.61.1.81.29c.21.19.31.45.31.77s-.1.56-.31.75c-.21.19-.48.29-.81.29s-.61-.09-.83-.29c-.21-.19-.32-.44-.32-.75,0-.32.11-.58.32-.77Zm1.6,4.34v12.02h-1.56v-12.02h1.56Z"></path>
      <path d="m144.52,98.33c.87.89,1.31,2.19,1.31,3.91v7h-1.52v-6.89c0-1.31-.33-2.31-.99-3.01-.66-.7-1.56-1.04-2.71-1.04-1.2,0-2.16.38-2.87,1.16-.71.77-1.07,1.91-1.07,3.4v6.38h-1.56v-12.02h1.56v2.95c.31-1.03.87-1.81,1.67-2.36.81-.54,1.73-.81,2.78-.81,1.39,0,2.53.44,3.4,1.33Z"></path>
      <path d="m157.26,98.01c.86.63,1.45,1.47,1.77,2.51v-3.3h1.52v12.31c0,1.12-.24,2.09-.71,2.94-.47.84-1.12,1.5-1.96,1.96-.84.46-1.79.69-2.86.69-1.57,0-2.86-.38-3.86-1.13s-1.66-1.78-1.97-3.07h1.54c.27.88.75,1.58,1.46,2.09.71.51,1.62.77,2.74.77.76,0,1.46-.17,2.08-.5.62-.33,1.12-.82,1.48-1.46.36-.65.54-1.41.54-2.29v-3.59c-.32,1.04-.91,1.88-1.77,2.51-.86.63-1.9.95-3.12.95-1.09,0-2.06-.25-2.92-.75-.86-.5-1.53-1.21-2-2.15-.48-.93-.71-2.02-.71-3.27s.24-2.36.71-3.29c.48-.93,1.14-1.64,1.99-2.14.85-.49,1.83-.74,2.93-.74,1.22,0,2.26.32,3.12.95Zm-5.96,1.71c-.81.86-1.22,2.03-1.22,3.51s.41,2.65,1.22,3.51c.81.86,1.9,1.29,3.25,1.29.85,0,1.62-.2,2.3-.59.68-.4,1.22-.96,1.61-1.68.39-.73.58-1.57.58-2.52s-.2-1.79-.58-2.52-.92-1.29-1.61-1.68c-.68-.4-1.45-.59-2.3-.59-1.35,0-2.43.43-3.25,1.29Z"></path>
      <path d="m175.08,107.87v1.37h-1.43c-1.16,0-2.03-.28-2.6-.83-.57-.55-.86-1.48-.86-2.78v-7.07h-1.83v-1.34h1.83v-3.04h1.56v3.04h3.3v1.34h-3.3v7.09c0,.85.15,1.43.46,1.75.31.32.85.47,1.63.47h1.23Z"></path>
      <path d="m185.58,107.3c.73-.54,1.17-1.28,1.32-2.2h1.63c-.22,1.28-.83,2.31-1.83,3.1-1,.79-2.26,1.19-3.79,1.19-1.14,0-2.16-.25-3.05-.74-.89-.49-1.58-1.2-2.08-2.13s-.75-2.03-.75-3.29.25-2.36.75-3.29c.5-.93,1.19-1.64,2.08-2.14.89-.49,1.9-.74,3.05-.74s2.19.25,3.05.74c.86.49,1.51,1.15,1.96,1.97s.67,1.72.67,2.69c0,.41-.03.79-.09,1.12h-9.95c.01,1.01.22,1.86.63,2.54.4.68.93,1.19,1.57,1.51.64.32,1.34.48,2.09.48,1.09,0,2-.27,2.73-.81Zm-4.8-8.5c-.65.32-1.17.82-1.57,1.49s-.62,1.5-.65,2.5h8.5c.06-.98-.1-1.81-.48-2.49-.38-.67-.9-1.17-1.54-1.5-.65-.32-1.35-.48-2.12-.48s-1.49.16-2.13.48Z"></path>
      <path d="m200.48,98.27c1,.81,1.62,1.88,1.84,3.21h-1.61c-.16-.95-.61-1.71-1.34-2.26-.73-.55-1.64-.83-2.71-.83-.78,0-1.49.18-2.15.53-.65.35-1.17.89-1.56,1.62s-.58,1.62-.58,2.68.2,1.95.58,2.67.91,1.27,1.56,1.62c.65.35,1.37.53,2.15.53,1.07,0,1.97-.27,2.71-.83.73-.55,1.18-1.3,1.34-2.26h1.61c-.22,1.34-.83,2.41-1.84,3.21-1.01.81-2.27,1.21-3.8,1.21-1.14,0-2.16-.25-3.05-.74-.89-.49-1.58-1.2-2.08-2.13s-.75-2.03-.75-3.29.25-2.36.75-3.29c.5-.93,1.19-1.64,2.08-2.14.89-.49,1.9-.74,3.05-.74,1.53,0,2.79.4,3.8,1.21Z"></path>
      <path d="m214.5,98.33c.87.89,1.31,2.19,1.31,3.91v7h-1.52v-6.89c0-1.31-.33-2.31-.99-3.01-.66-.7-1.56-1.04-2.71-1.04-1.2,0-2.16.38-2.87,1.16-.71.77-1.07,1.91-1.07,3.4v6.38h-1.56v-16.29h1.56v7.22c.31-1.03.87-1.81,1.67-2.36.81-.54,1.73-.81,2.78-.81,1.39,0,2.53.44,3.4,1.33Z"></path>
      <path d="m228.48,98.33c.87.89,1.31,2.19,1.31,3.91v7h-1.52v-6.89c0-1.31-.33-2.31-.99-3.01-.66-.7-1.56-1.04-2.71-1.04-1.2,0-2.16.38-2.87,1.16-.71.77-1.07,1.91-1.07,3.4v6.38h-1.56v-12.02h1.56v2.95c.31-1.03.87-1.81,1.67-2.36s1.73-.81,2.77-.81c1.39,0,2.53.44,3.4,1.33Z"></path>
      <path d="m241.56,97.8c.9.49,1.61,1.2,2.12,2.14.51.93.77,2.03.77,3.29s-.26,2.36-.77,3.28c-.51.93-1.22,1.64-2.12,2.14-.9.5-1.93.75-3.07.75s-2.17-.25-3.08-.75c-.91-.5-1.63-1.21-2.15-2.15-.52-.93-.78-2.02-.78-3.27s.26-2.36.78-3.29c.52-.93,1.23-1.64,2.15-2.14.91-.49,1.94-.74,3.08-.74s2.17.25,3.07.74Zm-5.27,1.13c-.67.35-1.22.89-1.63,1.62-.41.73-.62,1.62-.62,2.68s.21,1.94.62,2.66c.41.72.96,1.25,1.63,1.61.68.35,1.41.53,2.2.53s1.5-.18,2.17-.53,1.21-.89,1.62-1.61c.41-.72.62-1.61.62-2.66s-.21-1.95-.62-2.68c-.41-.73-.95-1.27-1.62-1.62-.67-.35-1.39-.53-2.17-.53s-1.53.18-2.2.53Z"></path>
      <path d="m248.79,92.94v16.29h-1.56v-16.29h1.56Z"></path>
      <path d="m260.65,97.8c.9.49,1.61,1.2,2.12,2.14.51.93.77,2.03.77,3.29s-.26,2.36-.77,3.28c-.51.93-1.22,1.64-2.12,2.14-.9.5-1.93.75-3.07.75s-2.17-.25-3.08-.75c-.91-.5-1.62-1.21-2.15-2.15-.52-.93-.78-2.02-.78-3.27s.26-2.36.78-3.29c.52-.93,1.24-1.64,2.15-2.14.91-.49,1.94-.74,3.08-.74s2.17.25,3.07.74Zm-5.27,1.13c-.68.35-1.22.89-1.63,1.62-.41.73-.62,1.62-.62,2.68s.21,1.94.62,2.66c.41.72.95,1.25,1.63,1.61.67.35,1.41.53,2.2.53s1.5-.18,2.17-.53,1.21-.89,1.62-1.61c.41-.72.62-1.61.62-2.66s-.21-1.95-.62-2.68c-.41-.73-.95-1.27-1.62-1.62-.67-.35-1.39-.53-2.17-.53s-1.53.18-2.2.53Z"></path>
      <path d="m274.49,98.01c.86.63,1.45,1.47,1.77,2.51v-3.3h1.52v12.31c0,1.12-.24,2.09-.71,2.94-.47.84-1.12,1.5-1.96,1.96-.84.46-1.79.69-2.86.69-1.57,0-2.86-.38-3.86-1.13s-1.66-1.78-1.97-3.07h1.54c.27.88.75,1.58,1.46,2.09.71.51,1.62.77,2.74.77.76,0,1.46-.17,2.08-.5.62-.33,1.12-.82,1.48-1.46.36-.65.54-1.41.54-2.29v-3.59c-.32,1.04-.91,1.88-1.77,2.51-.86.63-1.9.95-3.12.95-1.09,0-2.06-.25-2.92-.75-.86-.5-1.53-1.21-2-2.15-.48-.93-.71-2.02-.71-3.27s.24-2.36.71-3.29c.48-.93,1.14-1.64,1.99-2.14.85-.49,1.83-.74,2.93-.74,1.22,0,2.26.32,3.12.95Zm-5.96,1.71c-.81.86-1.22,2.03-1.22,3.51s.41,2.65,1.22,3.51c.81.86,1.9,1.29,3.25,1.29.85,0,1.62-.2,2.3-.59.68-.4,1.22-.96,1.61-1.68.39-.73.58-1.57.58-2.52s-.2-1.79-.58-2.52-.92-1.29-1.61-1.68c-.68-.4-1.45-.59-2.3-.59-1.35,0-2.43.43-3.25,1.29Z"></path>
      <path d="m281.1,92.88c.21-.19.49-.29.83-.29s.61.1.81.29c.21.19.31.45.31.77s-.1.56-.31.75c-.21.19-.48.29-.81.29s-.61-.09-.83-.29c-.21-.19-.32-.44-.32-.75,0-.32.11-.58.32-.77Zm1.6,4.34v12.02h-1.56v-12.02h1.56Z"></path>
      <path d="m294.01,107.3c.73-.54,1.17-1.28,1.32-2.2h1.63c-.22,1.28-.83,2.31-1.83,3.1-1,.79-2.26,1.19-3.79,1.19-1.14,0-2.16-.25-3.05-.74-.89-.49-1.58-1.2-2.08-2.13-.5-.93-.75-2.03-.75-3.29s.25-2.36.75-3.29c.5-.93,1.19-1.64,2.08-2.14.89-.49,1.9-.74,3.05-.74s2.19.25,3.05.74c.86.49,1.51,1.15,1.96,1.97s.67,1.72.67,2.69c0,.41-.03.79-.09,1.12h-9.95c.02,1.01.22,1.86.63,2.54.4.68.93,1.19,1.57,1.51s1.34.48,2.09.48c1.09,0,2-.27,2.73-.81Zm-4.8-8.5c-.65.32-1.17.82-1.57,1.49-.4.67-.62,1.5-.65,2.5h8.5c.06-.98-.1-1.81-.48-2.49s-.89-1.17-1.54-1.5c-.65-.32-1.35-.48-2.11-.48s-1.49.16-2.13.48Z"></path>
      <path d="m306.58,98.1c.79.69,1.28,1.62,1.45,2.8h-1.47c-.09-.78-.41-1.42-.96-1.93-.55-.51-1.29-.76-2.21-.76-.79,0-1.41.19-1.86.58-.45.39-.67.91-.67,1.55,0,.48.14.87.43,1.17.29.29.64.52,1.07.67.43.15,1,.31,1.72.47.88.21,1.59.41,2.12.63s.99.55,1.38,1c.38.46.57,1.07.57,1.85,0,.95-.36,1.74-1.07,2.34-.71.61-1.66.91-2.83.91-1.38,0-2.51-.34-3.39-1.02-.88-.68-1.4-1.62-1.56-2.81h1.5c.09.79.43,1.44,1.03,1.94s1.42.75,2.45.75c.76,0,1.36-.2,1.78-.59.43-.4.64-.91.64-1.54,0-.51-.15-.92-.44-1.23s-.66-.54-1.09-.69-1.02-.32-1.77-.5c-.87-.21-1.56-.41-2.08-.62-.52-.21-.97-.53-1.33-.96-.37-.43-.55-1.02-.55-1.77,0-.98.36-1.78,1.08-2.38s1.7-.9,2.93-.9c1.31,0,2.36.34,3.15,1.04Z"></path>
      <path d="m318.25,92.94v16.29h-1.56v-16.29h1.56Z"></path>
      <path d="m321.56,92.88c.21-.19.49-.29.83-.29s.61.1.81.29c.21.19.31.45.31.77s-.1.56-.31.75c-.21.19-.48.29-.81.29s-.61-.09-.83-.29c-.21-.19-.32-.44-.32-.75,0-.32.11-.58.32-.77Zm1.6,4.34v12.02h-1.56v-12.02h1.56Z"></path>
      <path d="m332.93,109.24l-4.87-5.5v5.5h-1.56v-16.29h1.56v9.55l4.78-5.28h1.91l-5.53,5.94,5.68,6.08h-1.98Z"></path>
      <path d="m344.71,107.3c.73-.54,1.17-1.28,1.32-2.2h1.63c-.22,1.28-.83,2.31-1.83,3.1-1,.79-2.26,1.19-3.79,1.19-1.14,0-2.16-.25-3.05-.74-.89-.49-1.58-1.2-2.08-2.13s-.75-2.03-.75-3.29.25-2.36.75-3.29c.5-.93,1.19-1.64,2.08-2.14.89-.49,1.9-.74,3.05-.74s2.19.25,3.05.74c.86.49,1.51,1.15,1.96,1.97s.67,1.72.67,2.69c0,.41-.03.79-.09,1.12h-9.95c.01,1.01.22,1.86.63,2.54.4.68.93,1.19,1.57,1.51.64.32,1.34.48,2.09.48,1.09,0,2-.27,2.73-.81Zm-4.8-8.5c-.65.32-1.17.82-1.57,1.49s-.62,1.5-.65,2.5h8.5c.06-.98-.1-1.81-.48-2.49-.38-.67-.9-1.17-1.54-1.5-.65-.32-1.35-.48-2.12-.48s-1.49.16-2.13.48Z"></path>
      <path d="m28.77,131.85v5.46h-3.76v-15.56h6.1c1.85,0,3.26.46,4.23,1.38s1.45,2.15,1.45,3.71c0,.97-.22,1.83-.65,2.59-.43.76-1.08,1.35-1.93,1.78-.85.43-1.88.65-3.1.65h-2.33Zm4.18-5.02c0-1.37-.76-2.05-2.27-2.05h-1.92v4.05h1.92c1.51,0,2.27-.67,2.27-2Z"></path>
      <path d="m41.47,125.02l2.95,7.53,2.75-7.53h4.16l-7.66,18.14h-4.14l2.88-6.32-5.15-11.82h4.21Z"></path>
      <path d="m59.55,134.07v3.24h-1.7c-1.44,0-2.56-.36-3.36-1.07-.8-.71-1.2-1.89-1.2-3.53v-4.51h-1.65v-3.17h1.65v-3.02h3.76v3.02h2.47v3.17h-2.47v4.58c0,.48.1.82.3,1.01.2.19.53.29,1,.29h1.19Z"></path>
      <path d="m72.81,126.3c.83.94,1.24,2.23,1.24,3.88v7.13h-3.76v-6.69c0-.82-.22-1.46-.65-1.93-.43-.46-1.01-.69-1.73-.69-.76,0-1.37.24-1.82.73-.45.48-.67,1.17-.67,2.07v6.52h-3.77v-16.29h3.77v6.25c.35-.73.88-1.31,1.57-1.74s1.52-.64,2.46-.64c1.41,0,2.53.47,3.36,1.41Z"></path>
      <path d="m85.56,125.63c.96.51,1.72,1.24,2.27,2.19.55.95.83,2.07.83,3.35s-.28,2.39-.83,3.35c-.55.95-1.31,1.68-2.27,2.19-.96.51-2.05.76-3.27.76s-2.31-.25-3.28-.76c-.97-.51-1.73-1.24-2.28-2.19-.55-.96-.83-2.07-.83-3.35s.28-2.39.83-3.35c.55-.95,1.31-1.68,2.28-2.19s2.06-.76,3.28-.76,2.31.25,3.27.76Zm-5.09,3.28c-.49.52-.74,1.27-.74,2.26s.24,1.73.74,2.25,1.1.77,1.82.77,1.32-.26,1.81-.77.73-1.26.73-2.25-.24-1.74-.73-2.26-1.09-.78-1.81-.78-1.32.26-1.82.78Z"></path>
      <path d="m101.76,126.3c.83.94,1.24,2.23,1.24,3.88v7.13h-3.77v-6.69c0-.82-.22-1.46-.65-1.93-.43-.46-1.01-.69-1.73-.69-.76,0-1.37.24-1.82.73s-.67,1.17-.67,2.07v6.52h-3.76v-12.28h3.76v2.25c.35-.73.88-1.31,1.57-1.74s1.52-.64,2.46-.64c1.41,0,2.53.47,3.36,1.41Z"></path>
      <path d="m108.58,137.75c0,1.01-.27,1.85-.8,2.51-.54.66-1.37.99-2.5.99v-1.39c.4,0,.69-.09.87-.26s.28-.51.28-1.01v-.22h-1.61v-3.39h3.11c.44.85.66,1.78.66,2.77Z"></path>
      <path d="m125.67,135.19c-.42.69-1.04,1.24-1.85,1.65s-1.8.62-2.96.62c-1.75,0-3.19-.43-4.32-1.28-1.13-.85-1.75-2.04-1.85-3.57h4.01c.06.59.27,1.05.63,1.39.36.34.82.51,1.38.51.48,0,.87-.13,1.14-.4.28-.26.42-.62.42-1.06,0-.4-.13-.73-.38-.99-.26-.26-.58-.48-.96-.65-.38-.17-.91-.37-1.59-.61-.98-.34-1.79-.66-2.41-.98-.62-.32-1.16-.79-1.61-1.41-.45-.62-.67-1.43-.67-2.43,0-.92.23-1.72.71-2.4.47-.68,1.12-1.19,1.95-1.55.83-.36,1.78-.54,2.85-.54,1.73,0,3.11.41,4.13,1.23,1.02.82,1.6,1.95,1.73,3.39h-4.07c-.07-.51-.26-.92-.56-1.22s-.71-.45-1.22-.45c-.44,0-.8.12-1.07.35s-.41.58-.41,1.03c0,.37.12.68.36.94.24.26.55.46.91.63.37.16.89.37,1.58.62,1,.34,1.81.67,2.44,1,.63.33,1.17.81,1.63,1.44.45.63.68,1.45.68,2.46,0,.82-.21,1.58-.63,2.27Z"></path>
      <path d="m138.77,125.63c.8.51,1.43,1.23,1.89,2.18s.69,2.07.69,3.36-.23,2.39-.69,3.35c-.46.95-1.09,1.68-1.89,2.19-.8.51-1.71.76-2.72.76-.94,0-1.75-.21-2.42-.64-.68-.42-1.17-1-1.48-1.74v8.08h-3.76v-18.14h3.76v2.22c.31-.73.8-1.31,1.48-1.74.67-.43,1.48-.64,2.42-.64,1.01,0,1.92.25,2.72.76Zm-5.88,3.35c-.51.54-.76,1.27-.76,2.19s.25,1.64.76,2.18c.51.54,1.16.81,1.95.81s1.46-.26,1.95-.79.74-1.26.74-2.2-.25-1.67-.74-2.2c-.49-.53-1.14-.79-1.95-.79s-1.44.27-1.95.8Z"></path>
      <path d="m150.41,125.51c.67.43,1.17,1,1.5,1.74v-2.22h3.74v12.28h-3.74v-2.22c-.32.73-.82,1.31-1.5,1.74-.68.43-1.48.64-2.42.64-1.01,0-1.92-.25-2.72-.76-.8-.51-1.43-1.24-1.89-2.19-.46-.96-.69-2.07-.69-3.35s.23-2.41.69-3.36c.46-.95,1.09-1.67,1.89-2.18.8-.51,1.71-.76,2.72-.76.94,0,1.75.21,2.42.64Zm-3.16,3.46c-.49.53-.74,1.26-.74,2.2s.24,1.67.74,2.2,1.14.79,1.95.79,1.44-.27,1.95-.81c.51-.54.76-1.27.76-2.18s-.25-1.66-.76-2.19c-.51-.54-1.15-.8-1.95-.8s-1.46.26-1.95.79Z"></path>
      <path d="m163.83,125.55c.74-.44,1.54-.66,2.41-.66v4.03h-1.08c-1,0-1.77.21-2.32.64-.55.43-.83,1.15-.83,2.16v5.59h-3.76v-12.28h3.76v2.31c.47-.75,1.08-1.34,1.82-1.78Z"></path>
      <path d="m175.26,137.31l-3.68-5.22v5.22h-3.77v-16.29h3.77v8.94l3.68-4.93h4.43l-4.95,6.14,5.06,6.14h-4.54Z"></path>
      <path d="m184.25,137.75c0,1.01-.27,1.85-.8,2.51-.54.66-1.37.99-2.5.99v-1.39c.4,0,.69-.09.87-.26s.28-.51.28-1.01v-.22h-1.61v-3.39h3.11c.44.85.66,1.78.66,2.77Z"></path>
      <path d="m201.34,135.19c-.42.69-1.04,1.24-1.85,1.65s-1.8.62-2.96.62c-1.75,0-3.19-.43-4.32-1.28-1.13-.85-1.75-2.04-1.85-3.57h4.01c.06.59.27,1.05.63,1.39.36.34.82.51,1.38.51.48,0,.87-.13,1.14-.4.28-.26.42-.62.42-1.06,0-.4-.13-.73-.38-.99-.26-.26-.58-.48-.96-.65-.38-.17-.91-.37-1.59-.61-.98-.34-1.79-.66-2.41-.98-.62-.32-1.16-.79-1.61-1.41-.45-.62-.67-1.43-.67-2.43,0-.92.23-1.72.71-2.4.47-.68,1.12-1.19,1.95-1.55.83-.36,1.78-.54,2.85-.54,1.73,0,3.11.41,4.13,1.23,1.02.82,1.6,1.95,1.73,3.39h-4.07c-.07-.51-.26-.92-.56-1.22s-.71-.45-1.22-.45c-.44,0-.8.12-1.07.35s-.41.58-.41,1.03c0,.37.12.68.36.94.24.26.55.46.91.63.37.16.89.37,1.58.62,1,.34,1.81.67,2.44,1,.63.33,1.17.81,1.63,1.44.45.63.68,1.45.68,2.46,0,.82-.21,1.58-.63,2.27Z"></path>
      <path d="m213.59,126.18c1.07.87,1.75,2.07,2.03,3.6h-3.99c-.12-.53-.36-.94-.73-1.23-.37-.29-.83-.44-1.39-.44-.66,0-1.2.26-1.63.78-.43.52-.64,1.28-.64,2.28s.21,1.76.64,2.28.97.78,1.63.78c.56,0,1.02-.15,1.39-.44.37-.29.61-.71.73-1.23h3.99c-.28,1.53-.96,2.73-2.03,3.6-1.07.87-2.4,1.31-3.99,1.31-1.2,0-2.27-.25-3.2-.76-.93-.51-1.66-1.24-2.19-2.19-.53-.96-.79-2.07-.79-3.35s.26-2.41.78-3.36,1.25-1.67,2.19-2.18c.94-.51,2.01-.76,3.21-.76,1.59,0,2.91.44,3.99,1.31Z"></path>
      <path d="m224.67,125.51c.68.43,1.17,1,1.5,1.74v-2.22h3.74v12.28h-3.74v-2.22c-.32.73-.82,1.31-1.5,1.74-.67.43-1.48.64-2.42.64-1.01,0-1.92-.25-2.72-.76-.8-.51-1.43-1.24-1.89-2.19-.46-.96-.69-2.07-.69-3.35s.23-2.41.69-3.36,1.09-1.67,1.89-2.18c.8-.51,1.71-.76,2.72-.76.94,0,1.75.21,2.42.64Zm-3.16,3.46c-.49.53-.74,1.26-.74,2.2s.25,1.67.74,2.2,1.14.79,1.95.79,1.44-.27,1.95-.81c.51-.54.76-1.27.76-2.18s-.25-1.66-.76-2.19c-.51-.54-1.16-.8-1.95-.8s-1.46.26-1.95.79Z"></path>
      <path d="m236.27,121.02v16.29h-3.77v-16.29h3.77Z"></path>
      <path d="m245.96,125.51c.68.43,1.17,1,1.5,1.74v-2.22h3.74v12.28h-3.74v-2.22c-.32.73-.82,1.31-1.5,1.74-.67.43-1.48.64-2.42.64-1.01,0-1.92-.25-2.72-.76-.8-.51-1.43-1.24-1.89-2.19-.46-.96-.69-2.07-.69-3.35s.23-2.41.69-3.36,1.09-1.67,1.89-2.18c.8-.51,1.71-.76,2.72-.76.94,0,1.75.21,2.42.64Zm-3.16,3.46c-.49.53-.74,1.26-.74,2.2s.25,1.67.74,2.2,1.14.79,1.95.79,1.44-.27,1.95-.81c.51-.54.76-1.27.76-2.18s-.25-1.66-.76-2.19c-.51-.54-1.16-.8-1.95-.8s-1.46.26-1.95.79Z"></path>
      <path d="m256.88,137.75c0,1.01-.27,1.85-.8,2.51-.54.66-1.37.99-2.5.99v-1.39c.39,0,.69-.09.87-.26s.28-.51.28-1.01v-.22h-1.61v-3.39h3.1c.44.85.66,1.78.66,2.77Z"></path>
      <path d="m276.87,121.74v15.56h-3.79v-6.49h-5.9v6.49h-3.77v-15.56h3.77v6.03h5.9v-6.03h3.79Z"></path>
      <path d="m286.55,125.51c.67.43,1.17,1,1.5,1.74v-2.22h3.74v12.28h-3.74v-2.22c-.32.73-.82,1.31-1.5,1.74-.68.43-1.48.64-2.42.64-1.01,0-1.92-.25-2.72-.76-.8-.51-1.43-1.24-1.89-2.19-.46-.96-.69-2.07-.69-3.35s.23-2.41.69-3.36c.46-.95,1.09-1.67,1.89-2.18.8-.51,1.71-.76,2.72-.76.94,0,1.75.21,2.42.64Zm-3.16,3.46c-.49.53-.74,1.26-.74,2.2s.24,1.67.74,2.2,1.14.79,1.95.79,1.44-.27,1.95-.81c.51-.54.76-1.27.76-2.18s-.25-1.66-.76-2.19c-.51-.54-1.15-.8-1.95-.8s-1.46.26-1.95.79Z"></path>
      <path d="m301.48,125.51c.68.43,1.17,1,1.48,1.74v-6.23h3.76v16.29h-3.76v-2.22c-.31.73-.8,1.31-1.48,1.74-.67.43-1.48.64-2.42.64-1.01,0-1.92-.25-2.72-.76-.8-.51-1.43-1.24-1.89-2.19-.46-.96-.69-2.07-.69-3.35s.23-2.41.69-3.36,1.09-1.67,1.89-2.18c.8-.51,1.71-.76,2.72-.76.94,0,1.75.21,2.42.64Zm-3.16,3.46c-.49.53-.74,1.26-.74,2.2s.25,1.67.74,2.2,1.14.79,1.95.79,1.44-.27,1.95-.81c.51-.54.76-1.27.76-2.18s-.25-1.66-.76-2.19c-.51-.54-1.16-.8-1.95-.8s-1.46.26-1.95.79Z"></path>
      <path d="m318.33,125.63c.96.51,1.72,1.24,2.27,2.19.55.95.83,2.07.83,3.35s-.28,2.39-.83,3.35c-.55.95-1.31,1.68-2.27,2.19-.96.51-2.05.76-3.27.76s-2.31-.25-3.28-.76c-.97-.51-1.73-1.24-2.28-2.19-.55-.96-.83-2.07-.83-3.35s.28-2.39.83-3.35c.55-.95,1.31-1.68,2.28-2.19s2.06-.76,3.28-.76,2.31.25,3.27.76Zm-5.09,3.28c-.49.52-.74,1.27-.74,2.26s.24,1.73.74,2.25,1.1.77,1.82.77,1.32-.26,1.81-.77.73-1.26.73-2.25-.24-1.74-.73-2.26-1.09-.78-1.81-.78-1.32.26-1.82.78Z"></path>
      <path d="m332.4,125.63c.96.51,1.72,1.24,2.27,2.19.55.95.82,2.07.82,3.35s-.28,2.39-.82,3.35c-.55.95-1.31,1.68-2.27,2.19-.96.51-2.05.76-3.27.76s-2.31-.25-3.28-.76c-.97-.51-1.73-1.24-2.28-2.19-.55-.96-.83-2.07-.83-3.35s.28-2.39.83-3.35c.55-.95,1.31-1.68,2.28-2.19s2.06-.76,3.28-.76,2.31.25,3.27.76Zm-5.09,3.28c-.49.52-.74,1.27-.74,2.26s.25,1.73.74,2.25,1.1.77,1.82.77,1.32-.26,1.8-.77.73-1.26.73-2.25-.24-1.74-.73-2.26-1.09-.78-1.8-.78-1.32.26-1.82.78Z"></path>
      <path d="m347.83,125.63c.8.51,1.43,1.23,1.89,2.18.46.95.69,2.07.69,3.36s-.23,2.39-.69,3.35c-.46.95-1.09,1.68-1.89,2.19-.8.51-1.71.76-2.72.76-.94,0-1.75-.21-2.42-.64-.68-.42-1.17-1-1.47-1.74v8.08h-3.77v-18.14h3.77v2.22c.31-.73.8-1.31,1.47-1.74s1.48-.64,2.42-.64c1.01,0,1.92.25,2.72.76Zm-5.88,3.35c-.51.54-.76,1.27-.76,2.19s.25,1.64.76,2.18c.51.54,1.16.81,1.95.81s1.46-.26,1.95-.79c.49-.53.74-1.26.74-2.2s-.25-1.67-.74-2.2c-.49-.53-1.14-.79-1.95-.79s-1.44.27-1.95.8Z"></path>
      <path d="m355.46,137.75c0,1.01-.27,1.85-.8,2.51-.54.66-1.37.99-2.5.99v-1.39c.4,0,.69-.09.87-.26s.28-.51.28-1.01v-.22h-1.61v-3.39h3.11c.44.85.66,1.78.66,2.77Z"></path>
      <path d="m375.45,121.74v15.56h-3.79v-6.49h-5.9v6.49h-3.76v-15.56h3.76v6.03h5.9v-6.03h3.79Z"></path>
      <path d="m378.31,120.15c.41-.38.95-.56,1.63-.56s1.22.19,1.63.56c.41.37.62.85.62,1.42s-.21,1.02-.62,1.4c-.41.37-.95.56-1.63.56s-1.22-.19-1.63-.56-.62-.84-.62-1.4.21-1.05.62-1.42Zm3.5,4.88v12.28h-3.76v-12.28h3.76Z"></path>
      <path d="m390.09,133.63l2.66-8.61h4.01l-4.36,12.28h-4.67l-4.36-12.28h4.01l2.71,8.61Z"></path>
      <path d="m409.88,131.85h-8.52c.04.92.28,1.59.71,1.99s.97.61,1.63.61c.56,0,1.02-.14,1.39-.42.37-.28.61-.64.73-1.08h3.98c-.16.87-.51,1.64-1.06,2.32s-1.23,1.22-2.07,1.61c-.84.39-1.77.58-2.8.58-1.2,0-2.27-.25-3.2-.76-.93-.51-1.66-1.24-2.19-2.19-.53-.96-.79-2.07-.79-3.35s.26-2.41.78-3.36,1.25-1.67,2.19-2.18c.94-.51,2.01-.76,3.21-.76s2.29.25,3.21.75,1.64,1.2,2.15,2.1c.51.9.76,1.94.76,3.12,0,.31-.04.65-.11,1.01Zm-4.35-3.4c-.45-.4-1-.61-1.66-.61s-1.26.21-1.72.62c-.46.41-.71,1.01-.77,1.8h4.8c.01-.81-.2-1.41-.65-1.82Z"></path>
      <path d="m415.03,137.75c0,1.01-.27,1.85-.8,2.51-.54.66-1.37.99-2.5.99v-1.39c.4,0,.69-.09.87-.26s.28-.51.28-1.01v-.22h-1.61v-3.39h3.11c.44.85.66,1.78.66,2.77Z"></path>
      <path d="m28.77,149.82v15.57h-3.76v-15.57h3.76Z"></path>
      <path d="m42.52,154.37c.83.94,1.24,2.23,1.24,3.88v7.13h-3.76v-6.69c0-.82-.22-1.46-.65-1.93-.43-.46-1.01-.69-1.73-.69-.76,0-1.37.24-1.82.73-.45.48-.67,1.17-.67,2.07v6.52h-3.77v-12.28h3.77v2.25c.35-.73.88-1.31,1.57-1.74s1.52-.64,2.46-.64c1.41,0,2.53.47,3.36,1.41Z"></path>
      <path d="m52.29,151.42c-.62,0-1.06.13-1.34.4s-.43.69-.46,1.28h2.22v3.17h-2.22v9.11h-3.77v-9.11h-1.47v-3.17h1.47v-.13c0-1.53.44-2.7,1.33-3.53s2.18-1.24,3.86-1.24c.35,0,.62,0,.79.02v3.24l-.42-.02Z"></path>
      <path d="m63.37,153.7c.96.51,1.72,1.24,2.27,2.19.55.96.83,2.07.83,3.35s-.28,2.39-.83,3.35-1.31,1.68-2.27,2.19-2.05.76-3.27.76-2.31-.25-3.28-.76-1.73-1.24-2.28-2.19-.83-2.07-.83-3.35.28-2.39.83-3.35c.55-.95,1.31-1.68,2.28-2.19.97-.51,2.06-.76,3.28-.76s2.31.25,3.27.76Zm-5.09,3.28c-.49.52-.74,1.27-.74,2.26s.24,1.73.74,2.24c.49.51,1.1.77,1.82.77s1.32-.26,1.81-.77c.48-.51.73-1.26.73-2.24s-.24-1.74-.73-2.26c-.48-.52-1.09-.78-1.81-.78s-1.32.26-1.82.78Z"></path>
      <path d="m74,153.62c.74-.44,1.54-.66,2.41-.66v4.03h-1.08c-1,0-1.77.21-2.32.64s-.83,1.14-.83,2.16v5.59h-3.76v-12.28h3.76v2.31c.47-.75,1.08-1.34,1.82-1.78Z"></path>
      <path d="m97.48,154.36c.87.93,1.3,2.23,1.3,3.89v7.13h-3.74v-6.69c0-.78-.21-1.38-.63-1.82-.42-.43-.99-.65-1.71-.65s-1.34.23-1.77.69c-.43.46-.65,1.11-.65,1.95v6.52h-3.76v-6.69c0-.78-.21-1.38-.62-1.82-.41-.43-.98-.65-1.7-.65s-1.34.23-1.78.68-.66,1.11-.66,1.96v6.52h-3.77v-12.28h3.77v2.09c.32-.69.82-1.23,1.49-1.63.67-.4,1.45-.59,2.34-.59.94,0,1.77.22,2.49.65.72.43,1.26,1.05,1.63,1.86.43-.76,1.01-1.37,1.75-1.83.74-.45,1.56-.68,2.46-.68,1.51,0,2.7.47,3.57,1.4Z"></path>
      <path d="m108.38,153.58c.68.43,1.17,1,1.5,1.74v-2.22h3.74v12.28h-3.74v-2.22c-.32.73-.82,1.31-1.5,1.74-.67.43-1.48.64-2.42.64-1.01,0-1.92-.25-2.72-.76-.8-.51-1.43-1.24-1.89-2.19s-.69-2.07-.69-3.35.23-2.41.69-3.36c.46-.95,1.09-1.67,1.89-2.18.8-.51,1.71-.76,2.72-.76.94,0,1.75.21,2.42.64Zm-3.16,3.46c-.49.53-.74,1.26-.74,2.2s.25,1.67.74,2.2c.49.53,1.14.79,1.95.79s1.44-.27,1.95-.81c.51-.54.76-1.27.76-2.18s-.25-1.66-.76-2.19c-.51-.54-1.16-.8-1.95-.8s-1.46.26-1.95.79Z"></path>
      <path d="m123.17,162.14v3.24h-1.7c-1.44,0-2.56-.36-3.36-1.07-.8-.71-1.2-1.89-1.2-3.53v-4.51h-1.65v-3.17h1.65v-3.02h3.76v3.02h2.47v3.17h-2.47v4.58c0,.48.1.82.3,1.01.2.19.53.29,1,.29h1.19Z"></path>
      <path d="m125.55,148.22c.41-.37.95-.56,1.63-.56s1.22.19,1.63.56c.41.38.62.85.62,1.42s-.21,1.02-.62,1.4c-.41.37-.96.56-1.63.56s-1.22-.19-1.63-.56c-.41-.38-.62-.84-.62-1.4s.21-1.04.62-1.42Zm3.5,4.88v12.28h-3.77v-12.28h3.77Z"></path>
      <path d="m141.18,154.25c1.07.87,1.75,2.07,2.03,3.6h-3.99c-.12-.53-.36-.94-.73-1.23-.37-.29-.83-.44-1.39-.44-.66,0-1.2.26-1.63.78s-.64,1.28-.64,2.28.21,1.76.64,2.28c.43.52.97.78,1.63.78.56,0,1.02-.15,1.39-.44.37-.29.61-.71.73-1.23h3.99c-.28,1.53-.96,2.73-2.03,3.6-1.07.87-2.4,1.31-3.99,1.31-1.2,0-2.27-.25-3.2-.76s-1.66-1.24-2.19-2.19c-.53-.95-.79-2.07-.79-3.35s.26-2.41.78-3.36c.52-.95,1.25-1.67,2.19-2.18.94-.51,2.01-.76,3.21-.76,1.59,0,2.91.44,3.99,1.31Z"></path>
      <path d="m152.26,153.58c.68.43,1.17,1,1.5,1.74v-2.22h3.74v12.28h-3.74v-2.22c-.32.73-.82,1.31-1.5,1.74-.67.43-1.48.64-2.42.64-1.01,0-1.92-.25-2.72-.76-.8-.51-1.43-1.24-1.89-2.19s-.69-2.07-.69-3.35.23-2.41.69-3.36c.46-.95,1.09-1.67,1.89-2.18.8-.51,1.71-.76,2.72-.76.94,0,1.75.21,2.42.64Zm-3.16,3.46c-.49.53-.74,1.26-.74,2.2s.25,1.67.74,2.2c.49.53,1.14.79,1.95.79s1.44-.27,1.95-.81c.51-.54.76-1.27.76-2.18s-.25-1.66-.76-2.19c-.51-.54-1.16-.8-1.95-.8s-1.46.26-1.95.79Z"></path>
      <path d="m163.18,165.82c0,1.01-.27,1.85-.8,2.51s-1.37.99-2.5.99v-1.39c.39,0,.69-.09.87-.26.18-.18.28-.51.28-1.01v-.22h-1.61v-3.39h3.1c.44.85.66,1.78.66,2.77Z"></path>
      <path d="m180.27,163.27c-.42.69-1.04,1.24-1.85,1.65-.81.41-1.8.62-2.96.62-1.75,0-3.18-.43-4.31-1.28-1.13-.85-1.75-2.04-1.85-3.57h4.01c.06.59.27,1.05.63,1.39s.82.51,1.38.51c.48,0,.87-.13,1.15-.4.28-.26.42-.62.42-1.06,0-.4-.13-.73-.39-.99-.26-.26-.58-.48-.96-.65-.38-.17-.91-.37-1.58-.61-.98-.34-1.79-.66-2.41-.98-.62-.32-1.16-.79-1.61-1.41-.45-.62-.67-1.43-.67-2.43,0-.93.23-1.72.7-2.4.47-.67,1.12-1.19,1.95-1.55.83-.36,1.78-.54,2.85-.54,1.73,0,3.11.41,4.13,1.23,1.02.82,1.6,1.95,1.73,3.39h-4.07c-.07-.51-.26-.92-.56-1.22s-.71-.45-1.22-.45c-.44,0-.8.12-1.07.35s-.41.58-.41,1.04c0,.37.12.68.36.94s.55.47.91.63c.37.16.89.37,1.59.62,1,.34,1.81.67,2.44,1,.63.33,1.17.81,1.63,1.44s.68,1.45.68,2.47c0,.82-.21,1.58-.63,2.27Z"></path>
      <path d="m194.14,154.37c.83.94,1.24,2.23,1.24,3.88v7.13h-3.76v-6.69c0-.82-.22-1.46-.65-1.93-.43-.46-1.01-.69-1.73-.69-.76,0-1.37.24-1.82.73-.45.48-.67,1.17-.67,2.07v6.52h-3.77v-12.28h3.77v2.25c.35-.73.88-1.31,1.57-1.74s1.52-.64,2.46-.64c1.41,0,2.53.47,3.36,1.41Z"></path>
      <path d="m206.89,153.7c.96.51,1.72,1.24,2.27,2.19.55.96.83,2.07.83,3.35s-.28,2.39-.83,3.35-1.31,1.68-2.27,2.19-2.05.76-3.27.76-2.31-.25-3.28-.76-1.73-1.24-2.28-2.19-.83-2.07-.83-3.35.28-2.39.83-3.35c.55-.95,1.31-1.68,2.28-2.19.97-.51,2.06-.76,3.28-.76s2.31.25,3.27.76Zm-5.09,3.28c-.49.52-.74,1.27-.74,2.26s.24,1.73.74,2.24c.49.51,1.1.77,1.82.77s1.32-.26,1.81-.77c.48-.51.73-1.26.73-2.24s-.24-1.74-.73-2.26c-.48-.52-1.09-.78-1.81-.78s-1.32.26-1.82.78Z"></path>
      <path d="m229.91,153.1l-3.15,12.28h-4.21l-2.22-8.23-2.24,8.23h-4.21l-3.15-12.28h3.76l1.63,8.85,2.29-8.85h4.01l2.36,8.87,1.63-8.87h3.5Z"></path>
      <path d="m237.3,151.42c-.62,0-1.06.13-1.34.4s-.43.69-.46,1.28h2.22v3.17h-2.22v9.11h-3.77v-9.11h-1.47v-3.17h1.47v-.13c0-1.53.44-2.7,1.33-3.53s2.18-1.24,3.86-1.24c.35,0,.62,0,.79.02v3.24l-.42-.02Z"></path>
      <path d="m243.14,149.09v16.29h-3.77v-16.29h3.77Z"></path>
      <path d="m252.82,153.58c.68.43,1.17,1,1.5,1.74v-2.22h3.74v12.28h-3.74v-2.22c-.32.73-.82,1.31-1.5,1.74-.67.43-1.48.64-2.42.64-1.01,0-1.92-.25-2.72-.76-.8-.51-1.43-1.24-1.89-2.19s-.69-2.07-.69-3.35.23-2.41.69-3.36c.46-.95,1.09-1.67,1.89-2.18.8-.51,1.71-.76,2.72-.76.94,0,1.75.21,2.42.64Zm-3.16,3.46c-.49.53-.74,1.26-.74,2.2s.25,1.67.74,2.2c.49.53,1.14.79,1.95.79s1.44-.27,1.95-.81c.51-.54.76-1.27.76-2.18s-.25-1.66-.76-2.19c-.51-.54-1.16-.8-1.95-.8s-1.46.26-1.95.79Z"></path>
      <path d="m268.1,165.38l-3.68-5.22v5.22h-3.77v-16.29h3.77v8.94l3.68-4.93h4.43l-4.95,6.14,5.06,6.14h-4.54Z"></path>
      <path d="m285.56,159.92h-8.52c.04.92.28,1.59.71,1.99.43.4.97.61,1.63.61.56,0,1.02-.14,1.39-.42s.61-.64.73-1.08h3.98c-.16.87-.51,1.64-1.06,2.32-.54.68-1.23,1.22-2.07,1.61s-1.77.58-2.8.58c-1.2,0-2.27-.25-3.2-.76s-1.66-1.24-2.19-2.19c-.53-.95-.79-2.07-.79-3.35s.26-2.41.78-3.36c.52-.95,1.25-1.67,2.19-2.18.94-.51,2.01-.76,3.21-.76s2.29.25,3.21.75c.92.5,1.64,1.2,2.15,2.1.51.9.76,1.94.76,3.12,0,.31-.04.65-.11,1.01Zm-4.35-3.4c-.45-.4-1-.61-1.66-.61s-1.26.21-1.72.62c-.46.41-.71,1.01-.77,1.81h4.8c.01-.81-.2-1.41-.65-1.82Z"></path>
      <path d="m290.71,165.82c0,1.01-.27,1.85-.8,2.51-.54.66-1.37.99-2.5.99v-1.39c.4,0,.69-.09.87-.26.18-.18.28-.51.28-1.01v-.22h-1.61v-3.39h3.11c.44.85.66,1.78.66,2.77Z"></path>
      <path d="m308.82,158.73c.55.69.83,1.49.83,2.4,0,1.34-.44,2.38-1.33,3.13-.89.75-2.16,1.12-3.82,1.12h-7.24v-15.57h7.07c1.59,0,2.81.35,3.68,1.04.87.69,1.3,1.67,1.3,2.95,0,.94-.25,1.72-.75,2.34-.5.62-1.15,1.03-1.96,1.22.94.22,1.68.67,2.23,1.36Zm-7.8-2.55h2.47c1.3,0,1.96-.56,1.96-1.67s-.67-1.67-2-1.67h-2.42v3.35Zm4.78,4.42c0-.56-.18-.99-.55-1.31-.37-.32-.89-.47-1.56-.47h-2.66v3.5h2.69c1.39,0,2.09-.57,2.09-1.72Z"></path>
      <path d="m320.64,153.7c.96.51,1.72,1.24,2.27,2.19.55.96.83,2.07.83,3.35s-.28,2.39-.83,3.35-1.31,1.68-2.27,2.19-2.05.76-3.27.76-2.31-.25-3.28-.76-1.73-1.24-2.28-2.19-.83-2.07-.83-3.35.28-2.39.83-3.35c.55-.95,1.31-1.68,2.28-2.19.97-.51,2.06-.76,3.28-.76s2.31.25,3.27.76Zm-5.09,3.28c-.49.52-.74,1.27-.74,2.26s.24,1.73.74,2.24c.49.51,1.1.77,1.82.77s1.32-.26,1.81-.77c.48-.51.73-1.26.73-2.24s-.24-1.74-.73-2.26c-.48-.52-1.09-.78-1.81-.78s-1.32.26-1.82.78Z"></path>
      <path d="m334.71,153.7c.96.51,1.72,1.24,2.27,2.19.55.96.82,2.07.82,3.35s-.28,2.39-.82,3.35c-.55.95-1.31,1.68-2.27,2.19-.96.51-2.05.76-3.27.76s-2.31-.25-3.28-.76-1.73-1.24-2.28-2.19c-.55-.95-.83-2.07-.83-3.35s.28-2.39.83-3.35c.55-.95,1.31-1.68,2.28-2.19.97-.51,2.06-.76,3.28-.76s2.31.25,3.27.76Zm-5.09,3.28c-.49.52-.74,1.27-.74,2.26s.25,1.73.74,2.24c.49.51,1.1.77,1.82.77s1.32-.26,1.8-.77c.48-.51.73-1.26.73-2.24s-.24-1.74-.73-2.26c-.48-.52-1.09-.78-1.8-.78s-1.32.26-1.82.78Z"></path>
      <path d="m359.24,154.36c.87.93,1.3,2.23,1.3,3.89v7.13h-3.74v-6.69c0-.78-.21-1.38-.63-1.82-.42-.43-.99-.65-1.71-.65s-1.34.23-1.77.69c-.43.46-.65,1.11-.65,1.95v6.52h-3.76v-6.69c0-.78-.21-1.38-.62-1.82-.41-.43-.98-.65-1.7-.65s-1.34.23-1.78.68-.66,1.11-.66,1.96v6.52h-3.77v-12.28h3.77v2.09c.32-.69.82-1.23,1.49-1.63.67-.4,1.45-.59,2.34-.59.94,0,1.77.22,2.49.65.72.43,1.26,1.05,1.63,1.86.43-.76,1.01-1.37,1.75-1.83.74-.45,1.56-.68,2.46-.68,1.51,0,2.7.47,3.57,1.4Z"></path>
      <path d="m363.32,148.22c.41-.37.95-.56,1.63-.56s1.22.19,1.63.56c.41.38.62.85.62,1.42s-.21,1.02-.62,1.4c-.41.37-.95.56-1.63.56s-1.22-.19-1.63-.56c-.41-.38-.62-.84-.62-1.4s.21-1.04.62-1.42Zm3.5,4.88v12.28h-3.76v-12.28h3.76Z"></path>
      <path d="m372.5,165.82c0,1.01-.27,1.85-.8,2.51s-1.37.99-2.5.99v-1.39c.39,0,.69-.09.87-.26.18-.18.28-.51.28-1.01v-.22h-1.61v-3.39h3.1c.44.85.66,1.78.66,2.77Z"></path>
      <path d="m36.19,177.89v2.99h-4.23v12.57h-3.79v-12.57h-4.18v-2.99h12.2Z"></path>
      <path d="m44.87,181.65c.67.43,1.17,1.01,1.5,1.74v-2.22h3.74v12.29h-3.74v-2.22c-.32.73-.82,1.31-1.5,1.74-.68.43-1.48.64-2.42.64-1.01,0-1.92-.25-2.72-.76-.8-.51-1.43-1.24-1.89-2.19-.46-.95-.69-2.07-.69-3.35s.23-2.41.69-3.36c.46-.95,1.09-1.67,1.89-2.18.8-.51,1.71-.76,2.72-.76.94,0,1.75.21,2.42.64Zm-3.16,3.46c-.49.53-.74,1.26-.74,2.2s.24,1.67.74,2.2,1.14.79,1.95.79,1.44-.27,1.95-.81c.51-.54.76-1.27.76-2.18s-.25-1.65-.76-2.19c-.51-.54-1.15-.8-1.95-.8s-1.46.26-1.95.79Z"></path>
      <path d="m56.47,177.16v16.29h-3.76v-16.29h3.76Z"></path>
      <path d="m70.62,187.99h-8.52c.04.93.28,1.59.71,1.99.42.4.97.61,1.63.61.56,0,1.02-.14,1.39-.42.37-.28.61-.64.73-1.08h3.98c-.16.87-.51,1.64-1.06,2.32-.54.68-1.23,1.22-2.07,1.61-.84.39-1.77.58-2.79.58-1.2,0-2.27-.25-3.2-.76-.93-.51-1.66-1.24-2.19-2.19-.53-.95-.79-2.07-.79-3.35s.26-2.41.78-3.36c.52-.95,1.25-1.67,2.19-2.18s2.01-.76,3.21-.76,2.29.25,3.21.75c.92.5,1.64,1.2,2.15,2.1.51.9.76,1.94.76,3.12,0,.31-.04.65-.11,1.01Zm-4.35-3.4c-.45-.4-1-.61-1.66-.61s-1.26.21-1.72.62c-.46.41-.71,1.01-.77,1.81h4.8c.02-.81-.2-1.41-.65-1.82Z"></path>
      <path d="m83.84,182.45c.83.94,1.24,2.23,1.24,3.88v7.13h-3.76v-6.69c0-.82-.22-1.46-.65-1.93-.43-.46-1.01-.69-1.73-.69-.76,0-1.37.24-1.82.73-.45.48-.67,1.17-.67,2.07v6.52h-3.77v-12.29h3.77v2.25c.35-.73.88-1.31,1.57-1.74.7-.42,1.52-.64,2.46-.64,1.41,0,2.53.47,3.36,1.41Z"></path>
      <path d="m94.66,181.65c.67.43,1.17,1.01,1.47,1.74v-6.23h3.77v16.29h-3.77v-2.22c-.31.73-.8,1.31-1.47,1.74-.68.43-1.48.64-2.42.64-1.01,0-1.92-.25-2.72-.76-.8-.51-1.43-1.24-1.89-2.19-.46-.95-.69-2.07-.69-3.35s.23-2.41.69-3.36c.46-.95,1.09-1.67,1.89-2.18.8-.51,1.71-.76,2.72-.76.94,0,1.75.21,2.42.64Zm-3.16,3.46c-.49.53-.74,1.26-.74,2.2s.24,1.67.74,2.2,1.14.79,1.95.79,1.44-.27,1.95-.81c.51-.54.76-1.27.76-2.18s-.25-1.65-.76-2.19c-.51-.54-1.15-.8-1.95-.8s-1.46.26-1.95.79Z"></path>
      <path d="m105.58,193.89c0,1.01-.27,1.85-.8,2.51-.54.66-1.37.99-2.5.99v-1.39c.4,0,.69-.09.87-.26s.28-.51.28-1.01v-.22h-1.61v-3.39h3.11c.44.85.66,1.78.66,2.77Z"></path>
      <path d="m122,182.23c.86.63,1.45,1.47,1.77,2.51v-3.3h1.52v12.02h-1.52v-3.3c-.32,1.04-.91,1.88-1.77,2.51s-1.9.95-3.12.95c-1.09,0-2.06-.25-2.92-.75-.86-.5-1.53-1.21-2-2.15-.48-.93-.72-2.02-.72-3.27s.24-2.36.72-3.29c.48-.93,1.14-1.64,1.99-2.13s1.83-.74,2.93-.74c1.22,0,2.26.32,3.12.95Zm-5.97,1.71c-.81.86-1.22,2.03-1.22,3.51s.41,2.65,1.22,3.51,1.9,1.29,3.25,1.29c.85,0,1.62-.2,2.3-.59.68-.4,1.22-.96,1.61-1.68.39-.73.58-1.57.58-2.52s-.19-1.79-.58-2.52c-.39-.73-.93-1.29-1.61-1.68-.68-.4-1.45-.59-2.3-.59-1.35,0-2.43.43-3.25,1.29Z"></path>
      <path d="m138.04,182.55c.87.89,1.31,2.19,1.31,3.91v7h-1.52v-6.89c0-1.31-.33-2.31-.99-3.01s-1.56-1.05-2.71-1.05c-1.2,0-2.16.39-2.87,1.16-.71.77-1.07,1.91-1.07,3.4v6.38h-1.56v-12.02h1.56v2.95c.31-1.03.87-1.81,1.67-2.36.81-.54,1.73-.81,2.78-.81,1.39,0,2.53.44,3.4,1.33Z"></path>
      <path d="m150.79,182.23c.86.63,1.44,1.47,1.75,2.51v-7.57h1.54v16.29h-1.54v-3.3c-.31,1.04-.89,1.88-1.75,2.51-.86.63-1.9.95-3.12.95-1.09,0-2.06-.25-2.92-.75s-1.53-1.21-2-2.15-.71-2.02-.71-3.27.24-2.36.71-3.29c.48-.93,1.14-1.64,1.99-2.13s1.83-.74,2.93-.74c1.22,0,2.26.32,3.12.95Zm-5.96,1.71c-.81.86-1.22,2.03-1.22,3.51s.41,2.65,1.22,3.51,1.9,1.29,3.25,1.29c.85,0,1.62-.2,2.3-.59.68-.4,1.22-.96,1.61-1.68s.58-1.57.58-2.52-.2-1.79-.58-2.52-.92-1.29-1.61-1.68c-.68-.4-1.45-.59-2.3-.59-1.35,0-2.43.43-3.25,1.29Z"></path>
      <path d="m180.28,178v15.46h-3.77v-9.67l-3.35,9.67h-3.26l-3.37-9.69v9.69h-3.76v-15.46h4.6l4.21,10.77,4.12-10.77h4.58Z"></path>
      <path d="m195.1,181.17v12.29h-3.79v-2.22c-.35.72-.88,1.29-1.57,1.72-.7.43-1.51.64-2.43.64-1.41,0-2.53-.47-3.36-1.41-.83-.94-1.24-2.23-1.24-3.88v-7.13h3.74v6.67c0,.84.22,1.49.65,1.95.43.46,1.02.69,1.75.69s1.37-.24,1.81-.73c.44-.48.66-1.17.66-2.07v-6.52h3.79Z"></path>
      <path d="m201.46,177.16v16.29h-3.76v-16.29h3.76Z"></path>
      <path d="m215.62,187.99h-8.52c.04.93.28,1.59.71,1.99.42.4.97.61,1.63.61.56,0,1.02-.14,1.39-.42.37-.28.61-.64.73-1.08h3.98c-.16.87-.51,1.64-1.06,2.32-.54.68-1.23,1.22-2.07,1.61-.84.39-1.77.58-2.79.58-1.2,0-2.27-.25-3.2-.76-.93-.51-1.66-1.24-2.19-2.19-.53-.95-.79-2.07-.79-3.35s.26-2.41.78-3.36c.52-.95,1.25-1.67,2.19-2.18s2.01-.76,3.21-.76,2.29.25,3.21.75c.92.5,1.64,1.2,2.15,2.1.51.9.76,1.94.76,3.12,0,.31-.04.65-.11,1.01Zm-4.35-3.4c-.45-.4-1-.61-1.66-.61s-1.26.21-1.72.62c-.46.41-.71,1.01-.77,1.81h4.8c.02-.81-.2-1.41-.65-1.82Z"></path>
      <path d="m225.88,182.18c.93.78,1.52,1.81,1.75,3.08h-3.52c-.1-.5-.33-.89-.69-1.18-.36-.29-.81-.43-1.36-.43-.43,0-.75.09-.97.28-.22.18-.33.44-.33.78,0,.38.2.67.61.86.4.19,1.04.38,1.9.57.94.22,1.71.44,2.31.67.6.23,1.12.6,1.56,1.11.44.51.66,1.2.66,2.07,0,.71-.19,1.33-.57,1.87-.38.54-.93.97-1.65,1.28s-1.57.46-2.55.46c-1.66,0-2.99-.37-3.98-1.1-1-.73-1.61-1.78-1.83-3.15h3.63c.06.53.28.93.67,1.21.39.28.89.42,1.51.42.43,0,.75-.1.97-.3.22-.2.33-.46.33-.78,0-.43-.2-.73-.61-.91-.4-.18-1.06-.38-1.97-.58-.91-.19-1.66-.4-2.25-.62-.59-.22-1.09-.58-1.52-1.07-.43-.49-.64-1.16-.64-2.01,0-1.1.42-1.99,1.26-2.68.84-.68,2.02-1.02,3.54-1.02s2.8.39,3.73,1.17Z"></path>
      <path d="m238.92,181.77c.96.51,1.72,1.24,2.27,2.19s.83,2.07.83,3.35-.28,2.39-.83,3.35c-.55.96-1.31,1.68-2.27,2.19-.96.51-2.05.76-3.27.76s-2.31-.25-3.28-.76c-.97-.51-1.73-1.24-2.28-2.19-.55-.95-.83-2.07-.83-3.35s.28-2.39.83-3.35,1.31-1.68,2.28-2.19,2.06-.76,3.28-.76,2.31.25,3.27.76Zm-5.09,3.28c-.49.52-.74,1.27-.74,2.26s.24,1.73.74,2.25c.49.51,1.1.77,1.82.77s1.32-.26,1.81-.77c.48-.51.73-1.26.73-2.25s-.24-1.74-.73-2.26-1.09-.78-1.81-.78-1.32.26-1.82.78Z"></path>
      <path d="m250,179.5c-.62,0-1.06.13-1.34.4-.28.26-.43.69-.46,1.28h2.22v3.17h-2.22v9.12h-3.76v-9.12h-1.48v-3.17h1.48v-.13c0-1.53.44-2.7,1.33-3.53.89-.83,2.18-1.24,3.87-1.24.35,0,.62,0,.79.02v3.24l-.42-.02Z"></path>
      <path d="m259.03,190.22v3.24h-1.7c-1.44,0-2.56-.36-3.36-1.07-.8-.71-1.2-1.89-1.2-3.53v-4.51h-1.65v-3.17h1.65v-3.02h3.77v3.02h2.46v3.17h-2.46v4.58c0,.48.1.82.3,1.01.2.19.53.29,1,.29h1.19Z"></path>
    </g>
    <polyline class="cls-2" points="32.27 4.74 4.2 4.74 4.2 64.46"></polyline>
    <polyline class="cls-2" points="200.17 211.71 426.28 211.71 426.28 155.05"></polyline>
    <g>
      <path class="cls-1" d="m23.3,25.23h10.71c7.71,0,13.01,4.65,13.01,11.79s-5.29,11.79-13.01,11.79h-10.71v-23.58Zm10.44,19.1c4.68,0,7.75-2.8,7.75-7.31s-3.07-7.31-7.75-7.31h-4.99v14.62h4.99Z"></path>
      <path class="cls-1" d="m66.32,43.76h-10.95l-2.09,5.05h-5.59l10.51-23.58h5.39l10.54,23.58h-5.73l-2.09-5.05Zm-1.72-4.14l-3.74-9.03-3.74,9.03h7.48Z"></path>
      <path class="cls-1" d="m80.3,29.68h-7.55v-4.45h20.55v4.45h-7.55v19.14h-5.46v-19.14Z"></path>
      <path class="cls-1" d="m110.59,43.76h-10.95l-2.09,5.05h-5.59l10.51-23.58h5.39l10.54,23.58h-5.73l-2.09-5.05Zm-1.72-4.14l-3.74-9.03-3.74,9.03h7.48Z"></path>
      <path class="cls-1" d="m148.66,44.44v4.38h-18.26v-23.58h17.82v4.38h-12.4v5.12h10.95v4.25h-10.95v5.46h12.84Z"></path>
      <path class="cls-1" d="m174.63,25.23v23.58h-4.48l-11.76-14.32v14.32h-5.39v-23.58h4.51l11.72,14.32v-14.32h5.39Z"></path>
      <path class="cls-1" d="m196.16,36.65h4.99v9.57c-2.59,1.95-6.17,3-9.54,3-7.41,0-12.87-5.09-12.87-12.2s5.46-12.2,12.97-12.2c4.14,0,7.58,1.42,9.87,4.08l-3.5,3.23c-1.72-1.82-3.71-2.66-6.1-2.66-4.58,0-7.71,3.07-7.71,7.55s3.13,7.55,7.65,7.55c1.48,0,2.87-.27,4.25-1.01v-6.91Z"></path>
      <path class="cls-1" d="m206.2,25.23h5.46v23.58h-5.46v-23.58Z"></path>
      <path class="cls-1" d="m238.88,25.23v23.58h-4.48l-11.76-14.32v14.32h-5.39v-23.58h4.51l11.72,14.32v-14.32h5.39Z"></path>
      <path class="cls-1" d="m262.73,44.44v4.38h-18.26v-23.58h17.82v4.38h-12.4v5.12h10.95v4.25h-10.95v5.46h12.84Z"></path>
      <path class="cls-1" d="m285.33,44.44v4.38h-18.26v-23.58h17.82v4.38h-12.4v5.12h10.95v4.25h-10.95v5.46h12.84Z"></path>
      <path class="cls-1" d="m304.7,48.82l-4.55-6.57h-5.02v6.57h-5.46v-23.58h10.21c6.3,0,10.24,3.27,10.24,8.56,0,3.54-1.79,6.13-4.85,7.45l5.29,7.58h-5.86Zm-5.12-19.14h-4.45v8.22h4.45c3.33,0,5.02-1.55,5.02-4.11s-1.69-4.11-5.02-4.11Z"></path>
      <path class="cls-1" d="m314.44,25.23h5.46v23.58h-5.46v-23.58Z"></path>
      <path class="cls-1" d="m347.12,25.23v23.58h-4.48l-11.76-14.32v14.32h-5.39v-23.58h4.52l11.72,14.32v-14.32h5.39Z"></path>
      <path class="cls-1" d="m368.64,36.65h4.99v9.57c-2.59,1.95-6.16,3-9.53,3-7.41,0-12.87-5.09-12.87-12.2s5.46-12.2,12.97-12.2c4.14,0,7.58,1.42,9.87,4.08l-3.5,3.23c-1.72-1.82-3.71-2.66-6.1-2.66-4.58,0-7.71,3.07-7.71,7.55s3.13,7.55,7.65,7.55c1.48,0,2.86-.27,4.24-1.01v-6.91Z"></path>
    </g>
    <g>
      <g>
        <g>
          <path d="m315.45,242.66v-7.32h1.36v6.17h3.82v1.15h-5.18Z"></path>
          <path d="m323.07,241.52h4.13v1.14h-5.49v-7.32h5.34v1.14h-3.98v5.04Zm-.11-3.13h3.64v1.12h-3.64v-1.12Z"></path>
          <path d="m327.67,242.66l3.29-7.32h1.34l3.3,7.32h-1.42l-2.83-6.59h.54l-2.82,6.59h-1.4Zm1.52-1.69l.37-1.07h3.95l.37,1.07h-4.68Z"></path>
          <path d="m336.54,242.66v-7.32h3.01c.65,0,1.2.1,1.67.31.46.21.82.51,1.07.9.25.39.38.85.38,1.39s-.12,1-.38,1.38c-.25.39-.61.68-1.07.89-.46.21-1.02.31-1.67.31h-2.26l.61-.62v2.75h-1.36Zm1.36-2.6l-.61-.65h2.2c.6,0,1.05-.13,1.35-.39.3-.26.46-.62.46-1.08s-.15-.83-.46-1.08c-.3-.25-.75-.38-1.35-.38h-2.2l.61-.67v4.23Zm3.43,2.6l-1.85-2.65h1.45l1.86,2.65h-1.46Z"></path>
          <path d="m344.18,242.66v-7.32h1.12l4.59,5.63h-.55v-5.63h1.35v7.32h-1.12l-4.59-5.63h.55v5.63h-1.35Z"></path>
          <path class="cls-1" d="m355.52,242.66v-7.32h1.12l3.2,5.34h-.59l3.15-5.34h1.12v7.32s-1.27,0-1.27,0v-5.3s.26,0,.26,0l-2.67,4.46h-.61l-2.72-4.46h.31v5.3h-1.3Z"></path>
          <path class="cls-1" d="m368.93,242.76c-.57,0-1.1-.09-1.58-.28s-.9-.45-1.25-.79c-.36-.34-.63-.74-.83-1.19-.19-.46-.29-.96-.29-1.5s.1-1.04.29-1.5c.2-.46.47-.85.83-1.19s.77-.6,1.25-.79c.48-.19,1-.28,1.57-.28s1.1.09,1.57.28c.48.19.89.45,1.25.79.36.34.63.74.83,1.19.2.46.29.96.29,1.5s-.1,1.04-.29,1.5c-.2.46-.47.86-.83,1.19-.35.33-.77.6-1.25.78s-1,.28-1.56.28Zm0-1.19c.37,0,.71-.06,1.02-.19.31-.13.59-.3.82-.54.23-.23.41-.5.54-.81.13-.31.19-.65.19-1.03s-.06-.72-.19-1.03c-.13-.31-.31-.58-.54-.82-.23-.23-.5-.41-.82-.54-.31-.12-.65-.19-1.02-.19s-.71.06-1.02.19-.58.3-.81.54c-.23.23-.41.5-.54.82-.13.31-.19.65-.19,1.03s.06.71.19,1.02c.13.31.31.59.54.82.23.23.5.41.81.54.31.12.66.19,1.03.19Z"></path>
          <path class="cls-1" d="m374.3,242.66v-7.32h3.01c.65,0,1.2.1,1.67.31.46.21.82.51,1.07.9.25.39.38.85.38,1.39s-.13,1-.38,1.38c-.25.39-.61.68-1.07.89-.46.21-1.02.31-1.67.31h-2.26l.61-.62v2.75h-1.36Zm1.36-2.6l-.61-.65h2.2c.6,0,1.05-.13,1.35-.39s.46-.62.46-1.08-.15-.83-.46-1.08c-.3-.25-.75-.38-1.35-.38h-2.2l.61-.67v4.23Zm3.43,2.6l-1.85-2.65h1.45l1.86,2.65h-1.46Z"></path>
          <path class="cls-1" d="m383.3,241.52h4.13v1.14h-5.49v-7.32h5.34v1.14h-3.98v5.04Zm-.11-3.13h3.64v1.12h-3.64v-1.12Z"></path>
        </g>
        <polygon class="cls-1" points="400.89 241.35 391.02 241.35 395.76 236.61 400.89 241.35"></polygon>
      </g>
      <g>
        <rect class="cls-3" x="288.95" y="221.13" width="138.31" height="36.44"></rect>
        <rect class="cls-3" x="291.49" y="223.68" width="133.22" height="31.74"></rect>
      </g>
    </g>
  </g>
</svg>
