<?xml version="1.0" encoding="UTF-8"?>
<svg xmlns="http://www.w3.org/2000/svg" id="Layer_7" data-name="Layer 7" viewBox="0 0 469.96 264.1">
  <defs>
    <style>
      .cls-1 {
        fill: #c64027;
      }

      .cls-2 {
        stroke-width: 4px;
      }

      .cls-2, .cls-3 {
        fill: none;
        stroke: #000;
        stroke-miterlimit: 10;
      }
    </style>
  </defs>
  <g id="Text">
    <polyline class="cls-2" points="32.04 4.06 4.2 4.06 4.2 63.28"></polyline>
    <polyline class="cls-2" points="238.42 212.02 462.66 212.02 462.66 155.83"></polyline>
    <g>
      <path class="cls-1" d="m22.41,21.68h10.7c7.71,0,12.99,4.65,12.99,11.78s-5.29,11.78-12.99,11.78h-10.7v-23.56Zm10.43,19.09c4.68,0,7.74-2.79,7.74-7.3s-3.06-7.3-7.74-7.3h-4.98v14.61h4.98Z"></path>
      <path class="cls-1" d="m65.4,40.19h-10.94l-2.09,5.05h-5.59l10.5-23.56h5.39l10.54,23.56h-5.72l-2.09-5.05Zm-1.72-4.14l-3.74-9.02-3.74,9.02h7.47Z"></path>
      <path class="cls-1" d="m79.37,26.12h-7.54v-4.44h20.53v4.44h-7.54v19.12h-5.45v-19.12Z"></path>
      <path class="cls-1" d="m109.63,40.19h-10.94l-2.09,5.05h-5.59l10.5-23.56h5.39l10.54,23.56h-5.72l-2.09-5.05Zm-1.72-4.14l-3.74-9.02-3.74,9.02h7.47Z"></path>
      <path class="cls-1" d="m127.58,42.92l1.85-4.11c1.99,1.45,4.95,2.46,7.78,2.46,3.23,0,4.54-1.08,4.54-2.52,0-4.41-13.7-1.38-13.7-10.13,0-4.01,3.23-7.34,9.93-7.34,2.96,0,5.99.71,8.18,2.09l-1.68,4.14c-2.19-1.25-4.44-1.85-6.53-1.85-3.23,0-4.48,1.21-4.48,2.69,0,4.34,13.7,1.35,13.7,10,0,3.94-3.27,7.3-10,7.3-3.74,0-7.51-1.11-9.59-2.73Z"></path>
      <path class="cls-1" d="m149.42,33.46c0-7.1,5.45-12.19,12.79-12.19,4.07,0,7.47,1.48,9.69,4.17l-3.5,3.23c-1.58-1.82-3.57-2.76-5.92-2.76-4.41,0-7.54,3.1-7.54,7.54s3.13,7.54,7.54,7.54c2.36,0,4.34-.94,5.92-2.79l3.5,3.23c-2.22,2.73-5.62,4.21-9.73,4.21-7.3,0-12.76-5.08-12.76-12.19Z"></path>
      <path class="cls-1" d="m175.58,21.68h5.45v23.56h-5.45v-23.56Z"></path>
      <path class="cls-1" d="m204.87,40.86v4.38h-18.24v-23.56h17.81v4.38h-12.39v5.12h10.94v4.24h-10.94v5.45h12.83Z"></path>
      <path class="cls-1" d="m230.82,21.68v23.56h-4.48l-11.75-14.31v14.31h-5.39v-23.56h4.51l11.71,14.31v-14.31h5.39Z"></path>
      <path class="cls-1" d="m234.93,33.46c0-7.1,5.45-12.19,12.79-12.19,4.07,0,7.47,1.48,9.69,4.17l-3.5,3.23c-1.58-1.82-3.57-2.76-5.92-2.76-4.41,0-7.54,3.1-7.54,7.54s3.13,7.54,7.54,7.54c2.36,0,4.34-.94,5.92-2.79l3.5,3.23c-2.22,2.73-5.62,4.21-9.73,4.21-7.3,0-12.76-5.08-12.76-12.19Z"></path>
      <path class="cls-1" d="m279.33,40.86v4.38h-18.24v-23.56h17.81v4.38h-12.39v5.12h10.94v4.24h-10.94v5.45h12.83Z"></path>
      <path class="cls-1" d="m291.35,42.92l1.85-4.11c1.99,1.45,4.95,2.46,7.78,2.46,3.23,0,4.54-1.08,4.54-2.52,0-4.41-13.7-1.38-13.7-10.13,0-4.01,3.23-7.34,9.93-7.34,2.96,0,5.99.71,8.18,2.09l-1.68,4.14c-2.19-1.25-4.44-1.85-6.53-1.85-3.23,0-4.48,1.21-4.48,2.69,0,4.34,13.7,1.35,13.7,10,0,3.94-3.27,7.3-10,7.3-3.74,0-7.51-1.11-9.59-2.73Z"></path>
      <path class="cls-1" d="m332.92,40.86v4.38h-18.24v-23.56h17.81v4.38h-12.39v5.12h10.94v4.24h-10.94v5.45h12.83Z"></path>
      <path class="cls-1" d="m352.28,45.24l-4.54-6.56h-5.02v6.56h-5.45v-23.56h10.2c6.29,0,10.23,3.27,10.23,8.55,0,3.53-1.78,6.13-4.85,7.44l5.29,7.57h-5.86Zm-5.12-19.12h-4.44v8.21h4.44c3.33,0,5.02-1.55,5.02-4.11s-1.68-4.11-5.02-4.11Z"></path>
      <path class="cls-1" d="m384.66,21.68l-10.2,23.56h-5.39l-10.17-23.56h5.89l7.17,16.83,7.27-16.83h5.42Z"></path>
      <path class="cls-1" d="m386.62,21.68h5.45v23.56h-5.45v-23.56Z"></path>
      <path class="cls-1" d="m396.18,33.46c0-7.1,5.45-12.19,12.79-12.19,4.07,0,7.47,1.48,9.69,4.17l-3.5,3.23c-1.58-1.82-3.57-2.76-5.92-2.76-4.41,0-7.54,3.1-7.54,7.54s3.13,7.54,7.54,7.54c2.36,0,4.34-.94,5.92-2.79l3.5,3.23c-2.22,2.73-5.62,4.21-9.73,4.21-7.3,0-12.76-5.08-12.76-12.19Z"></path>
      <path class="cls-1" d="m440.58,40.86v4.38h-18.24v-23.56h17.81v4.38h-12.39v5.12h10.94v4.24h-10.94v5.45h12.83Z"></path>
      <path class="cls-1" d="m443.07,42.92l1.85-4.11c1.99,1.45,4.95,2.46,7.78,2.46,3.23,0,4.54-1.08,4.54-2.52,0-4.41-13.7-1.38-13.7-10.13,0-4.01,3.23-7.34,9.93-7.34,2.96,0,5.99.71,8.18,2.09l-1.68,4.14c-2.19-1.25-4.44-1.85-6.53-1.85-3.23,0-4.48,1.21-4.48,2.69,0,4.34,13.7,1.35,13.7,10,0,3.94-3.27,7.3-10,7.3-3.74,0-7.51-1.11-9.59-2.73Z"></path>
    </g>
    <g>
      <path d="m32.39,66.04v2.47h-4.29v13.08h-3.1v-13.08h-4.27v-2.47h11.67Z"></path>
      <path d="m39.02,69.88c.75-.45,1.58-.67,2.51-.67v3.32h-.9c-2.28,0-3.41,1.06-3.41,3.17v5.88h-3.1v-12.2h3.1v2.33c.46-.78,1.06-1.39,1.81-1.84Z"></path>
      <path d="m50.66,69.96c.73.48,1.25,1.14,1.56,1.96v-2.53h3.08v12.2h-3.08v-2.55c-.31.82-.83,1.48-1.56,1.97-.73.49-1.61.74-2.64.74s-1.95-.25-2.77-.75-1.46-1.22-1.93-2.17c-.46-.95-.69-2.06-.69-3.33s.23-2.39.69-3.34c.46-.95,1.1-1.67,1.93-2.17s1.75-.75,2.77-.75,1.91.24,2.64.73Zm-4.01,2.93c-.59.63-.88,1.5-.88,2.6s.29,1.96.88,2.59c.59.62,1.37.94,2.33.94s1.71-.32,2.32-.96.91-1.49.91-2.56-.3-1.95-.91-2.59c-.61-.64-1.38-.96-2.32-.96s-1.75.32-2.33.95Z"></path>
      <path d="m68.76,70.6c.84.92,1.25,2.22,1.25,3.9v7.09h-3.08v-6.74c0-.97-.25-1.72-.75-2.26-.5-.54-1.18-.8-2.05-.8s-1.58.29-2.11.86c-.53.57-.79,1.39-.79,2.47v6.47h-3.1v-12.2h3.1v2.44c.32-.82.86-1.46,1.6-1.93.74-.46,1.6-.69,2.56-.69,1.41,0,2.53.46,3.37,1.39Z"></path>
      <path d="m80.52,70.35c.89.75,1.45,1.75,1.67,2.99h-2.91c-.12-.59-.38-1.06-.79-1.41-.41-.35-.95-.53-1.61-.53-.53,0-.94.12-1.23.37-.29.25-.44.59-.44,1.01,0,.34.12.61.35.81.24.21.53.37.88.48.35.12.86.26,1.52.42.92.21,1.68.42,2.26.65.58.23,1.08.59,1.5,1.08.42.49.63,1.16.63,1.99,0,1.04-.41,1.89-1.22,2.53-.81.65-1.91.97-3.29.97-1.58,0-2.85-.36-3.81-1.07s-1.53-1.73-1.74-3.05h2.97c.07.6.34,1.08.79,1.42.46.35,1.05.52,1.78.52.53,0,.93-.13,1.21-.38.28-.26.42-.59.42-1,0-.35-.12-.64-.36-.86-.24-.22-.54-.39-.9-.51-.36-.12-.87-.26-1.53-.42-.91-.21-1.65-.42-2.21-.63-.57-.21-1.05-.55-1.45-1.02s-.61-1.12-.61-1.94c0-1.06.4-1.92,1.21-2.58.81-.66,1.92-.99,3.35-.99s2.67.37,3.57,1.12Z"></path>
      <path d="m88.77,67.67c-.37.32-.55.89-.55,1.69v.02h2.47v2.62h-2.47v9.58h-3.1v-9.58h-1.56v-2.62h1.56v-.29c0-1.45.42-2.57,1.24-3.36s2.06-1.18,3.69-1.18c.28,0,.49,0,.64.02v2.69c-.91-.06-1.55.07-1.92.4Z"></path>
      <path d="m101.37,69.98c.95.5,1.69,1.22,2.23,2.17.54.95.82,2.06.82,3.34s-.27,2.38-.82,3.32-1.29,1.66-2.23,2.17c-.95.51-2.01.76-3.2.76s-2.26-.25-3.2-.76c-.95-.51-1.69-1.23-2.23-2.17s-.81-2.05-.81-3.32.27-2.39.81-3.34c.54-.95,1.29-1.67,2.23-2.17s2.01-.75,3.2-.75,2.26.25,3.2.75Zm-5.4,2.85c-.6.61-.9,1.49-.9,2.65s.3,2.04.9,2.65c.6.61,1.33.91,2.2.91s1.6-.3,2.2-.91c.6-.61.9-1.49.9-2.65s-.3-2.04-.9-2.65c-.6-.61-1.33-.91-2.2-.91s-1.6.31-2.2.91Z"></path>
      <path d="m111.53,69.88c.75-.45,1.58-.67,2.51-.67v3.32h-.9c-2.28,0-3.41,1.06-3.41,3.17v5.88h-3.1v-12.2h3.1v2.33c.46-.78,1.06-1.39,1.81-1.84Z"></path>
      <path d="m134.79,70.59c.86.92,1.29,2.22,1.29,3.91v7.09h-3.08v-6.74c0-.94-.24-1.66-.72-2.17-.48-.51-1.13-.76-1.97-.76s-1.56.27-2.07.82-.77,1.33-.77,2.38v6.47h-3.08v-6.74c0-.94-.24-1.66-.72-2.17-.48-.51-1.13-.76-1.97-.76s-1.56.27-2.07.82c-.51.54-.77,1.33-.77,2.38v6.47h-3.1v-12.2h3.1v2.31c.32-.79.83-1.41,1.53-1.84s1.51-.65,2.43-.65c.98,0,1.84.23,2.57.7s1.27,1.14,1.64,2.03c.38-.84.95-1.5,1.71-1.99s1.6-.74,2.54-.74c1.48,0,2.65.46,3.51,1.38Z"></path>
      <path d="m138.99,64.66c.35-.32.81-.47,1.39-.47s1.04.16,1.39.47c.35.32.53.72.53,1.22s-.18.88-.53,1.2c-.35.32-.81.47-1.39.47s-1.03-.16-1.39-.47-.53-.72-.53-1.2.18-.91.53-1.22Zm2.93,4.72v12.2h-3.1v-12.2h3.1Z"></path>
      <path d="m155.37,70.6c.84.92,1.25,2.22,1.25,3.9v7.09h-3.08v-6.74c0-.97-.25-1.72-.75-2.26-.5-.54-1.18-.8-2.05-.8s-1.58.29-2.11.86c-.53.57-.79,1.39-.79,2.47v6.47h-3.1v-12.2h3.1v2.44c.32-.82.86-1.46,1.6-1.93.74-.46,1.6-.69,2.56-.69,1.41,0,2.53.46,3.37,1.39Z"></path>
      <path d="m166.77,69.96c.73.48,1.25,1.14,1.56,1.96v-2.53h3.08v12.24c0,1.13-.22,2.15-.67,3.05-.45.9-1.12,1.61-2,2.12-.89.51-1.96.77-3.23.77-1.76,0-3.18-.42-4.27-1.25-1.09-.84-1.75-1.97-1.98-3.41h3.06c.18.62.52,1.1,1.02,1.44.51.34,1.16.52,1.95.52.91,0,1.64-.27,2.2-.8.56-.54.84-1.35.84-2.43v-2.6c-.31.82-.83,1.48-1.56,1.97-.73.49-1.61.74-2.64.74s-1.95-.25-2.77-.75-1.46-1.22-1.93-2.17c-.46-.95-.69-2.06-.69-3.33s.23-2.39.69-3.34c.46-.95,1.1-1.67,1.93-2.17s1.75-.75,2.77-.75,1.91.24,2.64.73Zm-4.01,2.93c-.59.63-.88,1.5-.88,2.6s.29,1.96.88,2.59c.59.62,1.37.94,2.33.94s1.71-.32,2.32-.96.91-1.49.91-2.56-.3-1.95-.91-2.59c-.61-.64-1.38-.96-2.32-.96s-1.75.32-2.33.95Z"></path>
      <path d="m191.56,66.04l-5.26,10.11v5.44h-3.13v-5.44l-5.28-10.11h3.57l3.3,6.8,3.3-6.8h3.5Z"></path>
      <path d="m202.07,69.98c.95.5,1.69,1.22,2.23,2.17.54.95.82,2.06.82,3.34s-.27,2.38-.82,3.32-1.29,1.66-2.23,2.17c-.95.51-2.01.76-3.2.76s-2.26-.25-3.2-.76c-.95-.51-1.69-1.23-2.23-2.17s-.81-2.05-.81-3.32.27-2.39.81-3.34c.54-.95,1.29-1.67,2.23-2.17s2.01-.75,3.2-.75,2.26.25,3.2.75Zm-5.4,2.85c-.6.61-.9,1.49-.9,2.65s.3,2.04.9,2.65c.6.61,1.33.91,2.2.91s1.6-.3,2.2-.91c.6-.61.9-1.49.9-2.65s-.3-2.04-.9-2.65c-.6-.61-1.33-.91-2.2-.91s-1.6.31-2.2.91Z"></path>
      <path d="m218.99,69.39v12.2h-3.1v-2.47c-.32.82-.85,1.46-1.6,1.93s-1.6.69-2.56.69c-1.41,0-2.53-.46-3.37-1.39-.84-.92-1.25-2.22-1.25-3.88v-7.09h3.08v6.74c0,.97.25,1.72.75,2.26.5.54,1.17.8,2.03.8.9,0,1.61-.29,2.14-.86s.79-1.39.79-2.47v-6.47h3.1Z"></path>
      <path d="m226.72,69.88c.75-.45,1.58-.67,2.51-.67v3.32h-.9c-2.28,0-3.41,1.06-3.41,3.17v5.88h-3.1v-12.2h3.1v2.33c.46-.78,1.06-1.39,1.81-1.84Z"></path>
      <path d="m248.45,77.86c-.65,1.17-1.58,2.09-2.81,2.74s-2.68.98-4.37.98h-5.53v-15.54h5.53c1.69,0,3.14.32,4.37.96s2.16,1.54,2.81,2.71c.65,1.17.97,2.53.97,4.08s-.32,2.9-.97,4.07Zm-3.56-.37c.92-.88,1.38-2.11,1.38-3.7s-.46-2.84-1.38-3.72c-.92-.88-2.21-1.32-3.89-1.32h-2.16v10.06h2.16c1.67,0,2.97-.44,3.89-1.32Z"></path>
      <path d="m259.17,69.96c.73.48,1.25,1.14,1.56,1.96v-2.53h3.08v12.2h-3.08v-2.55c-.31.82-.83,1.48-1.56,1.97-.73.49-1.61.74-2.64.74s-1.95-.25-2.77-.75-1.46-1.22-1.93-2.17c-.46-.95-.69-2.06-.69-3.33s.23-2.39.69-3.34c.46-.95,1.1-1.67,1.93-2.17s1.75-.75,2.77-.75,1.91.24,2.64.73Zm-4.01,2.93c-.59.63-.88,1.5-.88,2.6s.29,1.96.88,2.59c.59.62,1.37.94,2.33.94s1.71-.32,2.32-.96.91-1.49.91-2.56-.3-1.95-.91-2.59c-.61-.64-1.38-.96-2.32-.96s-1.75.32-2.33.95Z"></path>
      <path d="m273.15,78.92v2.66h-1.63c-1.37,0-2.41-.33-3.14-.99-.73-.66-1.09-1.76-1.09-3.3v-5.28h-1.7v-2.62h1.7v-3.02h3.1v3.02h2.73v2.62h-2.73v5.33c0,.59.12,1,.35,1.23.23.23.63.35,1.19.35h1.21Z"></path>
      <path d="m282.79,69.96c.73.48,1.25,1.14,1.56,1.96v-2.53h3.08v12.2h-3.08v-2.55c-.31.82-.83,1.48-1.56,1.97-.73.49-1.61.74-2.64.74s-1.95-.25-2.77-.75-1.46-1.22-1.93-2.17c-.46-.95-.69-2.06-.69-3.33s.23-2.39.69-3.34c.46-.95,1.1-1.67,1.93-2.17s1.75-.75,2.77-.75,1.91.24,2.64.73Zm-4.01,2.93c-.59.63-.88,1.5-.88,2.6s.29,1.96.88,2.59c.59.62,1.37.94,2.33.94s1.71-.32,2.32-.96.91-1.49.91-2.56-.3-1.95-.91-2.59c-.61-.64-1.38-.96-2.32-.96s-1.75.32-2.33.95Z"></path>
      <path d="m295.23,64.66c.35-.32.81-.47,1.39-.47s1.04.16,1.39.47c.35.32.53.72.53,1.22s-.18.88-.53,1.2c-.35.32-.81.47-1.39.47s-1.03-.16-1.39-.47-.53-.72-.53-1.2.18-.91.53-1.22Zm2.93,4.72v12.2h-3.1v-12.2h3.1Z"></path>
      <path d="m311.61,70.6c.84.92,1.25,2.22,1.25,3.9v7.09h-3.08v-6.74c0-.97-.25-1.72-.75-2.26-.5-.54-1.18-.8-2.05-.8s-1.58.29-2.11.86c-.53.57-.79,1.39-.79,2.47v6.47h-3.1v-12.2h3.1v2.44c.32-.82.86-1.46,1.6-1.93.74-.46,1.6-.69,2.56-.69,1.41,0,2.53.46,3.37,1.39Z"></path>
      <path d="m322.11,78.92v2.66h-1.63c-1.37,0-2.41-.33-3.14-.99-.73-.66-1.09-1.76-1.09-3.3v-5.28h-1.7v-2.62h1.7v-3.02h3.1v3.02h2.73v2.62h-2.73v5.33c0,.59.12,1,.35,1.23.23.23.63.35,1.19.35h1.21Z"></path>
      <path d="m333.17,69.98c.95.5,1.69,1.22,2.23,2.17.54.95.82,2.06.82,3.34s-.27,2.38-.82,3.32-1.29,1.66-2.23,2.17c-.95.51-2.01.76-3.2.76s-2.26-.25-3.2-.76c-.95-.51-1.69-1.23-2.23-2.17s-.81-2.05-.81-3.32.27-2.39.81-3.34c.54-.95,1.29-1.67,2.23-2.17s2.01-.75,3.2-.75,2.26.25,3.2.75Zm-5.4,2.85c-.6.61-.9,1.49-.9,2.65s.3,2.04.9,2.65c.6.61,1.33.91,2.2.91s1.6-.3,2.2-.91c.6-.61.9-1.49.9-2.65s-.3-2.04-.9-2.65c-.6-.61-1.33-.91-2.2-.91s-1.6.31-2.2.91Z"></path>
      <path d="m24.93,93.88v15.54h-3.1v-15.54h3.1Z"></path>
      <path d="m38.38,98.44c.84.92,1.25,2.22,1.25,3.9v7.09h-3.08v-6.74c0-.97-.25-1.72-.75-2.26-.5-.54-1.18-.8-2.05-.8s-1.58.29-2.11.86-.79,1.39-.79,2.47v6.47h-3.1v-12.2h3.1v2.44c.32-.82.86-1.46,1.6-1.93.74-.46,1.6-.69,2.56-.69,1.41,0,2.53.46,3.37,1.39Z"></path>
      <path d="m48.88,106.76v2.66h-1.63c-1.37,0-2.41-.33-3.14-.99-.73-.66-1.09-1.76-1.09-3.3v-5.28h-1.7v-2.62h1.7v-3.02h3.1v3.02h2.73v2.62h-2.73v5.33c0,.59.12,1,.35,1.23.23.24.63.35,1.19.35h1.21Z"></path>
      <path d="m62.46,103.92h-8.94c.04,1.09.34,1.89.88,2.4s1.22.77,2.03.77c.72,0,1.32-.18,1.79-.53.48-.35.78-.83.91-1.43h3.28c-.16.85-.51,1.61-1.03,2.29-.53.68-1.21,1.2-2.04,1.58-.83.38-1.75.57-2.76.57-1.19,0-2.25-.25-3.17-.76-.92-.51-1.64-1.23-2.16-2.17-.51-.94-.77-2.05-.77-3.32s.26-2.39.77-3.33c.51-.95,1.23-1.67,2.16-2.17s1.98-.75,3.17-.75,2.26.25,3.16.75c.9.5,1.6,1.19,2.09,2.06.49.87.74,1.87.74,2.98,0,.31-.04.66-.11,1.06Zm-3.8-3.63c-.57-.51-1.26-.77-2.08-.77s-1.54.26-2.11.77-.89,1.27-.95,2.27h5.92c.04-1-.22-1.75-.78-2.27Z"></path>
      <path d="m67.88,93.13v16.29h-3.1v-16.29h3.1Z"></path>
      <path d="m73.8,93.13v16.29h-3.1v-16.29h3.1Z"></path>
      <path d="m76.79,92.5c.35-.32.81-.47,1.39-.47s1.04.16,1.39.47c.35.32.53.72.53,1.22s-.18.88-.53,1.2c-.35.32-.81.47-1.39.47s-1.03-.16-1.39-.47-.53-.72-.53-1.2.18-.91.53-1.22Zm2.93,4.72v12.2h-3.1v-12.2h3.1Z"></path>
      <path d="m89.96,97.8c.73.48,1.25,1.14,1.56,1.96v-2.53h3.08v12.24c0,1.13-.22,2.15-.67,3.05-.45.9-1.12,1.61-2,2.12-.89.51-1.96.77-3.23.77-1.76,0-3.18-.42-4.27-1.25-1.09-.84-1.75-1.97-1.98-3.41h3.06c.18.62.52,1.1,1.02,1.44.51.34,1.16.52,1.95.52.91,0,1.64-.27,2.2-.8.56-.54.84-1.35.84-2.43v-2.6c-.31.82-.83,1.48-1.56,1.97-.73.49-1.61.74-2.64.74s-1.95-.25-2.77-.75-1.46-1.22-1.93-2.17c-.46-.95-.69-2.06-.69-3.33s.23-2.39.69-3.33c.46-.95,1.1-1.67,1.93-2.17s1.75-.75,2.77-.75,1.91.24,2.64.73Zm-4.01,2.93c-.59.63-.88,1.5-.88,2.6s.29,1.96.88,2.59,1.37.94,2.33.94,1.71-.32,2.32-.96c.61-.64.91-1.49.91-2.56s-.3-1.95-.91-2.59-1.38-.96-2.32-.96-1.75.32-2.33.95Z"></path>
      <path d="m108.78,103.92h-8.94c.04,1.09.34,1.89.88,2.4s1.22.77,2.03.77c.72,0,1.32-.18,1.79-.53.48-.35.78-.83.91-1.43h3.28c-.16.85-.51,1.61-1.03,2.29-.53.68-1.21,1.2-2.04,1.58-.83.38-1.75.57-2.76.57-1.19,0-2.25-.25-3.17-.76-.92-.51-1.64-1.23-2.16-2.17-.51-.94-.77-2.05-.77-3.32s.26-2.39.77-3.33c.51-.95,1.23-1.67,2.16-2.17s1.98-.75,3.17-.75,2.26.25,3.16.75c.9.5,1.6,1.19,2.09,2.06.49.87.74,1.87.74,2.98,0,.31-.04.66-.11,1.06Zm-3.8-3.63c-.57-.51-1.26-.77-2.08-.77s-1.54.26-2.11.77-.89,1.27-.95,2.27h5.92c.04-1-.22-1.75-.78-2.27Z"></path>
      <path d="m121.73,98.44c.84.92,1.25,2.22,1.25,3.9v7.09h-3.08v-6.74c0-.97-.25-1.72-.75-2.26-.5-.54-1.18-.8-2.05-.8s-1.58.29-2.11.86-.79,1.39-.79,2.47v6.47h-3.1v-12.2h3.1v2.44c.32-.82.86-1.46,1.6-1.93.74-.46,1.6-.69,2.56-.69,1.41,0,2.53.46,3.37,1.39Z"></path>
      <path d="m132.23,106.76v2.66h-1.63c-1.37,0-2.41-.33-3.14-.99-.73-.66-1.09-1.76-1.09-3.3v-5.28h-1.7v-2.62h1.7v-3.02h3.1v3.02h2.73v2.62h-2.73v5.33c0,.59.12,1,.35,1.23.23.24.63.35,1.19.35h1.21Z"></path>
      <path d="m142.35,93.88v15.54h-3.1v-15.54h3.1Z"></path>
      <path d="m155.81,98.44c.84.92,1.25,2.22,1.25,3.9v7.09h-3.08v-6.74c0-.97-.25-1.72-.75-2.26-.5-.54-1.18-.8-2.05-.8s-1.58.29-2.11.86-.79,1.39-.79,2.47v6.47h-3.1v-12.2h3.1v2.44c.32-.82.86-1.46,1.6-1.93.74-.46,1.6-.69,2.56-.69,1.41,0,2.53.46,3.37,1.39Z"></path>
      <path d="m167.56,98.19c.89.75,1.45,1.75,1.67,2.99h-2.91c-.12-.59-.38-1.06-.79-1.41-.41-.35-.95-.53-1.61-.53-.53,0-.94.12-1.23.38-.29.25-.44.59-.44,1.01,0,.34.12.61.35.81.24.21.53.37.88.48s.86.26,1.52.42c.92.21,1.68.42,2.26.65.58.23,1.08.59,1.5,1.08.42.49.63,1.16.63,1.99,0,1.04-.41,1.89-1.22,2.53-.81.65-1.91.97-3.29.97-1.58,0-2.85-.36-3.81-1.07s-1.53-1.73-1.74-3.05h2.97c.07.6.34,1.08.79,1.42s1.05.52,1.78.52c.53,0,.93-.13,1.21-.39.28-.26.42-.59.42-1,0-.35-.12-.64-.36-.86-.24-.22-.54-.39-.9-.51-.36-.12-.87-.26-1.53-.42-.91-.21-1.65-.41-2.21-.63-.57-.21-1.05-.55-1.45-1.02s-.61-1.12-.61-1.94c0-1.06.4-1.92,1.21-2.58.81-.66,1.92-.99,3.35-.99s2.67.37,3.57,1.12Z"></path>
      <path d="m171.88,92.5c.35-.32.81-.47,1.39-.47s1.04.16,1.39.47c.35.32.53.72.53,1.22s-.18.88-.53,1.2c-.35.32-.81.47-1.39.47s-1.03-.16-1.39-.47-.53-.72-.53-1.2.18-.91.53-1.22Zm2.93,4.72v12.2h-3.1v-12.2h3.1Z"></path>
      <path d="m185.04,97.8c.73.48,1.25,1.14,1.56,1.96v-2.53h3.08v12.24c0,1.13-.22,2.15-.67,3.05-.45.9-1.12,1.61-2,2.12-.89.51-1.96.77-3.23.77-1.76,0-3.18-.42-4.27-1.25-1.09-.84-1.75-1.97-1.98-3.41h3.06c.18.62.52,1.1,1.02,1.44.51.34,1.16.52,1.95.52.91,0,1.64-.27,2.2-.8.56-.54.84-1.35.84-2.43v-2.6c-.31.82-.83,1.48-1.56,1.97-.73.49-1.61.74-2.64.74s-1.95-.25-2.77-.75-1.46-1.22-1.93-2.17c-.46-.95-.69-2.06-.69-3.33s.23-2.39.69-3.33c.46-.95,1.1-1.67,1.93-2.17s1.75-.75,2.77-.75,1.91.24,2.64.73Zm-4.01,2.93c-.59.63-.88,1.5-.88,2.6s.29,1.96.88,2.59,1.37.94,2.33.94,1.71-.32,2.32-.96c.61-.64.91-1.49.91-2.56s-.3-1.95-.91-2.59-1.38-.96-2.32-.96-1.75.32-2.33.95Z"></path>
      <path d="m203.14,98.44c.84.92,1.25,2.22,1.25,3.9v7.09h-3.08v-6.74c0-.97-.25-1.72-.75-2.26-.5-.54-1.18-.8-2.05-.8s-1.58.29-2.11.86-.79,1.39-.79,2.47v6.47h-3.1v-16.29h3.1v6.54c.32-.82.86-1.46,1.6-1.93.74-.46,1.6-.69,2.56-.69,1.41,0,2.53.46,3.37,1.39Z"></path>
      <path d="m213.64,106.76v2.66h-1.63c-1.37,0-2.41-.33-3.14-.99-.73-.66-1.09-1.76-1.09-3.3v-5.28h-1.7v-2.62h1.7v-3.02h3.1v3.02h2.73v2.62h-2.73v5.33c0,.59.12,1,.35,1.23.23.24.63.35,1.19.35h1.21Z"></path>
      <path d="m223.63,98.19c.89.75,1.45,1.75,1.67,2.99h-2.91c-.12-.59-.38-1.06-.79-1.41-.41-.35-.95-.53-1.61-.53-.53,0-.94.12-1.23.38-.29.25-.44.59-.44,1.01,0,.34.12.61.35.81.24.21.53.37.88.48s.86.26,1.52.42c.92.21,1.68.42,2.26.65.58.23,1.08.59,1.5,1.08.42.49.63,1.16.63,1.99,0,1.04-.41,1.89-1.22,2.53-.81.65-1.91.97-3.29.97-1.58,0-2.85-.36-3.81-1.07s-1.53-1.73-1.74-3.05h2.97c.07.6.34,1.08.79,1.42s1.05.52,1.78.52c.53,0,.93-.13,1.21-.39.28-.26.42-.59.42-1,0-.35-.12-.64-.36-.86-.24-.22-.54-.39-.9-.51-.36-.12-.87-.26-1.53-.42-.91-.21-1.65-.41-2.21-.63-.57-.21-1.05-.55-1.45-1.02s-.61-1.12-.61-1.94c0-1.06.4-1.92,1.21-2.58.81-.66,1.92-.99,3.35-.99s2.67.37,3.57,1.12Z"></path>
      <path d="m235.41,95.53v5.31h5.9v1.54h-5.9v5.42h6.56v1.63h-8.56v-15.52h8.56v1.63h-6.56Z"></path>
      <path d="m251.51,109.42l-3.15-4.62-2.84,4.62h-2.22l3.96-6.23-3.99-5.86h2.29l3.06,4.49,2.8-4.49h2.22l-3.94,6.08,4.09,6.01h-2.29Z"></path>
      <path d="m265.2,97.93c.84.5,1.49,1.22,1.97,2.16.48.94.72,2.04.72,3.3s-.24,2.36-.72,3.29c-.48.93-1.13,1.65-1.97,2.15-.84.5-1.79.75-2.86.75-1.17,0-2.17-.3-2.98-.89-.81-.59-1.38-1.38-1.68-2.34v8.81h-2v-17.81h2v3.08c.31-.97.87-1.75,1.68-2.34.81-.59,1.81-.89,2.98-.89,1.07,0,2.03.25,2.86.75Zm-5.55,1.57c-.63.36-1.12.88-1.47,1.55-.35.68-.53,1.45-.53,2.33s.18,1.65.53,2.32c.35.67.84,1.19,1.47,1.55.63.37,1.34.55,2.11.55,1.25,0,2.24-.39,2.98-1.18s1.11-1.87,1.11-3.25-.37-2.46-1.11-3.25-1.74-1.18-2.98-1.18c-.78,0-1.48.18-2.11.54Z"></path>
      <path d="m281.53,103.81h-9.67c.04,1.38.44,2.41,1.18,3.1.74.69,1.65,1.03,2.72,1.03.97,0,1.78-.25,2.43-.74.65-.49,1.05-1.15,1.2-1.97h2.14c-.15.84-.47,1.59-.98,2.25-.51.66-1.16,1.17-1.97,1.54-.81.37-1.72.55-2.73.55-1.16,0-2.19-.25-3.08-.75-.9-.5-1.6-1.21-2.1-2.15-.51-.93-.76-2.03-.76-3.29s.25-2.36.76-3.3c.51-.94,1.21-1.66,2.1-2.16.89-.5,1.92-.75,3.08-.75s2.2.25,3.07.75c.87.5,1.54,1.17,2,2,.46.84.69,1.76.69,2.77,0,.43-.03.79-.09,1.1Zm-2.38-3.21c-.34-.6-.8-1.05-1.39-1.34-.59-.29-1.23-.44-1.92-.44-1.1,0-2.03.34-2.77,1.02-.75.68-1.15,1.68-1.21,3h7.73c.04-.89-.1-1.64-.44-2.25Z"></path>
      <path d="m287.98,97.83c.76-.46,1.67-.69,2.73-.69v2.18h-.62c-1.13,0-2.05.29-2.77.87-.72.58-1.08,1.54-1.08,2.87v6.36h-2v-12.09h2v2.44c.4-.84.98-1.49,1.74-1.95Z"></path>
      <path d="m292.72,92.9c.25-.23.58-.34.99-.34s.74.11.99.34.37.52.37.89-.12.66-.37.89-.58.34-.99.34-.74-.11-.99-.34c-.25-.23-.37-.53-.37-.89s.12-.66.37-.89Zm1.98,4.44v12.09h-2v-12.09h2Z"></path>
      <path d="m308.94,103.81h-9.67c.04,1.38.44,2.41,1.18,3.1.74.69,1.65,1.03,2.72,1.03.97,0,1.78-.25,2.43-.74.65-.49,1.05-1.15,1.2-1.97h2.14c-.15.84-.47,1.59-.98,2.25-.51.66-1.16,1.17-1.97,1.54-.81.37-1.72.55-2.73.55-1.16,0-2.19-.25-3.08-.75-.9-.5-1.6-1.21-2.1-2.15-.51-.93-.76-2.03-.76-3.29s.25-2.36.76-3.3c.51-.94,1.21-1.66,2.1-2.16.89-.5,1.92-.75,3.08-.75s2.2.25,3.07.75c.87.5,1.54,1.17,2,2,.46.84.69,1.76.69,2.77,0,.43-.03.79-.09,1.1Zm-2.38-3.21c-.34-.6-.8-1.05-1.39-1.34-.59-.29-1.23-.44-1.92-.44-1.1,0-2.03.34-2.77,1.02-.75.68-1.15,1.68-1.21,3h7.73c.04-.89-.1-1.64-.44-2.25Z"></path>
      <path d="m321.42,98.49c.87.9,1.3,2.21,1.3,3.91v7.02h-2v-6.85c0-1.2-.31-2.13-.92-2.77-.62-.65-1.45-.97-2.51-.97s-1.98.36-2.64,1.07c-.66.71-.99,1.75-.99,3.11v6.41h-2v-12.09h2v2.86c.31-.98.86-1.74,1.64-2.27s1.69-.79,2.72-.79c1.41,0,2.55.45,3.41,1.35Z"></path>
      <path d="m334.99,98.41c1.01.82,1.64,1.92,1.87,3.3h-2.11c-.15-.87-.55-1.54-1.2-2.04-.65-.49-1.46-.74-2.43-.74-.71,0-1.35.16-1.93.48s-1.05.82-1.4,1.49c-.35.67-.53,1.49-.53,2.48s.18,1.81.53,2.48c.35.67.82,1.16,1.4,1.49.58.32,1.22.48,1.93.48.97,0,1.78-.25,2.43-.75.65-.5,1.05-1.18,1.2-2.05h2.11c-.24,1.39-.86,2.5-1.87,3.31-1.01.81-2.29,1.22-3.83,1.22-1.16,0-2.19-.25-3.08-.75-.9-.5-1.6-1.21-2.1-2.15-.51-.93-.76-2.03-.76-3.29s.25-2.36.76-3.3c.51-.94,1.21-1.66,2.1-2.16.89-.5,1.92-.75,3.08-.75,1.54,0,2.82.41,3.83,1.23Z"></path>
      <path d="m350.51,103.81h-9.67c.04,1.38.44,2.41,1.18,3.1.74.69,1.65,1.03,2.72,1.03.97,0,1.78-.25,2.43-.74.65-.49,1.05-1.15,1.2-1.97h2.14c-.15.84-.47,1.59-.98,2.25-.51.66-1.16,1.17-1.97,1.54-.81.37-1.72.55-2.73.55-1.16,0-2.19-.25-3.08-.75-.9-.5-1.6-1.21-2.1-2.15-.51-.93-.76-2.03-.76-3.29s.25-2.36.76-3.3c.51-.94,1.21-1.66,2.1-2.16.89-.5,1.92-.75,3.08-.75s2.2.25,3.07.75c.87.5,1.54,1.17,2,2,.46.84.69,1.76.69,2.77,0,.43-.03.79-.09,1.1Zm-2.38-3.21c-.34-.6-.8-1.05-1.39-1.34-.59-.29-1.23-.44-1.92-.44-1.1,0-2.03.34-2.77,1.02-.75.68-1.15,1.68-1.21,3h7.73c.04-.89-.1-1.64-.44-2.25Z"></path>
      <path d="m367.25,97.93c.92.5,1.64,1.22,2.16,2.16.52.94.78,2.04.78,3.3s-.26,2.36-.78,3.29c-.52.93-1.24,1.65-2.16,2.15s-1.96.75-3.12.75-2.2-.25-3.12-.75-1.64-1.21-2.17-2.15c-.53-.93-.79-2.03-.79-3.29s.26-2.36.79-3.3c.53-.94,1.25-1.66,2.17-2.16s1.96-.75,3.12-.75,2.2.25,3.12.75Zm-5.11,1.5c-.61.32-1.1.82-1.48,1.49-.37.67-.56,1.49-.56,2.48s.19,1.79.56,2.45c.38.67.87,1.16,1.48,1.49.61.32,1.27.48,1.99.48s1.38-.16,1.99-.48c.61-.32,1.1-.82,1.48-1.49.37-.67.56-1.49.56-2.45s-.19-1.81-.56-2.48-.87-1.16-1.48-1.49c-.61-.32-1.27-.48-1.99-.48s-1.38.16-1.99.48Z"></path>
      <path d="m383.55,97.33v12.09h-2v-2.84c-.31.98-.86,1.74-1.64,2.26-.79.52-1.7.78-2.74.78-1.39,0-2.52-.45-3.39-1.35-.87-.9-1.3-2.2-1.3-3.89v-7.04h2v6.85c0,1.2.31,2.13.92,2.79.62.65,1.45.98,2.51.98s1.98-.36,2.64-1.07.99-1.75.99-3.12v-6.43h2Z"></path>
      <path d="m390.51,97.83c.76-.46,1.67-.69,2.73-.69v2.18h-.62c-1.13,0-2.05.29-2.77.87-.72.58-1.08,1.54-1.08,2.87v6.36h-2v-12.09h2v2.44c.4-.84.98-1.49,1.74-1.95Z"></path>
      <path d="m29.96,125.9c.81.59,1.38,1.37,1.71,2.36v-3.08h2v12.29c0,1.12-.23,2.11-.7,2.97s-1.13,1.54-1.98,2.03-1.84.73-2.97.73c-1.63,0-2.96-.39-3.99-1.18s-1.68-1.85-1.96-3.18h1.98c.23.81.68,1.44,1.33,1.9.65.46,1.49.69,2.52.69,1.09,0,1.98-.35,2.7-1.05.71-.7,1.07-1.67,1.07-2.92v-3.28c-.32.98-.89,1.77-1.71,2.36s-1.81.88-2.98.88c-1.07,0-2.03-.25-2.86-.75-.84-.5-1.49-1.21-1.97-2.15-.48-.93-.72-2.03-.72-3.29s.24-2.36.72-3.3c.48-.94,1.13-1.66,1.97-2.16.84-.5,1.79-.75,2.86-.75,1.17,0,2.17.29,2.98.88Zm-5.37,2.08c-.74.79-1.11,1.87-1.11,3.25s.37,2.46,1.11,3.25,1.73,1.18,2.96,1.18c.79,0,1.5-.18,2.12-.55.62-.37,1.11-.88,1.46-1.55s.53-1.44.53-2.32-.18-1.66-.53-2.33c-.35-.67-.84-1.19-1.46-1.55-.62-.36-1.33-.54-2.12-.54-1.23,0-2.22.39-2.96,1.18Z"></path>
      <path d="m44.79,125.9c.81.59,1.38,1.37,1.71,2.36v-3.08h2v12.09h-2v-3.08c-.32.98-.89,1.77-1.71,2.36s-1.81.88-2.98.88c-1.07,0-2.03-.25-2.86-.75-.84-.5-1.49-1.21-1.97-2.15-.48-.93-.72-2.03-.72-3.29s.24-2.36.72-3.3c.48-.94,1.13-1.66,1.97-2.16.84-.5,1.79-.75,2.86-.75,1.17,0,2.17.29,2.98.88Zm-5.37,2.08c-.74.79-1.11,1.87-1.11,3.25s.37,2.46,1.11,3.25,1.73,1.18,2.96,1.18c.79,0,1.5-.18,2.12-.55.62-.37,1.11-.88,1.46-1.55s.53-1.44.53-2.32-.18-1.66-.53-2.33c-.35-.67-.84-1.19-1.46-1.55-.62-.36-1.33-.54-2.12-.54-1.23,0-2.22.39-2.96,1.18Z"></path>
      <path d="m69.96,126.33c.86.9,1.29,2.21,1.29,3.91v7.02h-2v-6.85c0-1.19-.29-2.1-.87-2.73-.58-.63-1.38-.95-2.39-.95s-1.9.35-2.54,1.05-.96,1.72-.96,3.07v6.41h-2v-6.85c0-1.19-.29-2.1-.88-2.73-.59-.63-1.38-.95-2.38-.95-1.07,0-1.93.35-2.56,1.05s-.96,1.72-.96,3.07v6.41h-2v-12.09h2v2.75c.29-.95.82-1.68,1.57-2.19.76-.51,1.62-.76,2.61-.76s1.92.26,2.67.78c.76.52,1.29,1.29,1.62,2.3.34-.98.9-1.74,1.69-2.28.79-.54,1.69-.8,2.69-.8,1.41,0,2.54.45,3.4,1.35Z"></path>
      <path d="m85.38,131.65h-9.67c.04,1.38.44,2.41,1.18,3.1.74.69,1.65,1.03,2.72,1.03.97,0,1.78-.25,2.43-.74.65-.49,1.05-1.15,1.2-1.97h2.14c-.15.84-.47,1.59-.98,2.25-.51.66-1.16,1.17-1.97,1.54-.81.37-1.72.55-2.73.55-1.16,0-2.19-.25-3.08-.75-.9-.5-1.6-1.21-2.1-2.15-.51-.93-.76-2.03-.76-3.29s.25-2.36.76-3.3c.51-.94,1.21-1.66,2.1-2.16.89-.5,1.92-.75,3.08-.75s2.2.25,3.07.75c.87.5,1.54,1.17,2,2,.46.84.69,1.76.69,2.77,0,.43-.03.79-.09,1.1Zm-2.38-3.21c-.34-.6-.8-1.05-1.39-1.34-.59-.29-1.23-.44-1.92-.44-1.1,0-2.03.34-2.77,1.02-.75.68-1.15,1.68-1.21,3h7.73c.04-.89-.1-1.64-.44-2.25Z"></path>
      <path d="m102.71,126.25c1.01.82,1.64,1.92,1.87,3.3h-2.11c-.15-.87-.55-1.54-1.2-2.04-.65-.49-1.46-.74-2.43-.74-.71,0-1.35.16-1.93.48s-1.05.82-1.4,1.49c-.35.67-.53,1.49-.53,2.48s.18,1.81.53,2.48c.35.67.82,1.16,1.4,1.49.58.32,1.22.48,1.93.48.97,0,1.78-.25,2.43-.75.65-.5,1.05-1.18,1.2-2.05h2.11c-.24,1.39-.86,2.5-1.87,3.31-1.01.81-2.29,1.22-3.83,1.22-1.16,0-2.19-.25-3.08-.75-.9-.5-1.6-1.21-2.1-2.15-.51-.93-.76-2.03-.76-3.29s.25-2.36.76-3.3c.51-.94,1.21-1.66,2.1-2.16.89-.5,1.92-.75,3.08-.75,1.54,0,2.82.41,3.83,1.23Z"></path>
      <path d="m116.97,126.33c.87.9,1.3,2.21,1.3,3.91v7.02h-2v-6.85c0-1.2-.31-2.13-.92-2.77-.62-.65-1.45-.97-2.51-.97s-1.98.36-2.64,1.07c-.66.71-.99,1.75-.99,3.11v6.41h-2v-16.29h2v7.07c.31-.98.86-1.74,1.64-2.27s1.69-.79,2.72-.79c1.41,0,2.55.45,3.41,1.35Z"></path>
      <path d="m129.29,125.9c.81.59,1.38,1.37,1.71,2.36v-3.08h2v12.09h-2v-3.08c-.32.98-.89,1.77-1.71,2.36s-1.81.88-2.98.88c-1.07,0-2.03-.25-2.86-.75-.84-.5-1.49-1.21-1.97-2.15-.48-.93-.72-2.03-.72-3.29s.24-2.36.72-3.3c.48-.94,1.13-1.66,1.97-2.16.84-.5,1.79-.75,2.86-.75,1.17,0,2.17.29,2.98.88Zm-5.37,2.08c-.74.79-1.11,1.87-1.11,3.25s.37,2.46,1.11,3.25,1.73,1.18,2.96,1.18c.79,0,1.5-.18,2.12-.55.62-.37,1.11-.88,1.46-1.55s.53-1.44.53-2.32-.18-1.66-.53-2.33c-.35-.67-.84-1.19-1.46-1.55-.62-.36-1.33-.54-2.12-.54-1.23,0-2.22.39-2.96,1.18Z"></path>
      <path d="m145.96,126.33c.87.9,1.3,2.21,1.3,3.91v7.02h-2v-6.85c0-1.2-.31-2.13-.92-2.77-.62-.65-1.45-.97-2.51-.97s-1.98.36-2.64,1.07c-.66.71-.99,1.75-.99,3.11v6.41h-2v-12.09h2v2.86c.31-.98.86-1.74,1.64-2.27s1.69-.79,2.72-.79c1.41,0,2.55.45,3.41,1.35Z"></path>
      <path d="m158.28,125.9c.81.59,1.38,1.37,1.71,2.36v-3.08h2v12.29c0,1.12-.23,2.11-.7,2.97s-1.13,1.54-1.98,2.03-1.84.73-2.97.73c-1.63,0-2.96-.39-3.99-1.18s-1.68-1.85-1.96-3.18h1.98c.23.81.68,1.44,1.33,1.9.65.46,1.49.69,2.52.69,1.09,0,1.98-.35,2.7-1.05.71-.7,1.07-1.67,1.07-2.92v-3.28c-.32.98-.89,1.77-1.71,2.36s-1.81.88-2.98.88c-1.07,0-2.03-.25-2.86-.75-.84-.5-1.49-1.21-1.97-2.15-.48-.93-.72-2.03-.72-3.29s.24-2.36.72-3.3c.48-.94,1.13-1.66,1.97-2.16.84-.5,1.79-.75,2.86-.75,1.17,0,2.17.29,2.98.88Zm-5.37,2.08c-.74.79-1.11,1.87-1.11,3.25s.37,2.46,1.11,3.25,1.73,1.18,2.96,1.18c.79,0,1.5-.18,2.12-.55.62-.37,1.11-.88,1.46-1.55s.53-1.44.53-2.32-.18-1.66-.53-2.33c-.35-.67-.84-1.19-1.46-1.55-.62-.36-1.33-.54-2.12-.54-1.23,0-2.22.39-2.96,1.18Z"></path>
      <path d="m165.2,120.74c.25-.23.58-.34.99-.34s.74.11.99.34.37.52.37.89-.12.66-.37.89-.58.34-.99.34-.74-.11-.99-.34c-.25-.23-.37-.53-.37-.89s.12-.66.37-.89Zm1.98,4.44v12.09h-2v-12.09h2Z"></path>
      <path d="m180.17,126.33c.87.9,1.3,2.21,1.3,3.91v7.02h-2v-6.85c0-1.2-.31-2.13-.92-2.77-.62-.65-1.45-.97-2.51-.97s-1.98.36-2.64,1.07c-.66.71-.99,1.75-.99,3.11v6.41h-2v-12.09h2v2.86c.31-.98.86-1.74,1.64-2.27s1.69-.79,2.72-.79c1.41,0,2.55.45,3.41,1.35Z"></path>
      <path d="m192.49,125.9c.81.59,1.38,1.37,1.71,2.36v-3.08h2v12.29c0,1.12-.23,2.11-.7,2.97s-1.13,1.54-1.98,2.03-1.84.73-2.97.73c-1.63,0-2.96-.39-3.99-1.18s-1.68-1.85-1.96-3.18h1.98c.23.81.68,1.44,1.33,1.9.65.46,1.49.69,2.52.69,1.09,0,1.98-.35,2.7-1.05.71-.7,1.07-1.67,1.07-2.92v-3.28c-.32.98-.89,1.77-1.71,2.36s-1.81.88-2.98.88c-1.07,0-2.03-.25-2.86-.75-.84-.5-1.49-1.21-1.97-2.15-.48-.93-.72-2.03-.72-3.29s.24-2.36.72-3.3c.48-.94,1.13-1.66,1.97-2.16.84-.5,1.79-.75,2.86-.75,1.17,0,2.17.29,2.98.88Zm-5.37,2.08c-.74.79-1.11,1.87-1.11,3.25s.37,2.46,1.11,3.25,1.73,1.18,2.96,1.18c.79,0,1.5-.18,2.12-.55.62-.37,1.11-.88,1.46-1.55s.53-1.44.53-2.32-.18-1.66-.53-2.33c-.35-.67-.84-1.19-1.46-1.55-.62-.36-1.33-.54-2.12-.54-1.23,0-2.22.39-2.96,1.18Z"></path>
      <path d="m213.92,133.67h-6.82l-1.3,3.59h-2.16l5.75-15.24h2.27l5.72,15.24h-2.16l-1.3-3.59Zm-.57-1.56l-2.84-7.84-2.84,7.84h5.68Z"></path>
      <path d="m228.58,126.25c1.01.82,1.64,1.92,1.87,3.3h-2.11c-.15-.87-.55-1.54-1.2-2.04-.65-.49-1.46-.74-2.43-.74-.71,0-1.35.16-1.93.48s-1.05.82-1.4,1.49c-.35.67-.53,1.49-.53,2.48s.18,1.81.53,2.48c.35.67.82,1.16,1.4,1.49.58.32,1.22.48,1.93.48.97,0,1.78-.25,2.43-.75.65-.5,1.05-1.18,1.2-2.05h2.11c-.24,1.39-.86,2.5-1.87,3.31-1.01.81-2.29,1.22-3.83,1.22-1.16,0-2.19-.25-3.08-.75-.9-.5-1.6-1.21-2.1-2.15-.51-.93-.76-2.03-.76-3.29s.25-2.36.76-3.3c.51-.94,1.21-1.66,2.1-2.16.89-.5,1.92-.75,3.08-.75,1.54,0,2.82.41,3.83,1.23Z"></path>
      <path d="m242.26,126.25c1.01.82,1.64,1.92,1.87,3.3h-2.11c-.15-.87-.55-1.54-1.2-2.04-.65-.49-1.46-.74-2.43-.74-.71,0-1.35.16-1.93.48s-1.05.82-1.4,1.49c-.35.67-.53,1.49-.53,2.48s.18,1.81.53,2.48c.35.67.82,1.16,1.4,1.49.58.32,1.22.48,1.93.48.97,0,1.78-.25,2.43-.75.65-.5,1.05-1.18,1.2-2.05h2.11c-.24,1.39-.86,2.5-1.87,3.31-1.01.81-2.29,1.22-3.83,1.22-1.16,0-2.19-.25-3.08-.75-.9-.5-1.6-1.21-2.1-2.15-.51-.93-.76-2.03-.76-3.29s.25-2.36.76-3.3c.51-.94,1.21-1.66,2.1-2.16.89-.5,1.92-.75,3.08-.75,1.54,0,2.82.41,3.83,1.23Z"></path>
      <path d="m257.78,131.65h-9.67c.04,1.38.44,2.41,1.18,3.1.74.69,1.65,1.03,2.72,1.03.97,0,1.78-.25,2.43-.74.65-.49,1.05-1.15,1.2-1.97h2.14c-.15.84-.47,1.59-.98,2.25-.51.66-1.16,1.17-1.97,1.54-.81.37-1.72.55-2.73.55-1.16,0-2.19-.25-3.08-.75-.9-.5-1.6-1.21-2.1-2.15-.51-.93-.76-2.03-.76-3.29s.25-2.36.76-3.3c.51-.94,1.21-1.66,2.1-2.16.89-.5,1.92-.75,3.08-.75s2.2.25,3.07.75c.87.5,1.54,1.17,2,2,.46.84.69,1.76.69,2.77,0,.43-.03.79-.09,1.1Zm-2.38-3.21c-.34-.6-.8-1.05-1.39-1.34-.59-.29-1.23-.44-1.92-.44-1.1,0-2.03.34-2.77,1.02-.75.68-1.15,1.68-1.21,3h7.73c.04-.89-.1-1.64-.44-2.25Z"></path>
      <path d="m262.49,120.97v16.29h-2v-16.29h2Z"></path>
      <path d="m276.73,131.65h-9.67c.04,1.38.44,2.41,1.18,3.1.74.69,1.65,1.03,2.72,1.03.97,0,1.78-.25,2.43-.74.65-.49,1.05-1.15,1.2-1.97h2.14c-.15.84-.47,1.59-.98,2.25-.51.66-1.16,1.17-1.97,1.54-.81.37-1.72.55-2.73.55-1.16,0-2.19-.25-3.08-.75-.9-.5-1.6-1.21-2.1-2.15-.51-.93-.76-2.03-.76-3.29s.25-2.36.76-3.3c.51-.94,1.21-1.66,2.1-2.16.89-.5,1.92-.75,3.08-.75s2.2.25,3.07.75c.87.5,1.54,1.17,2,2,.46.84.69,1.76.69,2.77,0,.43-.03.79-.09,1.1Zm-2.38-3.21c-.34-.6-.8-1.05-1.39-1.34-.59-.29-1.23-.44-1.92-.44-1.1,0-2.03.34-2.77,1.02-.75.68-1.15,1.68-1.21,3h7.73c.04-.89-.1-1.64-.44-2.25Z"></path>
      <path d="m283.18,125.67c.76-.46,1.67-.69,2.73-.69v2.18h-.62c-1.13,0-2.05.29-2.77.87-.72.58-1.08,1.54-1.08,2.87v6.36h-2v-12.09h2v2.44c.4-.84.98-1.49,1.74-1.95Z"></path>
      <path d="m295.83,125.9c.81.59,1.38,1.37,1.71,2.36v-3.08h2v12.09h-2v-3.08c-.32.98-.89,1.77-1.71,2.36s-1.81.88-2.98.88c-1.07,0-2.03-.25-2.86-.75-.84-.5-1.49-1.21-1.97-2.15-.48-.93-.72-2.03-.72-3.29s.24-2.36.72-3.3c.48-.94,1.13-1.66,1.97-2.16.84-.5,1.79-.75,2.86-.75,1.17,0,2.17.29,2.98.88Zm-5.37,2.08c-.74.79-1.11,1.87-1.11,3.25s.37,2.46,1.11,3.25,1.73,1.18,2.96,1.18c.79,0,1.5-.18,2.12-.55.62-.37,1.11-.88,1.46-1.55s.53-1.44.53-2.32-.18-1.66-.53-2.33c-.35-.67-.84-1.19-1.46-1.55-.62-.36-1.33-.54-2.12-.54-1.23,0-2.22.39-2.96,1.18Z"></path>
      <path d="m308.5,135.5v1.76h-1.5c-1.23,0-2.15-.29-2.76-.88-.61-.59-.91-1.57-.91-2.95v-6.52h-1.8v-1.74h1.8v-3.02h2.03v3.02h3.13v1.74h-3.13v6.56c0,.78.14,1.31.43,1.6s.78.43,1.49.43h1.23Z"></path>
      <path d="m319.54,125.77c.92.5,1.64,1.22,2.16,2.16.52.94.78,2.04.78,3.3s-.26,2.36-.78,3.29c-.52.93-1.24,1.65-2.16,2.15s-1.96.75-3.12.75-2.2-.25-3.12-.75-1.64-1.21-2.17-2.15c-.53-.93-.79-2.03-.79-3.29s.26-2.36.79-3.3c.53-.94,1.25-1.66,2.17-2.16s1.96-.75,3.12-.75,2.2.25,3.12.75Zm-5.11,1.5c-.61.32-1.1.82-1.48,1.49-.37.67-.56,1.49-.56,2.48s.19,1.79.56,2.45c.38.67.87,1.16,1.48,1.49.61.32,1.27.48,1.99.48s1.38-.16,1.99-.48c.61-.32,1.1-.82,1.48-1.49.37-.67.56-1.49.56-2.45s-.19-1.81-.56-2.48-.87-1.16-1.48-1.49c-.61-.32-1.27-.48-1.99-.48s-1.38.16-1.99.48Z"></path>
      <path d="m328.84,125.67c.76-.46,1.67-.69,2.73-.69v2.18h-.62c-1.13,0-2.05.29-2.77.87-.72.58-1.08,1.54-1.08,2.87v6.36h-2v-12.09h2v2.44c.4-.84.98-1.49,1.74-1.95Z"></path>
      <path d="m340.63,126.09c.83.71,1.33,1.67,1.51,2.87h-1.92c-.09-.72-.38-1.31-.89-1.77-.51-.46-1.18-.69-2.04-.69-.72,0-1.28.17-1.68.52-.4.34-.61.81-.61,1.4,0,.44.13.8.41,1.07.27.27.61.48,1.01.62.4.14.96.29,1.66.45.89.21,1.62.42,2.17.63.55.21,1.02.55,1.41,1.02s.58,1.1.58,1.89c0,.98-.37,1.78-1.11,2.4-.74.62-1.73.92-2.96.92-1.44,0-2.61-.34-3.52-1.04-.91-.69-1.45-1.65-1.61-2.88h1.94c.07.73.39,1.33.96,1.78.56.46,1.31.68,2.23.68.69,0,1.23-.18,1.62-.53.39-.35.58-.82.58-1.39,0-.47-.14-.84-.42-1.12s-.62-.49-1.04-.64-.98-.3-1.69-.46c-.9-.21-1.61-.41-2.15-.62-.54-.21-.99-.53-1.37-.98-.37-.45-.56-1.05-.56-1.82,0-1.01.37-1.83,1.12-2.46.75-.62,1.77-.94,3.06-.94,1.37,0,2.46.36,3.29,1.07Z"></path>
      <path d="m357.24,128.34v1.7h-8.81v-1.7h8.81Z"></path>
      <path d="m23.94,147.51l-.22,4.69h-2.09l-.26-4.69h2.58Zm3.72,0l-.22,4.69h-2.09l-.26-4.69h2.58Z"></path>
      <path d="m33.12,152.02v4.03h5.5v2.38h-5.5v4.18h6.17v2.49h-9.27v-15.54h9.27v2.47h-6.17Z"></path>
      <path d="m46.88,162l3.08-9.09h3.3l-4.51,12.2h-3.79l-4.51-12.2h3.32l3.1,9.09Z"></path>
      <path d="m63.82,153.5c.95.5,1.69,1.22,2.23,2.17.54.95.82,2.06.82,3.33s-.27,2.39-.82,3.32c-.54.94-1.29,1.66-2.23,2.17-.95.51-2.01.76-3.2.76s-2.26-.25-3.2-.76c-.95-.51-1.69-1.23-2.23-2.17-.54-.94-.81-2.05-.81-3.32s.27-2.39.81-3.33c.54-.95,1.29-1.67,2.23-2.17s2.01-.75,3.2-.75,2.26.25,3.2.75Zm-5.4,2.85c-.6.61-.9,1.49-.9,2.65s.3,2.04.9,2.65c.6.61,1.33.91,2.2.91s1.6-.3,2.2-.91c.6-.61.9-1.49.9-2.65s-.3-2.04-.9-2.65c-.6-.61-1.33-.91-2.2-.91s-1.6.3-2.2.91Z"></path>
      <path d="m76.2,165.1l-4.03-5.33v5.33h-3.1v-16.29h3.1v9.16l4.01-5.06h3.68l-5.13,6.08,5.26,6.12h-3.79Z"></path>
      <path d="m92.84,159.6h-8.94c.04,1.09.34,1.89.88,2.4s1.22.77,2.03.77c.72,0,1.32-.18,1.79-.53.48-.35.78-.83.91-1.43h3.28c-.16.85-.51,1.61-1.03,2.29-.53.68-1.21,1.2-2.04,1.58-.83.38-1.75.57-2.76.57-1.19,0-2.25-.25-3.17-.76-.92-.51-1.64-1.23-2.16-2.17-.51-.94-.77-2.05-.77-3.32s.26-2.39.77-3.33c.51-.95,1.23-1.67,2.16-2.17s1.98-.75,3.17-.75,2.26.25,3.16.75c.9.5,1.6,1.19,2.09,2.06.49.87.74,1.87.74,2.98,0,.31-.04.66-.11,1.06Zm-3.8-3.63c-.57-.51-1.26-.77-2.08-.77s-1.54.26-2.11.77-.89,1.27-.95,2.27h5.92c.04-1-.22-1.75-.78-2.27Z"></path>
      <path d="m112.66,161.38c-.65,1.17-1.58,2.09-2.81,2.74-1.23.65-2.68.98-4.37.98h-5.53v-15.54h5.53c1.69,0,3.14.32,4.37.96,1.23.64,2.16,1.54,2.81,2.71.65,1.17.97,2.53.97,4.08s-.32,2.9-.97,4.07Zm-3.56-.37c.92-.88,1.38-2.11,1.38-3.7s-.46-2.84-1.38-3.72c-.92-.88-2.21-1.32-3.89-1.32h-2.16v10.06h2.16c1.67,0,2.97-.44,3.89-1.32Z"></path>
      <path d="m123.38,153.48c.73.48,1.25,1.14,1.56,1.96v-2.53h3.08v12.2h-3.08v-2.55c-.31.82-.83,1.48-1.56,1.97-.73.49-1.61.74-2.64.74s-1.95-.25-2.77-.75-1.46-1.22-1.93-2.17c-.46-.95-.69-2.06-.69-3.33s.23-2.39.69-3.33c.46-.95,1.1-1.67,1.93-2.17s1.75-.75,2.77-.75,1.91.24,2.64.73Zm-4.01,2.93c-.59.63-.88,1.5-.88,2.6s.29,1.96.88,2.59,1.37.94,2.33.94,1.71-.32,2.32-.96c.61-.64.91-1.49.91-2.56s-.3-1.95-.91-2.59-1.38-.96-2.32-.96-1.75.32-2.33.95Z"></path>
      <path d="m137.36,162.44v2.66h-1.63c-1.37,0-2.41-.33-3.14-.99-.73-.66-1.09-1.76-1.09-3.3v-5.28h-1.7v-2.62h1.7v-3.02h3.1v3.02h2.73v2.62h-2.73v5.33c0,.59.12,1,.35,1.23.23.24.63.35,1.19.35h1.21Z"></path>
      <path d="m147,153.48c.73.48,1.25,1.14,1.56,1.96v-2.53h3.08v12.2h-3.08v-2.55c-.31.82-.83,1.48-1.56,1.97-.73.49-1.61.74-2.64.74s-1.95-.25-2.77-.75-1.46-1.22-1.93-2.17c-.46-.95-.69-2.06-.69-3.33s.23-2.39.69-3.33c.46-.95,1.1-1.67,1.93-2.17s1.75-.75,2.77-.75,1.91.24,2.64.73Zm-4.01,2.93c-.59.63-.88,1.5-.88,2.6s.29,1.96.88,2.59,1.37.94,2.33.94,1.71-.32,2.32-.96c.61-.64.91-1.49.91-2.56s-.3-1.95-.91-2.59-1.38-.96-2.32-.96-1.75.32-2.33.95Z"></path>
      <path d="m169.35,163.04c-.4.67-.98,1.2-1.76,1.61-.78.4-1.72.61-2.84.61s-2.08-.19-2.95-.56c-.87-.38-1.56-.91-2.08-1.62-.52-.71-.82-1.53-.89-2.47h3.3c.07.63.33,1.16.76,1.57.43.42,1.01.63,1.73.63.65,0,1.14-.17,1.49-.52s.52-.79.52-1.33c0-.48-.14-.88-.42-1.2-.28-.32-.63-.57-1.06-.76-.43-.19-1.01-.41-1.76-.66-.97-.32-1.76-.64-2.38-.96s-1.14-.77-1.57-1.38c-.43-.6-.65-1.39-.65-2.36,0-1.33.48-2.39,1.44-3.16.96-.77,2.24-1.16,3.82-1.16s2.95.4,3.93,1.19c.98.79,1.53,1.85,1.66,3.17h-3.35c-.09-.56-.32-1.02-.7-1.38s-.9-.54-1.56-.54c-.57,0-1.03.15-1.39.45s-.53.74-.53,1.31c0,.46.14.83.41,1.13s.62.55,1.04.74c.42.19.99.4,1.71.64,1,.35,1.81.68,2.43.99.62.31,1.16.77,1.6,1.39s.66,1.42.66,2.42c0,.79-.2,1.52-.59,2.19Z"></path>
      <path d="m178.75,162.44v2.66h-1.63c-1.37,0-2.41-.33-3.14-.99-.73-.66-1.09-1.76-1.09-3.3v-5.28h-1.7v-2.62h1.7v-3.02h3.1v3.02h2.73v2.62h-2.73v5.33c0,.59.12,1,.35,1.23.23.24.63.35,1.19.35h1.21Z"></path>
      <path d="m192.64,152.9v12.2h-3.1v-2.47c-.32.82-.85,1.46-1.6,1.93-.74.46-1.6.69-2.56.69-1.41,0-2.53-.46-3.37-1.39-.84-.92-1.25-2.22-1.25-3.87v-7.09h3.08v6.74c0,.97.25,1.72.75,2.26.5.54,1.17.8,2.03.8.9,0,1.61-.29,2.14-.86s.79-1.39.79-2.47v-6.47h3.1Z"></path>
      <path d="m202.86,153.48c.73.48,1.25,1.14,1.57,1.96v-6.63h3.08v16.29h-3.08v-2.55c-.32.82-.85,1.48-1.57,1.97-.73.49-1.6.74-2.63.74s-1.95-.25-2.77-.75-1.46-1.22-1.93-2.17c-.46-.95-.69-2.06-.69-3.33s.23-2.39.69-3.33c.46-.95,1.1-1.67,1.93-2.17s1.75-.75,2.77-.75,1.9.24,2.63.73Zm-4,2.93c-.59.63-.88,1.5-.88,2.6s.29,1.96.88,2.59,1.37.94,2.33.94,1.71-.32,2.32-.96c.61-.64.91-1.49.91-2.56s-.3-1.95-.91-2.59-1.38-.96-2.32-.96-1.75.32-2.33.95Z"></path>
      <path d="m210.51,148.18c.35-.32.81-.47,1.39-.47s1.04.16,1.39.47c.35.32.53.72.53,1.22s-.18.88-.53,1.2c-.35.32-.81.47-1.39.47s-1.03-.16-1.39-.47-.53-.72-.53-1.2.18-.91.53-1.22Zm2.93,4.72v12.2h-3.1v-12.2h3.1Z"></path>
      <path d="m225.1,153.5c.95.5,1.69,1.22,2.23,2.17.54.95.82,2.06.82,3.33s-.27,2.39-.82,3.32c-.54.94-1.29,1.66-2.23,2.17-.95.51-2.01.76-3.2.76s-2.26-.25-3.2-.76c-.95-.51-1.69-1.23-2.23-2.17-.54-.94-.81-2.05-.81-3.32s.27-2.39.81-3.33c.54-.95,1.29-1.67,2.23-2.17s2.01-.75,3.2-.75,2.26.25,3.2.75Zm-5.4,2.85c-.6.61-.9,1.49-.9,2.65s.3,2.04.9,2.65c.6.61,1.33.91,2.2.91s1.6-.3,2.2-.91c.6-.61.9-1.49.9-2.65s-.3-2.04-.9-2.65c-.6-.61-1.33-.91-2.2-.91s-1.6.3-2.2.91Z"></path>
      <path d="m232.46,147.51l-.22,4.69h-2.09l-.26-4.69h2.58Zm3.72,0l-.22,4.69h-2.09l-.26-4.69h2.58Z"></path>
      <path d="m252.11,153.74c.81.59,1.38,1.37,1.71,2.36v-3.08h2v12.09h-2v-3.08c-.32.98-.89,1.77-1.71,2.36s-1.81.88-2.98.88c-1.07,0-2.03-.25-2.86-.75-.84-.5-1.49-1.21-1.97-2.15-.48-.93-.72-2.03-.72-3.29s.24-2.36.72-3.3c.48-.94,1.13-1.66,1.97-2.16.84-.5,1.79-.75,2.86-.75,1.17,0,2.17.29,2.98.88Zm-5.37,2.08c-.74.79-1.11,1.87-1.11,3.25s.37,2.46,1.11,3.25,1.73,1.18,2.96,1.18c.79,0,1.5-.18,2.12-.55.62-.37,1.11-.88,1.46-1.55s.53-1.44.53-2.32-.18-1.66-.53-2.33c-.35-.67-.84-1.19-1.46-1.55-.62-.36-1.33-.54-2.12-.54-1.23,0-2.22.39-2.96,1.18Z"></path>
      <path d="m268.79,154.17c.87.9,1.3,2.21,1.3,3.91v7.02h-2v-6.85c0-1.2-.31-2.13-.92-2.77-.62-.65-1.45-.97-2.51-.97s-1.98.36-2.64,1.07c-.66.71-.99,1.75-.99,3.11v6.41h-2v-12.09h2v2.86c.31-.98.86-1.74,1.64-2.27s1.69-.79,2.72-.79c1.41,0,2.55.45,3.41,1.35Z"></path>
      <path d="m281.11,153.74c.81.59,1.38,1.37,1.71,2.36v-7.29h2v16.29h-2v-3.08c-.32.98-.89,1.77-1.71,2.36s-1.81.88-2.98.88c-1.07,0-2.03-.25-2.86-.75-.84-.5-1.49-1.21-1.97-2.15-.48-.93-.72-2.03-.72-3.29s.24-2.36.72-3.3c.48-.94,1.13-1.66,1.97-2.16.84-.5,1.79-.75,2.86-.75,1.17,0,2.17.29,2.98.88Zm-5.37,2.08c-.74.79-1.11,1.87-1.11,3.25s.37,2.46,1.11,3.25,1.73,1.18,2.96,1.18c.79,0,1.5-.18,2.12-.55.62-.37,1.11-.88,1.46-1.55s.53-1.44.53-2.32-.18-1.66-.53-2.33c-.35-.67-.84-1.19-1.46-1.55-.62-.36-1.33-.54-2.12-.54-1.23,0-2.22.39-2.96,1.18Z"></path>
      <path d="m295.36,147.51l-.22,4.69h-2.09l-.26-4.69h2.58Zm3.72,0l-.22,4.69h-2.09l-.26-4.69h2.58Z"></path>
      <path d="m312,149.56v2.47h-4.29v13.08h-3.1v-13.08h-4.27v-2.47h11.67Z"></path>
      <path d="m318.63,153.4c.75-.45,1.58-.67,2.51-.67v3.32h-.9c-2.28,0-3.41,1.06-3.41,3.17v5.88h-3.1v-12.2h3.1v2.33c.46-.78,1.06-1.39,1.81-1.84Z"></path>
      <path d="m334.52,152.9v12.2h-3.1v-2.47c-.32.82-.85,1.46-1.6,1.93-.74.46-1.6.69-2.56.69-1.41,0-2.53-.46-3.37-1.39-.84-.92-1.25-2.22-1.25-3.87v-7.09h3.08v6.74c0,.97.25,1.72.75,2.26.5.54,1.17.8,2.03.8.9,0,1.61-.29,2.14-.86s.79-1.39.79-2.47v-6.47h3.1Z"></path>
      <path d="m348.7,159.6h-8.94c.04,1.09.34,1.89.88,2.4s1.22.77,2.03.77c.72,0,1.32-.18,1.79-.53.48-.35.78-.83.91-1.43h3.28c-.16.85-.51,1.61-1.03,2.29-.53.68-1.21,1.2-2.04,1.58-.83.38-1.75.57-2.76.57-1.19,0-2.25-.25-3.17-.76-.92-.51-1.64-1.23-2.16-2.17-.51-.94-.77-2.05-.77-3.32s.26-2.39.77-3.33c.51-.95,1.23-1.67,2.16-2.17s1.98-.75,3.17-.75,2.26.25,3.16.75c.9.5,1.6,1.19,2.09,2.06.49.87.74,1.87.74,2.98,0,.31-.04.66-.11,1.06Zm-3.8-3.63c-.57-.51-1.26-.77-2.08-.77s-1.54.26-2.11.77-.89,1.27-.95,2.27h5.92c.04-1-.22-1.75-.78-2.27Z"></path>
      <path d="m367.77,149.73v15.37h-3.08v-10.72l-3.94,10.72h-2.69l-3.94-10.68v10.68h-3.1v-15.37h3.76l4.67,11.56,4.58-11.56h3.74Z"></path>
      <path d="m373.69,162.72h5.22v2.38h-8.32v-15.54h3.1v13.17Z"></path>
      <path d="m382.87,147.51l-.22,4.69h-2.09l-.26-4.69h2.58Zm3.72,0l-.22,4.69h-2.09l-.26-4.69h2.58Z"></path>
      <path d="m25.14,178.54c-.42.38-.63,1.04-.63,1.98v.33h2.86v1.76h-2.86v10.33h-2v-10.33h-1.74v-1.76h1.74v-.48c0-2.89,1.62-4.27,4.87-4.14v1.76c-1.07-.01-1.82.17-2.23.55Z"></path>
      <path d="m38.15,181.45c.92.5,1.64,1.22,2.16,2.16.52.94.78,2.04.78,3.3s-.26,2.36-.78,3.29c-.52.93-1.24,1.65-2.16,2.15s-1.96.75-3.12.75-2.2-.25-3.12-.75-1.64-1.21-2.17-2.15c-.53-.93-.79-2.03-.79-3.29s.26-2.36.79-3.3c.53-.94,1.25-1.66,2.17-2.16s1.96-.75,3.12-.75,2.2.25,3.12.75Zm-5.11,1.5c-.61.32-1.1.82-1.48,1.49-.37.67-.56,1.49-.56,2.48s.19,1.79.56,2.45c.38.67.87,1.16,1.48,1.49.61.32,1.27.48,1.99.48s1.38-.16,1.99-.48c.61-.32,1.1-.82,1.48-1.49.37-.67.56-1.49.56-2.45s-.19-1.81-.56-2.48-.87-1.16-1.48-1.49c-.61-.32-1.27-.48-1.99-.48s-1.38.16-1.99.48Z"></path>
      <path d="m47.45,181.35c.76-.46,1.67-.69,2.73-.69v2.18h-.62c-1.13,0-2.05.29-2.77.87-.72.58-1.08,1.54-1.08,2.87v6.36h-2v-12.09h2v2.44c.4-.84.98-1.49,1.74-1.95Z"></path>
      <path d="m58.43,180.85l3.92,9.51,3.63-9.51h2.22l-7.18,17.81h-2.27l2.51-5.92-5.09-11.89h2.25Z"></path>
      <path d="m78.63,181.45c.92.5,1.64,1.22,2.16,2.16.52.94.78,2.04.78,3.3s-.26,2.36-.78,3.29c-.52.93-1.24,1.65-2.16,2.15s-1.96.75-3.12.75-2.2-.25-3.12-.75-1.64-1.21-2.17-2.15c-.53-.93-.79-2.03-.79-3.29s.26-2.36.79-3.3c.53-.94,1.25-1.66,2.17-2.16s1.96-.75,3.12-.75,2.2.25,3.12.75Zm-5.11,1.5c-.61.32-1.1.82-1.48,1.49-.37.67-.56,1.49-.56,2.48s.19,1.79.56,2.45c.38.67.87,1.16,1.48,1.49.61.32,1.27.48,1.99.48s1.38-.16,1.99-.48c.61-.32,1.1-.82,1.48-1.49.37-.67.56-1.49.56-2.45s-.19-1.81-.56-2.48-.87-1.16-1.48-1.49c-.61-.32-1.27-.48-1.99-.48s-1.38.16-1.99.48Z"></path>
      <path d="m94.93,180.85v12.09h-2v-2.84c-.31.98-.86,1.74-1.64,2.26-.79.52-1.7.78-2.74.78-1.39,0-2.52-.45-3.39-1.35-.87-.9-1.3-2.2-1.3-3.89v-7.04h2v6.85c0,1.2.31,2.13.92,2.79.62.65,1.45.98,2.51.98s1.98-.36,2.64-1.07.99-1.75.99-3.12v-6.43h2Z"></path>
      <path d="m101.89,181.35c.76-.46,1.67-.69,2.73-.69v2.18h-.62c-1.13,0-2.05.29-2.77.87-.72.58-1.08,1.54-1.08,2.87v6.36h-2v-12.09h2v2.44c.4-.84.98-1.49,1.74-1.95Z"></path>
      <path d="m121.13,189.35h-6.82l-1.3,3.59h-2.16l5.75-15.24h2.27l5.72,15.24h-2.16l-1.3-3.59Zm-.57-1.56l-2.84-7.84-2.84,7.84h5.68Z"></path>
      <path d="m128.62,177.42v15.52h-2v-15.52h2Z"></path>
      <path d="m138.35,172.2l-6.03,24.5h-1.94l6.01-24.5h1.96Z"></path>
      <path d="m155.59,177.68v15.26h-2v-12.17l-4.87,12.17h-1.78l-4.89-12.13v12.13h-2v-15.26h2.4l5.42,12.81,5.33-12.81h2.4Z"></path>
      <path d="m160.8,191.38h5.5v1.56h-7.51v-15.52h2v13.96Z"></path>
      <path d="m181.73,181.58c.81.59,1.38,1.37,1.71,2.36v-3.08h2v12.09h-2v-3.08c-.32.98-.89,1.77-1.71,2.36s-1.81.88-2.98.88c-1.07,0-2.03-.25-2.86-.75-.84-.5-1.49-1.21-1.97-2.15-.48-.93-.72-2.03-.72-3.29s.24-2.36.72-3.3c.48-.94,1.13-1.66,1.97-2.16.84-.5,1.79-.75,2.86-.75,1.17,0,2.17.29,2.98.88Zm-5.37,2.08c-.74.79-1.11,1.87-1.11,3.25s.37,2.46,1.11,3.25,1.73,1.18,2.96,1.18c.79,0,1.5-.18,2.12-.55.62-.37,1.11-.88,1.46-1.55s.53-1.44.53-2.32-.18-1.66-.53-2.33c-.35-.67-.84-1.19-1.46-1.55-.62-.36-1.33-.54-2.12-.54-1.23,0-2.22.39-2.96,1.18Z"></path>
      <path d="m198.41,182.01c.87.9,1.3,2.21,1.3,3.91v7.02h-2v-6.85c0-1.2-.31-2.13-.92-2.77-.62-.65-1.45-.97-2.51-.97s-1.98.36-2.64,1.07c-.66.71-.99,1.75-.99,3.11v6.41h-2v-12.09h2v2.86c.31-.98.86-1.74,1.64-2.27s1.69-.79,2.72-.79c1.41,0,2.55.45,3.41,1.35Z"></path>
      <path d="m210.72,181.58c.81.59,1.38,1.37,1.71,2.36v-7.29h2v16.29h-2v-3.08c-.32.98-.89,1.77-1.71,2.36s-1.81.88-2.98.88c-1.07,0-2.03-.25-2.86-.75-.84-.5-1.49-1.21-1.97-2.15-.48-.93-.72-2.03-.72-3.29s.24-2.36.72-3.3c.48-.94,1.13-1.66,1.97-2.16.84-.5,1.79-.75,2.86-.75,1.17,0,2.17.29,2.98.88Zm-5.37,2.08c-.74.79-1.11,1.87-1.11,3.25s.37,2.46,1.11,3.25,1.73,1.18,2.96,1.18c.79,0,1.5-.18,2.12-.55.62-.37,1.11-.88,1.46-1.55s.53-1.44.53-2.32-.18-1.66-.53-2.33c-.35-.67-.84-1.19-1.46-1.55-.62-.36-1.33-.54-2.12-.54-1.23,0-2.22.39-2.96,1.18Z"></path>
      <path d="m232.15,189.35h-6.82l-1.3,3.59h-2.16l5.75-15.24h2.27l5.72,15.24h-2.16l-1.3-3.59Zm-.57-1.56l-2.84-7.84-2.84,7.84h5.68Z"></path>
      <path d="m247.41,182.01c.87.9,1.3,2.21,1.3,3.91v7.02h-2v-6.85c0-1.2-.31-2.13-.92-2.77-.62-.65-1.45-.97-2.51-.97s-1.98.36-2.64,1.07c-.66.71-.99,1.75-.99,3.11v6.41h-2v-12.09h2v2.86c.31-.98.86-1.74,1.64-2.27s1.69-.79,2.72-.79c1.41,0,2.55.45,3.41,1.35Z"></path>
      <path d="m259.73,181.58c.81.59,1.38,1.37,1.71,2.36v-3.08h2v12.09h-2v-3.08c-.32.98-.89,1.77-1.71,2.36s-1.81.88-2.98.88c-1.07,0-2.03-.25-2.86-.75-.84-.5-1.49-1.21-1.97-2.15-.48-.93-.72-2.03-.72-3.29s.24-2.36.72-3.3c.48-.94,1.13-1.66,1.97-2.16.84-.5,1.79-.75,2.86-.75,1.17,0,2.17.29,2.98.88Zm-5.37,2.08c-.74.79-1.11,1.87-1.11,3.25s.37,2.46,1.11,3.25,1.73,1.18,2.96,1.18c.79,0,1.5-.18,2.12-.55.62-.37,1.11-.88,1.46-1.55s.53-1.44.53-2.32-.18-1.66-.53-2.33c-.35-.67-.84-1.19-1.46-1.55-.62-.36-1.33-.54-2.12-.54-1.23,0-2.22.39-2.96,1.18Z"></path>
      <path d="m268.63,176.65v16.29h-2v-16.29h2Z"></path>
      <path d="m272.68,180.85l3.92,9.51,3.63-9.51h2.22l-7.18,17.81h-2.27l2.51-5.92-5.09-11.89h2.25Z"></path>
      <path d="m290.05,191.18v1.76h-1.5c-1.23,0-2.15-.29-2.76-.88-.61-.59-.91-1.57-.91-2.95v-6.52h-1.8v-1.74h1.8v-3.02h2.03v3.02h3.13v1.74h-3.13v6.56c0,.78.14,1.31.43,1.6s.78.43,1.49.43h1.23Z"></path>
      <path d="m292.52,176.42c.25-.23.58-.34.99-.34s.74.11.99.34.37.52.37.89-.12.66-.37.89-.58.34-.99.34-.74-.11-.99-.34c-.25-.23-.37-.53-.37-.89s.12-.66.37-.89Zm1.98,4.44v12.09h-2v-12.09h2Z"></path>
      <path d="m306.9,181.93c1.01.82,1.64,1.92,1.87,3.3h-2.11c-.15-.87-.55-1.54-1.2-2.04-.65-.49-1.46-.74-2.43-.74-.71,0-1.35.16-1.93.48s-1.05.82-1.4,1.49c-.35.67-.53,1.49-.53,2.48s.18,1.81.53,2.48c.35.67.82,1.16,1.4,1.49.58.32,1.22.48,1.93.48.97,0,1.78-.25,2.43-.75.65-.5,1.05-1.18,1.2-2.05h2.11c-.24,1.39-.86,2.5-1.87,3.31-1.01.81-2.29,1.22-3.83,1.22-1.16,0-2.19-.25-3.08-.75-.9-.5-1.6-1.21-2.1-2.15-.51-.93-.76-2.03-.76-3.29s.25-2.36.76-3.3c.51-.94,1.21-1.66,2.1-2.16.89-.5,1.92-.75,3.08-.75,1.54,0,2.82.41,3.83,1.23Z"></path>
      <path d="m318.46,181.77c.83.71,1.33,1.67,1.51,2.87h-1.92c-.09-.72-.38-1.31-.89-1.77-.51-.46-1.18-.69-2.04-.69-.72,0-1.28.17-1.68.52-.4.34-.61.81-.61,1.4,0,.44.13.8.41,1.07.27.27.61.48,1.01.62.4.14.96.29,1.66.45.89.21,1.62.42,2.17.63.55.21,1.02.55,1.41,1.02s.58,1.1.58,1.89c0,.98-.37,1.78-1.11,2.4-.74.62-1.73.92-2.96.92-1.44,0-2.61-.34-3.52-1.04-.91-.69-1.45-1.65-1.61-2.88h1.94c.07.73.39,1.33.96,1.78.56.46,1.31.68,2.23.68.69,0,1.23-.18,1.62-.53.39-.35.58-.82.58-1.39,0-.47-.14-.84-.42-1.12s-.62-.49-1.04-.64-.98-.3-1.69-.46c-.9-.21-1.61-.41-2.15-.62-.54-.21-.99-.53-1.37-.98-.37-.45-.56-1.05-.56-1.82,0-1.01.37-1.83,1.12-2.46.75-.62,1.77-.94,3.06-.94,1.37,0,2.46.36,3.29,1.07Z"></path>
      <path d="m325.98,196.9h.84c.53,0,.91-.12,1.16-.35.24-.24.36-.64.36-1.21v-14.49h2.03v14.55c0,2.17-1.1,3.26-3.3,3.26h-1.08v-1.76Zm2.37-18.7c-.26-.23-.38-.53-.38-.89s.13-.66.38-.89.59-.34,1-.34.72.11.97.34c.25.23.37.52.37.89s-.12.66-.37.89c-.25.23-.57.34-.97.34s-.75-.11-1-.34Z"></path>
      <path d="m342.15,181.45c.92.5,1.64,1.22,2.16,2.16.52.94.78,2.04.78,3.3s-.26,2.36-.78,3.29c-.52.93-1.24,1.65-2.16,2.15s-1.96.75-3.12.75-2.2-.25-3.12-.75-1.64-1.21-2.17-2.15c-.53-.93-.79-2.03-.79-3.29s.26-2.36.79-3.3c.53-.94,1.25-1.66,2.17-2.16s1.96-.75,3.12-.75,2.2.25,3.12.75Zm-5.11,1.5c-.61.32-1.1.82-1.48,1.49-.37.67-.56,1.49-.56,2.48s.19,1.79.56,2.45c.38.67.87,1.16,1.48,1.49.61.32,1.27.48,1.99.48s1.38-.16,1.99-.48c.61-.32,1.1-.82,1.48-1.49.37-.67.56-1.49.56-2.45s-.19-1.81-.56-2.48-.87-1.16-1.48-1.49c-.61-.32-1.27-.48-1.99-.48s-1.38.16-1.99.48Z"></path>
      <path d="m358.45,180.85v12.09h-2v-2.84c-.31.98-.86,1.74-1.64,2.26-.79.52-1.7.78-2.74.78-1.39,0-2.52-.45-3.39-1.35-.87-.9-1.3-2.2-1.3-3.89v-7.04h2v6.85c0,1.2.31,2.13.92,2.79.62.65,1.45.98,2.51.98s1.98-.36,2.64-1.07.99-1.75.99-3.12v-6.43h2Z"></path>
      <path d="m365.41,181.35c.76-.46,1.67-.69,2.73-.69v2.18h-.62c-1.13,0-2.05.29-2.77.87-.72.58-1.08,1.54-1.08,2.87v6.36h-2v-12.09h2v2.44c.4-.84.98-1.49,1.74-1.95Z"></path>
      <path d="m379.9,182.01c.87.9,1.3,2.21,1.3,3.91v7.02h-2v-6.85c0-1.2-.31-2.13-.92-2.77-.62-.65-1.45-.97-2.51-.97s-1.98.36-2.64,1.07c-.66.71-.99,1.75-.99,3.11v6.41h-2v-12.09h2v2.86c.31-.98.86-1.74,1.64-2.27s1.69-.79,2.72-.79c1.41,0,2.55.45,3.41,1.35Z"></path>
      <path d="m395.31,187.33h-9.67c.04,1.38.44,2.41,1.18,3.1.74.69,1.65,1.03,2.72,1.03.97,0,1.78-.25,2.43-.74.65-.49,1.05-1.15,1.2-1.97h2.14c-.15.84-.47,1.59-.98,2.25-.51.66-1.16,1.17-1.97,1.54-.81.37-1.72.55-2.73.55-1.16,0-2.19-.25-3.08-.75-.9-.5-1.6-1.21-2.1-2.15-.51-.93-.76-2.03-.76-3.29s.25-2.36.76-3.3c.51-.94,1.21-1.66,2.1-2.16.89-.5,1.92-.75,3.08-.75s2.2.25,3.07.75c.87.5,1.54,1.17,2,2,.46.84.69,1.76.69,2.77,0,.43-.03.79-.09,1.1Zm-2.38-3.21c-.34-.6-.8-1.05-1.39-1.34-.59-.29-1.23-.44-1.92-.44-1.1,0-2.03.34-2.77,1.02-.75.68-1.15,1.68-1.21,3h7.73c.04-.89-.1-1.64-.44-2.25Z"></path>
      <path d="m398.85,180.85l3.92,9.51,3.63-9.51h2.22l-7.18,17.81h-2.27l2.51-5.92-5.09-11.89h2.25Z"></path>
    </g>
    <g>
      <g>
        <rect class="cls-3" x="326.02" y="224.05" width="137.73" height="36.29"></rect>
        <rect class="cls-3" x="328.55" y="226.59" width="132.66" height="31.6"></rect>
      </g>
      <g>
        <g>
          <path d="m352.25,245.49v-7.32h1.36v6.17h3.83v1.15h-5.18Z"></path>
          <path d="m359.87,244.35h4.13v1.14h-5.49v-7.32h5.34v1.14h-3.98v5.04Zm-.1-3.14h3.64v1.12h-3.64v-1.12Z"></path>
          <path d="m364.48,245.49l3.29-7.32h1.34l3.3,7.32h-1.42l-2.83-6.59h.54l-2.82,6.59h-1.4Zm1.52-1.69l.37-1.07h3.95l.37,1.07h-4.68Z"></path>
          <path d="m373.34,245.49v-7.32h3.01c.65,0,1.2.1,1.67.31.46.21.82.51,1.07.9.25.39.38.85.38,1.39s-.13,1-.38,1.38c-.25.39-.61.68-1.07.89-.46.21-1.02.31-1.67.31h-2.26l.61-.62v2.75h-1.36Zm1.36-2.6l-.61-.65h2.2c.6,0,1.05-.13,1.35-.39.3-.26.46-.62.46-1.08s-.15-.83-.46-1.08c-.3-.25-.75-.38-1.35-.38h-2.2l.61-.67v4.23Zm3.43,2.6l-1.85-2.65h1.45l1.86,2.65h-1.46Z"></path>
          <path d="m380.98,245.49v-7.32h1.12l4.59,5.63h-.55v-5.63h1.35v7.32h-1.12l-4.59-5.63h.55v5.63h-1.35Z"></path>
          <path class="cls-1" d="m392.33,245.49v-7.32h1.12l3.2,5.34h-.58l3.15-5.34h1.12v7.32s-1.27,0-1.27,0v-5.3s.26,0,.26,0l-2.67,4.46h-.61l-2.72-4.46h.31v5.3h-1.3Z"></path>
          <path class="cls-1" d="m405.74,245.59c-.57,0-1.1-.09-1.58-.28-.48-.19-.9-.45-1.25-.79-.36-.34-.63-.73-.83-1.19-.19-.46-.29-.96-.29-1.5s.1-1.04.29-1.5c.2-.46.47-.85.83-1.19s.77-.6,1.25-.79c.48-.19,1-.28,1.57-.28s1.1.09,1.57.28c.48.19.89.45,1.25.79.36.34.63.74.83,1.19.19.46.29.96.29,1.5s-.1,1.04-.29,1.5c-.2.46-.47.86-.83,1.19-.35.33-.77.6-1.25.78-.48.19-1,.28-1.56.28Zm-.01-1.19c.37,0,.71-.06,1.02-.19.31-.13.58-.3.82-.54.23-.23.41-.51.54-.82s.19-.65.19-1.03-.06-.72-.19-1.03c-.13-.31-.31-.58-.54-.82-.23-.23-.5-.41-.82-.54s-.66-.19-1.02-.19-.71.06-1.02.19c-.31.12-.58.3-.82.54s-.41.5-.54.82c-.13.31-.19.65-.19,1.03s.06.71.19,1.02.31.59.54.82c.23.23.5.41.81.54.31.12.66.19,1.02.19Z"></path>
          <path class="cls-1" d="m411.11,245.49v-7.32h3.01c.65,0,1.2.1,1.67.31.46.21.82.51,1.07.9.25.39.38.85.38,1.39s-.13,1-.38,1.38c-.25.39-.61.68-1.07.89-.46.21-1.02.31-1.67.31h-2.26l.61-.62v2.75h-1.36Zm1.36-2.6l-.61-.65h2.2c.6,0,1.05-.13,1.35-.39.3-.26.46-.62.46-1.08s-.15-.83-.46-1.08c-.3-.25-.75-.38-1.35-.38h-2.2l.61-.67v4.23Zm3.43,2.6l-1.85-2.65h1.45l1.86,2.65h-1.46Z"></path>
          <path class="cls-1" d="m420.11,244.35h4.13v1.14h-5.49v-7.32h5.34v1.14h-3.98v5.04Zm-.1-3.14h3.64v1.12h-3.64v-1.12Z"></path>
        </g>
        <polygon class="cls-1" points="437.48 244.18 427.66 244.18 432.38 239.47 437.48 244.18"></polygon>
      </g>
    </g>
  </g>
</svg>
